<svg xmlns="http://www.w3.org/2000/svg" xmlns:xlink="http://www.w3.org/1999/xlink" xmlns:lucid="lucid" width="1378" height="1249"><g transform="translate(0 0)" lucid:page-tab-id="0_0"><path d="M262.63 48a8 8 0 0 1 8-8h836.75a8 8 0 0 1 8 8v25.16a8 8 0 0 1-8 8H270.6a8 8 0 0 1-8-8z" stroke="#000" stroke-opacity="0" stroke-width="2" fill="#fff" fill-opacity="0"/><use xlink:href="#a" transform="matrix(1,0,0,1,266.62524576594296,44) translate(269.5328395061729 25.782777777777778)"/><use xlink:href="#b" transform="matrix(1,0,0,1,266.62524576594296,44) translate(396.05506172839506 25.782777777777778)"/><use xlink:href="#c" transform="matrix(1,0,0,1,266.62524576594296,44) translate(464.3785185185185 25.782777777777778)"/><path d="M438.1 79.8h505.87M438.14 79.8h-1.03M943.95 79.8h1.02" stroke="#a9afb8" stroke-width="2" fill="none"/><path d="M262.63 89.16a8 8 0 0 1 8-8h837.7a8 8 0 0 1 8 8V92a8 8 0 0 1-8 8h-837.7a8 8 0 0 1-8-8z" stroke="#000" stroke-opacity="0" stroke-width="2" fill="#fff" fill-opacity="0"/><use xlink:href="#d" transform="matrix(1,0,0,1,266.6252457659434,85.15522395689881) translate(303.36601851851856 14.917037037037037)"/><use xlink:href="#e" transform="matrix(1,0,0,1,266.6252457659434,85.15522395689881) translate(357.837829218107 14.917037037037037)"/><use xlink:href="#f" transform="matrix(1,0,0,1,266.6252457659434,85.15522395689881) translate(402.664475308642 14.917037037037037)"/><use xlink:href="#g" transform="matrix(1,0,0,1,266.6252457659434,85.15522395689881) translate(415.1139609053498 14.917037037037037)"/><use xlink:href="#h" transform="matrix(1,0,0,1,266.6252457659434,85.15522395689881) translate(489.76838477366255 14.917037037037037)"/><use xlink:href="#i" transform="matrix(1,0,0,1,266.6252457659434,85.15522395689881) translate(515.2622119341564 14.917037037037037)"/><path d="M1101.92 325.22a15.24 15.24 0 0 1 14.16 0l52.5 27.56a4.2 4.2 0 0 1 0 7.44l-52.5 27.56a15.24 15.24 0 0 1-14.16 0l-52.5-27.56a4.2 4.2 0 0 1 0-7.44z" stroke="#3a414a" fill="#c3f7c8"/><path d="M1009 335.25a5 5 0 0 1 5-5h190a5 5 0 0 1 5 5v42.5a5 5 0 0 1-5 5h-190a5 5 0 0 1-5-5z" fill="none"/><use xlink:href="#j" transform="matrix(1,0,0,1,1009,330.2510227044821) translate(66.025 30.1)"/><path d="M568.03 470.4a15.24 15.24 0 0 1 14.16 0l52.5 27.55a4.2 4.2 0 0 1 0 7.44l-52.5 27.55a15.24 15.24 0 0 1-14.17 0l-52.5-27.56a4.2 4.2 0 0 1 0-7.45z" stroke="#3a414a" fill="#c3f7c8"/><path d="M475.1 480.42a5 5 0 0 1 5-5h190a5 5 0 0 1 5 5v42.5a5 5 0 0 1-5 5h-190a5 5 0 0 1-5-5z" fill="none"/><use xlink:href="#k" transform="matrix(1,0,0,1,475.11103455413354,475.42242102519015) translate(90 14.4)"/><use xlink:href="#l" transform="matrix(1,0,0,1,475.11103455413354,475.42242102519015) translate(45.05 36)"/><use xlink:href="#m" transform="matrix(1,0,0,1,475.11103455413354,475.42242102519015) translate(92.5 57.6)"/><path d="M1101.92 578.05a15.24 15.24 0 0 1 14.16 0l52.5 27.56a4.2 4.2 0 0 1 0 7.45l-52.5 27.56a15.24 15.24 0 0 1-14.16 0l-52.5-27.55a4.2 4.2 0 0 1 0-7.44z" stroke="#3a414a" fill="#c3f7c8"/><path d="M1009 588.08a5 5 0 0 1 5-5h190a5 5 0 0 1 5 5v42.5a5 5 0 0 1-5 5h-190a5 5 0 0 1-5-5z" fill="none"/><use xlink:href="#n" transform="matrix(1,0,0,1,1009,583.079574741215) translate(90 30.1)"/><path d="M261.92 690.4a15.24 15.24 0 0 1 14.16 0l52.5 27.55a4.2 4.2 0 0 1 0 7.44l-52.5 27.55a15.24 15.24 0 0 1-14.16 0l-52.5-27.56a4.2 4.2 0 0 1 0-7.45z" stroke="#3a414a" fill="#c3f7c8"/><path d="M169 700.42a5 5 0 0 1 5-5h190a5 5 0 0 1 5 5v42.5a5 5 0 0 1-5 5H174a5 5 0 0 1-5-5z" fill="none"/><use xlink:href="#o" transform="matrix(1,0,0,1,168.99999999999994,695.4224210251901) translate(82.05 30.1)"/><path d="M568.03 898.4a15.24 15.24 0 0 1 14.16 0l52.5 27.55a4.2 4.2 0 0 1 0 7.44l-52.5 27.55a15.24 15.24 0 0 1-14.17 0l-52.5-27.56a4.2 4.2 0 0 1 0-7.45z" stroke="#3a414a" fill="#c3f7c8"/><path d="M475.1 908.42a5 5 0 0 1 5-5h190a5 5 0 0 1 5 5v42.5a5 5 0 0 1-5 5h-190a5 5 0 0 1-5-5z" fill="none"/><use xlink:href="#p" transform="matrix(1,0,0,1,475.11103455413354,903.4224210251901) translate(84.05 30.1)"/><path d="M1101.92 912.28a15.24 15.24 0 0 1 14.16 0l52.5 27.56a4.2 4.2 0 0 1 0 7.44l-52.5 27.56a15.24 15.24 0 0 1-14.16 0l-52.5-27.56a4.2 4.2 0 0 1 0-7.44z" stroke="#3a414a" fill="#c3f7c8"/><path d="M1009 922.3a5 5 0 0 1 5-5h190a5 5 0 0 1 5 5v42.5a5 5 0 0 1-5 5h-190a5 5 0 0 1-5-5z" fill="none"/><use xlink:href="#q" transform="matrix(1,0,0,1,1009,917.3081389305318) translate(68.55 30.1)"/><path d="M854.7 751.64a15.24 15.24 0 0 1 14.16 0l52.5 27.56a4.2 4.2 0 0 1 0 7.44l-52.5 27.56a15.24 15.24 0 0 1-14.16 0l-52.5-27.56a4.2 4.2 0 0 1 0-7.44z" stroke="#3a414a" fill="#c3f7c8"/><path d="M761.78 761.67a5 5 0 0 1 5-5h190a5 5 0 0 1 5 5v42.5a5 5 0 0 1-5 5h-190a5 5 0 0 1-5-5z" fill="none"/><use xlink:href="#r" transform="matrix(1,0,0,1,761.7777012208002,756.6724210251901) translate(93.025 30.1)"/><path d="M969 123.33a5 5 0 0 1 5-5h270a5 5 0 0 1 5 5v158a5 5 0 0 1-5 5H974a5 5 0 0 1-5-5z" fill="#fff"/><path d="M969 158.33v-35a5 5 0 0 1 5-5h270a5 5 0 0 1 5 5v35" fill="#fe7070"/><path d="M969 123.33a5 5 0 0 1 5-5h270a5 5 0 0 1 5 5v158a5 5 0 0 1-5 5H974a5 5 0 0 1-5-5zM969 158.33h280M1043.46 158.33v128M1153.48 158.33v128" stroke="#282c33" fill="none"/><use xlink:href="#s" transform="matrix(1,0,0,1,979,118.3296243837741) translate(92.57499999999999 23.6)"/><use xlink:href="#t" transform="matrix(1,0,0,1,974,160.8296243837741) translate(25.525 17.1)"/><use xlink:href="#u" transform="matrix(1,0,0,1,1048.4602794412094,160.8296243837741) translate(29.075 17.1)"/><use xlink:href="#v" transform="matrix(1,0,0,1,1158.4830525225789,160.8296243837741) translate(31 17.1)"/><use xlink:href="#w" transform="matrix(1,0,0,1,974,192.8296243837741) translate(10.024999999999999 17.1)"/><use xlink:href="#x" transform="matrix(1,0,0,1,1048.4602794412094,192.8296243837741) translate(4.599999999999994 17.1)"/><use xlink:href="#y" transform="matrix(1,0,0,1,1158.4830525225789,192.8296243837741) translate(31.525 17.1)"/><use xlink:href="#z" transform="matrix(1,0,0,1,974,224.8296243837741) translate(4.024999999999999 17.1)"/><use xlink:href="#A" transform="matrix(1,0,0,1,1048.4602794412094,224.8296243837741) translate(41.025 17.1)"/><use xlink:href="#B" transform="matrix(1,0,0,1,1158.4830525225789,224.8296243837741) translate(31.525 17.1)"/><use xlink:href="#C" transform="matrix(1,0,0,1,974,256.8296243837741) translate(8.524999999999999 17.1)"/><use xlink:href="#A" transform="matrix(1,0,0,1,1048.4602794412094,256.8296243837741) translate(41.025 17.1)"/><use xlink:href="#B" transform="matrix(1,0,0,1,1158.4830525225789,256.8296243837741) translate(31.525 17.1)"/><path d="M1108.9 306.24v16.24" stroke="#3a414a" fill="none"/><path d="M1118.9 287.05l-10 20-10-20" stroke="#3a414a" fill="#fff" fill-opacity="0"/><path d="M1108.9 287.05v20" stroke="#3a414a" fill="#fff"/><path d="M1109.4 323l-.4-.03-.6.03v-.54h1z" stroke="#3a414a" stroke-width=".05" fill="#3a414a"/><path d="M969 431.67a5 5 0 0 1 5-5h270a5 5 0 0 1 5 5v94a5 5 0 0 1-5 5H974a5 5 0 0 1-5-5z" fill="#fff"/><path d="M969 466.67v-35a5 5 0 0 1 5-5h270a5 5 0 0 1 5 5v35" fill="#6db1ff"/><path d="M969 431.67a5 5 0 0 1 5-5h270a5 5 0 0 1 5 5v94a5 5 0 0 1-5 5H974a5 5 0 0 1-5-5zM969 466.67h280M1080.7 466.67v64M1197.75 466.67v64" stroke="#282c33" fill="none"/><use xlink:href="#D" transform="matrix(1,0,0,1,979,426.67242102519015) translate(84.55 23.6)"/><use xlink:href="#t" transform="matrix(1,0,0,1,974,469.17242102519015) translate(44.025 17.1)"/><use xlink:href="#u" transform="matrix(1,0,0,1,1085.7063159626255,469.17242102519015) translate(32.575 17.1)"/><use xlink:href="#v" transform="matrix(1,0,0,1,1202.7541756010567,469.17242102519015) translate(9 17.1)"/><use xlink:href="#w" transform="matrix(1,0,0,1,974,501.17242102519015) translate(28.525 17.1)"/><use xlink:href="#x" transform="matrix(1,0,0,1,1085.7063159626255,501.17242102519015) translate(8.099999999999994 17.1)"/><path d="M1109 551.17v24.13" stroke="#3a414a" fill="none"/><path d="M1099 551.17h20M1109 531.17v20" stroke="#3a414a" fill="#fff"/><path d="M1109.5 575.83l-.5-.03-.5.03v-.54h1z" stroke="#3a414a" stroke-width=".05" fill="#3a414a"/><path d="M1109 390.53v15.64" stroke="#3a414a" fill="none"/><path d="M1109 390.03l.5-.02v.54h-1V390z" stroke="#3a414a" stroke-width=".05" fill="#3a414a"/><path d="M1119 406.17h-20M1109 426.17v-20" stroke="#3a414a" fill="#fff"/><path d="M435.1 578.67a5 5 0 0 1 5-5h270a5 5 0 0 1 5 5v254a5 5 0 0 1-5 5h-270a5 5 0 0 1-5-5z" fill="#fff"/><path d="M435.1 613.67v-35a5 5 0 0 1 5-5h270a5 5 0 0 1 5 5v35" fill="#fe7070"/><path d="M435.1 578.67a5 5 0 0 1 5-5h270a5 5 0 0 1 5 5v254a5 5 0 0 1-5 5h-270a5 5 0 0 1-5-5zM435.1 613.67h280M524.57 613.67v224M617.93 613.67v224" stroke="#282c33" fill="none"/><use xlink:href="#E" transform="matrix(1,0,0,1,445.11103455413354,573.6724210251901) translate(98.575 23.6)"/><use xlink:href="#t" transform="matrix(1,0,0,1,440.11103455413354,616.1724210251901) translate(33.025 17.1)"/><use xlink:href="#u" transform="matrix(1,0,0,1,529.5744194155296,616.1724210251901) translate(20.575 17.1)"/><use xlink:href="#v" transform="matrix(1,0,0,1,622.9270753633584,616.1724210251901) translate(32 17.1)"/><use xlink:href="#F" transform="matrix(1,0,0,1,440.11103455413354,648.1724210251901) translate(18 17.1)"/><use xlink:href="#G" transform="matrix(1,0,0,1,529.5744194155296,648.1724210251901) translate(32.525 17.1)"/><use xlink:href="#B" transform="matrix(1,0,0,1,622.9270753633584,648.1724210251901) translate(32.525 17.1)"/><use xlink:href="#z" transform="matrix(1,0,0,1,440.11103455413354,680.1724210251901) translate(11.524999999999999 17.1)"/><use xlink:href="#A" transform="matrix(1,0,0,1,529.5744194155296,680.1724210251901) translate(32.525 17.1)"/><use xlink:href="#B" transform="matrix(1,0,0,1,622.9270753633584,680.1724210251901) translate(32.525 17.1)"/><use xlink:href="#C" transform="matrix(1,0,0,1,440.11103455413354,712.1724210251901) translate(16.025 17.1)"/><use xlink:href="#A" transform="matrix(1,0,0,1,529.5744194155296,712.1724210251901) translate(32.525 17.1)"/><use xlink:href="#B" transform="matrix(1,0,0,1,622.9270753633584,712.1724210251901) translate(32.525 17.1)"/><use xlink:href="#H" transform="matrix(1,0,0,1,440.11103455413354,744.1724210251901) translate(9.049999999999997 17.1)"/><use xlink:href="#A" transform="matrix(1,0,0,1,529.5744194155296,744.1724210251901) translate(32.525 17.1)"/><use xlink:href="#B" transform="matrix(1,0,0,1,622.9270753633584,744.1724210251901) translate(32.525 17.1)"/><use xlink:href="#I" transform="matrix(1,0,0,1,440.11103455413354,776.1724210251901) translate(16 17.1)"/><use xlink:href="#J" transform="matrix(1,0,0,1,529.5744194155296,776.1724210251901) translate(32.525 17.1)"/><use xlink:href="#K" transform="matrix(1,0,0,1,622.9270753633584,776.1724210251901) translate(32.525 17.1)"/><use xlink:href="#L" transform="matrix(1,0,0,1,440.11103455413354,808.1724210251901) translate(8.524999999999999 17.1)"/><use xlink:href="#M" transform="matrix(1,0,0,1,529.5744194155296,808.1724210251901) translate(22.525 17.1)"/><path d="M969 697.44a5 5 0 0 1 5-5h270a5 5 0 0 1 5 5v158a5 5 0 0 1-5 5H974a5 5 0 0 1-5-5z" fill="#fff"/><path d="M969 732.44v-35a5 5 0 0 1 5-5h270a5 5 0 0 1 5 5v35" fill="#fe7070"/><path d="M969 697.44a5 5 0 0 1 5-5h270a5 5 0 0 1 5 5v158a5 5 0 0 1-5 5H974a5 5 0 0 1-5-5zM969 732.44h280M1141.63 732.44v128M1199.98 732.44v128" stroke="#282c33" fill="none"/><use xlink:href="#N" transform="matrix(1,0,0,1,979,692.4438568358734) translate(80.07499999999999 23.6)"/><use xlink:href="#t" transform="matrix(1,0,0,1,974,734.9438568358734) translate(74.525 17.1)"/><use xlink:href="#u" transform="matrix(1,0,0,1,1146.633501994937,734.9438568358734) translate(3.0749999999999993 17.1)"/><use xlink:href="#v" transform="matrix(1,0,0,1,1204.97891196233,734.9438568358734) translate(8 17.1)"/><use xlink:href="#O" transform="matrix(1,0,0,1,974,766.9438568358734) translate(44.05 17.1)"/><use xlink:href="#G" transform="matrix(1,0,0,1,1146.633501994937,766.9438568358734) translate(15.025 17.1)"/><use xlink:href="#B" transform="matrix(1,0,0,1,1204.97891196233,766.9438568358734) translate(8.524999999999999 17.1)"/><use xlink:href="#P" transform="matrix(1,0,0,1,974,798.9438568358734) translate(16.099999999999994 17.1)"/><use xlink:href="#A" transform="matrix(1,0,0,1,1146.633501994937,798.9438568358734) translate(15.025 17.1)"/><use xlink:href="#B" transform="matrix(1,0,0,1,1204.97891196233,798.9438568358734) translate(8.524999999999999 17.1)"/><use xlink:href="#Q" transform="matrix(1,0,0,1,974,830.9438568358734) translate(2.0999999999999943 17.1)"/><use xlink:href="#A" transform="matrix(1,0,0,1,1146.633501994937,830.9438568358734) translate(15.025 17.1)"/><use xlink:href="#B" transform="matrix(1,0,0,1,1204.97891196233,830.9438568358734) translate(8.524999999999999 17.1)"/><path d="M1109 662.86v9.67" stroke="#3a414a" fill="none"/><path d="M1099 662.86h20M1109 642.86v20" stroke="#3a414a" fill="#fff"/><path d="M1099 691.72l10-20 10 20" stroke="#3a414a" fill="#fff" fill-opacity="0"/><path d="M1109 691.72v-20" stroke="#3a414a" fill="#fff"/><path d="M1109 880.36v29.17" stroke="#3a414a" fill="none"/><path d="M1119 861.17l-10 20-10-20" stroke="#3a414a" fill="#fff" fill-opacity="0"/><path d="M1109 861.17v20" stroke="#3a414a" fill="#fff"/><path d="M1109.5 910.05l-.5-.02-.5.02v-.53h1z" stroke="#3a414a" stroke-width=".05" fill="#3a414a"/><path d="M735.02 593.27h114.76a12 12 0 0 1 12 12V748.9" stroke="#3a414a" fill="none"/><path d="M715.84 583.27l20 10-20 10" stroke="#3a414a" fill="#fff" fill-opacity="0"/><path d="M715.84 593.27h20" stroke="#3a414a" fill="#fff"/><path d="M862.28 749.42l-.5-.03-.5.02v-.54h1z" stroke="#3a414a" stroke-width=".05" fill="#3a414a"/><path d="M415.2 593.27H281a12 12 0 0 0-12 12v82.37" stroke="#3a414a" fill="none"/><path d="M434.4 603.27l-20-10 20-10" stroke="#3a414a" fill="#fff" fill-opacity="0"/><path d="M434.4 593.27h-20" stroke="#3a414a" fill="#fff"/><path d="M269.5 688.17l-.5-.03-.5.03v-.54h1z" stroke="#3a414a" stroke-width=".05" fill="#3a414a"/><path d="M575.1 858.17v37.47" stroke="#3a414a" fill="none"/><path d="M565.1 858.17h20M575.1 838.17v20" stroke="#3a414a" fill="#fff"/><path d="M575.6 896.17l-.5-.03-.5.03v-.54h1z" stroke="#3a414a" stroke-width=".05" fill="#3a414a"/><path d="M129 879.56a5 5 0 0 1 5-5h270a5 5 0 0 1 5 5v94a5 5 0 0 1-5 5H134a5 5 0 0 1-5-5z" fill="#fff"/><path d="M129 914.56v-35a5 5 0 0 1 5-5h270a5 5 0 0 1 5 5v35" fill="#6db1ff"/><path d="M129 879.56a5 5 0 0 1 5-5h270a5 5 0 0 1 5 5v94a5 5 0 0 1-5 5H134a5 5 0 0 1-5-5zM129 914.56h280M235.24 914.56v64M351.93 914.56v64" stroke="#282c33" fill="none"/><use xlink:href="#R" transform="matrix(1,0,0,1,139,874.5581389305319) translate(101.55 23.6)"/><use xlink:href="#t" transform="matrix(1,0,0,1,134,917.0581389305319) translate(41.525 17.1)"/><use xlink:href="#u" transform="matrix(1,0,0,1,240.234945721038,917.0581389305319) translate(32.075 17.1)"/><use xlink:href="#v" transform="matrix(1,0,0,1,356.9257656558241,917.0581389305319) translate(12 17.1)"/><use xlink:href="#w" transform="matrix(1,0,0,1,134,949.0581389305319) translate(26.025 17.1)"/><use xlink:href="#x" transform="matrix(1,0,0,1,240.234945721038,949.0581389305319) translate(7.599999999999994 17.1)"/><path d="M269 755.7v98.36" stroke="#3a414a" fill="none"/><path d="M269 755.2l.5-.02v.53h-1v-.52z" stroke="#3a414a" stroke-width=".05" fill="#3a414a"/><path d="M279 854.06h-20M269 874.06v-20" stroke="#3a414a" fill="#fff"/><path d="M435.1 1031.67a5 5 0 0 1 5-5h270a5 5 0 0 1 5 5v94a5 5 0 0 1-5 5h-270a5 5 0 0 1-5-5z" fill="#fff"/><path d="M435.1 1066.67v-35a5 5 0 0 1 5-5h270a5 5 0 0 1 5 5v35" fill="#ffe342"/><path d="M435.1 1031.67a5 5 0 0 1 5-5h270a5 5 0 0 1 5 5v94a5 5 0 0 1-5 5h-270a5 5 0 0 1-5-5zM435.1 1066.67h280M548 1066.67v64M653.04 1066.67v64" stroke="#282c33" fill="none"/><use xlink:href="#S" transform="matrix(1,0,0,1,445.11103455413354,1026.67242102519) translate(103.575 23.6)"/><use xlink:href="#t" transform="matrix(1,0,0,1,440.11103455413354,1069.17242102519) translate(44.525 17.1)"/><use xlink:href="#u" transform="matrix(1,0,0,1,553.0140271285879,1069.17242102519) translate(26.575 17.1)"/><use xlink:href="#v" transform="matrix(1,0,0,1,658.0357650698954,1069.17242102519) translate(14.5 17.1)"/><use xlink:href="#T" transform="matrix(1,0,0,1,440.11103455413354,1101.17242102519) translate(8.074999999999996 17.1)"/><use xlink:href="#x" transform="matrix(1,0,0,1,553.0140271285879,1101.17242102519) translate(2.0999999999999943 17.1)"/><path d="M575.1 963.7v42.47" stroke="#3a414a" fill="none"/><path d="M575.1 963.2l.5-.02v.53h-1v-.52z" stroke="#3a414a" stroke-width=".05" fill="#3a414a"/><path d="M585.1 1006.17h-20M575.1 1026.17v-20" stroke="#3a414a" fill="#fff"/><path d="M969 1031.67a5 5 0 0 1 5-5h270a5 5 0 0 1 5 5v94a5 5 0 0 1-5 5H974a5 5 0 0 1-5-5z" fill="#fff"/><path d="M969 1066.67v-35a5 5 0 0 1 5-5h270a5 5 0 0 1 5 5v35" fill="#6db1ff"/><path d="M969 1031.67a5 5 0 0 1 5-5h270a5 5 0 0 1 5 5v94a5 5 0 0 1-5 5H974a5 5 0 0 1-5-5zM969 1066.67h280M1078.57 1066.67v64M1185.26 1066.67v64" stroke="#282c33" fill="none"/><use xlink:href="#U" transform="matrix(1,0,0,1,979,1026.67242102519) translate(90.6 23.6)"/><use xlink:href="#t" transform="matrix(1,0,0,1,974,1069.17242102519) translate(43.025 17.1)"/><use xlink:href="#u" transform="matrix(1,0,0,1,1083.5689691477462,1069.17242102519) translate(27.075 17.1)"/><use xlink:href="#v" transform="matrix(1,0,0,1,1190.2577188024077,1069.17242102519) translate(15 17.1)"/><use xlink:href="#w" transform="matrix(1,0,0,1,974,1101.17242102519) translate(27.525 17.1)"/><use xlink:href="#x" transform="matrix(1,0,0,1,1083.5689691477462,1101.17242102519) translate(2.5999999999999943 17.1)"/><path d="M861.78 816.95v217.6a12 12 0 0 0 12 12h74.72" stroke="#3a414a" fill="none"/><path d="M861.78 816.45l.5-.02v.53h-1v-.53z" stroke="#3a414a" stroke-width=".05" fill="#3a414a"/><path d="M948.5 1036.56v20M968.5 1046.56h-20" stroke="#3a414a" fill="#fff"/><path d="M1109 977.6v28.57" stroke="#3a414a" fill="none"/><path d="M1109 977.1l.5-.04v.54h-1v-.54z" stroke="#3a414a" stroke-width=".05" fill="#3a414a"/><path d="M1119 1006.17h-20M1109 1026.17v-20" stroke="#3a414a" fill="#fff"/><path d="M435.3 271.67a5 5 0 0 1 5-5h270a5 5 0 0 1 5 5v126a5 5 0 0 1-5 5h-270a5 5 0 0 1-5-5z" fill="#fff"/><path d="M435.3 306.67v-35a5 5 0 0 1 5-5h270a5 5 0 0 1 5 5v35" fill="#fe7070"/><path d="M435.3 271.67a5 5 0 0 1 5-5h270a5 5 0 0 1 5 5v126a5 5 0 0 1-5 5h-270a5 5 0 0 1-5-5zM435.3 306.67h280M514.3 306.67v96M633.6 306.67v96" stroke="#282c33" fill="none"/><use xlink:href="#V" transform="matrix(1,0,0,1,445.29310557068675,266.67242102519015) translate(99.6 23.6)"/><use xlink:href="#t" transform="matrix(1,0,0,1,440.29310557068675,309.17242102519015) translate(27.525 17.1)"/><use xlink:href="#G" transform="matrix(1,0,0,1,519.2919114632809,309.17242102519015) translate(45.525 17.1)"/><use xlink:href="#v" transform="matrix(1,0,0,1,638.6022894817405,309.17242102519015) translate(24 17.1)"/><use xlink:href="#w" transform="matrix(1,0,0,1,440.29310557068675,341.17242102519015) translate(12.024999999999999 17.1)"/><use xlink:href="#x" transform="matrix(1,0,0,1,519.2919114632809,341.17242102519015) translate(9.099999999999994 17.1)"/><use xlink:href="#W" transform="matrix(1,0,0,1,440.29310557068675,373.17242102519015) translate(1.5749999999999957 17.1)"/><use xlink:href="#A" transform="matrix(1,0,0,1,519.2919114632809,373.17242102519015) translate(45.525 17.1)"/><use xlink:href="#B" transform="matrix(1,0,0,1,638.6022894817405,373.17242102519015) translate(24.525 17.1)"/><path d="M841.92 255.22a15.24 15.24 0 0 1 14.16 0l52.5 27.56a4.2 4.2 0 0 1 0 7.44l-52.5 27.56a15.24 15.24 0 0 1-14.16 0l-52.5-27.56a4.2 4.2 0 0 1 0-7.44z" stroke="#3a414a" fill="#c3f7c8"/><path d="M749 265.25a5 5 0 0 1 5-5h190a5 5 0 0 1 5 5v42.5a5 5 0 0 1-5 5H754a5 5 0 0 1-5-5z" fill="none"/><use xlink:href="#X" transform="matrix(1,0,0,1,749,260.2510227044821) translate(71.025 30.1)"/><path d="M949.1 446.56a9.17 9.17 0 0 1-9.18-9.17V298.5a12 12 0 0 0-12-12h-16.1" stroke="#3a414a" fill="none"/><path d="M968.28 456.56l-20-10 20-10" stroke="#3a414a" fill="#fff" fill-opacity="0"/><path d="M968.28 446.56h-20" stroke="#3a414a" fill="#fff"/><path d="M911.85 287h-.57l.05-.5-.05-.5h.57z" stroke="#3a414a" stroke-width=".05" fill="#3a414a"/><path d="M735.8 286.5h50.37" stroke="#3a414a" fill="none"/><path d="M735.8 296.5v-20M715.8 286.5h20" stroke="#3a414a" fill="#fff"/><path d="M786.67 286.5l.05.5h-.57v-1h.57z" stroke="#3a414a" stroke-width=".05" fill="#3a414a"/><path d="M575.3 423.17v25.57" stroke="#3a414a" fill="none"/><path d="M565.3 423.17h20M575.3 403.17v20" stroke="#3a414a" fill="#fff"/><path d="M565.3 467.93l10-20 10 20" stroke="#3a414a" fill="#fff" fill-opacity="0"/><path d="M575.3 467.93v-20" stroke="#3a414a" fill="#fff"/><path d="M575.1 554.6v18.07" stroke="#3a414a" fill="none"/><path d="M585.1 535.42l-10 20-10-20" stroke="#3a414a" fill="#fff" fill-opacity="0"/><path d="M575.1 535.42v20" stroke="#3a414a" fill="#fff"/><path d="M575.6 573.17h-1v-.5h1z" stroke="#3a414a" stroke-width=".05" fill="#3a414a"/><defs><path fill="#a9afb8" d="M24-248c120-7 223 5 221 122C244-46 201 0 124 0H24v-248zM76-40c74 7 117-18 117-86 0-67-45-88-117-82v168" id="Y"/><path fill="#a9afb8" d="M133-34C117-15 103 5 69 4 32 3 11-16 11-54c-1-60 55-63 116-61 1-26-3-47-28-47-18 1-26 9-28 27l-52-2c7-38 36-58 82-57s74 22 75 68l1 82c-1 14 12 18 25 15v27c-30 8-71 5-69-32zm-48 3c29 0 43-24 42-57-32 0-66-3-65 30 0 17 8 27 23 27" id="Z"/><path fill="#a9afb8" d="M115-3C79 11 28 4 28-45v-112H4v-33h27l15-45h31v45h36v33H77v99c-1 23 16 31 38 25v30" id="aa"/><path fill="#a9afb8" d="M182-130c37 4 62 22 62 59C244 23 116-4 24 0v-248c84 5 203-23 205 63 0 31-19 50-47 55zM76-148c40-3 101 13 101-30 0-44-60-28-101-31v61zm0 110c48-3 116 14 116-37 0-48-69-32-116-35v72" id="ab"/><path fill="#a9afb8" d="M137-138c1-29-70-34-71-4 15 46 118 7 119 86 1 83-164 76-172 9l43-7c4 19 20 25 44 25 33 8 57-30 24-41C81-84 22-81 20-136c-2-80 154-74 161-7" id="ac"/><path fill="#a9afb8" d="M185-48c-13 30-37 53-82 52C43 2 14-33 14-96s30-98 90-98c62 0 83 45 84 108H66c0 31 8 55 39 56 18 0 30-7 34-22zm-45-69c5-46-57-63-70-21-2 6-4 13-4 21h74" id="ad"/><g id="a"><use transform="matrix(0.0728395061728395,0,0,0.0728395061728395,0,0)" xlink:href="#Y"/><use transform="matrix(0.0728395061728395,0,0,0.0728395061728395,18.86543209876543,0)" xlink:href="#Z"/><use transform="matrix(0.0728395061728395,0,0,0.0728395061728395,33.43333333333333,0)" xlink:href="#aa"/><use transform="matrix(0.0728395061728395,0,0,0.0728395061728395,42.10123456790124,0)" xlink:href="#Z"/><use transform="matrix(0.0728395061728395,0,0,0.0728395061728395,56.66913580246913,0)" xlink:href="#ab"/><use transform="matrix(0.0728395061728395,0,0,0.0728395061728395,75.53456790123457,0)" xlink:href="#Z"/><use transform="matrix(0.0728395061728395,0,0,0.0728395061728395,90.10246913580247,0)" xlink:href="#ac"/><use transform="matrix(0.0728395061728395,0,0,0.0728395061728395,104.67037037037036,0)" xlink:href="#ad"/></g><path fill="#a9afb8" d="M24 0v-248h52v208h133V0H24" id="ae"/><path fill="#a9afb8" d="M135-194c52 0 70 43 70 98 0 56-19 99-73 100-30 1-46-15-58-35L72 0H24l1-261h50v104c11-23 29-37 60-37zM114-30c31 0 40-27 40-66 0-37-7-63-39-63s-41 28-41 65c0 36 8 64 40 64" id="af"/><path fill="#a9afb8" d="M23 0v-37h61v-169l-59 37v-38l62-41h46v211h57V0H23" id="ag"/><g id="b"><use transform="matrix(0.0728395061728395,0,0,0.0728395061728395,0,0)" xlink:href="#ae"/><use transform="matrix(0.0728395061728395,0,0,0.0728395061728395,15.95185185185185,0)" xlink:href="#Z"/><use transform="matrix(0.0728395061728395,0,0,0.0728395061728395,30.51975308641975,0)" xlink:href="#af"/><use transform="matrix(0.0728395061728395,0,0,0.0728395061728395,46.471604938271604,0)" xlink:href="#ag"/></g><path fill="#a9afb8" d="M25 0v-261h50V0H25" id="ah"/><path fill="#a9afb8" d="M110-194c64 0 96 36 96 99 0 64-35 99-97 99-61 0-95-36-95-99 0-62 34-99 96-99zm-1 164c35 0 45-28 45-65 0-40-10-65-43-65-34 0-45 26-45 65 0 36 10 65 43 65" id="ai"/><path fill="#a9afb8" d="M195-6C206 82 75 100 31 46c-4-6-6-13-8-21l49-6c3 16 16 24 34 25 40 0 42-37 40-79-11 22-30 35-61 35-53 0-70-43-70-97 0-56 18-96 73-97 30 0 46 14 59 34l2-30h47zm-90-29c32 0 41-27 41-63 0-35-9-62-40-62-32 0-39 29-40 63 0 36 9 62 39 62" id="aj"/><path fill="#a9afb8" d="M25-224v-37h50v37H25zM25 0v-190h50V0H25" id="ak"/><path fill="#a9afb8" d="M190-63c-7 42-38 67-86 67-59 0-84-38-90-98-12-110 154-137 174-36l-49 2c-2-19-15-32-35-32-30 0-35 28-38 64-6 74 65 87 74 30" id="al"/><g id="c"><use transform="matrix(0.0728395061728395,0,0,0.0728395061728395,0,0)" xlink:href="#Y"/><use transform="matrix(0.0728395061728395,0,0,0.0728395061728395,18.86543209876543,0)" xlink:href="#Z"/><use transform="matrix(0.0728395061728395,0,0,0.0728395061728395,33.43333333333333,0)" xlink:href="#aa"/><use transform="matrix(0.0728395061728395,0,0,0.0728395061728395,42.10123456790124,0)" xlink:href="#Z"/><use transform="matrix(0.0728395061728395,0,0,0.0728395061728395,56.66913580246913,0)" xlink:href="#ah"/><use transform="matrix(0.0728395061728395,0,0,0.0728395061728395,63.95308641975308,0)" xlink:href="#ai"/><use transform="matrix(0.0728395061728395,0,0,0.0728395061728395,79.90493827160493,0)" xlink:href="#aj"/><use transform="matrix(0.0728395061728395,0,0,0.0728395061728395,95.85679012345679,0)" xlink:href="#ak"/><use transform="matrix(0.0728395061728395,0,0,0.0728395061728395,103.14074074074074,0)" xlink:href="#al"/></g><path fill="#a9afb8" d="M195 0l-74-108L45 0H8l94-129-87-119h37l69 98 67-98h37l-84 118L233 0h-38" id="am"/><path fill="#a9afb8" d="M179-190L93 31C79 59 56 82 12 73V49c39 6 53-20 64-50L1-190h34L92-34l54-156h33" id="an"/><path fill="#a9afb8" d="M57-190v80h85v-80h32V0h-32v-87H57V0H25v-190h32" id="ao"/><path fill="#a9afb8" d="M96-169c-40 0-48 33-48 73s9 75 48 75c24 0 41-14 43-38l32 2c-6 37-31 61-74 61-59 0-76-41-82-99-10-93 101-131 147-64 4 7 5 14 7 22l-32 3c-4-21-16-35-41-35" id="ap"/><path fill="#a9afb8" d="M20-138c-1-64 85-51 150-52V0h-32v-81H94L39 0H3l60-83c-28-5-43-24-43-55zm33 3c0 40 46 33 85 33v-66c-39 0-85-6-85 33" id="aq"/><g id="d"><use transform="matrix(0.04248971193415638,0,0,0.04248971193415638,0,0)" xlink:href="#am"/><use transform="matrix(0.04248971193415638,0,0,0.04248971193415638,9.85761316872428,0)" xlink:href="#an"/><use transform="matrix(0.04248971193415638,0,0,0.04248971193415638,17.505761316872427,0)" xlink:href="#ao"/><use transform="matrix(0.04248971193415638,0,0,0.04248971193415638,25.91872427983539,0)" xlink:href="#ap"/><use transform="matrix(0.04248971193415638,0,0,0.04248971193415638,33.56687242798353,0)" xlink:href="#aq"/><use transform="matrix(0.04248971193415638,0,0,0.04248971193415638,41.80987654320987,0)" xlink:href="#ao"/></g><path fill="#a9afb8" d="M62-147c-4 58 76 40 115 32v-133h34V0h-34v-89C118-74 28-68 28-143v-105h34v101" id="ar"/><path fill="#a9afb8" d="M156-87c-4 1-15 3-20 3V0h-31v-84c-5 0-16-2-20-3L36 0H1l62-104c-22-24-40-59-60-86h33l50 76c5 5 9 7 19 7v-83h31v83c27-1 31-21 43-41l26-42h33l-60 86L240 0h-36" id="as"/><path fill="#a9afb8" d="M100-194c62-1 85 37 85 99 1 63-27 99-86 99S16-35 15-95c0-66 28-99 85-99zM99-20c44 1 53-31 53-75 0-43-8-75-51-75s-53 32-53 75 10 74 51 75" id="at"/><g id="e"><use transform="matrix(0.04248971193415638,0,0,0.04248971193415638,0,0)" xlink:href="#ar"/><use transform="matrix(0.04248971193415638,0,0,0.04248971193415638,10.155041152263374,0)" xlink:href="#as"/><use transform="matrix(0.04248971193415638,0,0,0.04248971193415638,20.352572016460904,0)" xlink:href="#at"/><use transform="matrix(0.04248971193415638,0,0,0.04248971193415638,28.68055555555555,0)" xlink:href="#an"/></g><path fill="#a9afb8" d="M32 76v-337h29V76H32" id="au"/><use transform="matrix(0.04248971193415638,0,0,0.04248971193415638,0,0)" xlink:href="#au" id="f"/><path fill="#a9afb8" d="M190 0L58-211 59 0H30v-248h39L202-35l-2-213h31V0h-41" id="av"/><path fill="#a9afb8" d="M100-194c62-1 85 37 85 99 1 63-27 99-86 99S16-35 15-95c0-66 28-99 85-99zM99-20c44 1 53-31 53-75 0-43-8-75-51-75s-53 32-53 75 10 74 51 75" id="aw"/><path fill="#a9afb8" d="M108 0H70L1-190h34L89-25l56-165h34" id="ax"/><path fill="#a9afb8" d="M100-194c63 0 86 42 84 106H49c0 40 14 67 53 68 26 1 43-12 49-29l28 8c-11 28-37 45-77 45C44 4 14-33 15-96c1-61 26-98 85-98zm52 81c6-60-76-77-97-28-3 7-6 17-6 28h103" id="ay"/><path fill="#a9afb8" d="M210-169c-67 3-38 105-44 169h-31v-121c0-29-5-50-35-48C34-165 62-65 56 0H25l-1-190h30c1 10-1 24 2 32 10-44 99-50 107 0 11-21 27-35 58-36 85-2 47 119 55 194h-31v-121c0-29-5-49-35-48" id="az"/><path fill="#a9afb8" d="M115-194c53 0 69 39 70 98 0 66-23 100-70 100C84 3 66-7 56-30L54 0H23l1-261h32v101c10-23 28-34 59-34zm-8 174c40 0 45-34 45-75 0-40-5-75-45-74-42 0-51 32-51 76 0 43 10 73 51 73" id="aA"/><path fill="#a9afb8" d="M114-163C36-179 61-72 57 0H25l-1-190h30c1 12-1 29 2 39 6-27 23-49 58-41v29" id="aB"/><g id="g"><use transform="matrix(0.04248971193415638,0,0,0.04248971193415638,0,0)" xlink:href="#av"/><use transform="matrix(0.04248971193415638,0,0,0.04248971193415638,11.004835390946502,0)" xlink:href="#aw"/><use transform="matrix(0.04248971193415638,0,0,0.04248971193415638,19.502777777777776,0)" xlink:href="#ax"/><use transform="matrix(0.04248971193415638,0,0,0.04248971193415638,27.150925925925925,0)" xlink:href="#ay"/><use transform="matrix(0.04248971193415638,0,0,0.04248971193415638,35.6488683127572,0)" xlink:href="#az"/><use transform="matrix(0.04248971193415638,0,0,0.04248971193415638,48.35329218106995,0)" xlink:href="#aA"/><use transform="matrix(0.04248971193415638,0,0,0.04248971193415638,56.851234567901244,0)" xlink:href="#ay"/><use transform="matrix(0.04248971193415638,0,0,0.04248971193415638,65.34917695473251,0)" xlink:href="#aB"/></g><path fill="#a9afb8" d="M27 0v-27h64v-190l-56 39v-29l58-41h29v221h61V0H27" id="aC"/><path fill="#a9afb8" d="M54-142c48-35 137-8 131 61C196 18 31 33 14-55l32-4c7 23 22 37 52 37 35-1 51-22 54-58 4-55-73-65-99-34H22l8-134h141v27H59" id="aD"/><path fill="#a9afb8" d="M68-38c1 34 0 65-14 84H32c9-13 17-26 17-46H33v-38h35" id="aE"/><g id="h"><use transform="matrix(0.04248971193415638,0,0,0.04248971193415638,0,0)" xlink:href="#aC"/><use transform="matrix(0.04248971193415638,0,0,0.04248971193415638,8.497942386831275,0)" xlink:href="#aD"/><use transform="matrix(0.04248971193415638,0,0,0.04248971193415638,16.99588477366255,0)" xlink:href="#aE"/></g><path fill="#a9afb8" d="M101-251c82-7 93 87 43 132L82-64C71-53 59-42 53-27h129V0H18c2-99 128-94 128-182 0-28-16-43-45-43s-46 15-49 41l-32-3c6-41 34-60 81-64" id="aF"/><path fill="#a9afb8" d="M101-251c68 0 85 55 85 127S166 4 100 4C33 4 14-52 14-124c0-73 17-127 87-127zm-1 229c47 0 54-49 54-102s-4-102-53-102c-51 0-55 48-55 102 0 53 5 102 54 102" id="aG"/><path fill="#a9afb8" d="M126-127c33 6 58 20 58 59 0 88-139 92-164 29-3-8-5-16-6-25l32-3c6 27 21 44 54 44 32 0 52-15 52-46 0-38-36-46-79-43v-28c39 1 72-4 72-42 0-27-17-43-46-43-28 0-47 15-49 41l-32-3c6-42 35-63 81-64 48-1 79 21 79 65 0 36-21 52-52 59" id="aH"/><g id="i"><use transform="matrix(0.04248971193415638,0,0,0.04248971193415638,0,0)" xlink:href="#aF"/><use transform="matrix(0.04248971193415638,0,0,0.04248971193415638,8.497942386831275,0)" xlink:href="#aG"/><use transform="matrix(0.04248971193415638,0,0,0.04248971193415638,16.99588477366255,0)" xlink:href="#aF"/><use transform="matrix(0.04248971193415638,0,0,0.04248971193415638,25.493827160493822,0)" xlink:href="#aH"/></g><path fill="#333" d="M115-194c53 0 69 39 70 98 0 66-23 100-70 100C84 3 66-7 56-30L54 0H23l1-261h32v101c10-23 28-34 59-34zm-8 174c40 0 45-34 45-75 0-40-5-75-45-74-42 0-51 32-51 76 0 43 10 73 51 73" id="aI"/><path fill="#333" d="M100-194c63 0 86 42 84 106H49c0 40 14 67 53 68 26 1 43-12 49-29l28 8c-11 28-37 45-77 45C44 4 14-33 15-96c1-61 26-98 85-98zm52 81c6-60-76-77-97-28-3 7-6 17-6 28h103" id="aJ"/><path fill="#333" d="M59-47c-2 24 18 29 38 22v24C64 9 27 4 27-40v-127H5v-23h24l9-43h21v43h35v23H59v120" id="aK"/><path fill="#333" d="M206 0h-36l-40-164L89 0H53L-1-190h32L70-26l43-164h34l41 164 42-164h31" id="aL"/><path fill="#333" d="M117-194c89-4 53 116 60 194h-32v-121c0-31-8-49-39-48C34-167 62-67 57 0H25l-1-190h30c1 10-1 24 2 32 11-22 29-35 61-36" id="aM"/><g id="j"><use transform="matrix(0.05,0,0,0.05,0,0)" xlink:href="#aI"/><use transform="matrix(0.05,0,0,0.05,10,0)" xlink:href="#aJ"/><use transform="matrix(0.05,0,0,0.05,20,0)" xlink:href="#aK"/><use transform="matrix(0.05,0,0,0.05,25,0)" xlink:href="#aL"/><use transform="matrix(0.05,0,0,0.05,37.95,0)" xlink:href="#aJ"/><use transform="matrix(0.05,0,0,0.05,47.95,0)" xlink:href="#aJ"/><use transform="matrix(0.05,0,0,0.05,57.95,0)" xlink:href="#aM"/></g><g id="k"><use transform="matrix(0.05,0,0,0.05,0,0)" xlink:href="#aI"/><use transform="matrix(0.05,0,0,0.05,10,0)" xlink:href="#aJ"/></g><path fill="#333" d="M135-143c-3-34-86-38-87 0 15 53 115 12 119 90S17 21 10-45l28-5c4 36 97 45 98 0-10-56-113-15-118-90-4-57 82-63 122-42 12 7 21 19 24 35" id="aN"/><path fill="#333" d="M84 4C-5 8 30-112 23-190h32v120c0 31 7 50 39 49 72-2 45-101 50-169h31l1 190h-30c-1-10 1-25-2-33-11 22-28 36-60 37" id="aO"/><path fill="#333" d="M24-231v-30h32v30H24zM-9 49c24 4 33-6 33-30v-209h32V24c2 40-23 58-65 49V49" id="aP"/><path fill="#333" d="M96-169c-40 0-48 33-48 73s9 75 48 75c24 0 41-14 43-38l32 2c-6 37-31 61-74 61-59 0-76-41-82-99-10-93 101-131 147-64 4 7 5 14 7 22l-32 3c-4-21-16-35-41-35" id="aQ"/><path fill="#333" d="M0 4l72-265h28L28 4H0" id="aR"/><path fill="#333" d="M100-194c62-1 85 37 85 99 1 63-27 99-86 99S16-35 15-95c0-66 28-99 85-99zM99-20c44 1 53-31 53-75 0-43-8-75-51-75s-53 32-53 75 10 74 51 75" id="aS"/><g id="l"><use transform="matrix(0.05,0,0,0.05,0,0)" xlink:href="#aN"/><use transform="matrix(0.05,0,0,0.05,9,0)" xlink:href="#aO"/><use transform="matrix(0.05,0,0,0.05,19,0)" xlink:href="#aI"/><use transform="matrix(0.05,0,0,0.05,29,0)" xlink:href="#aP"/><use transform="matrix(0.05,0,0,0.05,32.95,0)" xlink:href="#aJ"/><use transform="matrix(0.05,0,0,0.05,42.95,0)" xlink:href="#aQ"/><use transform="matrix(0.05,0,0,0.05,51.95,0)" xlink:href="#aK"/><use transform="matrix(0.05,0,0,0.05,56.95,0)" xlink:href="#aR"/><use transform="matrix(0.05,0,0,0.05,61.95,0)" xlink:href="#aS"/><use transform="matrix(0.05,0,0,0.05,71.95,0)" xlink:href="#aI"/><use transform="matrix(0.05,0,0,0.05,81.95,0)" xlink:href="#aP"/><use transform="matrix(0.05,0,0,0.05,85.9,0)" xlink:href="#aJ"/><use transform="matrix(0.05,0,0,0.05,95.9,0)" xlink:href="#aQ"/><use transform="matrix(0.05,0,0,0.05,104.9,0)" xlink:href="#aK"/></g><path fill="#333" d="M101-234c-31-9-42 10-38 44h38v23H63V0H32v-167H5v-23h27c-7-52 17-82 69-68v24" id="aT"/><g id="m"><use transform="matrix(0.05,0,0,0.05,0,0)" xlink:href="#aS"/><use transform="matrix(0.05,0,0,0.05,10,0)" xlink:href="#aT"/></g><path fill="#333" d="M177-190C167-65 218 103 67 71c-23-6-38-20-44-43l32-5c15 47 100 32 89-28v-30C133-14 115 1 83 1 29 1 15-40 15-95c0-56 16-97 71-98 29-1 48 16 59 35 1-10 0-23 2-32h30zM94-22c36 0 50-32 50-73 0-42-14-75-50-75-39 0-46 34-46 75s6 73 46 73" id="aU"/><g id="n"><use transform="matrix(0.05,0,0,0.05,0,0)" xlink:href="#aU"/><use transform="matrix(0.05,0,0,0.05,10,0)" xlink:href="#aS"/></g><path fill="#333" d="M114-163C36-179 61-72 57 0H25l-1-190h30c1 12-1 29 2 39 6-27 23-49 58-41v29" id="aV"/><path fill="#333" d="M210-169c-67 3-38 105-44 169h-31v-121c0-29-5-50-35-48C34-165 62-65 56 0H25l-1-190h30c1 10-1 24 2 32 10-44 99-50 107 0 11-21 27-35 58-36 85-2 47 119 55 194h-31v-121c0-29-5-49-35-48" id="aW"/><g id="o"><use transform="matrix(0.05,0,0,0.05,0,0)" xlink:href="#aT"/><use transform="matrix(0.05,0,0,0.05,5,0)" xlink:href="#aV"/><use transform="matrix(0.05,0,0,0.05,10.95,0)" xlink:href="#aS"/><use transform="matrix(0.05,0,0,0.05,20.95,0)" xlink:href="#aW"/></g><path fill="#333" d="M24-231v-30h32v30H24zM24 0v-190h32V0H24" id="aX"/><path fill="#333" d="M106-169C34-169 62-67 57 0H25v-261h32l-1 103c12-21 28-36 61-36 89 0 53 116 60 194h-32v-121c2-32-8-49-39-48" id="aY"/><g id="p"><use transform="matrix(0.05,0,0,0.05,0,0)" xlink:href="#aL"/><use transform="matrix(0.05,0,0,0.05,12.950000000000001,0)" xlink:href="#aX"/><use transform="matrix(0.05,0,0,0.05,16.900000000000002,0)" xlink:href="#aK"/><use transform="matrix(0.05,0,0,0.05,21.900000000000002,0)" xlink:href="#aY"/></g><path fill="#333" d="M234-2c-28 10-62 0-77-18C117 19 8 12 13-65c3-43 29-61 60-76-25-40-17-114 47-108 35 3 59 15 59 50 0 44-40 53-71 69 14 26 32 50 51 72 14-21 24-43 30-72l26 8c-9 33-21 57-38 82 13 13 33 22 57 15v23zM97-151c25-10 52-18 56-48-1-18-13-29-33-29-42 0-39 50-23 77zM42-66c-3 51 71 58 98 28-20-24-41-51-56-80-23 10-40 24-42 52" id="aZ"/><g id="q"><use transform="matrix(0.05,0,0,0.05,0,0)" xlink:href="#aT"/><use transform="matrix(0.05,0,0,0.05,5,0)" xlink:href="#aV"/><use transform="matrix(0.05,0,0,0.05,10.95,0)" xlink:href="#aS"/><use transform="matrix(0.05,0,0,0.05,20.95,0)" xlink:href="#aW"/><use transform="matrix(0.05,0,0,0.05,35.9,0)" xlink:href="#aZ"/><use transform="matrix(0.05,0,0,0.05,47.9,0)" xlink:href="#aK"/><use transform="matrix(0.05,0,0,0.05,52.900000000000006,0)" xlink:href="#aS"/></g><g id="r"><use transform="matrix(0.05,0,0,0.05,0,0)" xlink:href="#aX"/><use transform="matrix(0.05,0,0,0.05,3.95,0)" xlink:href="#aM"/></g><path fill="#333" d="M135-150c-39-12-60 13-60 57V0H25l-1-190h47c2 13-1 29 3 40 6-28 27-53 61-41v41" id="ba"/><path fill="#333" d="M185-48c-13 30-37 53-82 52C43 2 14-33 14-96s30-98 90-98c62 0 83 45 84 108H66c0 31 8 55 39 56 18 0 30-7 34-22zm-45-69c5-46-57-63-70-21-2 6-4 13-4 21h74" id="bb"/><path fill="#333" d="M25 0v-261h50V0H25" id="bc"/><path fill="#333" d="M133-34C117-15 103 5 69 4 32 3 11-16 11-54c-1-60 55-63 116-61 1-26-3-47-28-47-18 1-26 9-28 27l-52-2c7-38 36-58 82-57s74 22 75 68l1 82c-1 14 12 18 25 15v27c-30 8-71 5-69-32zm-48 3c29 0 43-24 42-57-32 0-66-3-65 30 0 17 8 27 23 27" id="bd"/><path fill="#333" d="M115-3C79 11 28 4 28-45v-112H4v-33h27l15-45h31v45h36v33H77v99c-1 23 16 31 38 25v30" id="be"/><path fill="#333" d="M25-224v-37h50v37H25zM25 0v-190h50V0H25" id="bf"/><path fill="#333" d="M110-194c64 0 96 36 96 99 0 64-35 99-97 99-61 0-95-36-95-99 0-62 34-99 96-99zm-1 164c35 0 45-28 45-65 0-40-10-65-43-65-34 0-45 26-45 65 0 36 10 65 43 65" id="bg"/><path fill="#333" d="M135-194c87-1 58 113 63 194h-50c-7-57 23-157-34-157-59 0-34 97-39 157H25l-1-190h47c2 12-1 28 3 38 12-26 28-41 61-42" id="bh"/><path fill="#333" d="M137-138c1-29-70-34-71-4 15 46 118 7 119 86 1 83-164 76-172 9l43-7c4 19 20 25 44 25 33 8 57-30 24-41C81-84 22-81 20-136c-2-80 154-74 161-7" id="bi"/><g id="s"><use transform="matrix(0.05,0,0,0.05,0,0)" xlink:href="#ba"/><use transform="matrix(0.05,0,0,0.05,7,0)" xlink:href="#bb"/><use transform="matrix(0.05,0,0,0.05,17,0)" xlink:href="#bc"/><use transform="matrix(0.05,0,0,0.05,22,0)" xlink:href="#bd"/><use transform="matrix(0.05,0,0,0.05,32,0)" xlink:href="#be"/><use transform="matrix(0.05,0,0,0.05,37.95,0)" xlink:href="#bf"/><use transform="matrix(0.05,0,0,0.05,42.95,0)" xlink:href="#bg"/><use transform="matrix(0.05,0,0,0.05,53.900000000000006,0)" xlink:href="#bh"/><use transform="matrix(0.05,0,0,0.05,64.85000000000001,0)" xlink:href="#bi"/></g><path d="M24-231v-30h32v30H24zM24 0v-190h32V0H24" id="bj"/><path d="M85-194c31 0 48 13 60 33l-1-100h32l1 261h-30c-2-10 0-23-3-31C134-8 116 4 85 4 32 4 16-35 15-94c0-66 23-100 70-100zm9 24c-40 0-46 34-46 75 0 40 6 74 45 74 42 0 51-32 51-76 0-42-9-74-50-73" id="bk"/><g id="t"><use transform="matrix(0.05,0,0,0.05,0,0)" xlink:href="#bj"/><use transform="matrix(0.05,0,0,0.05,3.95,0)" xlink:href="#bk"/></g><path fill="#333" d="M141-36C126-15 110 5 73 4 37 3 15-17 15-53c-1-64 63-63 125-63 3-35-9-54-41-54-24 1-41 7-42 31l-33-3c5-37 33-52 76-52 45 0 72 20 72 64v82c-1 20 7 32 28 27v20c-31 9-61-2-59-35zM48-53c0 20 12 33 32 33 41-3 63-29 60-74-43 2-92-5-92 41" id="bl"/><path fill="#333" d="M24 0v-261h32V0H24" id="bm"/><g id="u"><use transform="matrix(0.05,0,0,0.05,0,0)" xlink:href="#aN"/><use transform="matrix(0.05,0,0,0.05,9,0)" xlink:href="#aJ"/><use transform="matrix(0.05,0,0,0.05,19,0)" xlink:href="#aV"/><use transform="matrix(0.05,0,0,0.05,24.95,0)" xlink:href="#aX"/><use transform="matrix(0.05,0,0,0.05,28.899999999999995,0)" xlink:href="#bl"/><use transform="matrix(0.05,0,0,0.05,38.9,0)" xlink:href="#bm"/></g><path fill="#333" d="M30-248c87 1 191-15 191 75 0 78-77 80-158 76V0H30v-248zm33 125c57 0 124 11 124-50 0-59-68-47-124-48v98" id="bn"/><path fill="#333" d="M194 0L95-120 63-95V0H30v-248h33v124l119-124h40L117-140 236 0h-42" id="bo"/><g id="v"><use transform="matrix(0.05,0,0,0.05,0,0)" xlink:href="#bn"/><use transform="matrix(0.05,0,0,0.05,12,0)" xlink:href="#bo"/></g><path d="M117-194c89-4 53 116 60 194h-32v-121c0-31-8-49-39-48C34-167 62-67 57 0H25l-1-190h30c1 10-1 24 2 32 11-22 29-35 61-36" id="bp"/><path d="M141-36C126-15 110 5 73 4 37 3 15-17 15-53c-1-64 63-63 125-63 3-35-9-54-41-54-24 1-41 7-42 31l-33-3c5-37 33-52 76-52 45 0 72 20 72 64v82c-1 20 7 32 28 27v20c-31 9-61-2-59-35zM48-53c0 20 12 33 32 33 41-3 63-29 60-74-43 2-92-5-92 41" id="bq"/><path d="M210-169c-67 3-38 105-44 169h-31v-121c0-29-5-50-35-48C34-165 62-65 56 0H25l-1-190h30c1 10-1 24 2 32 10-44 99-50 107 0 11-21 27-35 58-36 85-2 47 119 55 194h-31v-121c0-29-5-49-35-48" id="br"/><path d="M100-194c63 0 86 42 84 106H49c0 40 14 67 53 68 26 1 43-12 49-29l28 8c-11 28-37 45-77 45C44 4 14-33 15-96c1-61 26-98 85-98zm52 81c6-60-76-77-97-28-3 7-6 17-6 28h103" id="bs"/><g id="w"><use transform="matrix(0.05,0,0,0.05,0,0)" xlink:href="#bp"/><use transform="matrix(0.05,0,0,0.05,10,0)" xlink:href="#bq"/><use transform="matrix(0.05,0,0,0.05,20,0)" xlink:href="#br"/><use transform="matrix(0.05,0,0,0.05,34.95,0)" xlink:href="#bs"/></g><path fill="#333" d="M108 0H70L1-190h34L89-25l56-165h34" id="bt"/><path fill="#333" d="M87 75C49 33 22-17 22-94c0-76 28-126 65-167h31c-38 41-64 92-64 168S80 34 118 75H87" id="bu"/><path fill="#333" d="M110-160c48 1 74 30 74 79 0 53-28 85-80 85-65 0-83-55-86-122-5-90 50-162 133-122 14 7 22 21 27 39l-31 6c-5-40-67-38-82-6-9 19-15 44-15 74 11-20 30-34 60-33zm-7 138c34 0 49-23 49-58s-16-56-50-56c-29 0-50 16-49 49 1 36 15 65 50 65" id="bv"/><path fill="#333" d="M155-56V0h-30v-56H8v-25l114-167h33v167h35v25h-35zm-30-156c-27 46-58 90-88 131h88v-131" id="bw"/><path fill="#333" d="M33-261c38 41 65 92 65 168S71 34 33 75H2C39 34 66-17 66-93S39-220 2-261h31" id="bx"/><g id="x"><use transform="matrix(0.05,0,0,0.05,0,0)" xlink:href="#bt"/><use transform="matrix(0.05,0,0,0.05,9,0)" xlink:href="#bl"/><use transform="matrix(0.05,0,0,0.05,19,0)" xlink:href="#aV"/><use transform="matrix(0.05,0,0,0.05,24.95,0)" xlink:href="#aQ"/><use transform="matrix(0.05,0,0,0.05,33.95,0)" xlink:href="#aY"/><use transform="matrix(0.05,0,0,0.05,43.95,0)" xlink:href="#bl"/><use transform="matrix(0.05,0,0,0.05,53.95,0)" xlink:href="#aV"/><use transform="matrix(0.05,0,0,0.05,59.900000000000006,0)" xlink:href="#bu"/><use transform="matrix(0.05,0,0,0.05,65.85000000000001,0)" xlink:href="#bv"/><use transform="matrix(0.05,0,0,0.05,75.85000000000001,0)" xlink:href="#bw"/><use transform="matrix(0.05,0,0,0.05,85.85000000000001,0)" xlink:href="#bx"/></g><path fill="#333" d="M63-220v92h138v28H63V0H30v-248h175v28H63" id="by"/><g id="y"><use transform="matrix(0.05,0,0,0.05,0,0)" xlink:href="#by"/><use transform="matrix(0.05,0,0,0.05,10.950000000000001,0)" xlink:href="#bo"/></g><path d="M135-143c-3-34-86-38-87 0 15 53 115 12 119 90S17 21 10-45l28-5c4 36 97 45 98 0-10-56-113-15-118-90-4-57 82-63 122-42 12 7 21 19 24 35" id="bz"/><path d="M84 4C-5 8 30-112 23-190h32v120c0 31 7 50 39 49 72-2 45-101 50-169h31l1 190h-30c-1-10 1-25-2-33-11 22-28 36-60 37" id="bA"/><path d="M115-194c53 0 69 39 70 98 0 66-23 100-70 100C84 3 66-7 56-30L54 0H23l1-261h32v101c10-23 28-34 59-34zm-8 174c40 0 45-34 45-75 0-40-5-75-45-74-42 0-51 32-51 76 0 43 10 73 51 73" id="bB"/><path d="M24-231v-30h32v30H24zM-9 49c24 4 33-6 33-30v-209h32V24c2 40-23 58-65 49V49" id="bC"/><path d="M96-169c-40 0-48 33-48 73s9 75 48 75c24 0 41-14 43-38l32 2c-6 37-31 61-74 61-59 0-76-41-82-99-10-93 101-131 147-64 4 7 5 14 7 22l-32 3c-4-21-16-35-41-35" id="bD"/><path d="M59-47c-2 24 18 29 38 22v24C64 9 27 4 27-40v-127H5v-23h24l9-43h21v43h35v23H59v120" id="bE"/><g id="z"><use transform="matrix(0.05,0,0,0.05,0,0)" xlink:href="#bz"/><use transform="matrix(0.05,0,0,0.05,9,0)" xlink:href="#bA"/><use transform="matrix(0.05,0,0,0.05,19,0)" xlink:href="#bB"/><use transform="matrix(0.05,0,0,0.05,29,0)" xlink:href="#bC"/><use transform="matrix(0.05,0,0,0.05,32.95,0)" xlink:href="#bs"/><use transform="matrix(0.05,0,0,0.05,42.95,0)" xlink:href="#bD"/><use transform="matrix(0.05,0,0,0.05,51.95,0)" xlink:href="#bE"/></g><g id="A"><use transform="matrix(0.05,0,0,0.05,0,0)" xlink:href="#aX"/><use transform="matrix(0.05,0,0,0.05,3.95,0)" xlink:href="#aM"/><use transform="matrix(0.05,0,0,0.05,13.949999999999998,0)" xlink:href="#aK"/></g><g id="B"><use transform="matrix(0.05,0,0,0.05,0,0)" xlink:href="#by"/><use transform="matrix(0.05,0,0,0.05,10.950000000000001,0)" xlink:href="#bo"/></g><path d="M100-194c62-1 85 37 85 99 1 63-27 99-86 99S16-35 15-95c0-66 28-99 85-99zM99-20c44 1 53-31 53-75 0-43-8-75-51-75s-53 32-53 75 10 74 51 75" id="bF"/><g id="C"><use transform="matrix(0.05,0,0,0.05,0,0)" xlink:href="#bF"/><use transform="matrix(0.05,0,0,0.05,10,0)" xlink:href="#bB"/><use transform="matrix(0.05,0,0,0.05,20,0)" xlink:href="#bC"/><use transform="matrix(0.05,0,0,0.05,23.95,0)" xlink:href="#bs"/><use transform="matrix(0.05,0,0,0.05,33.95,0)" xlink:href="#bD"/><use transform="matrix(0.05,0,0,0.05,42.95,0)" xlink:href="#bE"/></g><path fill="#333" d="M190-63c-7 42-38 67-86 67-59 0-84-38-90-98-12-110 154-137 174-36l-49 2c-2-19-15-32-35-32-30 0-35 28-38 64-6 74 65 87 74 30" id="bG"/><path fill="#333" d="M114-157C55-157 80-60 75 0H25v-261h50l-1 109c12-26 28-41 61-42 86-1 58 113 63 194h-50c-7-57 23-157-34-157" id="bH"/><g id="D"><use transform="matrix(0.05,0,0,0.05,0,0)" xlink:href="#bG"/><use transform="matrix(0.05,0,0,0.05,10,0)" xlink:href="#bH"/><use transform="matrix(0.05,0,0,0.05,20.950000000000003,0)" xlink:href="#bd"/><use transform="matrix(0.05,0,0,0.05,30.950000000000003,0)" xlink:href="#ba"/><use transform="matrix(0.05,0,0,0.05,37.95,0)" xlink:href="#bd"/><use transform="matrix(0.05,0,0,0.05,47.95,0)" xlink:href="#bG"/><use transform="matrix(0.05,0,0,0.05,57.95,0)" xlink:href="#be"/><use transform="matrix(0.05,0,0,0.05,63.900000000000006,0)" xlink:href="#bb"/><use transform="matrix(0.05,0,0,0.05,73.9,0)" xlink:href="#ba"/><use transform="matrix(0.05,0,0,0.05,80.9,0)" xlink:href="#bi"/></g><g id="E"><use transform="matrix(0.05,0,0,0.05,0,0)" xlink:href="#bd"/><use transform="matrix(0.05,0,0,0.05,10,0)" xlink:href="#bG"/><use transform="matrix(0.05,0,0,0.05,20,0)" xlink:href="#be"/><use transform="matrix(0.05,0,0,0.05,25.950000000000003,0)" xlink:href="#bf"/><use transform="matrix(0.05,0,0,0.05,30.950000000000003,0)" xlink:href="#bg"/><use transform="matrix(0.05,0,0,0.05,41.9,0)" xlink:href="#bh"/><use transform="matrix(0.05,0,0,0.05,52.85,0)" xlink:href="#bi"/></g><path d="M108 0H70L1-190h34L89-25l56-165h34" id="bI"/><g id="F"><use transform="matrix(0.05,0,0,0.05,0,0)" xlink:href="#bs"/><use transform="matrix(0.05,0,0,0.05,10,0)" xlink:href="#bI"/><use transform="matrix(0.05,0,0,0.05,19,0)" xlink:href="#bs"/><use transform="matrix(0.05,0,0,0.05,29,0)" xlink:href="#bp"/><use transform="matrix(0.05,0,0,0.05,39,0)" xlink:href="#bE"/></g><g id="G"><use transform="matrix(0.05,0,0,0.05,0,0)" xlink:href="#aX"/><use transform="matrix(0.05,0,0,0.05,3.95,0)" xlink:href="#aM"/><use transform="matrix(0.05,0,0,0.05,13.949999999999998,0)" xlink:href="#aK"/></g><path d="M24 0v-261h32V0H24" id="bJ"/><g id="H"><use transform="matrix(0.05,0,0,0.05,0,0)" xlink:href="#bJ"/><use transform="matrix(0.05,0,0,0.05,3.95,0)" xlink:href="#bF"/><use transform="matrix(0.05,0,0,0.05,13.949999999999998,0)" xlink:href="#bD"/><use transform="matrix(0.05,0,0,0.05,22.95,0)" xlink:href="#bq"/><use transform="matrix(0.05,0,0,0.05,32.95,0)" xlink:href="#bE"/><use transform="matrix(0.05,0,0,0.05,37.95,0)" xlink:href="#bj"/><use transform="matrix(0.05,0,0,0.05,41.900000000000006,0)" xlink:href="#bF"/><use transform="matrix(0.05,0,0,0.05,51.900000000000006,0)" xlink:href="#bp"/></g><g id="I"><use transform="matrix(0.05,0,0,0.05,0,0)" xlink:href="#bz"/><use transform="matrix(0.05,0,0,0.05,9,0)" xlink:href="#bE"/><use transform="matrix(0.05,0,0,0.05,14,0)" xlink:href="#bq"/><use transform="matrix(0.05,0,0,0.05,24,0)" xlink:href="#bE"/><use transform="matrix(0.05,0,0,0.05,29,0)" xlink:href="#bA"/><use transform="matrix(0.05,0,0,0.05,39,0)" xlink:href="#bz"/></g><g id="J"><use transform="matrix(0.05,0,0,0.05,0,0)" xlink:href="#bj"/><use transform="matrix(0.05,0,0,0.05,3.95,0)" xlink:href="#bp"/><use transform="matrix(0.05,0,0,0.05,13.949999999999998,0)" xlink:href="#bE"/></g><path d="M63-220v92h138v28H63V0H30v-248h175v28H63" id="bK"/><path d="M194 0L95-120 63-95V0H30v-248h33v124l119-124h40L117-140 236 0h-42" id="bL"/><g id="K"><use transform="matrix(0.05,0,0,0.05,0,0)" xlink:href="#bK"/><use transform="matrix(0.05,0,0,0.05,10.950000000000001,0)" xlink:href="#bL"/></g><path d="M115-194c55 1 70 41 70 98S169 2 115 4C84 4 66-9 55-30l1 105H24l-1-265h31l2 30c10-21 28-34 59-34zm-8 174c40 0 45-34 45-75s-6-73-45-74c-42 0-51 32-51 76 0 43 10 73 51 73" id="bM"/><path d="M114-163C36-179 61-72 57 0H25l-1-190h30c1 12-1 29 2 39 6-27 23-49 58-41v29" id="bN"/><g id="L"><use transform="matrix(0.05,0,0,0.05,0,0)" xlink:href="#bM"/><use transform="matrix(0.05,0,0,0.05,10,0)" xlink:href="#bN"/><use transform="matrix(0.05,0,0,0.05,15.949999999999998,0)" xlink:href="#bF"/><use transform="matrix(0.05,0,0,0.05,25.950000000000003,0)" xlink:href="#bD"/><use transform="matrix(0.05,0,0,0.05,34.95,0)" xlink:href="#bs"/><use transform="matrix(0.05,0,0,0.05,44.95,0)" xlink:href="#bz"/><use transform="matrix(0.05,0,0,0.05,53.95,0)" xlink:href="#bz"/></g><path d="M127-220V0H93v-220H8v-28h204v28h-85" id="bO"/><path d="M179-190L93 31C79 59 56 82 12 73V49c39 6 53-20 64-50L1-190h34L92-34l54-156h33" id="bP"/><g id="M"><use transform="matrix(0.05,0,0,0.05,0,0)" xlink:href="#bO"/><use transform="matrix(0.05,0,0,0.05,9.950000000000001,0)" xlink:href="#bP"/><use transform="matrix(0.05,0,0,0.05,18.950000000000003,0)" xlink:href="#bM"/><use transform="matrix(0.05,0,0,0.05,28.950000000000003,0)" xlink:href="#bs"/></g><path fill="#333" d="M220-157c-53 9-28 100-34 157h-49v-107c1-27-5-49-29-50C55-147 81-57 75 0H25l-1-190h47c2 12-1 28 3 38 10-53 101-56 108 0 13-22 24-43 59-42 82 1 51 116 57 194h-49v-107c-1-25-5-48-29-50" id="bQ"/><path fill="#333" d="M128 0H69L1-190h53L99-40l48-150h52" id="bR"/><g id="N"><use transform="matrix(0.05,0,0,0.05,0,0)" xlink:href="#bQ"/><use transform="matrix(0.05,0,0,0.05,16,0)" xlink:href="#bg"/><use transform="matrix(0.05,0,0,0.05,26.950000000000003,0)" xlink:href="#bR"/><use transform="matrix(0.05,0,0,0.05,36.95,0)" xlink:href="#bb"/><use transform="matrix(0.05,0,0,0.05,46.95,0)" xlink:href="#bQ"/><use transform="matrix(0.05,0,0,0.05,62.95,0)" xlink:href="#bb"/><use transform="matrix(0.05,0,0,0.05,72.95,0)" xlink:href="#bh"/><use transform="matrix(0.05,0,0,0.05,83.9,0)" xlink:href="#be"/><use transform="matrix(0.05,0,0,0.05,89.85000000000001,0)" xlink:href="#bi"/></g><path d="M106-169C34-169 62-67 57 0H25v-261h32l-1 103c12-21 28-36 61-36 89 0 53 116 60 194h-32v-121c2-32-8-49-39-48" id="bS"/><g id="O"><use transform="matrix(0.05,0,0,0.05,0,0)" xlink:href="#bD"/><use transform="matrix(0.05,0,0,0.05,9,0)" xlink:href="#bS"/><use transform="matrix(0.05,0,0,0.05,19,0)" xlink:href="#bq"/><use transform="matrix(0.05,0,0,0.05,29,0)" xlink:href="#bN"/><use transform="matrix(0.05,0,0,0.05,34.95,0)" xlink:href="#bq"/><use transform="matrix(0.05,0,0,0.05,44.95,0)" xlink:href="#bD"/><use transform="matrix(0.05,0,0,0.05,53.95,0)" xlink:href="#bE"/><use transform="matrix(0.05,0,0,0.05,58.95,0)" xlink:href="#bs"/><use transform="matrix(0.05,0,0,0.05,68.95,0)" xlink:href="#bN"/></g><path d="M177-190C167-65 218 103 67 71c-23-6-38-20-44-43l32-5c15 47 100 32 89-28v-30C133-14 115 1 83 1 29 1 15-40 15-95c0-56 16-97 71-98 29-1 48 16 59 35 1-10 0-23 2-32h30zM94-22c36 0 50-32 50-73 0-42-14-75-50-75-39 0-46 34-46 75s6 73 46 73" id="bT"/><path d="M-5 72V49h209v23H-5" id="bU"/><g id="P"><use transform="matrix(0.05,0,0,0.05,0,0)" xlink:href="#bz"/><use transform="matrix(0.05,0,0,0.05,9,0)" xlink:href="#bE"/><use transform="matrix(0.05,0,0,0.05,14,0)" xlink:href="#bq"/><use transform="matrix(0.05,0,0,0.05,24,0)" xlink:href="#bN"/><use transform="matrix(0.05,0,0,0.05,29.950000000000003,0)" xlink:href="#bE"/><use transform="matrix(0.05,0,0,0.05,34.95,0)" xlink:href="#bj"/><use transform="matrix(0.05,0,0,0.05,38.900000000000006,0)" xlink:href="#bp"/><use transform="matrix(0.05,0,0,0.05,48.900000000000006,0)" xlink:href="#bT"/><use transform="matrix(0.05,0,0,0.05,58.900000000000006,0)" xlink:href="#bU"/><use transform="matrix(0.05,0,0,0.05,68.9,0)" xlink:href="#bJ"/><use transform="matrix(0.05,0,0,0.05,72.85000000000001,0)" xlink:href="#bF"/><use transform="matrix(0.05,0,0,0.05,82.85000000000001,0)" xlink:href="#bD"/><use transform="matrix(0.05,0,0,0.05,91.85000000000001,0)" xlink:href="#bq"/><use transform="matrix(0.05,0,0,0.05,101.85000000000001,0)" xlink:href="#bE"/><use transform="matrix(0.05,0,0,0.05,106.85000000000001,0)" xlink:href="#bj"/><use transform="matrix(0.05,0,0,0.05,110.80000000000001,0)" xlink:href="#bF"/><use transform="matrix(0.05,0,0,0.05,120.80000000000001,0)" xlink:href="#bp"/></g><g id="Q"><use transform="matrix(0.05,0,0,0.05,0,0)" xlink:href="#bk"/><use transform="matrix(0.05,0,0,0.05,10,0)" xlink:href="#bs"/><use transform="matrix(0.05,0,0,0.05,20,0)" xlink:href="#bz"/><use transform="matrix(0.05,0,0,0.05,29,0)" xlink:href="#bE"/><use transform="matrix(0.05,0,0,0.05,34,0)" xlink:href="#bj"/><use transform="matrix(0.05,0,0,0.05,37.95,0)" xlink:href="#bp"/><use transform="matrix(0.05,0,0,0.05,47.95,0)" xlink:href="#bq"/><use transform="matrix(0.05,0,0,0.05,57.95,0)" xlink:href="#bE"/><use transform="matrix(0.05,0,0,0.05,62.95,0)" xlink:href="#bj"/><use transform="matrix(0.05,0,0,0.05,66.9,0)" xlink:href="#bF"/><use transform="matrix(0.05,0,0,0.05,76.9,0)" xlink:href="#bp"/><use transform="matrix(0.05,0,0,0.05,86.9,0)" xlink:href="#bU"/><use transform="matrix(0.05,0,0,0.05,96.9,0)" xlink:href="#bJ"/><use transform="matrix(0.05,0,0,0.05,100.85000000000001,0)" xlink:href="#bF"/><use transform="matrix(0.05,0,0,0.05,110.85000000000001,0)" xlink:href="#bD"/><use transform="matrix(0.05,0,0,0.05,119.85000000000001,0)" xlink:href="#bq"/><use transform="matrix(0.05,0,0,0.05,129.85000000000002,0)" xlink:href="#bE"/><use transform="matrix(0.05,0,0,0.05,134.85000000000002,0)" xlink:href="#bj"/><use transform="matrix(0.05,0,0,0.05,138.8,0)" xlink:href="#bF"/><use transform="matrix(0.05,0,0,0.05,148.8,0)" xlink:href="#bp"/></g><g id="R"><use transform="matrix(0.05,0,0,0.05,0,0)" xlink:href="#bb"/><use transform="matrix(0.05,0,0,0.05,10,0)" xlink:href="#bR"/><use transform="matrix(0.05,0,0,0.05,20,0)" xlink:href="#bb"/><use transform="matrix(0.05,0,0,0.05,30,0)" xlink:href="#bh"/><use transform="matrix(0.05,0,0,0.05,40.95,0)" xlink:href="#be"/><use transform="matrix(0.05,0,0,0.05,46.900000000000006,0)" xlink:href="#bi"/></g><path fill="#333" d="M85 4C-2 5 27-109 22-190h50c7 57-23 150 33 157 60-5 35-97 40-157h50l1 190h-47c-2-12 1-28-3-38-12 25-28 42-61 42" id="bV"/><g id="S"><use transform="matrix(0.05,0,0,0.05,0,0)" xlink:href="#bi"/><use transform="matrix(0.05,0,0,0.05,10,0)" xlink:href="#be"/><use transform="matrix(0.05,0,0,0.05,15.949999999999998,0)" xlink:href="#bd"/><use transform="matrix(0.05,0,0,0.05,25.950000000000003,0)" xlink:href="#be"/><use transform="matrix(0.05,0,0,0.05,31.899999999999995,0)" xlink:href="#bV"/><use transform="matrix(0.05,0,0,0.05,42.85,0)" xlink:href="#bi"/></g><g id="T"><use transform="matrix(0.05,0,0,0.05,0,0)" xlink:href="#bk"/><use transform="matrix(0.05,0,0,0.05,10,0)" xlink:href="#bs"/><use transform="matrix(0.05,0,0,0.05,20,0)" xlink:href="#bz"/><use transform="matrix(0.05,0,0,0.05,29,0)" xlink:href="#bD"/><use transform="matrix(0.05,0,0,0.05,38,0)" xlink:href="#bN"/><use transform="matrix(0.05,0,0,0.05,43.95,0)" xlink:href="#bj"/><use transform="matrix(0.05,0,0,0.05,47.900000000000006,0)" xlink:href="#bM"/><use transform="matrix(0.05,0,0,0.05,57.900000000000006,0)" xlink:href="#bE"/><use transform="matrix(0.05,0,0,0.05,62.900000000000006,0)" xlink:href="#bj"/><use transform="matrix(0.05,0,0,0.05,66.85000000000001,0)" xlink:href="#bF"/><use transform="matrix(0.05,0,0,0.05,76.85000000000001,0)" xlink:href="#bp"/></g><g id="U"><use transform="matrix(0.05,0,0,0.05,0,0)" xlink:href="#bc"/><use transform="matrix(0.05,0,0,0.05,5,0)" xlink:href="#bg"/><use transform="matrix(0.05,0,0,0.05,15.950000000000001,0)" xlink:href="#bG"/><use transform="matrix(0.05,0,0,0.05,25.950000000000003,0)" xlink:href="#bd"/><use transform="matrix(0.05,0,0,0.05,35.95,0)" xlink:href="#be"/><use transform="matrix(0.05,0,0,0.05,41.900000000000006,0)" xlink:href="#bf"/><use transform="matrix(0.05,0,0,0.05,46.900000000000006,0)" xlink:href="#bg"/><use transform="matrix(0.05,0,0,0.05,57.85,0)" xlink:href="#bh"/><use transform="matrix(0.05,0,0,0.05,68.80000000000001,0)" xlink:href="#bi"/></g><path fill="#333" d="M195-6C206 82 75 100 31 46c-4-6-6-13-8-21l49-6c3 16 16 24 34 25 40 0 42-37 40-79-11 22-30 35-61 35-53 0-70-43-70-97 0-56 18-96 73-97 30 0 46 14 59 34l2-30h47zm-90-29c32 0 41-27 41-63 0-35-9-62-40-62-32 0-39 29-40 63 0 36 9 62 39 62" id="bW"/><path fill="#333" d="M135-194c53 0 70 44 70 98 0 56-19 98-73 100-31 1-45-17-59-34 3 33 2 69 2 105H25l-1-265h48c2 10 0 23 3 31 11-24 29-35 60-35zM114-30c33 0 39-31 40-66 0-38-9-64-40-64-56 0-55 130 0 130" id="bX"/><g id="V"><use transform="matrix(0.05,0,0,0.05,0,0)" xlink:href="#bW"/><use transform="matrix(0.05,0,0,0.05,10.950000000000001,0)" xlink:href="#ba"/><use transform="matrix(0.05,0,0,0.05,17.950000000000003,0)" xlink:href="#bg"/><use transform="matrix(0.05,0,0,0.05,28.900000000000006,0)" xlink:href="#bV"/><use transform="matrix(0.05,0,0,0.05,39.85000000000001,0)" xlink:href="#bX"/><use transform="matrix(0.05,0,0,0.05,50.80000000000001,0)" xlink:href="#bi"/></g><g id="W"><use transform="matrix(0.05,0,0,0.05,0,0)" xlink:href="#br"/><use transform="matrix(0.05,0,0,0.05,14.950000000000001,0)" xlink:href="#bs"/><use transform="matrix(0.05,0,0,0.05,24.950000000000003,0)" xlink:href="#br"/><use transform="matrix(0.05,0,0,0.05,39.900000000000006,0)" xlink:href="#bB"/><use transform="matrix(0.05,0,0,0.05,49.900000000000006,0)" xlink:href="#bs"/><use transform="matrix(0.05,0,0,0.05,59.900000000000006,0)" xlink:href="#bN"/></g><g id="X"><use transform="matrix(0.05,0,0,0.05,0,0)" xlink:href="#aQ"/><use transform="matrix(0.05,0,0,0.05,9,0)" xlink:href="#aS"/><use transform="matrix(0.05,0,0,0.05,19,0)" xlink:href="#aM"/><use transform="matrix(0.05,0,0,0.05,29,0)" xlink:href="#aK"/><use transform="matrix(0.05,0,0,0.05,34,0)" xlink:href="#bl"/><use transform="matrix(0.05,0,0,0.05,44,0)" xlink:href="#aX"/><use transform="matrix(0.05,0,0,0.05,47.95,0)" xlink:href="#aM"/></g></defs></g></svg>