<svg xmlns="http://www.w3.org/2000/svg" xmlns:xlink="http://www.w3.org/1999/xlink" xmlns:lucid="lucid" width="1378" height="1249"><g transform="translate(0 0)" lucid:page-tab-id="0_0"><path d="M262.63 48a8 8 0 0 1 8-8h836.75a8 8 0 0 1 8 8v25.16a8 8 0 0 1-8 8H270.6a8 8 0 0 1-8-8z" stroke="#000" stroke-opacity="0" stroke-width="2" fill="#fff" fill-opacity="0"/><use xlink:href="#a" transform="matrix(1,0,0,1,266.62524576594296,44) translate(269.5328395061729 25.782777777777778)"/><use xlink:href="#b" transform="matrix(1,0,0,1,266.62524576594296,44) translate(396.05506172839506 25.782777777777778)"/><use xlink:href="#c" transform="matrix(1,0,0,1,266.62524576594296,44) translate(464.3785185185185 25.782777777777778)"/><path d="M438.1 79.8h505.87M438.14 79.8h-1.03M943.95 79.8h1.02" stroke="#a9afb8" stroke-width="2" fill="none"/><path d="M262.63 89.16a8 8 0 0 1 8-8h837.7a8 8 0 0 1 8 8V92a8 8 0 0 1-8 8h-837.7a8 8 0 0 1-8-8z" stroke="#000" stroke-opacity="0" stroke-width="2" fill="#fff" fill-opacity="0"/><use xlink:href="#d" transform="matrix(1,0,0,1,266.6252457659434,85.15522395689881) translate(303.36601851851856 14.917037037037037)"/><use xlink:href="#e" transform="matrix(1,0,0,1,266.6252457659434,85.15522395689881) translate(357.837829218107 14.917037037037037)"/><use xlink:href="#f" transform="matrix(1,0,0,1,266.6252457659434,85.15522395689881) translate(402.664475308642 14.917037037037037)"/><use xlink:href="#g" transform="matrix(1,0,0,1,266.6252457659434,85.15522395689881) translate(415.1139609053498 14.917037037037037)"/><use xlink:href="#h" transform="matrix(1,0,0,1,266.6252457659434,85.15522395689881) translate(489.76838477366255 14.917037037037037)"/><use xlink:href="#i" transform="matrix(1,0,0,1,266.6252457659434,85.15522395689881) translate(515.2622119341564 14.917037037037037)"/><path d="M1070.44 389.74a15.24 15.24 0 0 1 14.16 0l52.5 27.56a4.2 4.2 0 0 1 0 7.44l-52.5 27.56a15.24 15.24 0 0 1-14.16 0l-52.5-27.56a4.2 4.2 0 0 1 0-7.44z" stroke="#3a414a" fill="#c3f7c8"/><path d="M977.52 399.77a5 5 0 0 1 5-5h190a5 5 0 0 1 5 5v42.5a5 5 0 0 1-5 5h-190a5 5 0 0 1-5-5z" fill="none"/><use xlink:href="#j" transform="matrix(1,0,0,1,977.5203596472666,394.7681977099952) translate(66.025 30.1)"/><path d="M536.55 556.24a15.24 15.24 0 0 1 14.17 0l52.5 27.56a4.2 4.2 0 0 1 0 7.44l-52.5 27.56a15.24 15.24 0 0 1-14.17 0l-52.5-27.56a4.2 4.2 0 0 1 0-7.44z" stroke="#3a414a" fill="#c3f7c8"/><path d="M443.63 566.27a5 5 0 0 1 5-5h190a5 5 0 0 1 5 5v42.5a5 5 0 0 1-5 5h-190a5 5 0 0 1-5-5z" fill="none"/><use xlink:href="#k" transform="matrix(1,0,0,1,443.6313942014002,561.2671750055131) translate(90 14.4)"/><use xlink:href="#l" transform="matrix(1,0,0,1,443.6313942014002,561.2671750055131) translate(45.05 36)"/><use xlink:href="#m" transform="matrix(1,0,0,1,443.6313942014002,561.2671750055131) translate(92.5 57.6)"/><path d="M1070.44 683.4a15.24 15.24 0 0 1 14.16 0l52.5 27.55a4.2 4.2 0 0 1 0 7.44l-52.5 27.55a15.24 15.24 0 0 1-14.16 0l-52.5-27.56a4.2 4.2 0 0 1 0-7.45z" stroke="#3a414a" fill="#c3f7c8"/><path d="M977.52 693.42a5 5 0 0 1 5-5h190a5 5 0 0 1 5 5v42.5a5 5 0 0 1-5 5h-190a5 5 0 0 1-5-5z" fill="none"/><use xlink:href="#n" transform="matrix(1,0,0,1,977.5203596472666,688.4224210251901) translate(90 30.1)"/><path d="M937.52 187.85a5 5 0 0 1 5-5h270a5 5 0 0 1 5 5v158a5 5 0 0 1-5 5h-270a5 5 0 0 1-5-5z" fill="#fff"/><path d="M937.52 222.85v-35a5 5 0 0 1 5-5h270a5 5 0 0 1 5 5v35" fill="#fe7070"/><path d="M937.52 187.85a5 5 0 0 1 5-5h270a5 5 0 0 1 5 5v158a5 5 0 0 1-5 5h-270a5 5 0 0 1-5-5zM937.52 222.85h280M1011.98 222.85v128M1122 222.85v128" stroke="#282c33" fill="none"/><use xlink:href="#o" transform="matrix(1,0,0,1,947.5203596472666,182.84679938928718) translate(92.57499999999999 23.6)"/><use xlink:href="#p" transform="matrix(1,0,0,1,942.5203596472666,225.34679938928718) translate(25.525 17.1)"/><use xlink:href="#q" transform="matrix(1,0,0,1,1016.9806390884759,225.34679938928718) translate(29.075 17.1)"/><use xlink:href="#r" transform="matrix(1,0,0,1,1127.0034121698454,225.34679938928718) translate(31 17.1)"/><use xlink:href="#s" transform="matrix(1,0,0,1,942.5203596472666,257.3467993892872) translate(10.024999999999999 17.1)"/><use xlink:href="#t" transform="matrix(1,0,0,1,1016.9806390884759,257.3467993892872) translate(4.599999999999994 17.1)"/><use xlink:href="#u" transform="matrix(1,0,0,1,1127.0034121698454,257.3467993892872) translate(31.525 17.1)"/><use xlink:href="#v" transform="matrix(1,0,0,1,942.5203596472666,289.3467993892872) translate(4.024999999999999 17.1)"/><use xlink:href="#w" transform="matrix(1,0,0,1,1016.9806390884759,289.3467993892872) translate(41.025 17.1)"/><use xlink:href="#x" transform="matrix(1,0,0,1,1127.0034121698454,289.3467993892872) translate(31.525 17.1)"/><use xlink:href="#y" transform="matrix(1,0,0,1,942.5203596472666,321.3467993892872) translate(8.524999999999999 17.1)"/><use xlink:href="#w" transform="matrix(1,0,0,1,1016.9806390884759,321.3467993892872) translate(41.025 17.1)"/><use xlink:href="#x" transform="matrix(1,0,0,1,1127.0034121698454,321.3467993892872) translate(31.525 17.1)"/><path d="M1077.42 370.76V387" stroke="#3a414a" fill="none"/><path d="M1087.42 351.57l-10 20-10-20" stroke="#3a414a" fill="#fff" fill-opacity="0"/><path d="M1077.42 351.57v20" stroke="#3a414a" fill="#fff"/><path d="M1077.92 387.5h-.4l-.6.02v-.54h1z" stroke="#3a414a" stroke-width=".05" fill="#3a414a"/><path d="M937.52 496.2a5 5 0 0 1 5-5h270a5 5 0 0 1 5 5v94a5 5 0 0 1-5 5h-270a5 5 0 0 1-5-5z" fill="#fff"/><path d="M937.52 531.2v-35a5 5 0 0 1 5-5h270a5 5 0 0 1 5 5v35" fill="#6db1ff"/><path d="M937.52 496.2a5 5 0 0 1 5-5h270a5 5 0 0 1 5 5v94a5 5 0 0 1-5 5h-270a5 5 0 0 1-5-5zM937.52 531.2h280M1049.23 531.2v64M1166.28 531.2v64" stroke="#282c33" fill="none"/><use xlink:href="#z" transform="matrix(1,0,0,1,947.5203596472666,491.1895960307032) translate(84.55 23.6)"/><use xlink:href="#p" transform="matrix(1,0,0,1,942.5203596472666,533.6895960307032) translate(44.025 17.1)"/><use xlink:href="#q" transform="matrix(1,0,0,1,1054.226675609892,533.6895960307032) translate(32.575 17.1)"/><use xlink:href="#r" transform="matrix(1,0,0,1,1171.2745352483232,533.6895960307032) translate(9 17.1)"/><use xlink:href="#s" transform="matrix(1,0,0,1,942.5203596472666,565.6895960307032) translate(28.525 17.1)"/><use xlink:href="#t" transform="matrix(1,0,0,1,1054.226675609892,565.6895960307032) translate(8.099999999999994 17.1)"/><path d="M1077.52 615.7v64.94" stroke="#3a414a" fill="none"/><path d="M1067.52 615.7h20M1077.52 595.7v20" stroke="#3a414a" fill="#fff"/><path d="M1078.02 681.17l-.5-.03-.5.03v-.54h1z" stroke="#3a414a" stroke-width=".05" fill="#3a414a"/><path d="M1077.52 455.05v15.64" stroke="#3a414a" fill="none"/><path d="M1077.52 454.55l.5-.03v.54h-1v-.54z" stroke="#3a414a" stroke-width=".05" fill="#3a414a"/><path d="M1087.52 470.7h-20M1077.52 490.7v-20" stroke="#3a414a" fill="#fff"/><path d="M403.63 711.15a5 5 0 0 1 5-5h270a5 5 0 0 1 5 5v350a5 5 0 0 1-5 5h-270a5 5 0 0 1-5-5z" fill="#fff"/><path d="M403.63 746.15v-35a5 5 0 0 1 5-5h270a5 5 0 0 1 5 5v35" fill="#fe7070"/><path d="M403.63 711.15a5 5 0 0 1 5-5h270a5 5 0 0 1 5 5v350a5 5 0 0 1-5 5h-270a5 5 0 0 1-5-5zM403.63 746.15h280M533.3 746.15v320M631.56 746.15v320" stroke="#282c33" fill="none"/><use xlink:href="#A" transform="matrix(1,0,0,1,413.6313942014002,706.1552460196771) translate(98.575 23.6)"/><use xlink:href="#p" transform="matrix(1,0,0,1,408.6313942014002,748.6552460196771) translate(53.025 17.1)"/><use xlink:href="#q" transform="matrix(1,0,0,1,538.3032929479682,748.6552460196771) translate(23.075 17.1)"/><use xlink:href="#r" transform="matrix(1,0,0,1,636.5604845010185,748.6552460196771) translate(9.5 17.1)"/><use xlink:href="#B" transform="matrix(1,0,0,1,408.6313942014002,780.6552460196771) translate(26.025 17.1)"/><use xlink:href="#C" transform="matrix(1,0,0,1,538.3032929479682,780.6552460196771) translate(35.025 17.1)"/><use xlink:href="#D" transform="matrix(1,0,0,1,408.6313942014002,812.6552460196771) translate(10.524999999999999 17.1)"/><use xlink:href="#t" transform="matrix(1,0,0,1,538.3032929479682,812.6552460196771) translate(-1.4000000000000057 17.1)"/><use xlink:href="#v" transform="matrix(1,0,0,1,408.6313942014002,844.6552460196771) translate(31.525 17.1)"/><use xlink:href="#w" transform="matrix(1,0,0,1,538.3032929479682,844.6552460196771) translate(35.025 17.1)"/><use xlink:href="#x" transform="matrix(1,0,0,1,636.5604845010185,844.6552460196771) translate(10.024999999999999 17.1)"/><use xlink:href="#y" transform="matrix(1,0,0,1,408.6313942014002,876.6552460196771) translate(36.025 17.1)"/><use xlink:href="#w" transform="matrix(1,0,0,1,538.3032929479682,876.6552460196771) translate(35.025 17.1)"/><use xlink:href="#x" transform="matrix(1,0,0,1,636.5604845010185,876.6552460196771) translate(10.024999999999999 17.1)"/><use xlink:href="#E" transform="matrix(1,0,0,1,408.6313942014002,908.6552460196771) translate(17.074999999999996 17.1)"/><use xlink:href="#w" transform="matrix(1,0,0,1,538.3032929479682,908.6552460196771) translate(35.025 17.1)"/><use xlink:href="#F" transform="matrix(1,0,0,1,408.6313942014002,940.6552460196771) translate(1.5749999999999957 17.1)"/><use xlink:href="#G" transform="matrix(1,0,0,1,538.3032929479682,940.6552460196771) translate(25.075 17.1)"/><use xlink:href="#H" transform="matrix(1,0,0,1,408.6313942014002,972.6552460196771) translate(24.025 17.1)"/><use xlink:href="#I" transform="matrix(1,0,0,1,538.3032929479682,972.6552460196771) translate(35.025 17.1)"/><use xlink:href="#J" transform="matrix(1,0,0,1,408.6313942014002,1004.6552460196771) translate(8.524999999999999 17.1)"/><use xlink:href="#K" transform="matrix(1,0,0,1,538.3032929479682,1004.6552460196771) translate(-1.4000000000000057 17.1)"/><use xlink:href="#L" transform="matrix(1,0,0,1,408.6313942014002,1036.6552460196772) translate(28.525 17.1)"/><use xlink:href="#M" transform="matrix(1,0,0,1,538.3032929479682,1036.6552460196772) translate(0.5499999999999972 17.1)"/><path d="M880.27 839.15a5 5 0 0 1 5-5h384.5a5 5 0 0 1 5 5v222a5 5 0 0 1-5 5h-384.5a5 5 0 0 1-5-5z" fill="#fff"/><path d="M880.27 874.15v-35a5 5 0 0 1 5-5h384.5a5 5 0 0 1 5 5v35" fill="#fe7070"/><path d="M880.27 839.15a5 5 0 0 1 5-5h384.5a5 5 0 0 1 5 5v222a5 5 0 0 1-5 5h-384.5a5 5 0 0 1-5-5zM880.27 874.15h394.5M1127.02 874.15v192M1233.9 874.15v192" stroke="#282c33" fill="none"/><use xlink:href="#N" transform="matrix(1,0,0,1,890.2703596472666,834.1552460196771) translate(137.575 23.6)"/><use xlink:href="#p" transform="matrix(1,0,0,1,885.2703596472666,876.6552460196771) translate(111.525 17.1)"/><use xlink:href="#q" transform="matrix(1,0,0,1,1132.015476216291,876.6552460196771) translate(27.075 17.1)"/><use xlink:href="#r" transform="matrix(1,0,0,1,1238.8917196599598,876.6552460196771) translate(3.5 17.1)"/><use xlink:href="#O" transform="matrix(1,0,0,1,885.2703596472666,908.6552460196771) translate(81.05 17.1)"/><use xlink:href="#C" transform="matrix(1,0,0,1,1132.015476216291,908.6552460196771) translate(39.025 17.1)"/><use xlink:href="#x" transform="matrix(1,0,0,1,1238.8917196599598,908.6552460196771) translate(4.024999999999999 17.1)"/><use xlink:href="#P" transform="matrix(1,0,0,1,885.2703596472666,940.6552460196771) translate(41.125 17.1)"/><use xlink:href="#w" transform="matrix(1,0,0,1,1132.015476216291,940.6552460196771) translate(39.025 17.1)"/><use xlink:href="#Q" transform="matrix(1,0,0,1,885.2703596472666,972.6552460196771) translate(27.125 17.1)"/><use xlink:href="#w" transform="matrix(1,0,0,1,1132.015476216291,972.6552460196771) translate(39.025 17.1)"/><use xlink:href="#R" transform="matrix(1,0,0,1,885.2703596472666,1004.6552460196771) translate(25.625 17.1)"/><use xlink:href="#K" transform="matrix(1,0,0,1,1132.015476216291,1004.6552460196771) translate(2.5999999999999943 17.1)"/><use xlink:href="#S" transform="matrix(1,0,0,1,885.2703596472666,1036.6552460196772) translate(11.625 17.1)"/><use xlink:href="#K" transform="matrix(1,0,0,1,1132.015476216291,1036.6552460196772) translate(2.5999999999999943 17.1)"/><path d="M1077.52 768.2v46.04" stroke="#3a414a" fill="none"/><path d="M1067.52 768.2h20M1077.52 748.2v20" stroke="#3a414a" fill="#fff"/><path d="M1067.52 833.43l10-20 10 20" stroke="#3a414a" fill="#fff" fill-opacity="0"/><path d="M1077.52 833.43v-20" stroke="#3a414a" fill="#fff"/><path d="M403.8 389.52a5 5 0 0 1 5-5h270a5 5 0 0 1 5 5v94a5 5 0 0 1-5 5h-270a5 5 0 0 1-5-5z" fill="#fff"/><path d="M403.8 424.52v-35a5 5 0 0 1 5-5h270a5 5 0 0 1 5 5v35" fill="#6db1ff"/><path d="M403.8 389.52a5 5 0 0 1 5-5h270a5 5 0 0 1 5 5v94a5 5 0 0 1-5 5h-270a5 5 0 0 1-5-5zM403.8 424.52h280M482.8 424.52v64M602.12 424.52v64" stroke="#282c33" fill="none"/><use xlink:href="#T" transform="matrix(1,0,0,1,413.8134652179534,384.5171750055131) translate(99.6 23.6)"/><use xlink:href="#p" transform="matrix(1,0,0,1,408.8134652179534,427.0171750055131) translate(27.525 17.1)"/><use xlink:href="#q" transform="matrix(1,0,0,1,487.81227111054756,427.0171750055131) translate(33.575 17.1)"/><use xlink:href="#r" transform="matrix(1,0,0,1,607.1226491290072,427.0171750055131) translate(24 17.1)"/><use xlink:href="#s" transform="matrix(1,0,0,1,408.8134652179534,459.0171750055131) translate(12.024999999999999 17.1)"/><use xlink:href="#t" transform="matrix(1,0,0,1,487.81227111054756,459.0171750055131) translate(9.099999999999994 17.1)"/><path d="M917.02 511.07h-94.35a12 12 0 0 1-12-12V393.8" stroke="#3a414a" fill="none"/><path d="M917.02 501.07v20M937.02 511.07h-20" stroke="#3a414a" fill="#fff"/><path d="M810.67 393.3l.5-.03v.54h-1v-.53z" stroke="#3a414a" stroke-width=".05" fill="#3a414a"/><path d="M543.8 509.02v44.48" stroke="#3a414a" fill="none"/><path d="M533.8 509.02h20M543.8 489.02v20" stroke="#3a414a" fill="#fff"/><path d="M544.3 554.02l-.67-.03h-.32v-.5h1z" stroke="#3a414a" stroke-width=".05" fill="#3a414a"/><path d="M543.63 621.54v64.7" stroke="#3a414a" fill="none"/><path d="M543.63 621.04l.5-.02v.54h-1v-.54z" stroke="#3a414a" stroke-width=".05" fill="#3a414a"/><path d="M533.63 705.43l10-20 10 20" stroke="#3a414a" fill="#fff" fill-opacity="0"/><path d="M543.63 705.43v-20" stroke="#3a414a" fill="#fff"/><path d="M403.8 189.52a5 5 0 0 1 5-5h270a5 5 0 0 1 5 5v126a5 5 0 0 1-5 5h-270a5 5 0 0 1-5-5z" fill="#fff"/><path d="M403.8 224.52v-35a5 5 0 0 1 5-5h270a5 5 0 0 1 5 5v35" fill="#fe7070"/><path d="M403.8 189.52a5 5 0 0 1 5-5h270a5 5 0 0 1 5 5v126a5 5 0 0 1-5 5h-270a5 5 0 0 1-5-5zM403.8 224.52h280M482.8 224.52v96M602.12 224.52v96" stroke="#282c33" fill="none"/><use xlink:href="#U" transform="matrix(1,0,0,1,413.8134652179534,184.51717500551308) translate(64.625 23.6)"/><use xlink:href="#p" transform="matrix(1,0,0,1,408.8134652179534,227.01717500551308) translate(27.525 17.1)"/><use xlink:href="#q" transform="matrix(1,0,0,1,487.81227111054756,227.01717500551308) translate(33.575 17.1)"/><use xlink:href="#r" transform="matrix(1,0,0,1,607.1226491290072,227.01717500551308) translate(24 17.1)"/><use xlink:href="#V" transform="matrix(1,0,0,1,408.8134652179534,259.0171750055131) translate(11.524999999999999 17.1)"/><use xlink:href="#C" transform="matrix(1,0,0,1,487.81227111054756,259.0171750055131) translate(45.525 17.1)"/><use xlink:href="#u" transform="matrix(1,0,0,1,607.1226491290072,259.0171750055131) translate(24.525 17.1)"/><use xlink:href="#W" transform="matrix(1,0,0,1,408.8134652179534,291.0171750055131) translate(1.5749999999999957 17.1)"/><use xlink:href="#I" transform="matrix(1,0,0,1,487.81227111054756,291.0171750055131) translate(45.525 17.1)"/><use xlink:href="#X" transform="matrix(1,0,0,1,607.1226491290072,291.0171750055131) translate(24.525 17.1)"/><path d="M803.58 328.5a15.24 15.24 0 0 1 14.17 0l52.5 27.55a4.2 4.2 0 0 1 0 7.44l-52.5 27.55a15.24 15.24 0 0 1-14.17 0l-52.5-27.56a4.2 4.2 0 0 1 0-7.45z" stroke="#3a414a" fill="#c3f7c8"/><path d="M710.67 338.52a5 5 0 0 1 5-5h190a5 5 0 0 1 5 5v42.5a5 5 0 0 1-5 5h-190a5 5 0 0 1-5-5z" fill="none"/><use xlink:href="#Y" transform="matrix(1,0,0,1,710.6669124326099,333.5181977099952) translate(93.525 30.1)"/><path d="M810.67 325.74v-109.4a12 12 0 0 0-12-12h-94.94" stroke="#3a414a" fill="none"/><path d="M811.17 326.26l-.5-.02-.5.02v-.53h1z" stroke="#3a414a" stroke-width=".05" fill="#3a414a"/><path d="M684.54 194.35l20 10-20 10" stroke="#3a414a" fill="#fff" fill-opacity="0"/><path d="M684.54 204.35h20" stroke="#3a414a" fill="#fff"/><path d="M197.1 268.24a15.24 15.24 0 0 1 14.17 0l52.5 27.56a4.2 4.2 0 0 1 0 7.44l-52.5 27.56a15.24 15.24 0 0 1-14.17 0l-52.5-27.56a4.2 4.2 0 0 1 0-7.44z" stroke="#3a414a" fill="#c3f7c8"/><path d="M104.2 278.27a5 5 0 0 1 5-5h190a5 5 0 0 1 5 5v42.5a5 5 0 0 1-5 5h-190a5 5 0 0 1-5-5z" fill="none"/><use xlink:href="#m" transform="matrix(1,0,0,1,104.1870263139333,273.2671750055131) translate(92.5 30.1)"/><path d="M204.2 265.5v-49.15a12 12 0 0 1 12-12h167.7" stroke="#3a414a" fill="none"/><path d="M204.7 266h-1v-.52h1z" stroke="#3a414a" stroke-width=".05" fill="#3a414a"/><path d="M403.1 214.35l-20-10 20-10" stroke="#3a414a" fill="#fff" fill-opacity="0"/><path d="M403.1 204.35h-20" stroke="#3a414a" fill="#fff"/><path d="M204.2 333.55v58.85a12 12 0 0 0 12 12h167.1" stroke="#3a414a" fill="none"/><path d="M204.2 333.05l.5-.03v.54h-1v-.54z" stroke="#3a414a" stroke-width=".05" fill="#3a414a"/><path d="M383.3 394.4v20M403.3 404.4h-20" stroke="#3a414a" fill="#fff"/><defs><path fill="#a9afb8" d="M24-248c120-7 223 5 221 122C244-46 201 0 124 0H24v-248zM76-40c74 7 117-18 117-86 0-67-45-88-117-82v168" id="Z"/><path fill="#a9afb8" d="M133-34C117-15 103 5 69 4 32 3 11-16 11-54c-1-60 55-63 116-61 1-26-3-47-28-47-18 1-26 9-28 27l-52-2c7-38 36-58 82-57s74 22 75 68l1 82c-1 14 12 18 25 15v27c-30 8-71 5-69-32zm-48 3c29 0 43-24 42-57-32 0-66-3-65 30 0 17 8 27 23 27" id="aa"/><path fill="#a9afb8" d="M115-3C79 11 28 4 28-45v-112H4v-33h27l15-45h31v45h36v33H77v99c-1 23 16 31 38 25v30" id="ab"/><path fill="#a9afb8" d="M182-130c37 4 62 22 62 59C244 23 116-4 24 0v-248c84 5 203-23 205 63 0 31-19 50-47 55zM76-148c40-3 101 13 101-30 0-44-60-28-101-31v61zm0 110c48-3 116 14 116-37 0-48-69-32-116-35v72" id="ac"/><path fill="#a9afb8" d="M137-138c1-29-70-34-71-4 15 46 118 7 119 86 1 83-164 76-172 9l43-7c4 19 20 25 44 25 33 8 57-30 24-41C81-84 22-81 20-136c-2-80 154-74 161-7" id="ad"/><path fill="#a9afb8" d="M185-48c-13 30-37 53-82 52C43 2 14-33 14-96s30-98 90-98c62 0 83 45 84 108H66c0 31 8 55 39 56 18 0 30-7 34-22zm-45-69c5-46-57-63-70-21-2 6-4 13-4 21h74" id="ae"/><g id="a"><use transform="matrix(0.0728395061728395,0,0,0.0728395061728395,0,0)" xlink:href="#Z"/><use transform="matrix(0.0728395061728395,0,0,0.0728395061728395,18.86543209876543,0)" xlink:href="#aa"/><use transform="matrix(0.0728395061728395,0,0,0.0728395061728395,33.43333333333333,0)" xlink:href="#ab"/><use transform="matrix(0.0728395061728395,0,0,0.0728395061728395,42.10123456790124,0)" xlink:href="#aa"/><use transform="matrix(0.0728395061728395,0,0,0.0728395061728395,56.66913580246913,0)" xlink:href="#ac"/><use transform="matrix(0.0728395061728395,0,0,0.0728395061728395,75.53456790123457,0)" xlink:href="#aa"/><use transform="matrix(0.0728395061728395,0,0,0.0728395061728395,90.10246913580247,0)" xlink:href="#ad"/><use transform="matrix(0.0728395061728395,0,0,0.0728395061728395,104.67037037037036,0)" xlink:href="#ae"/></g><path fill="#a9afb8" d="M24 0v-248h52v208h133V0H24" id="af"/><path fill="#a9afb8" d="M135-194c52 0 70 43 70 98 0 56-19 99-73 100-30 1-46-15-58-35L72 0H24l1-261h50v104c11-23 29-37 60-37zM114-30c31 0 40-27 40-66 0-37-7-63-39-63s-41 28-41 65c0 36 8 64 40 64" id="ag"/><path fill="#a9afb8" d="M23 0v-37h61v-169l-59 37v-38l62-41h46v211h57V0H23" id="ah"/><g id="b"><use transform="matrix(0.0728395061728395,0,0,0.0728395061728395,0,0)" xlink:href="#af"/><use transform="matrix(0.0728395061728395,0,0,0.0728395061728395,15.95185185185185,0)" xlink:href="#aa"/><use transform="matrix(0.0728395061728395,0,0,0.0728395061728395,30.51975308641975,0)" xlink:href="#ag"/><use transform="matrix(0.0728395061728395,0,0,0.0728395061728395,46.471604938271604,0)" xlink:href="#ah"/></g><path fill="#a9afb8" d="M25 0v-261h50V0H25" id="ai"/><path fill="#a9afb8" d="M110-194c64 0 96 36 96 99 0 64-35 99-97 99-61 0-95-36-95-99 0-62 34-99 96-99zm-1 164c35 0 45-28 45-65 0-40-10-65-43-65-34 0-45 26-45 65 0 36 10 65 43 65" id="aj"/><path fill="#a9afb8" d="M195-6C206 82 75 100 31 46c-4-6-6-13-8-21l49-6c3 16 16 24 34 25 40 0 42-37 40-79-11 22-30 35-61 35-53 0-70-43-70-97 0-56 18-96 73-97 30 0 46 14 59 34l2-30h47zm-90-29c32 0 41-27 41-63 0-35-9-62-40-62-32 0-39 29-40 63 0 36 9 62 39 62" id="ak"/><path fill="#a9afb8" d="M25-224v-37h50v37H25zM25 0v-190h50V0H25" id="al"/><path fill="#a9afb8" d="M190-63c-7 42-38 67-86 67-59 0-84-38-90-98-12-110 154-137 174-36l-49 2c-2-19-15-32-35-32-30 0-35 28-38 64-6 74 65 87 74 30" id="am"/><g id="c"><use transform="matrix(0.0728395061728395,0,0,0.0728395061728395,0,0)" xlink:href="#Z"/><use transform="matrix(0.0728395061728395,0,0,0.0728395061728395,18.86543209876543,0)" xlink:href="#aa"/><use transform="matrix(0.0728395061728395,0,0,0.0728395061728395,33.43333333333333,0)" xlink:href="#ab"/><use transform="matrix(0.0728395061728395,0,0,0.0728395061728395,42.10123456790124,0)" xlink:href="#aa"/><use transform="matrix(0.0728395061728395,0,0,0.0728395061728395,56.66913580246913,0)" xlink:href="#ai"/><use transform="matrix(0.0728395061728395,0,0,0.0728395061728395,63.95308641975308,0)" xlink:href="#aj"/><use transform="matrix(0.0728395061728395,0,0,0.0728395061728395,79.90493827160493,0)" xlink:href="#ak"/><use transform="matrix(0.0728395061728395,0,0,0.0728395061728395,95.85679012345679,0)" xlink:href="#al"/><use transform="matrix(0.0728395061728395,0,0,0.0728395061728395,103.14074074074074,0)" xlink:href="#am"/></g><path fill="#a9afb8" d="M195 0l-74-108L45 0H8l94-129-87-119h37l69 98 67-98h37l-84 118L233 0h-38" id="an"/><path fill="#a9afb8" d="M179-190L93 31C79 59 56 82 12 73V49c39 6 53-20 64-50L1-190h34L92-34l54-156h33" id="ao"/><path fill="#a9afb8" d="M57-190v80h85v-80h32V0h-32v-87H57V0H25v-190h32" id="ap"/><path fill="#a9afb8" d="M96-169c-40 0-48 33-48 73s9 75 48 75c24 0 41-14 43-38l32 2c-6 37-31 61-74 61-59 0-76-41-82-99-10-93 101-131 147-64 4 7 5 14 7 22l-32 3c-4-21-16-35-41-35" id="aq"/><path fill="#a9afb8" d="M20-138c-1-64 85-51 150-52V0h-32v-81H94L39 0H3l60-83c-28-5-43-24-43-55zm33 3c0 40 46 33 85 33v-66c-39 0-85-6-85 33" id="ar"/><g id="d"><use transform="matrix(0.04248971193415638,0,0,0.04248971193415638,0,0)" xlink:href="#an"/><use transform="matrix(0.04248971193415638,0,0,0.04248971193415638,9.85761316872428,0)" xlink:href="#ao"/><use transform="matrix(0.04248971193415638,0,0,0.04248971193415638,17.505761316872427,0)" xlink:href="#ap"/><use transform="matrix(0.04248971193415638,0,0,0.04248971193415638,25.91872427983539,0)" xlink:href="#aq"/><use transform="matrix(0.04248971193415638,0,0,0.04248971193415638,33.56687242798353,0)" xlink:href="#ar"/><use transform="matrix(0.04248971193415638,0,0,0.04248971193415638,41.80987654320987,0)" xlink:href="#ap"/></g><path fill="#a9afb8" d="M62-147c-4 58 76 40 115 32v-133h34V0h-34v-89C118-74 28-68 28-143v-105h34v101" id="as"/><path fill="#a9afb8" d="M156-87c-4 1-15 3-20 3V0h-31v-84c-5 0-16-2-20-3L36 0H1l62-104c-22-24-40-59-60-86h33l50 76c5 5 9 7 19 7v-83h31v83c27-1 31-21 43-41l26-42h33l-60 86L240 0h-36" id="at"/><path fill="#a9afb8" d="M100-194c62-1 85 37 85 99 1 63-27 99-86 99S16-35 15-95c0-66 28-99 85-99zM99-20c44 1 53-31 53-75 0-43-8-75-51-75s-53 32-53 75 10 74 51 75" id="au"/><g id="e"><use transform="matrix(0.04248971193415638,0,0,0.04248971193415638,0,0)" xlink:href="#as"/><use transform="matrix(0.04248971193415638,0,0,0.04248971193415638,10.155041152263374,0)" xlink:href="#at"/><use transform="matrix(0.04248971193415638,0,0,0.04248971193415638,20.352572016460904,0)" xlink:href="#au"/><use transform="matrix(0.04248971193415638,0,0,0.04248971193415638,28.68055555555555,0)" xlink:href="#ao"/></g><path fill="#a9afb8" d="M32 76v-337h29V76H32" id="av"/><use transform="matrix(0.04248971193415638,0,0,0.04248971193415638,0,0)" xlink:href="#av" id="f"/><path fill="#a9afb8" d="M190 0L58-211 59 0H30v-248h39L202-35l-2-213h31V0h-41" id="aw"/><path fill="#a9afb8" d="M100-194c62-1 85 37 85 99 1 63-27 99-86 99S16-35 15-95c0-66 28-99 85-99zM99-20c44 1 53-31 53-75 0-43-8-75-51-75s-53 32-53 75 10 74 51 75" id="ax"/><path fill="#a9afb8" d="M108 0H70L1-190h34L89-25l56-165h34" id="ay"/><path fill="#a9afb8" d="M100-194c63 0 86 42 84 106H49c0 40 14 67 53 68 26 1 43-12 49-29l28 8c-11 28-37 45-77 45C44 4 14-33 15-96c1-61 26-98 85-98zm52 81c6-60-76-77-97-28-3 7-6 17-6 28h103" id="az"/><path fill="#a9afb8" d="M210-169c-67 3-38 105-44 169h-31v-121c0-29-5-50-35-48C34-165 62-65 56 0H25l-1-190h30c1 10-1 24 2 32 10-44 99-50 107 0 11-21 27-35 58-36 85-2 47 119 55 194h-31v-121c0-29-5-49-35-48" id="aA"/><path fill="#a9afb8" d="M115-194c53 0 69 39 70 98 0 66-23 100-70 100C84 3 66-7 56-30L54 0H23l1-261h32v101c10-23 28-34 59-34zm-8 174c40 0 45-34 45-75 0-40-5-75-45-74-42 0-51 32-51 76 0 43 10 73 51 73" id="aB"/><path fill="#a9afb8" d="M114-163C36-179 61-72 57 0H25l-1-190h30c1 12-1 29 2 39 6-27 23-49 58-41v29" id="aC"/><g id="g"><use transform="matrix(0.04248971193415638,0,0,0.04248971193415638,0,0)" xlink:href="#aw"/><use transform="matrix(0.04248971193415638,0,0,0.04248971193415638,11.004835390946502,0)" xlink:href="#ax"/><use transform="matrix(0.04248971193415638,0,0,0.04248971193415638,19.502777777777776,0)" xlink:href="#ay"/><use transform="matrix(0.04248971193415638,0,0,0.04248971193415638,27.150925925925925,0)" xlink:href="#az"/><use transform="matrix(0.04248971193415638,0,0,0.04248971193415638,35.6488683127572,0)" xlink:href="#aA"/><use transform="matrix(0.04248971193415638,0,0,0.04248971193415638,48.35329218106995,0)" xlink:href="#aB"/><use transform="matrix(0.04248971193415638,0,0,0.04248971193415638,56.851234567901244,0)" xlink:href="#az"/><use transform="matrix(0.04248971193415638,0,0,0.04248971193415638,65.34917695473251,0)" xlink:href="#aC"/></g><path fill="#a9afb8" d="M27 0v-27h64v-190l-56 39v-29l58-41h29v221h61V0H27" id="aD"/><path fill="#a9afb8" d="M64 0c3-98 48-159 88-221H18v-27h164v26C143-157 98-101 97 0H64" id="aE"/><path fill="#a9afb8" d="M68-38c1 34 0 65-14 84H32c9-13 17-26 17-46H33v-38h35" id="aF"/><g id="h"><use transform="matrix(0.04248971193415638,0,0,0.04248971193415638,0,0)" xlink:href="#aD"/><use transform="matrix(0.04248971193415638,0,0,0.04248971193415638,8.497942386831275,0)" xlink:href="#aE"/><use transform="matrix(0.04248971193415638,0,0,0.04248971193415638,16.99588477366255,0)" xlink:href="#aF"/></g><path fill="#a9afb8" d="M101-251c82-7 93 87 43 132L82-64C71-53 59-42 53-27h129V0H18c2-99 128-94 128-182 0-28-16-43-45-43s-46 15-49 41l-32-3c6-41 34-60 81-64" id="aG"/><path fill="#a9afb8" d="M101-251c68 0 85 55 85 127S166 4 100 4C33 4 14-52 14-124c0-73 17-127 87-127zm-1 229c47 0 54-49 54-102s-4-102-53-102c-51 0-55 48-55 102 0 53 5 102 54 102" id="aH"/><path fill="#a9afb8" d="M126-127c33 6 58 20 58 59 0 88-139 92-164 29-3-8-5-16-6-25l32-3c6 27 21 44 54 44 32 0 52-15 52-46 0-38-36-46-79-43v-28c39 1 72-4 72-42 0-27-17-43-46-43-28 0-47 15-49 41l-32-3c6-42 35-63 81-64 48-1 79 21 79 65 0 36-21 52-52 59" id="aI"/><g id="i"><use transform="matrix(0.04248971193415638,0,0,0.04248971193415638,0,0)" xlink:href="#aG"/><use transform="matrix(0.04248971193415638,0,0,0.04248971193415638,8.497942386831275,0)" xlink:href="#aH"/><use transform="matrix(0.04248971193415638,0,0,0.04248971193415638,16.99588477366255,0)" xlink:href="#aG"/><use transform="matrix(0.04248971193415638,0,0,0.04248971193415638,25.493827160493822,0)" xlink:href="#aI"/></g><path fill="#333" d="M115-194c53 0 69 39 70 98 0 66-23 100-70 100C84 3 66-7 56-30L54 0H23l1-261h32v101c10-23 28-34 59-34zm-8 174c40 0 45-34 45-75 0-40-5-75-45-74-42 0-51 32-51 76 0 43 10 73 51 73" id="aJ"/><path fill="#333" d="M100-194c63 0 86 42 84 106H49c0 40 14 67 53 68 26 1 43-12 49-29l28 8c-11 28-37 45-77 45C44 4 14-33 15-96c1-61 26-98 85-98zm52 81c6-60-76-77-97-28-3 7-6 17-6 28h103" id="aK"/><path fill="#333" d="M59-47c-2 24 18 29 38 22v24C64 9 27 4 27-40v-127H5v-23h24l9-43h21v43h35v23H59v120" id="aL"/><path fill="#333" d="M206 0h-36l-40-164L89 0H53L-1-190h32L70-26l43-164h34l41 164 42-164h31" id="aM"/><path fill="#333" d="M117-194c89-4 53 116 60 194h-32v-121c0-31-8-49-39-48C34-167 62-67 57 0H25l-1-190h30c1 10-1 24 2 32 11-22 29-35 61-36" id="aN"/><g id="j"><use transform="matrix(0.05,0,0,0.05,0,0)" xlink:href="#aJ"/><use transform="matrix(0.05,0,0,0.05,10,0)" xlink:href="#aK"/><use transform="matrix(0.05,0,0,0.05,20,0)" xlink:href="#aL"/><use transform="matrix(0.05,0,0,0.05,25,0)" xlink:href="#aM"/><use transform="matrix(0.05,0,0,0.05,37.95,0)" xlink:href="#aK"/><use transform="matrix(0.05,0,0,0.05,47.95,0)" xlink:href="#aK"/><use transform="matrix(0.05,0,0,0.05,57.95,0)" xlink:href="#aN"/></g><g id="k"><use transform="matrix(0.05,0,0,0.05,0,0)" xlink:href="#aJ"/><use transform="matrix(0.05,0,0,0.05,10,0)" xlink:href="#aK"/></g><path fill="#333" d="M135-143c-3-34-86-38-87 0 15 53 115 12 119 90S17 21 10-45l28-5c4 36 97 45 98 0-10-56-113-15-118-90-4-57 82-63 122-42 12 7 21 19 24 35" id="aO"/><path fill="#333" d="M84 4C-5 8 30-112 23-190h32v120c0 31 7 50 39 49 72-2 45-101 50-169h31l1 190h-30c-1-10 1-25-2-33-11 22-28 36-60 37" id="aP"/><path fill="#333" d="M24-231v-30h32v30H24zM-9 49c24 4 33-6 33-30v-209h32V24c2 40-23 58-65 49V49" id="aQ"/><path fill="#333" d="M96-169c-40 0-48 33-48 73s9 75 48 75c24 0 41-14 43-38l32 2c-6 37-31 61-74 61-59 0-76-41-82-99-10-93 101-131 147-64 4 7 5 14 7 22l-32 3c-4-21-16-35-41-35" id="aR"/><path fill="#333" d="M0 4l72-265h28L28 4H0" id="aS"/><path fill="#333" d="M100-194c62-1 85 37 85 99 1 63-27 99-86 99S16-35 15-95c0-66 28-99 85-99zM99-20c44 1 53-31 53-75 0-43-8-75-51-75s-53 32-53 75 10 74 51 75" id="aT"/><g id="l"><use transform="matrix(0.05,0,0,0.05,0,0)" xlink:href="#aO"/><use transform="matrix(0.05,0,0,0.05,9,0)" xlink:href="#aP"/><use transform="matrix(0.05,0,0,0.05,19,0)" xlink:href="#aJ"/><use transform="matrix(0.05,0,0,0.05,29,0)" xlink:href="#aQ"/><use transform="matrix(0.05,0,0,0.05,32.95,0)" xlink:href="#aK"/><use transform="matrix(0.05,0,0,0.05,42.95,0)" xlink:href="#aR"/><use transform="matrix(0.05,0,0,0.05,51.95,0)" xlink:href="#aL"/><use transform="matrix(0.05,0,0,0.05,56.95,0)" xlink:href="#aS"/><use transform="matrix(0.05,0,0,0.05,61.95,0)" xlink:href="#aT"/><use transform="matrix(0.05,0,0,0.05,71.95,0)" xlink:href="#aJ"/><use transform="matrix(0.05,0,0,0.05,81.95,0)" xlink:href="#aQ"/><use transform="matrix(0.05,0,0,0.05,85.9,0)" xlink:href="#aK"/><use transform="matrix(0.05,0,0,0.05,95.9,0)" xlink:href="#aR"/><use transform="matrix(0.05,0,0,0.05,104.9,0)" xlink:href="#aL"/></g><path fill="#333" d="M101-234c-31-9-42 10-38 44h38v23H63V0H32v-167H5v-23h27c-7-52 17-82 69-68v24" id="aU"/><g id="m"><use transform="matrix(0.05,0,0,0.05,0,0)" xlink:href="#aT"/><use transform="matrix(0.05,0,0,0.05,10,0)" xlink:href="#aU"/></g><path fill="#333" d="M177-190C167-65 218 103 67 71c-23-6-38-20-44-43l32-5c15 47 100 32 89-28v-30C133-14 115 1 83 1 29 1 15-40 15-95c0-56 16-97 71-98 29-1 48 16 59 35 1-10 0-23 2-32h30zM94-22c36 0 50-32 50-73 0-42-14-75-50-75-39 0-46 34-46 75s6 73 46 73" id="aV"/><g id="n"><use transform="matrix(0.05,0,0,0.05,0,0)" xlink:href="#aV"/><use transform="matrix(0.05,0,0,0.05,10,0)" xlink:href="#aT"/></g><path fill="#333" d="M135-150c-39-12-60 13-60 57V0H25l-1-190h47c2 13-1 29 3 40 6-28 27-53 61-41v41" id="aW"/><path fill="#333" d="M185-48c-13 30-37 53-82 52C43 2 14-33 14-96s30-98 90-98c62 0 83 45 84 108H66c0 31 8 55 39 56 18 0 30-7 34-22zm-45-69c5-46-57-63-70-21-2 6-4 13-4 21h74" id="aX"/><path fill="#333" d="M25 0v-261h50V0H25" id="aY"/><path fill="#333" d="M133-34C117-15 103 5 69 4 32 3 11-16 11-54c-1-60 55-63 116-61 1-26-3-47-28-47-18 1-26 9-28 27l-52-2c7-38 36-58 82-57s74 22 75 68l1 82c-1 14 12 18 25 15v27c-30 8-71 5-69-32zm-48 3c29 0 43-24 42-57-32 0-66-3-65 30 0 17 8 27 23 27" id="aZ"/><path fill="#333" d="M115-3C79 11 28 4 28-45v-112H4v-33h27l15-45h31v45h36v33H77v99c-1 23 16 31 38 25v30" id="ba"/><path fill="#333" d="M25-224v-37h50v37H25zM25 0v-190h50V0H25" id="bb"/><path fill="#333" d="M110-194c64 0 96 36 96 99 0 64-35 99-97 99-61 0-95-36-95-99 0-62 34-99 96-99zm-1 164c35 0 45-28 45-65 0-40-10-65-43-65-34 0-45 26-45 65 0 36 10 65 43 65" id="bc"/><path fill="#333" d="M135-194c87-1 58 113 63 194h-50c-7-57 23-157-34-157-59 0-34 97-39 157H25l-1-190h47c2 12-1 28 3 38 12-26 28-41 61-42" id="bd"/><path fill="#333" d="M137-138c1-29-70-34-71-4 15 46 118 7 119 86 1 83-164 76-172 9l43-7c4 19 20 25 44 25 33 8 57-30 24-41C81-84 22-81 20-136c-2-80 154-74 161-7" id="be"/><g id="o"><use transform="matrix(0.05,0,0,0.05,0,0)" xlink:href="#aW"/><use transform="matrix(0.05,0,0,0.05,7,0)" xlink:href="#aX"/><use transform="matrix(0.05,0,0,0.05,17,0)" xlink:href="#aY"/><use transform="matrix(0.05,0,0,0.05,22,0)" xlink:href="#aZ"/><use transform="matrix(0.05,0,0,0.05,32,0)" xlink:href="#ba"/><use transform="matrix(0.05,0,0,0.05,37.95,0)" xlink:href="#bb"/><use transform="matrix(0.05,0,0,0.05,42.95,0)" xlink:href="#bc"/><use transform="matrix(0.05,0,0,0.05,53.900000000000006,0)" xlink:href="#bd"/><use transform="matrix(0.05,0,0,0.05,64.85000000000001,0)" xlink:href="#be"/></g><path d="M24-231v-30h32v30H24zM24 0v-190h32V0H24" id="bf"/><path d="M85-194c31 0 48 13 60 33l-1-100h32l1 261h-30c-2-10 0-23-3-31C134-8 116 4 85 4 32 4 16-35 15-94c0-66 23-100 70-100zm9 24c-40 0-46 34-46 75 0 40 6 74 45 74 42 0 51-32 51-76 0-42-9-74-50-73" id="bg"/><g id="p"><use transform="matrix(0.05,0,0,0.05,0,0)" xlink:href="#bf"/><use transform="matrix(0.05,0,0,0.05,3.95,0)" xlink:href="#bg"/></g><path fill="#333" d="M114-163C36-179 61-72 57 0H25l-1-190h30c1 12-1 29 2 39 6-27 23-49 58-41v29" id="bh"/><path fill="#333" d="M24-231v-30h32v30H24zM24 0v-190h32V0H24" id="bi"/><path fill="#333" d="M141-36C126-15 110 5 73 4 37 3 15-17 15-53c-1-64 63-63 125-63 3-35-9-54-41-54-24 1-41 7-42 31l-33-3c5-37 33-52 76-52 45 0 72 20 72 64v82c-1 20 7 32 28 27v20c-31 9-61-2-59-35zM48-53c0 20 12 33 32 33 41-3 63-29 60-74-43 2-92-5-92 41" id="bj"/><path fill="#333" d="M24 0v-261h32V0H24" id="bk"/><g id="q"><use transform="matrix(0.05,0,0,0.05,0,0)" xlink:href="#aO"/><use transform="matrix(0.05,0,0,0.05,9,0)" xlink:href="#aK"/><use transform="matrix(0.05,0,0,0.05,19,0)" xlink:href="#bh"/><use transform="matrix(0.05,0,0,0.05,24.95,0)" xlink:href="#bi"/><use transform="matrix(0.05,0,0,0.05,28.899999999999995,0)" xlink:href="#bj"/><use transform="matrix(0.05,0,0,0.05,38.9,0)" xlink:href="#bk"/></g><path fill="#333" d="M30-248c87 1 191-15 191 75 0 78-77 80-158 76V0H30v-248zm33 125c57 0 124 11 124-50 0-59-68-47-124-48v98" id="bl"/><path fill="#333" d="M194 0L95-120 63-95V0H30v-248h33v124l119-124h40L117-140 236 0h-42" id="bm"/><g id="r"><use transform="matrix(0.05,0,0,0.05,0,0)" xlink:href="#bl"/><use transform="matrix(0.05,0,0,0.05,12,0)" xlink:href="#bm"/></g><path d="M117-194c89-4 53 116 60 194h-32v-121c0-31-8-49-39-48C34-167 62-67 57 0H25l-1-190h30c1 10-1 24 2 32 11-22 29-35 61-36" id="bn"/><path d="M141-36C126-15 110 5 73 4 37 3 15-17 15-53c-1-64 63-63 125-63 3-35-9-54-41-54-24 1-41 7-42 31l-33-3c5-37 33-52 76-52 45 0 72 20 72 64v82c-1 20 7 32 28 27v20c-31 9-61-2-59-35zM48-53c0 20 12 33 32 33 41-3 63-29 60-74-43 2-92-5-92 41" id="bo"/><path d="M210-169c-67 3-38 105-44 169h-31v-121c0-29-5-50-35-48C34-165 62-65 56 0H25l-1-190h30c1 10-1 24 2 32 10-44 99-50 107 0 11-21 27-35 58-36 85-2 47 119 55 194h-31v-121c0-29-5-49-35-48" id="bp"/><path d="M100-194c63 0 86 42 84 106H49c0 40 14 67 53 68 26 1 43-12 49-29l28 8c-11 28-37 45-77 45C44 4 14-33 15-96c1-61 26-98 85-98zm52 81c6-60-76-77-97-28-3 7-6 17-6 28h103" id="bq"/><g id="s"><use transform="matrix(0.05,0,0,0.05,0,0)" xlink:href="#bn"/><use transform="matrix(0.05,0,0,0.05,10,0)" xlink:href="#bo"/><use transform="matrix(0.05,0,0,0.05,20,0)" xlink:href="#bp"/><use transform="matrix(0.05,0,0,0.05,34.95,0)" xlink:href="#bq"/></g><path fill="#333" d="M108 0H70L1-190h34L89-25l56-165h34" id="br"/><path fill="#333" d="M106-169C34-169 62-67 57 0H25v-261h32l-1 103c12-21 28-36 61-36 89 0 53 116 60 194h-32v-121c2-32-8-49-39-48" id="bs"/><path fill="#333" d="M87 75C49 33 22-17 22-94c0-76 28-126 65-167h31c-38 41-64 92-64 168S80 34 118 75H87" id="bt"/><path fill="#333" d="M110-160c48 1 74 30 74 79 0 53-28 85-80 85-65 0-83-55-86-122-5-90 50-162 133-122 14 7 22 21 27 39l-31 6c-5-40-67-38-82-6-9 19-15 44-15 74 11-20 30-34 60-33zm-7 138c34 0 49-23 49-58s-16-56-50-56c-29 0-50 16-49 49 1 36 15 65 50 65" id="bu"/><path fill="#333" d="M155-56V0h-30v-56H8v-25l114-167h33v167h35v25h-35zm-30-156c-27 46-58 90-88 131h88v-131" id="bv"/><path fill="#333" d="M33-261c38 41 65 92 65 168S71 34 33 75H2C39 34 66-17 66-93S39-220 2-261h31" id="bw"/><g id="t"><use transform="matrix(0.05,0,0,0.05,0,0)" xlink:href="#br"/><use transform="matrix(0.05,0,0,0.05,9,0)" xlink:href="#bj"/><use transform="matrix(0.05,0,0,0.05,19,0)" xlink:href="#bh"/><use transform="matrix(0.05,0,0,0.05,24.95,0)" xlink:href="#aR"/><use transform="matrix(0.05,0,0,0.05,33.95,0)" xlink:href="#bs"/><use transform="matrix(0.05,0,0,0.05,43.95,0)" xlink:href="#bj"/><use transform="matrix(0.05,0,0,0.05,53.95,0)" xlink:href="#bh"/><use transform="matrix(0.05,0,0,0.05,59.900000000000006,0)" xlink:href="#bt"/><use transform="matrix(0.05,0,0,0.05,65.85000000000001,0)" xlink:href="#bu"/><use transform="matrix(0.05,0,0,0.05,75.85000000000001,0)" xlink:href="#bv"/><use transform="matrix(0.05,0,0,0.05,85.85000000000001,0)" xlink:href="#bw"/></g><path fill="#333" d="M63-220v92h138v28H63V0H30v-248h175v28H63" id="bx"/><g id="u"><use transform="matrix(0.05,0,0,0.05,0,0)" xlink:href="#bx"/><use transform="matrix(0.05,0,0,0.05,10.950000000000001,0)" xlink:href="#bm"/></g><path d="M135-143c-3-34-86-38-87 0 15 53 115 12 119 90S17 21 10-45l28-5c4 36 97 45 98 0-10-56-113-15-118-90-4-57 82-63 122-42 12 7 21 19 24 35" id="by"/><path d="M84 4C-5 8 30-112 23-190h32v120c0 31 7 50 39 49 72-2 45-101 50-169h31l1 190h-30c-1-10 1-25-2-33-11 22-28 36-60 37" id="bz"/><path d="M115-194c53 0 69 39 70 98 0 66-23 100-70 100C84 3 66-7 56-30L54 0H23l1-261h32v101c10-23 28-34 59-34zm-8 174c40 0 45-34 45-75 0-40-5-75-45-74-42 0-51 32-51 76 0 43 10 73 51 73" id="bA"/><path d="M24-231v-30h32v30H24zM-9 49c24 4 33-6 33-30v-209h32V24c2 40-23 58-65 49V49" id="bB"/><path d="M96-169c-40 0-48 33-48 73s9 75 48 75c24 0 41-14 43-38l32 2c-6 37-31 61-74 61-59 0-76-41-82-99-10-93 101-131 147-64 4 7 5 14 7 22l-32 3c-4-21-16-35-41-35" id="bC"/><path d="M59-47c-2 24 18 29 38 22v24C64 9 27 4 27-40v-127H5v-23h24l9-43h21v43h35v23H59v120" id="bD"/><g id="v"><use transform="matrix(0.05,0,0,0.05,0,0)" xlink:href="#by"/><use transform="matrix(0.05,0,0,0.05,9,0)" xlink:href="#bz"/><use transform="matrix(0.05,0,0,0.05,19,0)" xlink:href="#bA"/><use transform="matrix(0.05,0,0,0.05,29,0)" xlink:href="#bB"/><use transform="matrix(0.05,0,0,0.05,32.95,0)" xlink:href="#bq"/><use transform="matrix(0.05,0,0,0.05,42.95,0)" xlink:href="#bC"/><use transform="matrix(0.05,0,0,0.05,51.95,0)" xlink:href="#bD"/></g><g id="w"><use transform="matrix(0.05,0,0,0.05,0,0)" xlink:href="#bi"/><use transform="matrix(0.05,0,0,0.05,3.95,0)" xlink:href="#aN"/><use transform="matrix(0.05,0,0,0.05,13.949999999999998,0)" xlink:href="#aL"/></g><g id="x"><use transform="matrix(0.05,0,0,0.05,0,0)" xlink:href="#bx"/><use transform="matrix(0.05,0,0,0.05,10.950000000000001,0)" xlink:href="#bm"/></g><path d="M100-194c62-1 85 37 85 99 1 63-27 99-86 99S16-35 15-95c0-66 28-99 85-99zM99-20c44 1 53-31 53-75 0-43-8-75-51-75s-53 32-53 75 10 74 51 75" id="bE"/><g id="y"><use transform="matrix(0.05,0,0,0.05,0,0)" xlink:href="#bE"/><use transform="matrix(0.05,0,0,0.05,10,0)" xlink:href="#bA"/><use transform="matrix(0.05,0,0,0.05,20,0)" xlink:href="#bB"/><use transform="matrix(0.05,0,0,0.05,23.95,0)" xlink:href="#bq"/><use transform="matrix(0.05,0,0,0.05,33.95,0)" xlink:href="#bC"/><use transform="matrix(0.05,0,0,0.05,42.95,0)" xlink:href="#bD"/></g><path fill="#333" d="M190-63c-7 42-38 67-86 67-59 0-84-38-90-98-12-110 154-137 174-36l-49 2c-2-19-15-32-35-32-30 0-35 28-38 64-6 74 65 87 74 30" id="bF"/><path fill="#333" d="M114-157C55-157 80-60 75 0H25v-261h50l-1 109c12-26 28-41 61-42 86-1 58 113 63 194h-50c-7-57 23-157-34-157" id="bG"/><g id="z"><use transform="matrix(0.05,0,0,0.05,0,0)" xlink:href="#bF"/><use transform="matrix(0.05,0,0,0.05,10,0)" xlink:href="#bG"/><use transform="matrix(0.05,0,0,0.05,20.950000000000003,0)" xlink:href="#aZ"/><use transform="matrix(0.05,0,0,0.05,30.950000000000003,0)" xlink:href="#aW"/><use transform="matrix(0.05,0,0,0.05,37.95,0)" xlink:href="#aZ"/><use transform="matrix(0.05,0,0,0.05,47.95,0)" xlink:href="#bF"/><use transform="matrix(0.05,0,0,0.05,57.95,0)" xlink:href="#ba"/><use transform="matrix(0.05,0,0,0.05,63.900000000000006,0)" xlink:href="#aX"/><use transform="matrix(0.05,0,0,0.05,73.9,0)" xlink:href="#aW"/><use transform="matrix(0.05,0,0,0.05,80.9,0)" xlink:href="#be"/></g><g id="A"><use transform="matrix(0.05,0,0,0.05,0,0)" xlink:href="#aZ"/><use transform="matrix(0.05,0,0,0.05,10,0)" xlink:href="#bF"/><use transform="matrix(0.05,0,0,0.05,20,0)" xlink:href="#ba"/><use transform="matrix(0.05,0,0,0.05,25.950000000000003,0)" xlink:href="#bb"/><use transform="matrix(0.05,0,0,0.05,30.950000000000003,0)" xlink:href="#bc"/><use transform="matrix(0.05,0,0,0.05,41.9,0)" xlink:href="#bd"/><use transform="matrix(0.05,0,0,0.05,52.85,0)" xlink:href="#be"/></g><path d="M108 0H70L1-190h34L89-25l56-165h34" id="bH"/><path d="M-5 72V49h209v23H-5" id="bI"/><g id="B"><use transform="matrix(0.05,0,0,0.05,0,0)" xlink:href="#bq"/><use transform="matrix(0.05,0,0,0.05,10,0)" xlink:href="#bH"/><use transform="matrix(0.05,0,0,0.05,19,0)" xlink:href="#bq"/><use transform="matrix(0.05,0,0,0.05,29,0)" xlink:href="#bn"/><use transform="matrix(0.05,0,0,0.05,39,0)" xlink:href="#bD"/><use transform="matrix(0.05,0,0,0.05,44,0)" xlink:href="#bI"/><use transform="matrix(0.05,0,0,0.05,54,0)" xlink:href="#bf"/><use transform="matrix(0.05,0,0,0.05,57.95,0)" xlink:href="#bg"/></g><g id="C"><use transform="matrix(0.05,0,0,0.05,0,0)" xlink:href="#bi"/><use transform="matrix(0.05,0,0,0.05,3.95,0)" xlink:href="#aN"/><use transform="matrix(0.05,0,0,0.05,13.949999999999998,0)" xlink:href="#aL"/></g><g id="D"><use transform="matrix(0.05,0,0,0.05,0,0)" xlink:href="#bq"/><use transform="matrix(0.05,0,0,0.05,10,0)" xlink:href="#bH"/><use transform="matrix(0.05,0,0,0.05,19,0)" xlink:href="#bq"/><use transform="matrix(0.05,0,0,0.05,29,0)" xlink:href="#bn"/><use transform="matrix(0.05,0,0,0.05,39,0)" xlink:href="#bD"/><use transform="matrix(0.05,0,0,0.05,44,0)" xlink:href="#bI"/><use transform="matrix(0.05,0,0,0.05,54,0)" xlink:href="#bn"/><use transform="matrix(0.05,0,0,0.05,64,0)" xlink:href="#bo"/><use transform="matrix(0.05,0,0,0.05,74,0)" xlink:href="#bp"/><use transform="matrix(0.05,0,0,0.05,88.95,0)" xlink:href="#bq"/></g><path d="M24 0v-261h32V0H24" id="bJ"/><g id="E"><use transform="matrix(0.05,0,0,0.05,0,0)" xlink:href="#bJ"/><use transform="matrix(0.05,0,0,0.05,3.95,0)" xlink:href="#bE"/><use transform="matrix(0.05,0,0,0.05,13.949999999999998,0)" xlink:href="#bC"/><use transform="matrix(0.05,0,0,0.05,22.95,0)" xlink:href="#bo"/><use transform="matrix(0.05,0,0,0.05,32.95,0)" xlink:href="#bD"/><use transform="matrix(0.05,0,0,0.05,37.95,0)" xlink:href="#bf"/><use transform="matrix(0.05,0,0,0.05,41.900000000000006,0)" xlink:href="#bE"/><use transform="matrix(0.05,0,0,0.05,51.900000000000006,0)" xlink:href="#bn"/><use transform="matrix(0.05,0,0,0.05,61.900000000000006,0)" xlink:href="#bI"/><use transform="matrix(0.05,0,0,0.05,71.9,0)" xlink:href="#bf"/><use transform="matrix(0.05,0,0,0.05,75.85000000000001,0)" xlink:href="#bg"/></g><g id="F"><use transform="matrix(0.05,0,0,0.05,0,0)" xlink:href="#bJ"/><use transform="matrix(0.05,0,0,0.05,3.95,0)" xlink:href="#bE"/><use transform="matrix(0.05,0,0,0.05,13.949999999999998,0)" xlink:href="#bC"/><use transform="matrix(0.05,0,0,0.05,22.95,0)" xlink:href="#bo"/><use transform="matrix(0.05,0,0,0.05,32.95,0)" xlink:href="#bD"/><use transform="matrix(0.05,0,0,0.05,37.95,0)" xlink:href="#bf"/><use transform="matrix(0.05,0,0,0.05,41.900000000000006,0)" xlink:href="#bE"/><use transform="matrix(0.05,0,0,0.05,51.900000000000006,0)" xlink:href="#bn"/><use transform="matrix(0.05,0,0,0.05,61.900000000000006,0)" xlink:href="#bI"/><use transform="matrix(0.05,0,0,0.05,71.9,0)" xlink:href="#bn"/><use transform="matrix(0.05,0,0,0.05,81.9,0)" xlink:href="#bo"/><use transform="matrix(0.05,0,0,0.05,91.9,0)" xlink:href="#bp"/><use transform="matrix(0.05,0,0,0.05,106.85000000000001,0)" xlink:href="#bq"/></g><path d="M63-220v92h138v28H63V0H30v-248h175v28H63" id="bK"/><g id="G"><use transform="matrix(0.05,0,0,0.05,0,0)" xlink:href="#bK"/><use transform="matrix(0.05,0,0,0.05,10.950000000000001,0)" xlink:href="#bf"/><use transform="matrix(0.05,0,0,0.05,14.9,0)" xlink:href="#bq"/><use transform="matrix(0.05,0,0,0.05,24.900000000000002,0)" xlink:href="#bJ"/><use transform="matrix(0.05,0,0,0.05,28.85,0)" xlink:href="#bg"/></g><g id="H"><use transform="matrix(0.05,0,0,0.05,0,0)" xlink:href="#by"/><use transform="matrix(0.05,0,0,0.05,9,0)" xlink:href="#bD"/><use transform="matrix(0.05,0,0,0.05,14,0)" xlink:href="#bo"/><use transform="matrix(0.05,0,0,0.05,24,0)" xlink:href="#bD"/><use transform="matrix(0.05,0,0,0.05,29,0)" xlink:href="#bz"/><use transform="matrix(0.05,0,0,0.05,39,0)" xlink:href="#by"/><use transform="matrix(0.05,0,0,0.05,48,0)" xlink:href="#bI"/><use transform="matrix(0.05,0,0,0.05,58,0)" xlink:href="#bf"/><use transform="matrix(0.05,0,0,0.05,61.95,0)" xlink:href="#bg"/></g><g id="I"><use transform="matrix(0.05,0,0,0.05,0,0)" xlink:href="#bf"/><use transform="matrix(0.05,0,0,0.05,3.95,0)" xlink:href="#bn"/><use transform="matrix(0.05,0,0,0.05,13.949999999999998,0)" xlink:href="#bD"/></g><g id="J"><use transform="matrix(0.05,0,0,0.05,0,0)" xlink:href="#by"/><use transform="matrix(0.05,0,0,0.05,9,0)" xlink:href="#bD"/><use transform="matrix(0.05,0,0,0.05,14,0)" xlink:href="#bo"/><use transform="matrix(0.05,0,0,0.05,24,0)" xlink:href="#bD"/><use transform="matrix(0.05,0,0,0.05,29,0)" xlink:href="#bz"/><use transform="matrix(0.05,0,0,0.05,39,0)" xlink:href="#by"/><use transform="matrix(0.05,0,0,0.05,48,0)" xlink:href="#bI"/><use transform="matrix(0.05,0,0,0.05,58,0)" xlink:href="#bn"/><use transform="matrix(0.05,0,0,0.05,68,0)" xlink:href="#bo"/><use transform="matrix(0.05,0,0,0.05,78,0)" xlink:href="#bp"/><use transform="matrix(0.05,0,0,0.05,92.95,0)" xlink:href="#bq"/></g><path d="M114-163C36-179 61-72 57 0H25l-1-190h30c1 12-1 29 2 39 6-27 23-49 58-41v29" id="bL"/><path d="M106-169C34-169 62-67 57 0H25v-261h32l-1 103c12-21 28-36 61-36 89 0 53 116 60 194h-32v-121c2-32-8-49-39-48" id="bM"/><path d="M87 75C49 33 22-17 22-94c0-76 28-126 65-167h31c-38 41-64 92-64 168S80 34 118 75H87" id="bN"/><path d="M110-160c48 1 74 30 74 79 0 53-28 85-80 85-65 0-83-55-86-122-5-90 50-162 133-122 14 7 22 21 27 39l-31 6c-5-40-67-38-82-6-9 19-15 44-15 74 11-20 30-34 60-33zm-7 138c34 0 49-23 49-58s-16-56-50-56c-29 0-50 16-49 49 1 36 15 65 50 65" id="bO"/><path d="M155-56V0h-30v-56H8v-25l114-167h33v167h35v25h-35zm-30-156c-27 46-58 90-88 131h88v-131" id="bP"/><path d="M33-261c38 41 65 92 65 168S71 34 33 75H2C39 34 66-17 66-93S39-220 2-261h31" id="bQ"/><g id="K"><use transform="matrix(0.05,0,0,0.05,0,0)" xlink:href="#bH"/><use transform="matrix(0.05,0,0,0.05,9,0)" xlink:href="#bo"/><use transform="matrix(0.05,0,0,0.05,19,0)" xlink:href="#bL"/><use transform="matrix(0.05,0,0,0.05,24.95,0)" xlink:href="#bC"/><use transform="matrix(0.05,0,0,0.05,33.95,0)" xlink:href="#bM"/><use transform="matrix(0.05,0,0,0.05,43.95,0)" xlink:href="#bo"/><use transform="matrix(0.05,0,0,0.05,53.95,0)" xlink:href="#bL"/><use transform="matrix(0.05,0,0,0.05,59.900000000000006,0)" xlink:href="#bN"/><use transform="matrix(0.05,0,0,0.05,65.85000000000001,0)" xlink:href="#bO"/><use transform="matrix(0.05,0,0,0.05,75.85000000000001,0)" xlink:href="#bP"/><use transform="matrix(0.05,0,0,0.05,85.85000000000001,0)" xlink:href="#bQ"/></g><path d="M115-194c55 1 70 41 70 98S169 2 115 4C84 4 66-9 55-30l1 105H24l-1-265h31l2 30c10-21 28-34 59-34zm-8 174c40 0 45-34 45-75s-6-73-45-74c-42 0-51 32-51 76 0 43 10 73 51 73" id="bR"/><g id="L"><use transform="matrix(0.05,0,0,0.05,0,0)" xlink:href="#bR"/><use transform="matrix(0.05,0,0,0.05,10,0)" xlink:href="#bL"/><use transform="matrix(0.05,0,0,0.05,15.949999999999998,0)" xlink:href="#bE"/><use transform="matrix(0.05,0,0,0.05,25.950000000000003,0)" xlink:href="#bC"/><use transform="matrix(0.05,0,0,0.05,34.95,0)" xlink:href="#bq"/><use transform="matrix(0.05,0,0,0.05,44.95,0)" xlink:href="#by"/><use transform="matrix(0.05,0,0,0.05,53.95,0)" xlink:href="#by"/></g><path d="M30-248c87 1 191-15 191 75 0 78-77 80-158 76V0H30v-248zm33 125c57 0 124 11 124-50 0-59-68-47-124-48v98" id="bS"/><path d="M233-177c-1 41-23 64-60 70L243 0h-38l-65-103H63V0H30v-248c88 3 205-21 203 71zM63-129c60-2 137 13 137-47 0-61-80-42-137-45v92" id="bT"/><path d="M140-251c81 0 123 46 123 126C263-46 219 4 140 4 59 4 17-45 17-125s42-126 123-126zm0 227c63 0 89-41 89-101s-29-99-89-99c-61 0-89 39-89 99S79-25 140-24" id="bU"/><path d="M212-179c-10-28-35-45-73-45-59 0-87 40-87 99 0 60 29 101 89 101 43 0 62-24 78-52l27 14C228-24 195 4 139 4 59 4 22-46 18-125c-6-104 99-153 187-111 19 9 31 26 39 46" id="bV"/><path d="M30 0v-248h187v28H63v79h144v27H63v87h162V0H30" id="bW"/><path d="M185-189c-5-48-123-54-124 2 14 75 158 14 163 119 3 78-121 87-175 55-17-10-28-26-33-46l33-7c5 56 141 63 141-1 0-78-155-14-162-118-5-82 145-84 179-34 5 7 8 16 11 25" id="bX"/><g id="M"><use transform="matrix(0.05,0,0,0.05,0,0)" xlink:href="#bS"/><use transform="matrix(0.05,0,0,0.05,12,0)" xlink:href="#bT"/><use transform="matrix(0.05,0,0,0.05,24.950000000000003,0)" xlink:href="#bU"/><use transform="matrix(0.05,0,0,0.05,38.95,0)" xlink:href="#bV"/><use transform="matrix(0.05,0,0,0.05,51.900000000000006,0)" xlink:href="#bW"/><use transform="matrix(0.05,0,0,0.05,63.900000000000006,0)" xlink:href="#bX"/><use transform="matrix(0.05,0,0,0.05,75.9,0)" xlink:href="#bX"/></g><path fill="#333" d="M220-157c-53 9-28 100-34 157h-49v-107c1-27-5-49-29-50C55-147 81-57 75 0H25l-1-190h47c2 12-1 28 3 38 10-53 101-56 108 0 13-22 24-43 59-42 82 1 51 116 57 194h-49v-107c-1-25-5-48-29-50" id="bY"/><path fill="#333" d="M128 0H69L1-190h53L99-40l48-150h52" id="bZ"/><g id="N"><use transform="matrix(0.05,0,0,0.05,0,0)" xlink:href="#bY"/><use transform="matrix(0.05,0,0,0.05,16,0)" xlink:href="#bc"/><use transform="matrix(0.05,0,0,0.05,26.950000000000003,0)" xlink:href="#bZ"/><use transform="matrix(0.05,0,0,0.05,36.95,0)" xlink:href="#aX"/><use transform="matrix(0.05,0,0,0.05,46.95,0)" xlink:href="#bY"/><use transform="matrix(0.05,0,0,0.05,62.95,0)" xlink:href="#aX"/><use transform="matrix(0.05,0,0,0.05,72.95,0)" xlink:href="#bd"/><use transform="matrix(0.05,0,0,0.05,83.9,0)" xlink:href="#ba"/><use transform="matrix(0.05,0,0,0.05,89.85000000000001,0)" xlink:href="#be"/></g><g id="O"><use transform="matrix(0.05,0,0,0.05,0,0)" xlink:href="#bC"/><use transform="matrix(0.05,0,0,0.05,9,0)" xlink:href="#bM"/><use transform="matrix(0.05,0,0,0.05,19,0)" xlink:href="#bo"/><use transform="matrix(0.05,0,0,0.05,29,0)" xlink:href="#bL"/><use transform="matrix(0.05,0,0,0.05,34.95,0)" xlink:href="#bo"/><use transform="matrix(0.05,0,0,0.05,44.95,0)" xlink:href="#bC"/><use transform="matrix(0.05,0,0,0.05,53.95,0)" xlink:href="#bD"/><use transform="matrix(0.05,0,0,0.05,58.95,0)" xlink:href="#bq"/><use transform="matrix(0.05,0,0,0.05,68.95,0)" xlink:href="#bL"/></g><path d="M177-190C167-65 218 103 67 71c-23-6-38-20-44-43l32-5c15 47 100 32 89-28v-30C133-14 115 1 83 1 29 1 15-40 15-95c0-56 16-97 71-98 29-1 48 16 59 35 1-10 0-23 2-32h30zM94-22c36 0 50-32 50-73 0-42-14-75-50-75-39 0-46 34-46 75s6 73 46 73" id="ca"/><g id="P"><use transform="matrix(0.05,0,0,0.05,0,0)" xlink:href="#by"/><use transform="matrix(0.05,0,0,0.05,9,0)" xlink:href="#bD"/><use transform="matrix(0.05,0,0,0.05,14,0)" xlink:href="#bo"/><use transform="matrix(0.05,0,0,0.05,24,0)" xlink:href="#bL"/><use transform="matrix(0.05,0,0,0.05,29.950000000000003,0)" xlink:href="#bD"/><use transform="matrix(0.05,0,0,0.05,34.95,0)" xlink:href="#bf"/><use transform="matrix(0.05,0,0,0.05,38.900000000000006,0)" xlink:href="#bn"/><use transform="matrix(0.05,0,0,0.05,48.900000000000006,0)" xlink:href="#ca"/><use transform="matrix(0.05,0,0,0.05,58.900000000000006,0)" xlink:href="#bI"/><use transform="matrix(0.05,0,0,0.05,68.9,0)" xlink:href="#bJ"/><use transform="matrix(0.05,0,0,0.05,72.85000000000001,0)" xlink:href="#bE"/><use transform="matrix(0.05,0,0,0.05,82.85000000000001,0)" xlink:href="#bC"/><use transform="matrix(0.05,0,0,0.05,91.85000000000001,0)" xlink:href="#bo"/><use transform="matrix(0.05,0,0,0.05,101.85000000000001,0)" xlink:href="#bD"/><use transform="matrix(0.05,0,0,0.05,106.85000000000001,0)" xlink:href="#bf"/><use transform="matrix(0.05,0,0,0.05,110.80000000000001,0)" xlink:href="#bE"/><use transform="matrix(0.05,0,0,0.05,120.80000000000001,0)" xlink:href="#bn"/><use transform="matrix(0.05,0,0,0.05,130.8,0)" xlink:href="#bI"/><use transform="matrix(0.05,0,0,0.05,140.8,0)" xlink:href="#bf"/><use transform="matrix(0.05,0,0,0.05,144.75,0)" xlink:href="#bg"/></g><g id="Q"><use transform="matrix(0.05,0,0,0.05,0,0)" xlink:href="#bg"/><use transform="matrix(0.05,0,0,0.05,10,0)" xlink:href="#bq"/><use transform="matrix(0.05,0,0,0.05,20,0)" xlink:href="#by"/><use transform="matrix(0.05,0,0,0.05,29,0)" xlink:href="#bD"/><use transform="matrix(0.05,0,0,0.05,34,0)" xlink:href="#bf"/><use transform="matrix(0.05,0,0,0.05,37.95,0)" xlink:href="#bn"/><use transform="matrix(0.05,0,0,0.05,47.95,0)" xlink:href="#bo"/><use transform="matrix(0.05,0,0,0.05,57.95,0)" xlink:href="#bD"/><use transform="matrix(0.05,0,0,0.05,62.95,0)" xlink:href="#bf"/><use transform="matrix(0.05,0,0,0.05,66.9,0)" xlink:href="#bE"/><use transform="matrix(0.05,0,0,0.05,76.9,0)" xlink:href="#bn"/><use transform="matrix(0.05,0,0,0.05,86.9,0)" xlink:href="#bI"/><use transform="matrix(0.05,0,0,0.05,96.9,0)" xlink:href="#bJ"/><use transform="matrix(0.05,0,0,0.05,100.85000000000001,0)" xlink:href="#bE"/><use transform="matrix(0.05,0,0,0.05,110.85000000000001,0)" xlink:href="#bC"/><use transform="matrix(0.05,0,0,0.05,119.85000000000001,0)" xlink:href="#bo"/><use transform="matrix(0.05,0,0,0.05,129.85000000000002,0)" xlink:href="#bD"/><use transform="matrix(0.05,0,0,0.05,134.85000000000002,0)" xlink:href="#bf"/><use transform="matrix(0.05,0,0,0.05,138.8,0)" xlink:href="#bE"/><use transform="matrix(0.05,0,0,0.05,148.8,0)" xlink:href="#bn"/><use transform="matrix(0.05,0,0,0.05,158.8,0)" xlink:href="#bI"/><use transform="matrix(0.05,0,0,0.05,168.8,0)" xlink:href="#bf"/><use transform="matrix(0.05,0,0,0.05,172.75,0)" xlink:href="#bg"/></g><g id="R"><use transform="matrix(0.05,0,0,0.05,0,0)" xlink:href="#by"/><use transform="matrix(0.05,0,0,0.05,9,0)" xlink:href="#bD"/><use transform="matrix(0.05,0,0,0.05,14,0)" xlink:href="#bo"/><use transform="matrix(0.05,0,0,0.05,24,0)" xlink:href="#bL"/><use transform="matrix(0.05,0,0,0.05,29.950000000000003,0)" xlink:href="#bD"/><use transform="matrix(0.05,0,0,0.05,34.95,0)" xlink:href="#bf"/><use transform="matrix(0.05,0,0,0.05,38.900000000000006,0)" xlink:href="#bn"/><use transform="matrix(0.05,0,0,0.05,48.900000000000006,0)" xlink:href="#ca"/><use transform="matrix(0.05,0,0,0.05,58.900000000000006,0)" xlink:href="#bI"/><use transform="matrix(0.05,0,0,0.05,68.9,0)" xlink:href="#bJ"/><use transform="matrix(0.05,0,0,0.05,72.85000000000001,0)" xlink:href="#bE"/><use transform="matrix(0.05,0,0,0.05,82.85000000000001,0)" xlink:href="#bC"/><use transform="matrix(0.05,0,0,0.05,91.85000000000001,0)" xlink:href="#bo"/><use transform="matrix(0.05,0,0,0.05,101.85000000000001,0)" xlink:href="#bD"/><use transform="matrix(0.05,0,0,0.05,106.85000000000001,0)" xlink:href="#bf"/><use transform="matrix(0.05,0,0,0.05,110.80000000000001,0)" xlink:href="#bE"/><use transform="matrix(0.05,0,0,0.05,120.80000000000001,0)" xlink:href="#bn"/><use transform="matrix(0.05,0,0,0.05,130.8,0)" xlink:href="#bI"/><use transform="matrix(0.05,0,0,0.05,140.8,0)" xlink:href="#bn"/><use transform="matrix(0.05,0,0,0.05,150.8,0)" xlink:href="#bo"/><use transform="matrix(0.05,0,0,0.05,160.8,0)" xlink:href="#bp"/><use transform="matrix(0.05,0,0,0.05,175.75,0)" xlink:href="#bq"/></g><g id="S"><use transform="matrix(0.05,0,0,0.05,0,0)" xlink:href="#bg"/><use transform="matrix(0.05,0,0,0.05,10,0)" xlink:href="#bq"/><use transform="matrix(0.05,0,0,0.05,20,0)" xlink:href="#by"/><use transform="matrix(0.05,0,0,0.05,29,0)" xlink:href="#bD"/><use transform="matrix(0.05,0,0,0.05,34,0)" xlink:href="#bf"/><use transform="matrix(0.05,0,0,0.05,37.95,0)" xlink:href="#bn"/><use transform="matrix(0.05,0,0,0.05,47.95,0)" xlink:href="#bo"/><use transform="matrix(0.05,0,0,0.05,57.95,0)" xlink:href="#bD"/><use transform="matrix(0.05,0,0,0.05,62.95,0)" xlink:href="#bf"/><use transform="matrix(0.05,0,0,0.05,66.9,0)" xlink:href="#bE"/><use transform="matrix(0.05,0,0,0.05,76.9,0)" xlink:href="#bn"/><use transform="matrix(0.05,0,0,0.05,86.9,0)" xlink:href="#bI"/><use transform="matrix(0.05,0,0,0.05,96.9,0)" xlink:href="#bJ"/><use transform="matrix(0.05,0,0,0.05,100.85000000000001,0)" xlink:href="#bE"/><use transform="matrix(0.05,0,0,0.05,110.85000000000001,0)" xlink:href="#bC"/><use transform="matrix(0.05,0,0,0.05,119.85000000000001,0)" xlink:href="#bo"/><use transform="matrix(0.05,0,0,0.05,129.85000000000002,0)" xlink:href="#bD"/><use transform="matrix(0.05,0,0,0.05,134.85000000000002,0)" xlink:href="#bf"/><use transform="matrix(0.05,0,0,0.05,138.8,0)" xlink:href="#bE"/><use transform="matrix(0.05,0,0,0.05,148.8,0)" xlink:href="#bn"/><use transform="matrix(0.05,0,0,0.05,158.8,0)" xlink:href="#bI"/><use transform="matrix(0.05,0,0,0.05,168.8,0)" xlink:href="#bn"/><use transform="matrix(0.05,0,0,0.05,178.8,0)" xlink:href="#bo"/><use transform="matrix(0.05,0,0,0.05,188.8,0)" xlink:href="#bp"/><use transform="matrix(0.05,0,0,0.05,203.75,0)" xlink:href="#bq"/></g><path fill="#333" d="M195-6C206 82 75 100 31 46c-4-6-6-13-8-21l49-6c3 16 16 24 34 25 40 0 42-37 40-79-11 22-30 35-61 35-53 0-70-43-70-97 0-56 18-96 73-97 30 0 46 14 59 34l2-30h47zm-90-29c32 0 41-27 41-63 0-35-9-62-40-62-32 0-39 29-40 63 0 36 9 62 39 62" id="cb"/><path fill="#333" d="M85 4C-2 5 27-109 22-190h50c7 57-23 150 33 157 60-5 35-97 40-157h50l1 190h-47c-2-12 1-28-3-38-12 25-28 42-61 42" id="cc"/><path fill="#333" d="M135-194c53 0 70 44 70 98 0 56-19 98-73 100-31 1-45-17-59-34 3 33 2 69 2 105H25l-1-265h48c2 10 0 23 3 31 11-24 29-35 60-35zM114-30c33 0 39-31 40-66 0-38-9-64-40-64-56 0-55 130 0 130" id="cd"/><g id="T"><use transform="matrix(0.05,0,0,0.05,0,0)" xlink:href="#cb"/><use transform="matrix(0.05,0,0,0.05,10.950000000000001,0)" xlink:href="#aW"/><use transform="matrix(0.05,0,0,0.05,17.950000000000003,0)" xlink:href="#bc"/><use transform="matrix(0.05,0,0,0.05,28.900000000000006,0)" xlink:href="#cc"/><use transform="matrix(0.05,0,0,0.05,39.85000000000001,0)" xlink:href="#cd"/><use transform="matrix(0.05,0,0,0.05,50.80000000000001,0)" xlink:href="#be"/></g><path fill="#333" d="M-4 44V30h207v14H-4" id="ce"/><path fill="#333" d="M135-194c52 0 70 43 70 98 0 56-19 99-73 100-30 1-46-15-58-35L72 0H24l1-261h50v104c11-23 29-37 60-37zM114-30c31 0 40-27 40-66 0-37-7-63-39-63s-41 28-41 65c0 36 8 64 40 64" id="cf"/><g id="U"><use transform="matrix(0.05,0,0,0.05,0,0)" xlink:href="#cb"/><use transform="matrix(0.05,0,0,0.05,10.950000000000001,0)" xlink:href="#aW"/><use transform="matrix(0.05,0,0,0.05,17.950000000000003,0)" xlink:href="#bc"/><use transform="matrix(0.05,0,0,0.05,28.900000000000006,0)" xlink:href="#cc"/><use transform="matrix(0.05,0,0,0.05,39.85000000000001,0)" xlink:href="#cd"/><use transform="matrix(0.05,0,0,0.05,50.80000000000001,0)" xlink:href="#ce"/><use transform="matrix(0.05,0,0,0.05,60.80000000000001,0)" xlink:href="#bY"/><use transform="matrix(0.05,0,0,0.05,76.80000000000001,0)" xlink:href="#aX"/><use transform="matrix(0.05,0,0,0.05,86.80000000000001,0)" xlink:href="#bY"/><use transform="matrix(0.05,0,0,0.05,102.80000000000001,0)" xlink:href="#cf"/><use transform="matrix(0.05,0,0,0.05,113.75,0)" xlink:href="#aX"/><use transform="matrix(0.05,0,0,0.05,123.75,0)" xlink:href="#aW"/></g><g id="V"><use transform="matrix(0.05,0,0,0.05,0,0)" xlink:href="#ca"/><use transform="matrix(0.05,0,0,0.05,10,0)" xlink:href="#bL"/><use transform="matrix(0.05,0,0,0.05,15.949999999999998,0)" xlink:href="#bE"/><use transform="matrix(0.05,0,0,0.05,25.950000000000003,0)" xlink:href="#bz"/><use transform="matrix(0.05,0,0,0.05,35.95,0)" xlink:href="#bR"/></g><g id="W"><use transform="matrix(0.05,0,0,0.05,0,0)" xlink:href="#bp"/><use transform="matrix(0.05,0,0,0.05,14.950000000000001,0)" xlink:href="#bq"/><use transform="matrix(0.05,0,0,0.05,24.950000000000003,0)" xlink:href="#bp"/><use transform="matrix(0.05,0,0,0.05,39.900000000000006,0)" xlink:href="#bA"/><use transform="matrix(0.05,0,0,0.05,49.900000000000006,0)" xlink:href="#bq"/><use transform="matrix(0.05,0,0,0.05,59.900000000000006,0)" xlink:href="#bL"/></g><path d="M194 0L95-120 63-95V0H30v-248h33v124l119-124h40L117-140 236 0h-42" id="cg"/><g id="X"><use transform="matrix(0.05,0,0,0.05,0,0)" xlink:href="#bK"/><use transform="matrix(0.05,0,0,0.05,10.950000000000001,0)" xlink:href="#cg"/></g><g id="Y"><use transform="matrix(0.05,0,0,0.05,0,0)" xlink:href="#bi"/><use transform="matrix(0.05,0,0,0.05,3.95,0)" xlink:href="#aO"/></g></defs></g></svg>