<svg xmlns="http://www.w3.org/2000/svg" xmlns:xlink="http://www.w3.org/1999/xlink" xmlns:lucid="lucid" width="1378" height="1249"><g transform="translate(0 0)" lucid:page-tab-id="0_0"><path d="M262.63 48a8 8 0 0 1 8-8h836.75a8 8 0 0 1 8 8v25.16a8 8 0 0 1-8 8H270.6a8 8 0 0 1-8-8z" stroke="#000" stroke-opacity="0" stroke-width="2" fill="#fff" fill-opacity="0"/><use xlink:href="#a" transform="matrix(1,0,0,1,266.62524576594296,44) translate(269.5328395061729 25.782777777777778)"/><use xlink:href="#b" transform="matrix(1,0,0,1,266.62524576594296,44) translate(396.05506172839506 25.782777777777778)"/><use xlink:href="#c" transform="matrix(1,0,0,1,266.62524576594296,44) translate(464.3785185185185 25.782777777777778)"/><path d="M438.1 79.8h505.87M438.14 79.8h-1.03M943.95 79.8h1.02" stroke="#a9afb8" stroke-width="2" fill="none"/><path d="M262.63 89.16a8 8 0 0 1 8-8h837.7a8 8 0 0 1 8 8V92a8 8 0 0 1-8 8h-837.7a8 8 0 0 1-8-8z" stroke="#000" stroke-opacity="0" stroke-width="2" fill="#fff" fill-opacity="0"/><use xlink:href="#d" transform="matrix(1,0,0,1,266.6252457659434,85.15522395689881) translate(307.6149897119342 14.917037037037037)"/><use xlink:href="#e" transform="matrix(1,0,0,1,266.6252457659434,85.15522395689881) translate(362.08680041152263 14.917037037037037)"/><use xlink:href="#f" transform="matrix(1,0,0,1,266.6252457659434,85.15522395689881) translate(406.91344650205764 14.917037037037037)"/><use xlink:href="#g" transform="matrix(1,0,0,1,266.6252457659434,85.15522395689881) translate(419.36293209876544 14.917037037037037)"/><use xlink:href="#h" transform="matrix(1,0,0,1,266.6252457659434,85.15522395689881) translate(494.0173559670782 14.917037037037037)"/><use xlink:href="#i" transform="matrix(1,0,0,1,266.6252457659434,85.15522395689881) translate(511.01324074074074 14.917037037037037)"/><path d="M805.8 342.72a15.24 15.24 0 0 1 14.17 0l52.5 27.56a4.2 4.2 0 0 1 0 7.44l-52.5 27.56a15.24 15.24 0 0 1-14.17 0l-52.5-27.56a4.2 4.2 0 0 1 0-7.44z" stroke="#3a414a" fill="#c3f7c8"/><path d="M712.88 352.75a5 5 0 0 1 5-5h190a5 5 0 0 1 5 5v42.5a5 5 0 0 1-5 5h-190a5 5 0 0 1-5-5z" fill="none"/><use xlink:href="#j" transform="matrix(1,0,0,1,712.8821823537178,347.75) translate(66.025 30.1)"/><path d="M559.03 523.72a15.24 15.24 0 0 1 14.16 0l52.5 27.56a4.2 4.2 0 0 1 0 7.44l-52.5 27.56a15.24 15.24 0 0 1-14.17 0l-52.5-27.56a4.2 4.2 0 0 1 0-7.44z" stroke="#3a414a" fill="#c3f7c8"/><path d="M466.1 533.75a5 5 0 0 1 5-5h190a5 5 0 0 1 5 5v42.5a5 5 0 0 1-5 5h-190a5 5 0 0 1-5-5z" fill="none"/><use xlink:href="#k" transform="matrix(1,0,0,1,466.11103455413354,528.75) translate(90 30.1)"/><path d="M1105.67 514.97a15.24 15.24 0 0 1 14.16 0l52.5 27.56a4.2 4.2 0 0 1 0 7.44l-52.5 27.56a15.24 15.24 0 0 1-14.16 0l-52.5-27.56a4.2 4.2 0 0 1 0-7.44z" stroke="#3a414a" fill="#c3f7c8"/><path d="M1012.75 525a5 5 0 0 1 5-5h190a5 5 0 0 1 5 5v42.5a5 5 0 0 1-5 5h-190a5 5 0 0 1-5-5z" fill="none"/><use xlink:href="#l" transform="matrix(1,0,0,1,1012.7495084681145,520) translate(90 30.1)"/><path d="M252.92 763.72a15.24 15.24 0 0 1 14.16 0l52.5 27.56a4.2 4.2 0 0 1 0 7.44l-52.5 27.56a15.24 15.24 0 0 1-14.16 0l-52.5-27.56a4.2 4.2 0 0 1 0-7.44z" stroke="#3a414a" fill="#c3f7c8"/><path d="M160 773.75a5 5 0 0 1 5-5h190a5 5 0 0 1 5 5v42.5a5 5 0 0 1-5 5H165a5 5 0 0 1-5-5z" fill="none"/><use xlink:href="#m" transform="matrix(1,0,0,1,159.99999999999994,768.75) translate(82.05 30.1)"/><path d="M559.03 971.72a15.24 15.24 0 0 1 14.16 0l52.5 27.56a4.2 4.2 0 0 1 0 7.44l-52.5 27.56a15.24 15.24 0 0 1-14.17 0l-52.5-27.56a4.2 4.2 0 0 1 0-7.44z" stroke="#3a414a" fill="#c3f7c8"/><path d="M466.1 981.75a5 5 0 0 1 5-5h190a5 5 0 0 1 5 5v42.5a5 5 0 0 1-5 5h-190a5 5 0 0 1-5-5z" fill="none"/><use xlink:href="#n" transform="matrix(1,0,0,1,466.11103455413354,976.75) translate(84.05 30.1)"/><path d="M1106.62 901.72a15.24 15.24 0 0 1 14.17 0l52.5 27.56a4.2 4.2 0 0 1 0 7.44l-52.5 27.56a15.24 15.24 0 0 1-14.18 0l-52.5-27.56a4.2 4.2 0 0 1 0-7.44z" stroke="#3a414a" fill="#c3f7c8"/><path d="M1013.7 911.75a5 5 0 0 1 5-5h190a5 5 0 0 1 5 5v42.5a5 5 0 0 1-5 5h-190a5 5 0 0 1-5-5z" fill="none"/><use xlink:href="#o" transform="matrix(1,0,0,1,1013.7068944293133,906.75) translate(68.55 30.1)"/><path d="M845.7 824.97a15.24 15.24 0 0 1 14.16 0l52.5 27.56a4.2 4.2 0 0 1 0 7.44l-52.5 27.56a15.24 15.24 0 0 1-14.16 0l-52.5-27.56a4.2 4.2 0 0 1 0-7.44z" stroke="#3a414a" fill="#c3f7c8"/><path d="M752.78 835a5 5 0 0 1 5-5h190a5 5 0 0 1 5 5v42.5a5 5 0 0 1-5 5h-190a5 5 0 0 1-5-5z" fill="none"/><use xlink:href="#p" transform="matrix(1,0,0,1,752.7777012208002,830) translate(93.025 30.1)"/><path d="M672.78 125a5 5 0 0 1 5-5h270a5 5 0 0 1 5 5v158a5 5 0 0 1-5 5h-270a5 5 0 0 1-5-5z" fill="#fff"/><path d="M672.78 160v-35a5 5 0 0 1 5-5h270a5 5 0 0 1 5 5v35" fill="#fe7070"/><path d="M672.78 125a5 5 0 0 1 5-5h270a5 5 0 0 1 5 5v158a5 5 0 0 1-5 5h-270a5 5 0 0 1-5-5zM672.78 160h280M747.24 160v128M857.26 160v128" stroke="#282c33" fill="none"/><use xlink:href="#q" transform="matrix(1,0,0,1,682.7777012208002,120) translate(92.57499999999999 23.6)"/><use xlink:href="#r" transform="matrix(1,0,0,1,677.7777012208002,162.5) translate(25.525 17.1)"/><use xlink:href="#s" transform="matrix(1,0,0,1,752.2379806620095,162.5) translate(29.075 17.1)"/><use xlink:href="#t" transform="matrix(1,0,0,1,862.2607537433792,162.5) translate(31 17.1)"/><use xlink:href="#u" transform="matrix(1,0,0,1,677.7777012208002,194.5) translate(10.024999999999999 17.1)"/><use xlink:href="#v" transform="matrix(1,0,0,1,752.2379806620095,194.5) translate(4.599999999999994 17.1)"/><use xlink:href="#w" transform="matrix(1,0,0,1,862.2607537433792,194.5) translate(31.525 17.1)"/><use xlink:href="#x" transform="matrix(1,0,0,1,677.7777012208002,226.5) translate(4.024999999999999 17.1)"/><use xlink:href="#y" transform="matrix(1,0,0,1,752.2379806620095,226.5) translate(41.025 17.1)"/><use xlink:href="#z" transform="matrix(1,0,0,1,862.2607537433792,226.5) translate(31.525 17.1)"/><use xlink:href="#A" transform="matrix(1,0,0,1,677.7777012208002,258.5) translate(8.524999999999999 17.1)"/><use xlink:href="#y" transform="matrix(1,0,0,1,752.2379806620095,258.5) translate(41.025 17.1)"/><use xlink:href="#z" transform="matrix(1,0,0,1,862.2607537433792,258.5) translate(31.525 17.1)"/><path d="M812.78 307.9V340" stroke="#3a414a" fill="none"/><path d="M822.78 288.72l-10 20-10-20" stroke="#3a414a" fill="#fff" fill-opacity="0"/><path d="M812.78 288.72v20" stroke="#3a414a" fill="#fff"/><path d="M813.28 340.5l-.4-.03-.6.03v-.54h1z" stroke="#3a414a" stroke-width=".05" fill="#3a414a"/><path d="M672.78 465a5 5 0 0 1 5-5h270a5 5 0 0 1 5 5v94a5 5 0 0 1-5 5h-270a5 5 0 0 1-5-5z" fill="#fff"/><path d="M672.78 500v-35a5 5 0 0 1 5-5h270a5 5 0 0 1 5 5v35" fill="#6db1ff"/><path d="M672.78 465a5 5 0 0 1 5-5h270a5 5 0 0 1 5 5v94a5 5 0 0 1-5 5h-270a5 5 0 0 1-5-5zM672.78 500h280M784.48 500v64M901.53 500v64" stroke="#282c33" fill="none"/><use xlink:href="#B" transform="matrix(1,0,0,1,682.7777012208002,460) translate(84.55 23.6)"/><use xlink:href="#r" transform="matrix(1,0,0,1,677.7777012208002,502.5) translate(44.025 17.1)"/><use xlink:href="#s" transform="matrix(1,0,0,1,789.4840171834256,502.5) translate(32.575 17.1)"/><use xlink:href="#t" transform="matrix(1,0,0,1,906.5318768218569,502.5) translate(9 17.1)"/><use xlink:href="#u" transform="matrix(1,0,0,1,677.7777012208002,534.5) translate(28.525 17.1)"/><use xlink:href="#v" transform="matrix(1,0,0,1,789.4840171834256,534.5) translate(8.099999999999994 17.1)"/><path d="M652.28 479.9H578.1a12 12 0 0 0-12 12v29.07" stroke="#3a414a" fill="none"/><path d="M652.28 469.9v20M672.28 479.9h-20" stroke="#3a414a" fill="#fff"/><path d="M566.6 521.5l-.5-.03-.5.03v-.54h1z" stroke="#3a414a" stroke-width=".05" fill="#3a414a"/><path d="M973.28 479.9h127.47a12 12 0 0 1 12 12v20.32" stroke="#3a414a" fill="none"/><path d="M973.28 489.9v-20M953.28 479.9h20" stroke="#3a414a" fill="#fff"/><path d="M1113.25 512.75l-.5-.03-.5.03v-.54h1z" stroke="#3a414a" stroke-width=".05" fill="#3a414a"/><path d="M812.88 408.03v31.47" stroke="#3a414a" fill="none"/><path d="M812.88 407.53l.5-.03v.54h-1v-.54z" stroke="#3a414a" stroke-width=".05" fill="#3a414a"/><path d="M822.88 439.5h-20M812.88 459.5v-20" stroke="#3a414a" fill="#fff"/><path d="M426.1 652a5 5 0 0 1 5-5h270a5 5 0 0 1 5 5v254a5 5 0 0 1-5 5h-270a5 5 0 0 1-5-5z" fill="#fff"/><path d="M426.1 687v-35a5 5 0 0 1 5-5h270a5 5 0 0 1 5 5v35" fill="#fe7070"/><path d="M426.1 652a5 5 0 0 1 5-5h270a5 5 0 0 1 5 5v254a5 5 0 0 1-5 5h-270a5 5 0 0 1-5-5zM426.1 687h280M515.57 687v224M608.93 687v224" stroke="#282c33" fill="none"/><use xlink:href="#C" transform="matrix(1,0,0,1,436.11103455413354,647) translate(98.575 23.6)"/><use xlink:href="#r" transform="matrix(1,0,0,1,431.11103455413354,689.5) translate(33.025 17.1)"/><use xlink:href="#s" transform="matrix(1,0,0,1,520.5744194155296,689.5) translate(20.575 17.1)"/><use xlink:href="#t" transform="matrix(1,0,0,1,613.9270753633584,689.5) translate(32 17.1)"/><use xlink:href="#D" transform="matrix(1,0,0,1,431.11103455413354,721.5) translate(18 17.1)"/><use xlink:href="#E" transform="matrix(1,0,0,1,520.5744194155296,721.5) translate(32.525 17.1)"/><use xlink:href="#z" transform="matrix(1,0,0,1,613.9270753633584,721.5) translate(32.525 17.1)"/><use xlink:href="#x" transform="matrix(1,0,0,1,431.11103455413354,753.5) translate(11.524999999999999 17.1)"/><use xlink:href="#y" transform="matrix(1,0,0,1,520.5744194155296,753.5) translate(32.525 17.1)"/><use xlink:href="#z" transform="matrix(1,0,0,1,613.9270753633584,753.5) translate(32.525 17.1)"/><use xlink:href="#A" transform="matrix(1,0,0,1,431.11103455413354,785.5) translate(16.025 17.1)"/><use xlink:href="#y" transform="matrix(1,0,0,1,520.5744194155296,785.5) translate(32.525 17.1)"/><use xlink:href="#z" transform="matrix(1,0,0,1,613.9270753633584,785.5) translate(32.525 17.1)"/><use xlink:href="#F" transform="matrix(1,0,0,1,431.11103455413354,817.5) translate(9.049999999999997 17.1)"/><use xlink:href="#y" transform="matrix(1,0,0,1,520.5744194155296,817.5) translate(32.525 17.1)"/><use xlink:href="#z" transform="matrix(1,0,0,1,613.9270753633584,817.5) translate(32.525 17.1)"/><use xlink:href="#G" transform="matrix(1,0,0,1,431.11103455413354,849.5) translate(16 17.1)"/><use xlink:href="#H" transform="matrix(1,0,0,1,520.5744194155296,849.5) translate(32.525 17.1)"/><use xlink:href="#I" transform="matrix(1,0,0,1,613.9270753633584,849.5) translate(32.525 17.1)"/><use xlink:href="#J" transform="matrix(1,0,0,1,431.11103455413354,881.5) translate(8.524999999999999 17.1)"/><use xlink:href="#K" transform="matrix(1,0,0,1,520.5744194155296,881.5) translate(22.525 17.1)"/><path d="M973.44 658.25a5 5 0 0 1 5-5h270a5 5 0 0 1 5 5v158a5 5 0 0 1-5 5h-270a5 5 0 0 1-5-5z" fill="#fff"/><path d="M973.44 693.25v-35a5 5 0 0 1 5-5h270a5 5 0 0 1 5 5v35" fill="#fe7070"/><path d="M973.44 658.25a5 5 0 0 1 5-5h270a5 5 0 0 1 5 5v158a5 5 0 0 1-5 5h-270a5 5 0 0 1-5-5zM973.44 693.25h280M1146.08 693.25v128M1204.42 693.25v128" stroke="#282c33" fill="none"/><use xlink:href="#L" transform="matrix(1,0,0,1,983.4436144946271,653.25) translate(80.07499999999999 23.6)"/><use xlink:href="#r" transform="matrix(1,0,0,1,978.4436144946271,695.75) translate(74.525 17.1)"/><use xlink:href="#s" transform="matrix(1,0,0,1,1151.077116489564,695.75) translate(3.0749999999999993 17.1)"/><use xlink:href="#t" transform="matrix(1,0,0,1,1209.422526456957,695.75) translate(8 17.1)"/><use xlink:href="#M" transform="matrix(1,0,0,1,978.4436144946271,727.75) translate(44.05 17.1)"/><use xlink:href="#E" transform="matrix(1,0,0,1,1151.077116489564,727.75) translate(15.025 17.1)"/><use xlink:href="#z" transform="matrix(1,0,0,1,1209.422526456957,727.75) translate(8.524999999999999 17.1)"/><use xlink:href="#N" transform="matrix(1,0,0,1,978.4436144946271,759.75) translate(16.099999999999994 17.1)"/><use xlink:href="#y" transform="matrix(1,0,0,1,1151.077116489564,759.75) translate(15.025 17.1)"/><use xlink:href="#z" transform="matrix(1,0,0,1,1209.422526456957,759.75) translate(8.524999999999999 17.1)"/><use xlink:href="#O" transform="matrix(1,0,0,1,978.4436144946271,791.75) translate(2.0999999999999943 17.1)"/><use xlink:href="#y" transform="matrix(1,0,0,1,1151.077116489564,791.75) translate(15.025 17.1)"/><use xlink:href="#z" transform="matrix(1,0,0,1,1209.422526456957,791.75) translate(8.524999999999999 17.1)"/><path d="M1112.75 599.78v33.56" stroke="#3a414a" fill="none"/><path d="M1102.75 599.78h20M1112.75 579.78v20" stroke="#3a414a" fill="#fff"/><path d="M1102.75 652.53l10-20 10 20" stroke="#3a414a" fill="#fff" fill-opacity="0"/><path d="M1112.75 652.53v-20" stroke="#3a414a" fill="#fff"/><path d="M1113.44 841.16v19.32a.13.13 0 0 0 .13.13.13.13 0 0 1 .14.14v38.23" stroke="#3a414a" fill="none"/><path d="M1123.44 821.97l-10 20-10-20" stroke="#3a414a" fill="#fff" fill-opacity="0"/><path d="M1113.44 821.97v20" stroke="#3a414a" fill="#fff"/><path d="M1114.2 899.5l-.5-.03-.5.03v-.54h1z" stroke="#3a414a" stroke-width=".05" fill="#3a414a"/><path d="M726.02 666.6h114.76a12 12 0 0 1 12 12v143.62" stroke="#3a414a" fill="none"/><path d="M706.84 656.6l20 10-20 10" stroke="#3a414a" fill="#fff" fill-opacity="0"/><path d="M706.84 666.6h20" stroke="#3a414a" fill="#fff"/><path d="M853.28 822.75l-.5-.03-.5.03v-.54h1z" stroke="#3a414a" stroke-width=".05" fill="#3a414a"/><path d="M406.2 666.6H272a12 12 0 0 0-12 12v82.37" stroke="#3a414a" fill="none"/><path d="M425.4 676.6l-20-10 20-10" stroke="#3a414a" fill="#fff" fill-opacity="0"/><path d="M425.4 666.6h-20" stroke="#3a414a" fill="#fff"/><path d="M260.5 761.5l-.5-.03-.5.03v-.54h1z" stroke="#3a414a" stroke-width=".05" fill="#3a414a"/><path d="M566.1 931.5v37.47" stroke="#3a414a" fill="none"/><path d="M556.1 931.5h20M566.1 911.5v20" stroke="#3a414a" fill="#fff"/><path d="M566.6 969.5l-.5-.03-.5.03v-.54h1z" stroke="#3a414a" stroke-width=".05" fill="#3a414a"/><path d="M120 952.9a5 5 0 0 1 5-5h270a5 5 0 0 1 5 5v94a5 5 0 0 1-5 5H125a5 5 0 0 1-5-5z" fill="#fff"/><path d="M120 987.9v-35a5 5 0 0 1 5-5h270a5 5 0 0 1 5 5v35" fill="#6db1ff"/><path d="M120 952.9a5 5 0 0 1 5-5h270a5 5 0 0 1 5 5v94a5 5 0 0 1-5 5H125a5 5 0 0 1-5-5zM120 987.9h280M226.24 987.9v64M342.93 987.9v64" stroke="#282c33" fill="none"/><use xlink:href="#P" transform="matrix(1,0,0,1,130,947.8857179053417) translate(101.55 23.6)"/><use xlink:href="#r" transform="matrix(1,0,0,1,125,990.3857179053417) translate(41.525 17.1)"/><use xlink:href="#s" transform="matrix(1,0,0,1,231.234945721038,990.3857179053417) translate(32.075 17.1)"/><use xlink:href="#t" transform="matrix(1,0,0,1,347.9257656558241,990.3857179053417) translate(12 17.1)"/><use xlink:href="#u" transform="matrix(1,0,0,1,125,1022.3857179053417) translate(26.025 17.1)"/><use xlink:href="#v" transform="matrix(1,0,0,1,231.234945721038,1022.3857179053417) translate(7.599999999999994 17.1)"/><path d="M260 829.03v98.36" stroke="#3a414a" fill="none"/><path d="M260 828.53l.5-.03v.54h-1v-.54z" stroke="#3a414a" stroke-width=".05" fill="#3a414a"/><path d="M270 927.4h-20M260 947.4v-20" stroke="#3a414a" fill="#fff"/><path d="M426.1 1105a5 5 0 0 1 5-5h270a5 5 0 0 1 5 5v94a5 5 0 0 1-5 5h-270a5 5 0 0 1-5-5z" fill="#fff"/><path d="M426.1 1140v-35a5 5 0 0 1 5-5h270a5 5 0 0 1 5 5v35" fill="#ffe342"/><path d="M426.1 1105a5 5 0 0 1 5-5h270a5 5 0 0 1 5 5v94a5 5 0 0 1-5 5h-270a5 5 0 0 1-5-5zM426.1 1140h280M539 1140v64M644.04 1140v64" stroke="#282c33" fill="none"/><use xlink:href="#Q" transform="matrix(1,0,0,1,436.11103455413354,1100) translate(103.575 23.6)"/><use xlink:href="#r" transform="matrix(1,0,0,1,431.11103455413354,1142.5) translate(44.525 17.1)"/><use xlink:href="#s" transform="matrix(1,0,0,1,544.0140271285879,1142.5) translate(26.575 17.1)"/><use xlink:href="#t" transform="matrix(1,0,0,1,649.0357650698954,1142.5) translate(14.5 17.1)"/><use xlink:href="#R" transform="matrix(1,0,0,1,431.11103455413354,1174.5) translate(8.074999999999996 17.1)"/><use xlink:href="#v" transform="matrix(1,0,0,1,544.0140271285879,1174.5) translate(2.0999999999999943 17.1)"/><path d="M566.1 1037.03v42.47" stroke="#3a414a" fill="none"/><path d="M566.1 1036.53l.5-.03v.54h-1v-.54z" stroke="#3a414a" stroke-width=".05" fill="#3a414a"/><path d="M576.1 1079.5h-20M566.1 1099.5v-20" stroke="#3a414a" fill="#fff"/><path d="M972.75 1065a5 5 0 0 1 5-5h270a5 5 0 0 1 5 5v94a5 5 0 0 1-5 5h-270a5 5 0 0 1-5-5z" fill="#fff"/><path d="M972.75 1100v-35a5 5 0 0 1 5-5h270a5 5 0 0 1 5 5v35" fill="#6db1ff"/><path d="M972.75 1065a5 5 0 0 1 5-5h270a5 5 0 0 1 5 5v94a5 5 0 0 1-5 5h-270a5 5 0 0 1-5-5zM972.75 1100h280M1082.32 1100v64M1189 1100v64" stroke="#282c33" fill="none"/><use xlink:href="#S" transform="matrix(1,0,0,1,982.7495084681145,1060) translate(90.6 23.6)"/><use xlink:href="#r" transform="matrix(1,0,0,1,977.7495084681145,1102.5) translate(43.025 17.1)"/><use xlink:href="#s" transform="matrix(1,0,0,1,1087.3184776158607,1102.5) translate(27.075 17.1)"/><use xlink:href="#t" transform="matrix(1,0,0,1,1194.0072272705222,1102.5) translate(15 17.1)"/><use xlink:href="#u" transform="matrix(1,0,0,1,977.7495084681145,1134.5) translate(27.525 17.1)"/><use xlink:href="#v" transform="matrix(1,0,0,1,1087.3184776158607,1134.5) translate(2.5999999999999943 17.1)"/><path d="M852.78 890.28v177.6a12 12 0 0 0 12 12h87.47" stroke="#3a414a" fill="none"/><path d="M852.78 889.78l.5-.03v.54h-1v-.55z" stroke="#3a414a" stroke-width=".05" fill="#3a414a"/><path d="M952.25 1069.9v20M972.25 1079.9h-20" stroke="#3a414a" fill="#fff"/><path d="M1113.7 967.03v45.85a.13.13 0 0 1-.13.13.13.13 0 0 0-.13.15v26.35" stroke="#3a414a" fill="none"/><path d="M1113.7 966.53l.5-.03v.54h-1v-.54z" stroke="#3a414a" stroke-width=".05" fill="#3a414a"/><path d="M1123.44 1039.5h-20M1113.44 1059.5v-20" stroke="#3a414a" fill="#fff"/><path d="M566.1 589.03v38.06" stroke="#3a414a" fill="none"/><path d="M566.1 588.53l.5-.03v.54h-1v-.54z" stroke="#3a414a" stroke-width=".05" fill="#3a414a"/><path d="M556.1 646.28l10-20 10 20" stroke="#3a414a" fill="#fff" fill-opacity="0"/><path d="M566.1 646.28v-20" stroke="#3a414a" fill="#fff"/><defs><path fill="#a9afb8" d="M24-248c120-7 223 5 221 122C244-46 201 0 124 0H24v-248zM76-40c74 7 117-18 117-86 0-67-45-88-117-82v168" id="T"/><path fill="#a9afb8" d="M133-34C117-15 103 5 69 4 32 3 11-16 11-54c-1-60 55-63 116-61 1-26-3-47-28-47-18 1-26 9-28 27l-52-2c7-38 36-58 82-57s74 22 75 68l1 82c-1 14 12 18 25 15v27c-30 8-71 5-69-32zm-48 3c29 0 43-24 42-57-32 0-66-3-65 30 0 17 8 27 23 27" id="U"/><path fill="#a9afb8" d="M115-3C79 11 28 4 28-45v-112H4v-33h27l15-45h31v45h36v33H77v99c-1 23 16 31 38 25v30" id="V"/><path fill="#a9afb8" d="M182-130c37 4 62 22 62 59C244 23 116-4 24 0v-248c84 5 203-23 205 63 0 31-19 50-47 55zM76-148c40-3 101 13 101-30 0-44-60-28-101-31v61zm0 110c48-3 116 14 116-37 0-48-69-32-116-35v72" id="W"/><path fill="#a9afb8" d="M137-138c1-29-70-34-71-4 15 46 118 7 119 86 1 83-164 76-172 9l43-7c4 19 20 25 44 25 33 8 57-30 24-41C81-84 22-81 20-136c-2-80 154-74 161-7" id="X"/><path fill="#a9afb8" d="M185-48c-13 30-37 53-82 52C43 2 14-33 14-96s30-98 90-98c62 0 83 45 84 108H66c0 31 8 55 39 56 18 0 30-7 34-22zm-45-69c5-46-57-63-70-21-2 6-4 13-4 21h74" id="Y"/><g id="a"><use transform="matrix(0.0728395061728395,0,0,0.0728395061728395,0,0)" xlink:href="#T"/><use transform="matrix(0.0728395061728395,0,0,0.0728395061728395,18.86543209876543,0)" xlink:href="#U"/><use transform="matrix(0.0728395061728395,0,0,0.0728395061728395,33.43333333333333,0)" xlink:href="#V"/><use transform="matrix(0.0728395061728395,0,0,0.0728395061728395,42.10123456790124,0)" xlink:href="#U"/><use transform="matrix(0.0728395061728395,0,0,0.0728395061728395,56.66913580246913,0)" xlink:href="#W"/><use transform="matrix(0.0728395061728395,0,0,0.0728395061728395,75.53456790123457,0)" xlink:href="#U"/><use transform="matrix(0.0728395061728395,0,0,0.0728395061728395,90.10246913580247,0)" xlink:href="#X"/><use transform="matrix(0.0728395061728395,0,0,0.0728395061728395,104.67037037037036,0)" xlink:href="#Y"/></g><path fill="#a9afb8" d="M24 0v-248h52v208h133V0H24" id="Z"/><path fill="#a9afb8" d="M135-194c52 0 70 43 70 98 0 56-19 99-73 100-30 1-46-15-58-35L72 0H24l1-261h50v104c11-23 29-37 60-37zM114-30c31 0 40-27 40-66 0-37-7-63-39-63s-41 28-41 65c0 36 8 64 40 64" id="aa"/><path fill="#a9afb8" d="M23 0v-37h61v-169l-59 37v-38l62-41h46v211h57V0H23" id="ab"/><g id="b"><use transform="matrix(0.0728395061728395,0,0,0.0728395061728395,0,0)" xlink:href="#Z"/><use transform="matrix(0.0728395061728395,0,0,0.0728395061728395,15.95185185185185,0)" xlink:href="#U"/><use transform="matrix(0.0728395061728395,0,0,0.0728395061728395,30.51975308641975,0)" xlink:href="#aa"/><use transform="matrix(0.0728395061728395,0,0,0.0728395061728395,46.471604938271604,0)" xlink:href="#ab"/></g><path fill="#a9afb8" d="M25 0v-261h50V0H25" id="ac"/><path fill="#a9afb8" d="M110-194c64 0 96 36 96 99 0 64-35 99-97 99-61 0-95-36-95-99 0-62 34-99 96-99zm-1 164c35 0 45-28 45-65 0-40-10-65-43-65-34 0-45 26-45 65 0 36 10 65 43 65" id="ad"/><path fill="#a9afb8" d="M195-6C206 82 75 100 31 46c-4-6-6-13-8-21l49-6c3 16 16 24 34 25 40 0 42-37 40-79-11 22-30 35-61 35-53 0-70-43-70-97 0-56 18-96 73-97 30 0 46 14 59 34l2-30h47zm-90-29c32 0 41-27 41-63 0-35-9-62-40-62-32 0-39 29-40 63 0 36 9 62 39 62" id="ae"/><path fill="#a9afb8" d="M25-224v-37h50v37H25zM25 0v-190h50V0H25" id="af"/><path fill="#a9afb8" d="M190-63c-7 42-38 67-86 67-59 0-84-38-90-98-12-110 154-137 174-36l-49 2c-2-19-15-32-35-32-30 0-35 28-38 64-6 74 65 87 74 30" id="ag"/><g id="c"><use transform="matrix(0.0728395061728395,0,0,0.0728395061728395,0,0)" xlink:href="#T"/><use transform="matrix(0.0728395061728395,0,0,0.0728395061728395,18.86543209876543,0)" xlink:href="#U"/><use transform="matrix(0.0728395061728395,0,0,0.0728395061728395,33.43333333333333,0)" xlink:href="#V"/><use transform="matrix(0.0728395061728395,0,0,0.0728395061728395,42.10123456790124,0)" xlink:href="#U"/><use transform="matrix(0.0728395061728395,0,0,0.0728395061728395,56.66913580246913,0)" xlink:href="#ac"/><use transform="matrix(0.0728395061728395,0,0,0.0728395061728395,63.95308641975308,0)" xlink:href="#ad"/><use transform="matrix(0.0728395061728395,0,0,0.0728395061728395,79.90493827160493,0)" xlink:href="#ae"/><use transform="matrix(0.0728395061728395,0,0,0.0728395061728395,95.85679012345679,0)" xlink:href="#af"/><use transform="matrix(0.0728395061728395,0,0,0.0728395061728395,103.14074074074074,0)" xlink:href="#ag"/></g><path fill="#a9afb8" d="M195 0l-74-108L45 0H8l94-129-87-119h37l69 98 67-98h37l-84 118L233 0h-38" id="ah"/><path fill="#a9afb8" d="M179-190L93 31C79 59 56 82 12 73V49c39 6 53-20 64-50L1-190h34L92-34l54-156h33" id="ai"/><path fill="#a9afb8" d="M57-190v80h85v-80h32V0h-32v-87H57V0H25v-190h32" id="aj"/><path fill="#a9afb8" d="M96-169c-40 0-48 33-48 73s9 75 48 75c24 0 41-14 43-38l32 2c-6 37-31 61-74 61-59 0-76-41-82-99-10-93 101-131 147-64 4 7 5 14 7 22l-32 3c-4-21-16-35-41-35" id="ak"/><path fill="#a9afb8" d="M20-138c-1-64 85-51 150-52V0h-32v-81H94L39 0H3l60-83c-28-5-43-24-43-55zm33 3c0 40 46 33 85 33v-66c-39 0-85-6-85 33" id="al"/><g id="d"><use transform="matrix(0.04248971193415638,0,0,0.04248971193415638,0,0)" xlink:href="#ah"/><use transform="matrix(0.04248971193415638,0,0,0.04248971193415638,9.85761316872428,0)" xlink:href="#ai"/><use transform="matrix(0.04248971193415638,0,0,0.04248971193415638,17.505761316872427,0)" xlink:href="#aj"/><use transform="matrix(0.04248971193415638,0,0,0.04248971193415638,25.91872427983539,0)" xlink:href="#ak"/><use transform="matrix(0.04248971193415638,0,0,0.04248971193415638,33.56687242798353,0)" xlink:href="#al"/><use transform="matrix(0.04248971193415638,0,0,0.04248971193415638,41.80987654320987,0)" xlink:href="#aj"/></g><path fill="#a9afb8" d="M62-147c-4 58 76 40 115 32v-133h34V0h-34v-89C118-74 28-68 28-143v-105h34v101" id="am"/><path fill="#a9afb8" d="M156-87c-4 1-15 3-20 3V0h-31v-84c-5 0-16-2-20-3L36 0H1l62-104c-22-24-40-59-60-86h33l50 76c5 5 9 7 19 7v-83h31v83c27-1 31-21 43-41l26-42h33l-60 86L240 0h-36" id="an"/><path fill="#a9afb8" d="M100-194c62-1 85 37 85 99 1 63-27 99-86 99S16-35 15-95c0-66 28-99 85-99zM99-20c44 1 53-31 53-75 0-43-8-75-51-75s-53 32-53 75 10 74 51 75" id="ao"/><g id="e"><use transform="matrix(0.04248971193415638,0,0,0.04248971193415638,0,0)" xlink:href="#am"/><use transform="matrix(0.04248971193415638,0,0,0.04248971193415638,10.155041152263374,0)" xlink:href="#an"/><use transform="matrix(0.04248971193415638,0,0,0.04248971193415638,20.352572016460904,0)" xlink:href="#ao"/><use transform="matrix(0.04248971193415638,0,0,0.04248971193415638,28.68055555555555,0)" xlink:href="#ai"/></g><path fill="#a9afb8" d="M32 76v-337h29V76H32" id="ap"/><use transform="matrix(0.04248971193415638,0,0,0.04248971193415638,0,0)" xlink:href="#ap" id="f"/><path fill="#a9afb8" d="M190 0L58-211 59 0H30v-248h39L202-35l-2-213h31V0h-41" id="aq"/><path fill="#a9afb8" d="M100-194c62-1 85 37 85 99 1 63-27 99-86 99S16-35 15-95c0-66 28-99 85-99zM99-20c44 1 53-31 53-75 0-43-8-75-51-75s-53 32-53 75 10 74 51 75" id="ar"/><path fill="#a9afb8" d="M108 0H70L1-190h34L89-25l56-165h34" id="as"/><path fill="#a9afb8" d="M100-194c63 0 86 42 84 106H49c0 40 14 67 53 68 26 1 43-12 49-29l28 8c-11 28-37 45-77 45C44 4 14-33 15-96c1-61 26-98 85-98zm52 81c6-60-76-77-97-28-3 7-6 17-6 28h103" id="at"/><path fill="#a9afb8" d="M210-169c-67 3-38 105-44 169h-31v-121c0-29-5-50-35-48C34-165 62-65 56 0H25l-1-190h30c1 10-1 24 2 32 10-44 99-50 107 0 11-21 27-35 58-36 85-2 47 119 55 194h-31v-121c0-29-5-49-35-48" id="au"/><path fill="#a9afb8" d="M115-194c53 0 69 39 70 98 0 66-23 100-70 100C84 3 66-7 56-30L54 0H23l1-261h32v101c10-23 28-34 59-34zm-8 174c40 0 45-34 45-75 0-40-5-75-45-74-42 0-51 32-51 76 0 43 10 73 51 73" id="av"/><path fill="#a9afb8" d="M114-163C36-179 61-72 57 0H25l-1-190h30c1 12-1 29 2 39 6-27 23-49 58-41v29" id="aw"/><g id="g"><use transform="matrix(0.04248971193415638,0,0,0.04248971193415638,0,0)" xlink:href="#aq"/><use transform="matrix(0.04248971193415638,0,0,0.04248971193415638,11.004835390946502,0)" xlink:href="#ar"/><use transform="matrix(0.04248971193415638,0,0,0.04248971193415638,19.502777777777776,0)" xlink:href="#as"/><use transform="matrix(0.04248971193415638,0,0,0.04248971193415638,27.150925925925925,0)" xlink:href="#at"/><use transform="matrix(0.04248971193415638,0,0,0.04248971193415638,35.6488683127572,0)" xlink:href="#au"/><use transform="matrix(0.04248971193415638,0,0,0.04248971193415638,48.35329218106995,0)" xlink:href="#av"/><use transform="matrix(0.04248971193415638,0,0,0.04248971193415638,56.851234567901244,0)" xlink:href="#at"/><use transform="matrix(0.04248971193415638,0,0,0.04248971193415638,65.34917695473251,0)" xlink:href="#aw"/></g><path fill="#a9afb8" d="M27 0v-27h64v-190l-56 39v-29l58-41h29v221h61V0H27" id="ax"/><path fill="#a9afb8" d="M68-38c1 34 0 65-14 84H32c9-13 17-26 17-46H33v-38h35" id="ay"/><g id="h"><use transform="matrix(0.04248971193415638,0,0,0.04248971193415638,0,0)" xlink:href="#ax"/><use transform="matrix(0.04248971193415638,0,0,0.04248971193415638,8.497942386831275,0)" xlink:href="#ay"/></g><path fill="#a9afb8" d="M101-251c82-7 93 87 43 132L82-64C71-53 59-42 53-27h129V0H18c2-99 128-94 128-182 0-28-16-43-45-43s-46 15-49 41l-32-3c6-41 34-60 81-64" id="az"/><path fill="#a9afb8" d="M101-251c68 0 85 55 85 127S166 4 100 4C33 4 14-52 14-124c0-73 17-127 87-127zm-1 229c47 0 54-49 54-102s-4-102-53-102c-51 0-55 48-55 102 0 53 5 102 54 102" id="aA"/><path fill="#a9afb8" d="M126-127c33 6 58 20 58 59 0 88-139 92-164 29-3-8-5-16-6-25l32-3c6 27 21 44 54 44 32 0 52-15 52-46 0-38-36-46-79-43v-28c39 1 72-4 72-42 0-27-17-43-46-43-28 0-47 15-49 41l-32-3c6-42 35-63 81-64 48-1 79 21 79 65 0 36-21 52-52 59" id="aB"/><g id="i"><use transform="matrix(0.04248971193415638,0,0,0.04248971193415638,0,0)" xlink:href="#az"/><use transform="matrix(0.04248971193415638,0,0,0.04248971193415638,8.497942386831275,0)" xlink:href="#aA"/><use transform="matrix(0.04248971193415638,0,0,0.04248971193415638,16.99588477366255,0)" xlink:href="#az"/><use transform="matrix(0.04248971193415638,0,0,0.04248971193415638,25.493827160493822,0)" xlink:href="#aB"/></g><path fill="#333" d="M115-194c53 0 69 39 70 98 0 66-23 100-70 100C84 3 66-7 56-30L54 0H23l1-261h32v101c10-23 28-34 59-34zm-8 174c40 0 45-34 45-75 0-40-5-75-45-74-42 0-51 32-51 76 0 43 10 73 51 73" id="aC"/><path fill="#333" d="M100-194c63 0 86 42 84 106H49c0 40 14 67 53 68 26 1 43-12 49-29l28 8c-11 28-37 45-77 45C44 4 14-33 15-96c1-61 26-98 85-98zm52 81c6-60-76-77-97-28-3 7-6 17-6 28h103" id="aD"/><path fill="#333" d="M59-47c-2 24 18 29 38 22v24C64 9 27 4 27-40v-127H5v-23h24l9-43h21v43h35v23H59v120" id="aE"/><path fill="#333" d="M206 0h-36l-40-164L89 0H53L-1-190h32L70-26l43-164h34l41 164 42-164h31" id="aF"/><path fill="#333" d="M117-194c89-4 53 116 60 194h-32v-121c0-31-8-49-39-48C34-167 62-67 57 0H25l-1-190h30c1 10-1 24 2 32 11-22 29-35 61-36" id="aG"/><g id="j"><use transform="matrix(0.05,0,0,0.05,0,0)" xlink:href="#aC"/><use transform="matrix(0.05,0,0,0.05,10,0)" xlink:href="#aD"/><use transform="matrix(0.05,0,0,0.05,20,0)" xlink:href="#aE"/><use transform="matrix(0.05,0,0,0.05,25,0)" xlink:href="#aF"/><use transform="matrix(0.05,0,0,0.05,37.95,0)" xlink:href="#aD"/><use transform="matrix(0.05,0,0,0.05,47.95,0)" xlink:href="#aD"/><use transform="matrix(0.05,0,0,0.05,57.95,0)" xlink:href="#aG"/></g><path fill="#333" d="M85-194c31 0 48 13 60 33l-1-100h32l1 261h-30c-2-10 0-23-3-31C134-8 116 4 85 4 32 4 16-35 15-94c0-66 23-100 70-100zm9 24c-40 0-46 34-46 75 0 40 6 74 45 74 42 0 51-32 51-76 0-42-9-74-50-73" id="aH"/><path fill="#333" d="M100-194c62-1 85 37 85 99 1 63-27 99-86 99S16-35 15-95c0-66 28-99 85-99zM99-20c44 1 53-31 53-75 0-43-8-75-51-75s-53 32-53 75 10 74 51 75" id="aI"/><g id="k"><use transform="matrix(0.05,0,0,0.05,0,0)" xlink:href="#aH"/><use transform="matrix(0.05,0,0,0.05,10,0)" xlink:href="#aI"/></g><path fill="#333" d="M177-190C167-65 218 103 67 71c-23-6-38-20-44-43l32-5c15 47 100 32 89-28v-30C133-14 115 1 83 1 29 1 15-40 15-95c0-56 16-97 71-98 29-1 48 16 59 35 1-10 0-23 2-32h30zM94-22c36 0 50-32 50-73 0-42-14-75-50-75-39 0-46 34-46 75s6 73 46 73" id="aJ"/><g id="l"><use transform="matrix(0.05,0,0,0.05,0,0)" xlink:href="#aJ"/><use transform="matrix(0.05,0,0,0.05,10,0)" xlink:href="#aI"/></g><path fill="#333" d="M101-234c-31-9-42 10-38 44h38v23H63V0H32v-167H5v-23h27c-7-52 17-82 69-68v24" id="aK"/><path fill="#333" d="M114-163C36-179 61-72 57 0H25l-1-190h30c1 12-1 29 2 39 6-27 23-49 58-41v29" id="aL"/><path fill="#333" d="M210-169c-67 3-38 105-44 169h-31v-121c0-29-5-50-35-48C34-165 62-65 56 0H25l-1-190h30c1 10-1 24 2 32 10-44 99-50 107 0 11-21 27-35 58-36 85-2 47 119 55 194h-31v-121c0-29-5-49-35-48" id="aM"/><g id="m"><use transform="matrix(0.05,0,0,0.05,0,0)" xlink:href="#aK"/><use transform="matrix(0.05,0,0,0.05,5,0)" xlink:href="#aL"/><use transform="matrix(0.05,0,0,0.05,10.95,0)" xlink:href="#aI"/><use transform="matrix(0.05,0,0,0.05,20.95,0)" xlink:href="#aM"/></g><path fill="#333" d="M24-231v-30h32v30H24zM24 0v-190h32V0H24" id="aN"/><path fill="#333" d="M106-169C34-169 62-67 57 0H25v-261h32l-1 103c12-21 28-36 61-36 89 0 53 116 60 194h-32v-121c2-32-8-49-39-48" id="aO"/><g id="n"><use transform="matrix(0.05,0,0,0.05,0,0)" xlink:href="#aF"/><use transform="matrix(0.05,0,0,0.05,12.950000000000001,0)" xlink:href="#aN"/><use transform="matrix(0.05,0,0,0.05,16.900000000000002,0)" xlink:href="#aE"/><use transform="matrix(0.05,0,0,0.05,21.900000000000002,0)" xlink:href="#aO"/></g><path fill="#333" d="M234-2c-28 10-62 0-77-18C117 19 8 12 13-65c3-43 29-61 60-76-25-40-17-114 47-108 35 3 59 15 59 50 0 44-40 53-71 69 14 26 32 50 51 72 14-21 24-43 30-72l26 8c-9 33-21 57-38 82 13 13 33 22 57 15v23zM97-151c25-10 52-18 56-48-1-18-13-29-33-29-42 0-39 50-23 77zM42-66c-3 51 71 58 98 28-20-24-41-51-56-80-23 10-40 24-42 52" id="aP"/><g id="o"><use transform="matrix(0.05,0,0,0.05,0,0)" xlink:href="#aK"/><use transform="matrix(0.05,0,0,0.05,5,0)" xlink:href="#aL"/><use transform="matrix(0.05,0,0,0.05,10.95,0)" xlink:href="#aI"/><use transform="matrix(0.05,0,0,0.05,20.95,0)" xlink:href="#aM"/><use transform="matrix(0.05,0,0,0.05,35.9,0)" xlink:href="#aP"/><use transform="matrix(0.05,0,0,0.05,47.9,0)" xlink:href="#aE"/><use transform="matrix(0.05,0,0,0.05,52.900000000000006,0)" xlink:href="#aI"/></g><g id="p"><use transform="matrix(0.05,0,0,0.05,0,0)" xlink:href="#aN"/><use transform="matrix(0.05,0,0,0.05,3.95,0)" xlink:href="#aG"/></g><path fill="#333" d="M135-150c-39-12-60 13-60 57V0H25l-1-190h47c2 13-1 29 3 40 6-28 27-53 61-41v41" id="aQ"/><path fill="#333" d="M185-48c-13 30-37 53-82 52C43 2 14-33 14-96s30-98 90-98c62 0 83 45 84 108H66c0 31 8 55 39 56 18 0 30-7 34-22zm-45-69c5-46-57-63-70-21-2 6-4 13-4 21h74" id="aR"/><path fill="#333" d="M25 0v-261h50V0H25" id="aS"/><path fill="#333" d="M133-34C117-15 103 5 69 4 32 3 11-16 11-54c-1-60 55-63 116-61 1-26-3-47-28-47-18 1-26 9-28 27l-52-2c7-38 36-58 82-57s74 22 75 68l1 82c-1 14 12 18 25 15v27c-30 8-71 5-69-32zm-48 3c29 0 43-24 42-57-32 0-66-3-65 30 0 17 8 27 23 27" id="aT"/><path fill="#333" d="M115-3C79 11 28 4 28-45v-112H4v-33h27l15-45h31v45h36v33H77v99c-1 23 16 31 38 25v30" id="aU"/><path fill="#333" d="M25-224v-37h50v37H25zM25 0v-190h50V0H25" id="aV"/><path fill="#333" d="M110-194c64 0 96 36 96 99 0 64-35 99-97 99-61 0-95-36-95-99 0-62 34-99 96-99zm-1 164c35 0 45-28 45-65 0-40-10-65-43-65-34 0-45 26-45 65 0 36 10 65 43 65" id="aW"/><path fill="#333" d="M135-194c87-1 58 113 63 194h-50c-7-57 23-157-34-157-59 0-34 97-39 157H25l-1-190h47c2 12-1 28 3 38 12-26 28-41 61-42" id="aX"/><path fill="#333" d="M137-138c1-29-70-34-71-4 15 46 118 7 119 86 1 83-164 76-172 9l43-7c4 19 20 25 44 25 33 8 57-30 24-41C81-84 22-81 20-136c-2-80 154-74 161-7" id="aY"/><g id="q"><use transform="matrix(0.05,0,0,0.05,0,0)" xlink:href="#aQ"/><use transform="matrix(0.05,0,0,0.05,7,0)" xlink:href="#aR"/><use transform="matrix(0.05,0,0,0.05,17,0)" xlink:href="#aS"/><use transform="matrix(0.05,0,0,0.05,22,0)" xlink:href="#aT"/><use transform="matrix(0.05,0,0,0.05,32,0)" xlink:href="#aU"/><use transform="matrix(0.05,0,0,0.05,37.95,0)" xlink:href="#aV"/><use transform="matrix(0.05,0,0,0.05,42.95,0)" xlink:href="#aW"/><use transform="matrix(0.05,0,0,0.05,53.900000000000006,0)" xlink:href="#aX"/><use transform="matrix(0.05,0,0,0.05,64.85000000000001,0)" xlink:href="#aY"/></g><path d="M24-231v-30h32v30H24zM24 0v-190h32V0H24" id="aZ"/><path d="M85-194c31 0 48 13 60 33l-1-100h32l1 261h-30c-2-10 0-23-3-31C134-8 116 4 85 4 32 4 16-35 15-94c0-66 23-100 70-100zm9 24c-40 0-46 34-46 75 0 40 6 74 45 74 42 0 51-32 51-76 0-42-9-74-50-73" id="ba"/><g id="r"><use transform="matrix(0.05,0,0,0.05,0,0)" xlink:href="#aZ"/><use transform="matrix(0.05,0,0,0.05,3.95,0)" xlink:href="#ba"/></g><path fill="#333" d="M135-143c-3-34-86-38-87 0 15 53 115 12 119 90S17 21 10-45l28-5c4 36 97 45 98 0-10-56-113-15-118-90-4-57 82-63 122-42 12 7 21 19 24 35" id="bb"/><path fill="#333" d="M141-36C126-15 110 5 73 4 37 3 15-17 15-53c-1-64 63-63 125-63 3-35-9-54-41-54-24 1-41 7-42 31l-33-3c5-37 33-52 76-52 45 0 72 20 72 64v82c-1 20 7 32 28 27v20c-31 9-61-2-59-35zM48-53c0 20 12 33 32 33 41-3 63-29 60-74-43 2-92-5-92 41" id="bc"/><path fill="#333" d="M24 0v-261h32V0H24" id="bd"/><g id="s"><use transform="matrix(0.05,0,0,0.05,0,0)" xlink:href="#bb"/><use transform="matrix(0.05,0,0,0.05,9,0)" xlink:href="#aD"/><use transform="matrix(0.05,0,0,0.05,19,0)" xlink:href="#aL"/><use transform="matrix(0.05,0,0,0.05,24.95,0)" xlink:href="#aN"/><use transform="matrix(0.05,0,0,0.05,28.899999999999995,0)" xlink:href="#bc"/><use transform="matrix(0.05,0,0,0.05,38.9,0)" xlink:href="#bd"/></g><path fill="#333" d="M30-248c87 1 191-15 191 75 0 78-77 80-158 76V0H30v-248zm33 125c57 0 124 11 124-50 0-59-68-47-124-48v98" id="be"/><path fill="#333" d="M194 0L95-120 63-95V0H30v-248h33v124l119-124h40L117-140 236 0h-42" id="bf"/><g id="t"><use transform="matrix(0.05,0,0,0.05,0,0)" xlink:href="#be"/><use transform="matrix(0.05,0,0,0.05,12,0)" xlink:href="#bf"/></g><path d="M117-194c89-4 53 116 60 194h-32v-121c0-31-8-49-39-48C34-167 62-67 57 0H25l-1-190h30c1 10-1 24 2 32 11-22 29-35 61-36" id="bg"/><path d="M141-36C126-15 110 5 73 4 37 3 15-17 15-53c-1-64 63-63 125-63 3-35-9-54-41-54-24 1-41 7-42 31l-33-3c5-37 33-52 76-52 45 0 72 20 72 64v82c-1 20 7 32 28 27v20c-31 9-61-2-59-35zM48-53c0 20 12 33 32 33 41-3 63-29 60-74-43 2-92-5-92 41" id="bh"/><path d="M210-169c-67 3-38 105-44 169h-31v-121c0-29-5-50-35-48C34-165 62-65 56 0H25l-1-190h30c1 10-1 24 2 32 10-44 99-50 107 0 11-21 27-35 58-36 85-2 47 119 55 194h-31v-121c0-29-5-49-35-48" id="bi"/><path d="M100-194c63 0 86 42 84 106H49c0 40 14 67 53 68 26 1 43-12 49-29l28 8c-11 28-37 45-77 45C44 4 14-33 15-96c1-61 26-98 85-98zm52 81c6-60-76-77-97-28-3 7-6 17-6 28h103" id="bj"/><g id="u"><use transform="matrix(0.05,0,0,0.05,0,0)" xlink:href="#bg"/><use transform="matrix(0.05,0,0,0.05,10,0)" xlink:href="#bh"/><use transform="matrix(0.05,0,0,0.05,20,0)" xlink:href="#bi"/><use transform="matrix(0.05,0,0,0.05,34.95,0)" xlink:href="#bj"/></g><path fill="#333" d="M108 0H70L1-190h34L89-25l56-165h34" id="bk"/><path fill="#333" d="M96-169c-40 0-48 33-48 73s9 75 48 75c24 0 41-14 43-38l32 2c-6 37-31 61-74 61-59 0-76-41-82-99-10-93 101-131 147-64 4 7 5 14 7 22l-32 3c-4-21-16-35-41-35" id="bl"/><path fill="#333" d="M87 75C49 33 22-17 22-94c0-76 28-126 65-167h31c-38 41-64 92-64 168S80 34 118 75H87" id="bm"/><path fill="#333" d="M110-160c48 1 74 30 74 79 0 53-28 85-80 85-65 0-83-55-86-122-5-90 50-162 133-122 14 7 22 21 27 39l-31 6c-5-40-67-38-82-6-9 19-15 44-15 74 11-20 30-34 60-33zm-7 138c34 0 49-23 49-58s-16-56-50-56c-29 0-50 16-49 49 1 36 15 65 50 65" id="bn"/><path fill="#333" d="M155-56V0h-30v-56H8v-25l114-167h33v167h35v25h-35zm-30-156c-27 46-58 90-88 131h88v-131" id="bo"/><path fill="#333" d="M33-261c38 41 65 92 65 168S71 34 33 75H2C39 34 66-17 66-93S39-220 2-261h31" id="bp"/><g id="v"><use transform="matrix(0.05,0,0,0.05,0,0)" xlink:href="#bk"/><use transform="matrix(0.05,0,0,0.05,9,0)" xlink:href="#bc"/><use transform="matrix(0.05,0,0,0.05,19,0)" xlink:href="#aL"/><use transform="matrix(0.05,0,0,0.05,24.95,0)" xlink:href="#bl"/><use transform="matrix(0.05,0,0,0.05,33.95,0)" xlink:href="#aO"/><use transform="matrix(0.05,0,0,0.05,43.95,0)" xlink:href="#bc"/><use transform="matrix(0.05,0,0,0.05,53.95,0)" xlink:href="#aL"/><use transform="matrix(0.05,0,0,0.05,59.900000000000006,0)" xlink:href="#bm"/><use transform="matrix(0.05,0,0,0.05,65.85000000000001,0)" xlink:href="#bn"/><use transform="matrix(0.05,0,0,0.05,75.85000000000001,0)" xlink:href="#bo"/><use transform="matrix(0.05,0,0,0.05,85.85000000000001,0)" xlink:href="#bp"/></g><path fill="#333" d="M63-220v92h138v28H63V0H30v-248h175v28H63" id="bq"/><g id="w"><use transform="matrix(0.05,0,0,0.05,0,0)" xlink:href="#bq"/><use transform="matrix(0.05,0,0,0.05,10.950000000000001,0)" xlink:href="#bf"/></g><path d="M135-143c-3-34-86-38-87 0 15 53 115 12 119 90S17 21 10-45l28-5c4 36 97 45 98 0-10-56-113-15-118-90-4-57 82-63 122-42 12 7 21 19 24 35" id="br"/><path d="M84 4C-5 8 30-112 23-190h32v120c0 31 7 50 39 49 72-2 45-101 50-169h31l1 190h-30c-1-10 1-25-2-33-11 22-28 36-60 37" id="bs"/><path d="M115-194c53 0 69 39 70 98 0 66-23 100-70 100C84 3 66-7 56-30L54 0H23l1-261h32v101c10-23 28-34 59-34zm-8 174c40 0 45-34 45-75 0-40-5-75-45-74-42 0-51 32-51 76 0 43 10 73 51 73" id="bt"/><path d="M24-231v-30h32v30H24zM-9 49c24 4 33-6 33-30v-209h32V24c2 40-23 58-65 49V49" id="bu"/><path d="M96-169c-40 0-48 33-48 73s9 75 48 75c24 0 41-14 43-38l32 2c-6 37-31 61-74 61-59 0-76-41-82-99-10-93 101-131 147-64 4 7 5 14 7 22l-32 3c-4-21-16-35-41-35" id="bv"/><path d="M59-47c-2 24 18 29 38 22v24C64 9 27 4 27-40v-127H5v-23h24l9-43h21v43h35v23H59v120" id="bw"/><g id="x"><use transform="matrix(0.05,0,0,0.05,0,0)" xlink:href="#br"/><use transform="matrix(0.05,0,0,0.05,9,0)" xlink:href="#bs"/><use transform="matrix(0.05,0,0,0.05,19,0)" xlink:href="#bt"/><use transform="matrix(0.05,0,0,0.05,29,0)" xlink:href="#bu"/><use transform="matrix(0.05,0,0,0.05,32.95,0)" xlink:href="#bj"/><use transform="matrix(0.05,0,0,0.05,42.95,0)" xlink:href="#bv"/><use transform="matrix(0.05,0,0,0.05,51.95,0)" xlink:href="#bw"/></g><g id="y"><use transform="matrix(0.05,0,0,0.05,0,0)" xlink:href="#aN"/><use transform="matrix(0.05,0,0,0.05,3.95,0)" xlink:href="#aG"/><use transform="matrix(0.05,0,0,0.05,13.949999999999998,0)" xlink:href="#aE"/></g><g id="z"><use transform="matrix(0.05,0,0,0.05,0,0)" xlink:href="#bq"/><use transform="matrix(0.05,0,0,0.05,10.950000000000001,0)" xlink:href="#bf"/></g><path d="M100-194c62-1 85 37 85 99 1 63-27 99-86 99S16-35 15-95c0-66 28-99 85-99zM99-20c44 1 53-31 53-75 0-43-8-75-51-75s-53 32-53 75 10 74 51 75" id="bx"/><g id="A"><use transform="matrix(0.05,0,0,0.05,0,0)" xlink:href="#bx"/><use transform="matrix(0.05,0,0,0.05,10,0)" xlink:href="#bt"/><use transform="matrix(0.05,0,0,0.05,20,0)" xlink:href="#bu"/><use transform="matrix(0.05,0,0,0.05,23.95,0)" xlink:href="#bj"/><use transform="matrix(0.05,0,0,0.05,33.95,0)" xlink:href="#bv"/><use transform="matrix(0.05,0,0,0.05,42.95,0)" xlink:href="#bw"/></g><path fill="#333" d="M190-63c-7 42-38 67-86 67-59 0-84-38-90-98-12-110 154-137 174-36l-49 2c-2-19-15-32-35-32-30 0-35 28-38 64-6 74 65 87 74 30" id="by"/><path fill="#333" d="M114-157C55-157 80-60 75 0H25v-261h50l-1 109c12-26 28-41 61-42 86-1 58 113 63 194h-50c-7-57 23-157-34-157" id="bz"/><g id="B"><use transform="matrix(0.05,0,0,0.05,0,0)" xlink:href="#by"/><use transform="matrix(0.05,0,0,0.05,10,0)" xlink:href="#bz"/><use transform="matrix(0.05,0,0,0.05,20.950000000000003,0)" xlink:href="#aT"/><use transform="matrix(0.05,0,0,0.05,30.950000000000003,0)" xlink:href="#aQ"/><use transform="matrix(0.05,0,0,0.05,37.95,0)" xlink:href="#aT"/><use transform="matrix(0.05,0,0,0.05,47.95,0)" xlink:href="#by"/><use transform="matrix(0.05,0,0,0.05,57.95,0)" xlink:href="#aU"/><use transform="matrix(0.05,0,0,0.05,63.900000000000006,0)" xlink:href="#aR"/><use transform="matrix(0.05,0,0,0.05,73.9,0)" xlink:href="#aQ"/><use transform="matrix(0.05,0,0,0.05,80.9,0)" xlink:href="#aY"/></g><g id="C"><use transform="matrix(0.05,0,0,0.05,0,0)" xlink:href="#aT"/><use transform="matrix(0.05,0,0,0.05,10,0)" xlink:href="#by"/><use transform="matrix(0.05,0,0,0.05,20,0)" xlink:href="#aU"/><use transform="matrix(0.05,0,0,0.05,25.950000000000003,0)" xlink:href="#aV"/><use transform="matrix(0.05,0,0,0.05,30.950000000000003,0)" xlink:href="#aW"/><use transform="matrix(0.05,0,0,0.05,41.9,0)" xlink:href="#aX"/><use transform="matrix(0.05,0,0,0.05,52.85,0)" xlink:href="#aY"/></g><path d="M108 0H70L1-190h34L89-25l56-165h34" id="bA"/><g id="D"><use transform="matrix(0.05,0,0,0.05,0,0)" xlink:href="#bj"/><use transform="matrix(0.05,0,0,0.05,10,0)" xlink:href="#bA"/><use transform="matrix(0.05,0,0,0.05,19,0)" xlink:href="#bj"/><use transform="matrix(0.05,0,0,0.05,29,0)" xlink:href="#bg"/><use transform="matrix(0.05,0,0,0.05,39,0)" xlink:href="#bw"/></g><g id="E"><use transform="matrix(0.05,0,0,0.05,0,0)" xlink:href="#aN"/><use transform="matrix(0.05,0,0,0.05,3.95,0)" xlink:href="#aG"/><use transform="matrix(0.05,0,0,0.05,13.949999999999998,0)" xlink:href="#aE"/></g><path d="M24 0v-261h32V0H24" id="bB"/><g id="F"><use transform="matrix(0.05,0,0,0.05,0,0)" xlink:href="#bB"/><use transform="matrix(0.05,0,0,0.05,3.95,0)" xlink:href="#bx"/><use transform="matrix(0.05,0,0,0.05,13.949999999999998,0)" xlink:href="#bv"/><use transform="matrix(0.05,0,0,0.05,22.95,0)" xlink:href="#bh"/><use transform="matrix(0.05,0,0,0.05,32.95,0)" xlink:href="#bw"/><use transform="matrix(0.05,0,0,0.05,37.95,0)" xlink:href="#aZ"/><use transform="matrix(0.05,0,0,0.05,41.900000000000006,0)" xlink:href="#bx"/><use transform="matrix(0.05,0,0,0.05,51.900000000000006,0)" xlink:href="#bg"/></g><g id="G"><use transform="matrix(0.05,0,0,0.05,0,0)" xlink:href="#br"/><use transform="matrix(0.05,0,0,0.05,9,0)" xlink:href="#bw"/><use transform="matrix(0.05,0,0,0.05,14,0)" xlink:href="#bh"/><use transform="matrix(0.05,0,0,0.05,24,0)" xlink:href="#bw"/><use transform="matrix(0.05,0,0,0.05,29,0)" xlink:href="#bs"/><use transform="matrix(0.05,0,0,0.05,39,0)" xlink:href="#br"/></g><g id="H"><use transform="matrix(0.05,0,0,0.05,0,0)" xlink:href="#aZ"/><use transform="matrix(0.05,0,0,0.05,3.95,0)" xlink:href="#bg"/><use transform="matrix(0.05,0,0,0.05,13.949999999999998,0)" xlink:href="#bw"/></g><path d="M63-220v92h138v28H63V0H30v-248h175v28H63" id="bC"/><path d="M194 0L95-120 63-95V0H30v-248h33v124l119-124h40L117-140 236 0h-42" id="bD"/><g id="I"><use transform="matrix(0.05,0,0,0.05,0,0)" xlink:href="#bC"/><use transform="matrix(0.05,0,0,0.05,10.950000000000001,0)" xlink:href="#bD"/></g><path d="M115-194c55 1 70 41 70 98S169 2 115 4C84 4 66-9 55-30l1 105H24l-1-265h31l2 30c10-21 28-34 59-34zm-8 174c40 0 45-34 45-75s-6-73-45-74c-42 0-51 32-51 76 0 43 10 73 51 73" id="bE"/><path d="M114-163C36-179 61-72 57 0H25l-1-190h30c1 12-1 29 2 39 6-27 23-49 58-41v29" id="bF"/><g id="J"><use transform="matrix(0.05,0,0,0.05,0,0)" xlink:href="#bE"/><use transform="matrix(0.05,0,0,0.05,10,0)" xlink:href="#bF"/><use transform="matrix(0.05,0,0,0.05,15.949999999999998,0)" xlink:href="#bx"/><use transform="matrix(0.05,0,0,0.05,25.950000000000003,0)" xlink:href="#bv"/><use transform="matrix(0.05,0,0,0.05,34.95,0)" xlink:href="#bj"/><use transform="matrix(0.05,0,0,0.05,44.95,0)" xlink:href="#br"/><use transform="matrix(0.05,0,0,0.05,53.95,0)" xlink:href="#br"/></g><path d="M127-220V0H93v-220H8v-28h204v28h-85" id="bG"/><path d="M179-190L93 31C79 59 56 82 12 73V49c39 6 53-20 64-50L1-190h34L92-34l54-156h33" id="bH"/><g id="K"><use transform="matrix(0.05,0,0,0.05,0,0)" xlink:href="#bG"/><use transform="matrix(0.05,0,0,0.05,9.950000000000001,0)" xlink:href="#bH"/><use transform="matrix(0.05,0,0,0.05,18.950000000000003,0)" xlink:href="#bE"/><use transform="matrix(0.05,0,0,0.05,28.950000000000003,0)" xlink:href="#bj"/></g><path fill="#333" d="M220-157c-53 9-28 100-34 157h-49v-107c1-27-5-49-29-50C55-147 81-57 75 0H25l-1-190h47c2 12-1 28 3 38 10-53 101-56 108 0 13-22 24-43 59-42 82 1 51 116 57 194h-49v-107c-1-25-5-48-29-50" id="bI"/><path fill="#333" d="M128 0H69L1-190h53L99-40l48-150h52" id="bJ"/><g id="L"><use transform="matrix(0.05,0,0,0.05,0,0)" xlink:href="#bI"/><use transform="matrix(0.05,0,0,0.05,16,0)" xlink:href="#aW"/><use transform="matrix(0.05,0,0,0.05,26.950000000000003,0)" xlink:href="#bJ"/><use transform="matrix(0.05,0,0,0.05,36.95,0)" xlink:href="#aR"/><use transform="matrix(0.05,0,0,0.05,46.95,0)" xlink:href="#bI"/><use transform="matrix(0.05,0,0,0.05,62.95,0)" xlink:href="#aR"/><use transform="matrix(0.05,0,0,0.05,72.95,0)" xlink:href="#aX"/><use transform="matrix(0.05,0,0,0.05,83.9,0)" xlink:href="#aU"/><use transform="matrix(0.05,0,0,0.05,89.85000000000001,0)" xlink:href="#aY"/></g><path d="M106-169C34-169 62-67 57 0H25v-261h32l-1 103c12-21 28-36 61-36 89 0 53 116 60 194h-32v-121c2-32-8-49-39-48" id="bK"/><g id="M"><use transform="matrix(0.05,0,0,0.05,0,0)" xlink:href="#bv"/><use transform="matrix(0.05,0,0,0.05,9,0)" xlink:href="#bK"/><use transform="matrix(0.05,0,0,0.05,19,0)" xlink:href="#bh"/><use transform="matrix(0.05,0,0,0.05,29,0)" xlink:href="#bF"/><use transform="matrix(0.05,0,0,0.05,34.95,0)" xlink:href="#bh"/><use transform="matrix(0.05,0,0,0.05,44.95,0)" xlink:href="#bv"/><use transform="matrix(0.05,0,0,0.05,53.95,0)" xlink:href="#bw"/><use transform="matrix(0.05,0,0,0.05,58.95,0)" xlink:href="#bj"/><use transform="matrix(0.05,0,0,0.05,68.95,0)" xlink:href="#bF"/></g><path d="M177-190C167-65 218 103 67 71c-23-6-38-20-44-43l32-5c15 47 100 32 89-28v-30C133-14 115 1 83 1 29 1 15-40 15-95c0-56 16-97 71-98 29-1 48 16 59 35 1-10 0-23 2-32h30zM94-22c36 0 50-32 50-73 0-42-14-75-50-75-39 0-46 34-46 75s6 73 46 73" id="bL"/><path d="M-5 72V49h209v23H-5" id="bM"/><g id="N"><use transform="matrix(0.05,0,0,0.05,0,0)" xlink:href="#br"/><use transform="matrix(0.05,0,0,0.05,9,0)" xlink:href="#bw"/><use transform="matrix(0.05,0,0,0.05,14,0)" xlink:href="#bh"/><use transform="matrix(0.05,0,0,0.05,24,0)" xlink:href="#bF"/><use transform="matrix(0.05,0,0,0.05,29.950000000000003,0)" xlink:href="#bw"/><use transform="matrix(0.05,0,0,0.05,34.95,0)" xlink:href="#aZ"/><use transform="matrix(0.05,0,0,0.05,38.900000000000006,0)" xlink:href="#bg"/><use transform="matrix(0.05,0,0,0.05,48.900000000000006,0)" xlink:href="#bL"/><use transform="matrix(0.05,0,0,0.05,58.900000000000006,0)" xlink:href="#bM"/><use transform="matrix(0.05,0,0,0.05,68.9,0)" xlink:href="#bB"/><use transform="matrix(0.05,0,0,0.05,72.85000000000001,0)" xlink:href="#bx"/><use transform="matrix(0.05,0,0,0.05,82.85000000000001,0)" xlink:href="#bv"/><use transform="matrix(0.05,0,0,0.05,91.85000000000001,0)" xlink:href="#bh"/><use transform="matrix(0.05,0,0,0.05,101.85000000000001,0)" xlink:href="#bw"/><use transform="matrix(0.05,0,0,0.05,106.85000000000001,0)" xlink:href="#aZ"/><use transform="matrix(0.05,0,0,0.05,110.80000000000001,0)" xlink:href="#bx"/><use transform="matrix(0.05,0,0,0.05,120.80000000000001,0)" xlink:href="#bg"/></g><g id="O"><use transform="matrix(0.05,0,0,0.05,0,0)" xlink:href="#ba"/><use transform="matrix(0.05,0,0,0.05,10,0)" xlink:href="#bj"/><use transform="matrix(0.05,0,0,0.05,20,0)" xlink:href="#br"/><use transform="matrix(0.05,0,0,0.05,29,0)" xlink:href="#bw"/><use transform="matrix(0.05,0,0,0.05,34,0)" xlink:href="#aZ"/><use transform="matrix(0.05,0,0,0.05,37.95,0)" xlink:href="#bg"/><use transform="matrix(0.05,0,0,0.05,47.95,0)" xlink:href="#bh"/><use transform="matrix(0.05,0,0,0.05,57.95,0)" xlink:href="#bw"/><use transform="matrix(0.05,0,0,0.05,62.95,0)" xlink:href="#aZ"/><use transform="matrix(0.05,0,0,0.05,66.9,0)" xlink:href="#bx"/><use transform="matrix(0.05,0,0,0.05,76.9,0)" xlink:href="#bg"/><use transform="matrix(0.05,0,0,0.05,86.9,0)" xlink:href="#bM"/><use transform="matrix(0.05,0,0,0.05,96.9,0)" xlink:href="#bB"/><use transform="matrix(0.05,0,0,0.05,100.85000000000001,0)" xlink:href="#bx"/><use transform="matrix(0.05,0,0,0.05,110.85000000000001,0)" xlink:href="#bv"/><use transform="matrix(0.05,0,0,0.05,119.85000000000001,0)" xlink:href="#bh"/><use transform="matrix(0.05,0,0,0.05,129.85000000000002,0)" xlink:href="#bw"/><use transform="matrix(0.05,0,0,0.05,134.85000000000002,0)" xlink:href="#aZ"/><use transform="matrix(0.05,0,0,0.05,138.8,0)" xlink:href="#bx"/><use transform="matrix(0.05,0,0,0.05,148.8,0)" xlink:href="#bg"/></g><g id="P"><use transform="matrix(0.05,0,0,0.05,0,0)" xlink:href="#aR"/><use transform="matrix(0.05,0,0,0.05,10,0)" xlink:href="#bJ"/><use transform="matrix(0.05,0,0,0.05,20,0)" xlink:href="#aR"/><use transform="matrix(0.05,0,0,0.05,30,0)" xlink:href="#aX"/><use transform="matrix(0.05,0,0,0.05,40.95,0)" xlink:href="#aU"/><use transform="matrix(0.05,0,0,0.05,46.900000000000006,0)" xlink:href="#aY"/></g><path fill="#333" d="M85 4C-2 5 27-109 22-190h50c7 57-23 150 33 157 60-5 35-97 40-157h50l1 190h-47c-2-12 1-28-3-38-12 25-28 42-61 42" id="bN"/><g id="Q"><use transform="matrix(0.05,0,0,0.05,0,0)" xlink:href="#aY"/><use transform="matrix(0.05,0,0,0.05,10,0)" xlink:href="#aU"/><use transform="matrix(0.05,0,0,0.05,15.949999999999998,0)" xlink:href="#aT"/><use transform="matrix(0.05,0,0,0.05,25.950000000000003,0)" xlink:href="#aU"/><use transform="matrix(0.05,0,0,0.05,31.899999999999995,0)" xlink:href="#bN"/><use transform="matrix(0.05,0,0,0.05,42.85,0)" xlink:href="#aY"/></g><g id="R"><use transform="matrix(0.05,0,0,0.05,0,0)" xlink:href="#ba"/><use transform="matrix(0.05,0,0,0.05,10,0)" xlink:href="#bj"/><use transform="matrix(0.05,0,0,0.05,20,0)" xlink:href="#br"/><use transform="matrix(0.05,0,0,0.05,29,0)" xlink:href="#bv"/><use transform="matrix(0.05,0,0,0.05,38,0)" xlink:href="#bF"/><use transform="matrix(0.05,0,0,0.05,43.95,0)" xlink:href="#aZ"/><use transform="matrix(0.05,0,0,0.05,47.900000000000006,0)" xlink:href="#bE"/><use transform="matrix(0.05,0,0,0.05,57.900000000000006,0)" xlink:href="#bw"/><use transform="matrix(0.05,0,0,0.05,62.900000000000006,0)" xlink:href="#aZ"/><use transform="matrix(0.05,0,0,0.05,66.85000000000001,0)" xlink:href="#bx"/><use transform="matrix(0.05,0,0,0.05,76.85000000000001,0)" xlink:href="#bg"/></g><g id="S"><use transform="matrix(0.05,0,0,0.05,0,0)" xlink:href="#aS"/><use transform="matrix(0.05,0,0,0.05,5,0)" xlink:href="#aW"/><use transform="matrix(0.05,0,0,0.05,15.950000000000001,0)" xlink:href="#by"/><use transform="matrix(0.05,0,0,0.05,25.950000000000003,0)" xlink:href="#aT"/><use transform="matrix(0.05,0,0,0.05,35.95,0)" xlink:href="#aU"/><use transform="matrix(0.05,0,0,0.05,41.900000000000006,0)" xlink:href="#aV"/><use transform="matrix(0.05,0,0,0.05,46.900000000000006,0)" xlink:href="#aW"/><use transform="matrix(0.05,0,0,0.05,57.85,0)" xlink:href="#aX"/><use transform="matrix(0.05,0,0,0.05,68.80000000000001,0)" xlink:href="#aY"/></g></defs></g></svg>