<svg xmlns="http://www.w3.org/2000/svg" xmlns:xlink="http://www.w3.org/1999/xlink" xmlns:lucid="lucid" width="1378" height="1062"><g transform="translate(0 0)" lucid:page-tab-id="0_0"><path d="M262.63 69a8 8 0 0 1 8-8h836.75a8 8 0 0 1 8 8v25.16a8 8 0 0 1-8 8H270.6a8 8 0 0 1-8-8z" stroke="#000" stroke-opacity="0" stroke-width="2" fill="#fff" fill-opacity="0"/><use xlink:href="#a" transform="matrix(1,0,0,1,266.6252457659425,64.99999999997465) translate(332.0291358024691 25.782777777777778)"/><use xlink:href="#b" transform="matrix(1,0,0,1,266.6252457659425,64.99999999997465) translate(458.55135802469135 25.782777777777778)"/><path d="M438.1 100.8h505.87M438.14 100.8h-1.03M943.95 100.8h1.02" stroke="#a9afb8" stroke-width="2" fill="none"/><path d="M262.63 110.16a8 8 0 0 1 8-8h837.7a8 8 0 0 1 8 8V113a8 8 0 0 1-8 8h-837.7a8 8 0 0 1-8-8z" stroke="#000" stroke-opacity="0" stroke-width="2" fill="#fff" fill-opacity="0"/><use xlink:href="#c" transform="matrix(1,0,0,1,266.62524576594296,106.15522395687346) translate(307.6149897119342 14.917037037037037)"/><use xlink:href="#d" transform="matrix(1,0,0,1,266.62524576594296,106.15522395687346) translate(362.08680041152263 14.917037037037037)"/><use xlink:href="#e" transform="matrix(1,0,0,1,266.62524576594296,106.15522395687346) translate(406.91344650205764 14.917037037037037)"/><use xlink:href="#f" transform="matrix(1,0,0,1,266.62524576594296,106.15522395687346) translate(419.36293209876544 14.917037037037037)"/><use xlink:href="#g" transform="matrix(1,0,0,1,266.62524576594296,106.15522395687346) translate(494.0173559670782 14.917037037037037)"/><use xlink:href="#h" transform="matrix(1,0,0,1,266.62524576594296,106.15522395687346) translate(511.01324074074074 14.917037037037037)"/><path d="M80 558.72a5 5 0 0 1 5-5h270a5 5 0 0 1 5 5v94a5 5 0 0 1-5 5H85a5 5 0 0 1-5-5z" fill="#fff"/><path d="M80 593.72v-35a5 5 0 0 1 5-5h270a5 5 0 0 1 5 5v35" fill="#6db1ff"/><path d="M80 558.72a5 5 0 0 1 5-5h270a5 5 0 0 1 5 5v94a5 5 0 0 1-5 5H85a5 5 0 0 1-5-5zM80 593.72h280M191.7 593.72v64M308.75 593.72v64" stroke="#282c33" fill="none"/><use xlink:href="#i" transform="matrix(1,0,0,1,90,553.7244424066647) translate(84.55 23.6)"/><use xlink:href="#j" transform="matrix(1,0,0,1,85,596.2244424066647) translate(44.025 17.1)"/><use xlink:href="#k" transform="matrix(1,0,0,1,196.70631596262547,596.2244424066647) translate(32.575 17.1)"/><use xlink:href="#l" transform="matrix(1,0,0,1,313.7541756010567,596.2244424066647) translate(9 17.1)"/><use xlink:href="#m" transform="matrix(1,0,0,1,85,628.2244424066647) translate(28.525 17.1)"/><use xlink:href="#n" transform="matrix(1,0,0,1,196.70631596262547,628.2244424066647) translate(8.099999999999994 17.1)"/><path d="M60 77a16 16 0 0 1 16-16h208a16 16 0 0 1 16 16v168.82a16 16 0 0 1-16 16H76a16 16 0 0 1-16-16z" stroke="#4c535d" stroke-width="2" fill="#fff"/><path d="M116.9 130.1c0 6.74-5.45 12.2-12.18 12.2-6.74 0-12.2-5.46-12.2-12.2 0-6.73 5.46-12.2 12.2-12.2 6.73 0 12.2 5.47 12.2 12.2z" stroke="#000" stroke-opacity=".25" fill="#6db1ff"/><path d="M116.9 162.63c0 6.74-5.45 12.2-12.18 12.2-6.74 0-12.2-5.47-12.2-12.2 0-6.74 5.46-12.2 12.2-12.2 6.73 0 12.2 5.46 12.2 12.2z" stroke="#000" stroke-opacity=".25" fill="#fe7070"/><path d="M116.9 195.15c0 6.74-5.45 12.2-12.18 12.2-6.74 0-12.2-5.46-12.2-12.2 0-6.74 5.46-12.2 12.2-12.2 6.73 0 12.2 5.47 12.2 12.2z" stroke="#000" stroke-opacity=".25" fill="#ffe342"/><path d="M116.9 227.67c0 6.74-5.45 12.2-12.18 12.2-6.74 0-12.2-5.46-12.2-12.2 0-6.73 5.46-12.2 12.2-12.2 6.73 0 12.2 5.47 12.2 12.2z" stroke="#000" stroke-opacity=".25" fill="#ced4db"/><use xlink:href="#o" transform="matrix(1,0,0,1,92.52143233390086,85.3910742504003) translate(14.574999999999996 14.4)"/><use xlink:href="#p" transform="matrix(1,0,0,1,92.52143233390086,85.3910742504003) translate(91.475 14.4)"/><use xlink:href="#q" transform="matrix(1,0,0,1,129.10804370953934,117.91250658430116) translate(0 15.3)"/><use xlink:href="#r" transform="matrix(1,0,0,1,129.10804370953934,117.91250658430116) translate(34.144444444444446 15.3)"/><use xlink:href="#s" transform="matrix(1,0,0,1,129.10804370953934,150.43393891820202) translate(0 15.3)"/><use xlink:href="#t" transform="matrix(1,0,0,1,129.10804370953934,182.95537125210288) translate(0 15.3)"/><use xlink:href="#u" transform="matrix(1,0,0,1,129.10804370953934,215.47680358600374) translate(0 15.3)"/><path d="M1029 734a5 5 0 0 1 5-5h270a5 5 0 0 1 5 5v94a5 5 0 0 1-5 5h-270a5 5 0 0 1-5-5z" fill="#fff"/><path d="M1029 769v-35a5 5 0 0 1 5-5h270a5 5 0 0 1 5 5v35" fill="#6db1ff"/><path d="M1029 734a5 5 0 0 1 5-5h270a5 5 0 0 1 5 5v94a5 5 0 0 1-5 5h-270a5 5 0 0 1-5-5zM1029 769h280M1138.57 769v64M1245.26 769v64" stroke="#282c33" fill="none"/><use xlink:href="#v" transform="matrix(1,0,0,1,1039,729.0000000000254) translate(90.6 23.6)"/><use xlink:href="#j" transform="matrix(1,0,0,1,1034,771.5000000000254) translate(43.025 17.1)"/><use xlink:href="#k" transform="matrix(1,0,0,1,1143.5689691477462,771.5000000000254) translate(27.075 17.1)"/><use xlink:href="#l" transform="matrix(1,0,0,1,1250.2577188024077,771.5000000000254) translate(15 17.1)"/><use xlink:href="#m" transform="matrix(1,0,0,1,1034,803.5000000000254) translate(27.525 17.1)"/><use xlink:href="#n" transform="matrix(1,0,0,1,1143.5689691477462,803.5000000000254) translate(2.5999999999999943 17.1)"/><path d="M1029 290a5 5 0 0 1 5-5h270a5 5 0 0 1 5 5v94a5 5 0 0 1-5 5h-270a5 5 0 0 1-5-5z" fill="#fff"/><path d="M1029 325v-35a5 5 0 0 1 5-5h270a5 5 0 0 1 5 5v35" fill="#6db1ff"/><path d="M1029 290a5 5 0 0 1 5-5h270a5 5 0 0 1 5 5v94a5 5 0 0 1-5 5h-270a5 5 0 0 1-5-5zM1029 325h280M1135.23 325v64M1251.93 325v64" stroke="#282c33" fill="none"/><use xlink:href="#w" transform="matrix(1,0,0,1,1039,285.0000000000254) translate(101.55 23.6)"/><use xlink:href="#j" transform="matrix(1,0,0,1,1034,327.5000000000254) translate(41.525 17.1)"/><use xlink:href="#k" transform="matrix(1,0,0,1,1140.234945721038,327.5000000000254) translate(32.075 17.1)"/><use xlink:href="#l" transform="matrix(1,0,0,1,1256.925765655824,327.5000000000254) translate(12 17.1)"/><use xlink:href="#m" transform="matrix(1,0,0,1,1034,359.5000000000254) translate(26.025 17.1)"/><use xlink:href="#n" transform="matrix(1,0,0,1,1140.234945721038,359.5000000000254) translate(7.599999999999994 17.1)"/><path d="M1029 538a5 5 0 0 1 5-5h270a5 5 0 0 1 5 5v94a5 5 0 0 1-5 5h-270a5 5 0 0 1-5-5z" fill="#fff"/><path d="M1029 573v-35a5 5 0 0 1 5-5h270a5 5 0 0 1 5 5v35" fill="#ffe342"/><path d="M1029 538a5 5 0 0 1 5-5h270a5 5 0 0 1 5 5v94a5 5 0 0 1-5 5h-270a5 5 0 0 1-5-5zM1029 573h280M1141.9 573v64M1246.92 573v64" stroke="#282c33" fill="none"/><use xlink:href="#x" transform="matrix(1,0,0,1,1039,533.0000000000254) translate(103.575 23.6)"/><use xlink:href="#j" transform="matrix(1,0,0,1,1034,575.5000000000254) translate(44.525 17.1)"/><use xlink:href="#k" transform="matrix(1,0,0,1,1146.9029925744544,575.5000000000254) translate(26.575 17.1)"/><use xlink:href="#l" transform="matrix(1,0,0,1,1251.924730515762,575.5000000000254) translate(14.5 17.1)"/><use xlink:href="#y" transform="matrix(1,0,0,1,1034,607.5000000000254) translate(8.074999999999996 17.1)"/><use xlink:href="#n" transform="matrix(1,0,0,1,1146.9029925744544,607.5000000000254) translate(2.0999999999999943 17.1)"/><path d="M1029 85a5 5 0 0 1 5-5h270a5 5 0 0 1 5 5v126a5 5 0 0 1-5 5h-270a5 5 0 0 1-5-5z" fill="#fff"/><path d="M1029 120V85a5 5 0 0 1 5-5h270a5 5 0 0 1 5 5v35" fill="#ced4db"/><path d="M1029 85a5 5 0 0 1 5-5h270a5 5 0 0 1 5 5v126a5 5 0 0 1-5 5h-270a5 5 0 0 1-5-5zM1029 120h280M1089 120v96M1199 120v96" stroke="#282c33" fill="none"/><use xlink:href="#z" transform="matrix(1,0,0,1,1039,80) translate(86.05 23.6)"/><use xlink:href="#A" transform="matrix(1,0,0,1,1034,122.5) translate(9.5 17.1)"/><use xlink:href="#B" transform="matrix(1,0,0,1,1094,122.5) translate(24.224999999999998 17.1)"/><use xlink:href="#C" transform="matrix(1,0,0,1,1204,122.5) translate(0 17.1)"/><use xlink:href="#A" transform="matrix(1,0,0,1,1034,154.5) translate(9.5 17.1)"/><use xlink:href="#D" transform="matrix(1,0,0,1,1094,154.5) translate(20.549999999999997 17.1)"/><use xlink:href="#E" transform="matrix(1,0,0,1,1204,154.5) translate(0 17.1)"/><use xlink:href="#A" transform="matrix(1,0,0,1,1034,186.5) translate(9.5 17.1)"/><use xlink:href="#F" transform="matrix(1,0,0,1,1094,186.5) translate(24.049999999999997 17.1)"/><use xlink:href="#E" transform="matrix(1,0,0,1,1204,186.5) translate(0 17.1)"/><path d="M539 258a5 5 0 0 1 5-5h270a5 5 0 0 1 5 5v158a5 5 0 0 1-5 5H544a5 5 0 0 1-5-5z" fill="#fff"/><path d="M539 293v-35a5 5 0 0 1 5-5h270a5 5 0 0 1 5 5v35" fill="#fe7070"/><path d="M539 258a5 5 0 0 1 5-5h270a5 5 0 0 1 5 5v158a5 5 0 0 1-5 5H544a5 5 0 0 1-5-5zM539 293h280M613.46 293v128M723.48 293v128" stroke="#282c33" fill="none"/><use xlink:href="#G" transform="matrix(1,0,0,1,549,253.0000000000254) translate(92.57499999999999 23.6)"/><use xlink:href="#j" transform="matrix(1,0,0,1,544,295.5000000000254) translate(25.525 17.1)"/><use xlink:href="#k" transform="matrix(1,0,0,1,618.4602794412093,295.5000000000254) translate(29.075 17.1)"/><use xlink:href="#l" transform="matrix(1,0,0,1,728.483052522579,295.5000000000254) translate(31 17.1)"/><use xlink:href="#m" transform="matrix(1,0,0,1,544,327.5000000000254) translate(10.024999999999999 17.1)"/><use xlink:href="#n" transform="matrix(1,0,0,1,618.4602794412093,327.5000000000254) translate(4.599999999999994 17.1)"/><use xlink:href="#H" transform="matrix(1,0,0,1,728.483052522579,327.5000000000254) translate(31.525 17.1)"/><use xlink:href="#I" transform="matrix(1,0,0,1,544,359.5000000000254) translate(4.024999999999999 17.1)"/><use xlink:href="#J" transform="matrix(1,0,0,1,618.4602794412093,359.5000000000254) translate(41.025 17.1)"/><use xlink:href="#K" transform="matrix(1,0,0,1,728.483052522579,359.5000000000254) translate(31.525 17.1)"/><use xlink:href="#L" transform="matrix(1,0,0,1,544,391.5000000000254) translate(8.524999999999999 17.1)"/><use xlink:href="#J" transform="matrix(1,0,0,1,618.4602794412093,391.5000000000254) translate(41.025 17.1)"/><use xlink:href="#K" transform="matrix(1,0,0,1,728.483052522579,391.5000000000254) translate(31.525 17.1)"/><path d="M539 494.72a5 5 0 0 1 5-5h270a5 5 0 0 1 5 5v254a5 5 0 0 1-5 5H544a5 5 0 0 1-5-5z" fill="#fff"/><path d="M539 529.72v-35a5 5 0 0 1 5-5h270a5 5 0 0 1 5 5v35" fill="#fe7070"/><path d="M539 494.72a5 5 0 0 1 5-5h270a5 5 0 0 1 5 5v254a5 5 0 0 1-5 5H544a5 5 0 0 1-5-5zM539 529.72h280M628.46 529.72v224M721.82 529.72v224" stroke="#282c33" fill="none"/><use xlink:href="#M" transform="matrix(1,0,0,1,549,489.7244424066647) translate(98.575 23.6)"/><use xlink:href="#j" transform="matrix(1,0,0,1,544,532.2244424066647) translate(33.025 17.1)"/><use xlink:href="#k" transform="matrix(1,0,0,1,633.4633848613961,532.2244424066647) translate(20.575 17.1)"/><use xlink:href="#l" transform="matrix(1,0,0,1,726.8160408092249,532.2244424066647) translate(32 17.1)"/><use xlink:href="#N" transform="matrix(1,0,0,1,544,564.2244424066647) translate(18 17.1)"/><use xlink:href="#O" transform="matrix(1,0,0,1,633.4633848613961,564.2244424066647) translate(32.525 17.1)"/><use xlink:href="#K" transform="matrix(1,0,0,1,726.8160408092249,564.2244424066647) translate(32.525 17.1)"/><use xlink:href="#I" transform="matrix(1,0,0,1,544,596.2244424066647) translate(11.524999999999999 17.1)"/><use xlink:href="#J" transform="matrix(1,0,0,1,633.4633848613961,596.2244424066647) translate(32.525 17.1)"/><use xlink:href="#K" transform="matrix(1,0,0,1,726.8160408092249,596.2244424066647) translate(32.525 17.1)"/><use xlink:href="#L" transform="matrix(1,0,0,1,544,628.2244424066647) translate(16.025 17.1)"/><use xlink:href="#J" transform="matrix(1,0,0,1,633.4633848613961,628.2244424066647) translate(32.525 17.1)"/><use xlink:href="#K" transform="matrix(1,0,0,1,726.8160408092249,628.2244424066647) translate(32.525 17.1)"/><use xlink:href="#P" transform="matrix(1,0,0,1,544,660.2244424066647) translate(9.049999999999997 17.1)"/><use xlink:href="#J" transform="matrix(1,0,0,1,633.4633848613961,660.2244424066647) translate(32.525 17.1)"/><use xlink:href="#K" transform="matrix(1,0,0,1,726.8160408092249,660.2244424066647) translate(32.525 17.1)"/><use xlink:href="#Q" transform="matrix(1,0,0,1,544,692.2244424066647) translate(16 17.1)"/><use xlink:href="#R" transform="matrix(1,0,0,1,633.4633848613961,692.2244424066647) translate(32.525 17.1)"/><use xlink:href="#S" transform="matrix(1,0,0,1,726.8160408092249,692.2244424066647) translate(32.525 17.1)"/><use xlink:href="#T" transform="matrix(1,0,0,1,544,724.2244424066647) translate(8.524999999999999 17.1)"/><use xlink:href="#E" transform="matrix(1,0,0,1,633.4633848613961,724.2244424066647) translate(22.525 17.1)"/><path d="M539 838a5 5 0 0 1 5-5h270a5 5 0 0 1 5 5v158a5 5 0 0 1-5 5H544a5 5 0 0 1-5-5z" fill="#fff"/><path d="M539 873v-35a5 5 0 0 1 5-5h270a5 5 0 0 1 5 5v35" fill="#fe7070"/><path d="M539 838a5 5 0 0 1 5-5h270a5 5 0 0 1 5 5v158a5 5 0 0 1-5 5H544a5 5 0 0 1-5-5zM539 873h280M711.63 873v128M769.98 873v128" stroke="#282c33" fill="none"/><use xlink:href="#U" transform="matrix(1,0,0,1,549,833.0000000000254) translate(80.07499999999999 23.6)"/><use xlink:href="#j" transform="matrix(1,0,0,1,544,875.5000000000254) translate(74.525 17.1)"/><use xlink:href="#k" transform="matrix(1,0,0,1,716.633501994937,875.5000000000254) translate(3.0749999999999993 17.1)"/><use xlink:href="#l" transform="matrix(1,0,0,1,774.9789119623299,875.5000000000254) translate(8 17.1)"/><use xlink:href="#V" transform="matrix(1,0,0,1,544,907.5000000000254) translate(44.05 17.1)"/><use xlink:href="#O" transform="matrix(1,0,0,1,716.633501994937,907.5000000000254) translate(15.025 17.1)"/><use xlink:href="#K" transform="matrix(1,0,0,1,774.9789119623299,907.5000000000254) translate(8.524999999999999 17.1)"/><use xlink:href="#W" transform="matrix(1,0,0,1,544,939.5000000000254) translate(16.099999999999994 17.1)"/><use xlink:href="#J" transform="matrix(1,0,0,1,716.633501994937,939.5000000000254) translate(15.025 17.1)"/><use xlink:href="#K" transform="matrix(1,0,0,1,774.9789119623299,939.5000000000254) translate(8.524999999999999 17.1)"/><use xlink:href="#X" transform="matrix(1,0,0,1,544,971.5000000000254) translate(2.0999999999999943 17.1)"/><use xlink:href="#J" transform="matrix(1,0,0,1,716.633501994937,971.5000000000254) translate(15.025 17.1)"/><use xlink:href="#K" transform="matrix(1,0,0,1,774.9789119623299,971.5000000000254) translate(8.524999999999999 17.1)"/><path d="M519.1 373H232a12 12 0 0 0-12 12v148.22" stroke="#3a414a" fill="none"/><path d="M538.28 383l-20-10 20-10" stroke="#3a414a" fill="#fff" fill-opacity="0"/><path d="M538.28 373h-20M230 533.22h-20M220 553.22v-20" stroke="#3a414a" fill="#fff"/><path d="M380.5 609.72h138.6" stroke="#3a414a" fill="none"/><path d="M380.5 619.72v-20M360.5 609.72h20" stroke="#3a414a" fill="#fff"/><path d="M538.28 619.72l-20-10 20-10" stroke="#3a414a" fill="#fff" fill-opacity="0"/><path d="M538.28 609.72h-20" stroke="#3a414a" fill="#fff"/><path d="M838.9 577.72H888a12 12 0 0 0 12-12V353a12 12 0 0 1 12-12h96.5" stroke="#3a414a" fill="none"/><path d="M819.72 567.72l20 10-20 10" stroke="#3a414a" fill="#fff" fill-opacity="0"/><path d="M819.72 577.72h20M1008.5 331v20M1028.5 341h-20" stroke="#3a414a" fill="#fff"/><path d="M220 678.22V909a12 12 0 0 0 12 12h287.1" stroke="#3a414a" fill="none"/><path d="M210 678.22h20M220 658.22v20" stroke="#3a414a" fill="#fff"/><path d="M538.28 931l-20-10 20-10" stroke="#3a414a" fill="#fff" fill-opacity="0"/><path d="M538.28 921h-20" stroke="#3a414a" fill="#fff"/><path d="M838.9 673.72H888a12 12 0 0 1 12 12V773a12 12 0 0 0 12 12h96.5" stroke="#3a414a" fill="none"/><path d="M819.72 663.72l20 10-20 10" stroke="#3a414a" fill="#fff" fill-opacity="0"/><path d="M819.72 673.72h20M1008.5 775v20M1028.5 785h-20" stroke="#3a414a" fill="#fff"/><path d="M838.9 953.04H1157a12 12 0 0 0 12-12V853.5" stroke="#3a414a" fill="none"/><path d="M819.72 943.04l20 10-20 10" stroke="#3a414a" fill="#fff" fill-opacity="0"/><path d="M819.72 953.04h20M1159 853.5h20M1169 833.5v20" stroke="#3a414a" fill="#fff"/><path d="M839.5 705.72H948a12 12 0 0 0 12-12V601a12 12 0 0 1 12-12h36.5" stroke="#3a414a" fill="none"/><path d="M839.5 715.72v-20M819.5 705.72h20M1008.5 579v20M1028.5 589h-20" stroke="#3a414a" fill="#fff"/><defs><path fill="#a9afb8" d="M24-248c120-7 223 5 221 122C244-46 201 0 124 0H24v-248zM76-40c74 7 117-18 117-86 0-67-45-88-117-82v168" id="Y"/><path fill="#a9afb8" d="M133-34C117-15 103 5 69 4 32 3 11-16 11-54c-1-60 55-63 116-61 1-26-3-47-28-47-18 1-26 9-28 27l-52-2c7-38 36-58 82-57s74 22 75 68l1 82c-1 14 12 18 25 15v27c-30 8-71 5-69-32zm-48 3c29 0 43-24 42-57-32 0-66-3-65 30 0 17 8 27 23 27" id="Z"/><path fill="#a9afb8" d="M115-3C79 11 28 4 28-45v-112H4v-33h27l15-45h31v45h36v33H77v99c-1 23 16 31 38 25v30" id="aa"/><path fill="#a9afb8" d="M182-130c37 4 62 22 62 59C244 23 116-4 24 0v-248c84 5 203-23 205 63 0 31-19 50-47 55zM76-148c40-3 101 13 101-30 0-44-60-28-101-31v61zm0 110c48-3 116 14 116-37 0-48-69-32-116-35v72" id="ab"/><path fill="#a9afb8" d="M137-138c1-29-70-34-71-4 15 46 118 7 119 86 1 83-164 76-172 9l43-7c4 19 20 25 44 25 33 8 57-30 24-41C81-84 22-81 20-136c-2-80 154-74 161-7" id="ac"/><path fill="#a9afb8" d="M185-48c-13 30-37 53-82 52C43 2 14-33 14-96s30-98 90-98c62 0 83 45 84 108H66c0 31 8 55 39 56 18 0 30-7 34-22zm-45-69c5-46-57-63-70-21-2 6-4 13-4 21h74" id="ad"/><g id="a"><use transform="matrix(0.0728395061728395,0,0,0.0728395061728395,0,0)" xlink:href="#Y"/><use transform="matrix(0.0728395061728395,0,0,0.0728395061728395,18.86543209876543,0)" xlink:href="#Z"/><use transform="matrix(0.0728395061728395,0,0,0.0728395061728395,33.43333333333333,0)" xlink:href="#aa"/><use transform="matrix(0.0728395061728395,0,0,0.0728395061728395,42.10123456790124,0)" xlink:href="#Z"/><use transform="matrix(0.0728395061728395,0,0,0.0728395061728395,56.66913580246913,0)" xlink:href="#ab"/><use transform="matrix(0.0728395061728395,0,0,0.0728395061728395,75.53456790123457,0)" xlink:href="#Z"/><use transform="matrix(0.0728395061728395,0,0,0.0728395061728395,90.10246913580247,0)" xlink:href="#ac"/><use transform="matrix(0.0728395061728395,0,0,0.0728395061728395,104.67037037037036,0)" xlink:href="#ad"/></g><path fill="#a9afb8" d="M24 0v-248h52v208h133V0H24" id="ae"/><path fill="#a9afb8" d="M135-194c52 0 70 43 70 98 0 56-19 99-73 100-30 1-46-15-58-35L72 0H24l1-261h50v104c11-23 29-37 60-37zM114-30c31 0 40-27 40-66 0-37-7-63-39-63s-41 28-41 65c0 36 8 64 40 64" id="af"/><path fill="#a9afb8" d="M23 0v-37h61v-169l-59 37v-38l62-41h46v211h57V0H23" id="ag"/><g id="b"><use transform="matrix(0.0728395061728395,0,0,0.0728395061728395,0,0)" xlink:href="#ae"/><use transform="matrix(0.0728395061728395,0,0,0.0728395061728395,15.95185185185185,0)" xlink:href="#Z"/><use transform="matrix(0.0728395061728395,0,0,0.0728395061728395,30.51975308641975,0)" xlink:href="#af"/><use transform="matrix(0.0728395061728395,0,0,0.0728395061728395,46.471604938271604,0)" xlink:href="#ag"/></g><path fill="#a9afb8" d="M195 0l-74-108L45 0H8l94-129-87-119h37l69 98 67-98h37l-84 118L233 0h-38" id="ah"/><path fill="#a9afb8" d="M179-190L93 31C79 59 56 82 12 73V49c39 6 53-20 64-50L1-190h34L92-34l54-156h33" id="ai"/><path fill="#a9afb8" d="M57-190v80h85v-80h32V0h-32v-87H57V0H25v-190h32" id="aj"/><path fill="#a9afb8" d="M96-169c-40 0-48 33-48 73s9 75 48 75c24 0 41-14 43-38l32 2c-6 37-31 61-74 61-59 0-76-41-82-99-10-93 101-131 147-64 4 7 5 14 7 22l-32 3c-4-21-16-35-41-35" id="ak"/><path fill="#a9afb8" d="M20-138c-1-64 85-51 150-52V0h-32v-81H94L39 0H3l60-83c-28-5-43-24-43-55zm33 3c0 40 46 33 85 33v-66c-39 0-85-6-85 33" id="al"/><g id="c"><use transform="matrix(0.04248971193415638,0,0,0.04248971193415638,0,0)" xlink:href="#ah"/><use transform="matrix(0.04248971193415638,0,0,0.04248971193415638,9.85761316872428,0)" xlink:href="#ai"/><use transform="matrix(0.04248971193415638,0,0,0.04248971193415638,17.505761316872427,0)" xlink:href="#aj"/><use transform="matrix(0.04248971193415638,0,0,0.04248971193415638,25.91872427983539,0)" xlink:href="#ak"/><use transform="matrix(0.04248971193415638,0,0,0.04248971193415638,33.56687242798353,0)" xlink:href="#al"/><use transform="matrix(0.04248971193415638,0,0,0.04248971193415638,41.80987654320987,0)" xlink:href="#aj"/></g><path fill="#a9afb8" d="M62-147c-4 58 76 40 115 32v-133h34V0h-34v-89C118-74 28-68 28-143v-105h34v101" id="am"/><path fill="#a9afb8" d="M156-87c-4 1-15 3-20 3V0h-31v-84c-5 0-16-2-20-3L36 0H1l62-104c-22-24-40-59-60-86h33l50 76c5 5 9 7 19 7v-83h31v83c27-1 31-21 43-41l26-42h33l-60 86L240 0h-36" id="an"/><path fill="#a9afb8" d="M100-194c62-1 85 37 85 99 1 63-27 99-86 99S16-35 15-95c0-66 28-99 85-99zM99-20c44 1 53-31 53-75 0-43-8-75-51-75s-53 32-53 75 10 74 51 75" id="ao"/><g id="d"><use transform="matrix(0.04248971193415638,0,0,0.04248971193415638,0,0)" xlink:href="#am"/><use transform="matrix(0.04248971193415638,0,0,0.04248971193415638,10.155041152263374,0)" xlink:href="#an"/><use transform="matrix(0.04248971193415638,0,0,0.04248971193415638,20.352572016460904,0)" xlink:href="#ao"/><use transform="matrix(0.04248971193415638,0,0,0.04248971193415638,28.68055555555555,0)" xlink:href="#ai"/></g><path fill="#a9afb8" d="M32 76v-337h29V76H32" id="ap"/><use transform="matrix(0.04248971193415638,0,0,0.04248971193415638,0,0)" xlink:href="#ap" id="e"/><path fill="#a9afb8" d="M190 0L58-211 59 0H30v-248h39L202-35l-2-213h31V0h-41" id="aq"/><path fill="#a9afb8" d="M100-194c62-1 85 37 85 99 1 63-27 99-86 99S16-35 15-95c0-66 28-99 85-99zM99-20c44 1 53-31 53-75 0-43-8-75-51-75s-53 32-53 75 10 74 51 75" id="ar"/><path fill="#a9afb8" d="M108 0H70L1-190h34L89-25l56-165h34" id="as"/><path fill="#a9afb8" d="M100-194c63 0 86 42 84 106H49c0 40 14 67 53 68 26 1 43-12 49-29l28 8c-11 28-37 45-77 45C44 4 14-33 15-96c1-61 26-98 85-98zm52 81c6-60-76-77-97-28-3 7-6 17-6 28h103" id="at"/><path fill="#a9afb8" d="M210-169c-67 3-38 105-44 169h-31v-121c0-29-5-50-35-48C34-165 62-65 56 0H25l-1-190h30c1 10-1 24 2 32 10-44 99-50 107 0 11-21 27-35 58-36 85-2 47 119 55 194h-31v-121c0-29-5-49-35-48" id="au"/><path fill="#a9afb8" d="M115-194c53 0 69 39 70 98 0 66-23 100-70 100C84 3 66-7 56-30L54 0H23l1-261h32v101c10-23 28-34 59-34zm-8 174c40 0 45-34 45-75 0-40-5-75-45-74-42 0-51 32-51 76 0 43 10 73 51 73" id="av"/><path fill="#a9afb8" d="M114-163C36-179 61-72 57 0H25l-1-190h30c1 12-1 29 2 39 6-27 23-49 58-41v29" id="aw"/><g id="f"><use transform="matrix(0.04248971193415638,0,0,0.04248971193415638,0,0)" xlink:href="#aq"/><use transform="matrix(0.04248971193415638,0,0,0.04248971193415638,11.004835390946502,0)" xlink:href="#ar"/><use transform="matrix(0.04248971193415638,0,0,0.04248971193415638,19.502777777777776,0)" xlink:href="#as"/><use transform="matrix(0.04248971193415638,0,0,0.04248971193415638,27.150925925925925,0)" xlink:href="#at"/><use transform="matrix(0.04248971193415638,0,0,0.04248971193415638,35.6488683127572,0)" xlink:href="#au"/><use transform="matrix(0.04248971193415638,0,0,0.04248971193415638,48.35329218106995,0)" xlink:href="#av"/><use transform="matrix(0.04248971193415638,0,0,0.04248971193415638,56.851234567901244,0)" xlink:href="#at"/><use transform="matrix(0.04248971193415638,0,0,0.04248971193415638,65.34917695473251,0)" xlink:href="#aw"/></g><path fill="#a9afb8" d="M27 0v-27h64v-190l-56 39v-29l58-41h29v221h61V0H27" id="ax"/><path fill="#a9afb8" d="M68-38c1 34 0 65-14 84H32c9-13 17-26 17-46H33v-38h35" id="ay"/><g id="g"><use transform="matrix(0.04248971193415638,0,0,0.04248971193415638,0,0)" xlink:href="#ax"/><use transform="matrix(0.04248971193415638,0,0,0.04248971193415638,8.497942386831275,0)" xlink:href="#ay"/></g><path fill="#a9afb8" d="M101-251c82-7 93 87 43 132L82-64C71-53 59-42 53-27h129V0H18c2-99 128-94 128-182 0-28-16-43-45-43s-46 15-49 41l-32-3c6-41 34-60 81-64" id="az"/><path fill="#a9afb8" d="M101-251c68 0 85 55 85 127S166 4 100 4C33 4 14-52 14-124c0-73 17-127 87-127zm-1 229c47 0 54-49 54-102s-4-102-53-102c-51 0-55 48-55 102 0 53 5 102 54 102" id="aA"/><path fill="#a9afb8" d="M126-127c33 6 58 20 58 59 0 88-139 92-164 29-3-8-5-16-6-25l32-3c6 27 21 44 54 44 32 0 52-15 52-46 0-38-36-46-79-43v-28c39 1 72-4 72-42 0-27-17-43-46-43-28 0-47 15-49 41l-32-3c6-42 35-63 81-64 48-1 79 21 79 65 0 36-21 52-52 59" id="aB"/><g id="h"><use transform="matrix(0.04248971193415638,0,0,0.04248971193415638,0,0)" xlink:href="#az"/><use transform="matrix(0.04248971193415638,0,0,0.04248971193415638,8.497942386831275,0)" xlink:href="#aA"/><use transform="matrix(0.04248971193415638,0,0,0.04248971193415638,16.99588477366255,0)" xlink:href="#az"/><use transform="matrix(0.04248971193415638,0,0,0.04248971193415638,25.493827160493822,0)" xlink:href="#aB"/></g><path fill="#333" d="M190-63c-7 42-38 67-86 67-59 0-84-38-90-98-12-110 154-137 174-36l-49 2c-2-19-15-32-35-32-30 0-35 28-38 64-6 74 65 87 74 30" id="aC"/><path fill="#333" d="M114-157C55-157 80-60 75 0H25v-261h50l-1 109c12-26 28-41 61-42 86-1 58 113 63 194h-50c-7-57 23-157-34-157" id="aD"/><path fill="#333" d="M133-34C117-15 103 5 69 4 32 3 11-16 11-54c-1-60 55-63 116-61 1-26-3-47-28-47-18 1-26 9-28 27l-52-2c7-38 36-58 82-57s74 22 75 68l1 82c-1 14 12 18 25 15v27c-30 8-71 5-69-32zm-48 3c29 0 43-24 42-57-32 0-66-3-65 30 0 17 8 27 23 27" id="aE"/><path fill="#333" d="M135-150c-39-12-60 13-60 57V0H25l-1-190h47c2 13-1 29 3 40 6-28 27-53 61-41v41" id="aF"/><path fill="#333" d="M115-3C79 11 28 4 28-45v-112H4v-33h27l15-45h31v45h36v33H77v99c-1 23 16 31 38 25v30" id="aG"/><path fill="#333" d="M185-48c-13 30-37 53-82 52C43 2 14-33 14-96s30-98 90-98c62 0 83 45 84 108H66c0 31 8 55 39 56 18 0 30-7 34-22zm-45-69c5-46-57-63-70-21-2 6-4 13-4 21h74" id="aH"/><path fill="#333" d="M137-138c1-29-70-34-71-4 15 46 118 7 119 86 1 83-164 76-172 9l43-7c4 19 20 25 44 25 33 8 57-30 24-41C81-84 22-81 20-136c-2-80 154-74 161-7" id="aI"/><g id="i"><use transform="matrix(0.05,0,0,0.05,0,0)" xlink:href="#aC"/><use transform="matrix(0.05,0,0,0.05,10,0)" xlink:href="#aD"/><use transform="matrix(0.05,0,0,0.05,20.950000000000003,0)" xlink:href="#aE"/><use transform="matrix(0.05,0,0,0.05,30.950000000000003,0)" xlink:href="#aF"/><use transform="matrix(0.05,0,0,0.05,37.95,0)" xlink:href="#aE"/><use transform="matrix(0.05,0,0,0.05,47.95,0)" xlink:href="#aC"/><use transform="matrix(0.05,0,0,0.05,57.95,0)" xlink:href="#aG"/><use transform="matrix(0.05,0,0,0.05,63.900000000000006,0)" xlink:href="#aH"/><use transform="matrix(0.05,0,0,0.05,73.9,0)" xlink:href="#aF"/><use transform="matrix(0.05,0,0,0.05,80.9,0)" xlink:href="#aI"/></g><path d="M24-231v-30h32v30H24zM24 0v-190h32V0H24" id="aJ"/><path d="M85-194c31 0 48 13 60 33l-1-100h32l1 261h-30c-2-10 0-23-3-31C134-8 116 4 85 4 32 4 16-35 15-94c0-66 23-100 70-100zm9 24c-40 0-46 34-46 75 0 40 6 74 45 74 42 0 51-32 51-76 0-42-9-74-50-73" id="aK"/><g id="j"><use transform="matrix(0.05,0,0,0.05,0,0)" xlink:href="#aJ"/><use transform="matrix(0.05,0,0,0.05,3.95,0)" xlink:href="#aK"/></g><path fill="#333" d="M135-143c-3-34-86-38-87 0 15 53 115 12 119 90S17 21 10-45l28-5c4 36 97 45 98 0-10-56-113-15-118-90-4-57 82-63 122-42 12 7 21 19 24 35" id="aL"/><path fill="#333" d="M100-194c63 0 86 42 84 106H49c0 40 14 67 53 68 26 1 43-12 49-29l28 8c-11 28-37 45-77 45C44 4 14-33 15-96c1-61 26-98 85-98zm52 81c6-60-76-77-97-28-3 7-6 17-6 28h103" id="aM"/><path fill="#333" d="M114-163C36-179 61-72 57 0H25l-1-190h30c1 12-1 29 2 39 6-27 23-49 58-41v29" id="aN"/><path fill="#333" d="M24-231v-30h32v30H24zM24 0v-190h32V0H24" id="aO"/><path fill="#333" d="M141-36C126-15 110 5 73 4 37 3 15-17 15-53c-1-64 63-63 125-63 3-35-9-54-41-54-24 1-41 7-42 31l-33-3c5-37 33-52 76-52 45 0 72 20 72 64v82c-1 20 7 32 28 27v20c-31 9-61-2-59-35zM48-53c0 20 12 33 32 33 41-3 63-29 60-74-43 2-92-5-92 41" id="aP"/><path fill="#333" d="M24 0v-261h32V0H24" id="aQ"/><g id="k"><use transform="matrix(0.05,0,0,0.05,0,0)" xlink:href="#aL"/><use transform="matrix(0.05,0,0,0.05,9,0)" xlink:href="#aM"/><use transform="matrix(0.05,0,0,0.05,19,0)" xlink:href="#aN"/><use transform="matrix(0.05,0,0,0.05,24.95,0)" xlink:href="#aO"/><use transform="matrix(0.05,0,0,0.05,28.899999999999995,0)" xlink:href="#aP"/><use transform="matrix(0.05,0,0,0.05,38.9,0)" xlink:href="#aQ"/></g><path fill="#333" d="M30-248c87 1 191-15 191 75 0 78-77 80-158 76V0H30v-248zm33 125c57 0 124 11 124-50 0-59-68-47-124-48v98" id="aR"/><path fill="#333" d="M194 0L95-120 63-95V0H30v-248h33v124l119-124h40L117-140 236 0h-42" id="aS"/><g id="l"><use transform="matrix(0.05,0,0,0.05,0,0)" xlink:href="#aR"/><use transform="matrix(0.05,0,0,0.05,12,0)" xlink:href="#aS"/></g><path d="M117-194c89-4 53 116 60 194h-32v-121c0-31-8-49-39-48C34-167 62-67 57 0H25l-1-190h30c1 10-1 24 2 32 11-22 29-35 61-36" id="aT"/><path d="M141-36C126-15 110 5 73 4 37 3 15-17 15-53c-1-64 63-63 125-63 3-35-9-54-41-54-24 1-41 7-42 31l-33-3c5-37 33-52 76-52 45 0 72 20 72 64v82c-1 20 7 32 28 27v20c-31 9-61-2-59-35zM48-53c0 20 12 33 32 33 41-3 63-29 60-74-43 2-92-5-92 41" id="aU"/><path d="M210-169c-67 3-38 105-44 169h-31v-121c0-29-5-50-35-48C34-165 62-65 56 0H25l-1-190h30c1 10-1 24 2 32 10-44 99-50 107 0 11-21 27-35 58-36 85-2 47 119 55 194h-31v-121c0-29-5-49-35-48" id="aV"/><path d="M100-194c63 0 86 42 84 106H49c0 40 14 67 53 68 26 1 43-12 49-29l28 8c-11 28-37 45-77 45C44 4 14-33 15-96c1-61 26-98 85-98zm52 81c6-60-76-77-97-28-3 7-6 17-6 28h103" id="aW"/><g id="m"><use transform="matrix(0.05,0,0,0.05,0,0)" xlink:href="#aT"/><use transform="matrix(0.05,0,0,0.05,10,0)" xlink:href="#aU"/><use transform="matrix(0.05,0,0,0.05,20,0)" xlink:href="#aV"/><use transform="matrix(0.05,0,0,0.05,34.95,0)" xlink:href="#aW"/></g><path fill="#333" d="M108 0H70L1-190h34L89-25l56-165h34" id="aX"/><path fill="#333" d="M96-169c-40 0-48 33-48 73s9 75 48 75c24 0 41-14 43-38l32 2c-6 37-31 61-74 61-59 0-76-41-82-99-10-93 101-131 147-64 4 7 5 14 7 22l-32 3c-4-21-16-35-41-35" id="aY"/><path fill="#333" d="M106-169C34-169 62-67 57 0H25v-261h32l-1 103c12-21 28-36 61-36 89 0 53 116 60 194h-32v-121c2-32-8-49-39-48" id="aZ"/><path fill="#333" d="M87 75C49 33 22-17 22-94c0-76 28-126 65-167h31c-38 41-64 92-64 168S80 34 118 75H87" id="ba"/><path fill="#333" d="M110-160c48 1 74 30 74 79 0 53-28 85-80 85-65 0-83-55-86-122-5-90 50-162 133-122 14 7 22 21 27 39l-31 6c-5-40-67-38-82-6-9 19-15 44-15 74 11-20 30-34 60-33zm-7 138c34 0 49-23 49-58s-16-56-50-56c-29 0-50 16-49 49 1 36 15 65 50 65" id="bb"/><path fill="#333" d="M155-56V0h-30v-56H8v-25l114-167h33v167h35v25h-35zm-30-156c-27 46-58 90-88 131h88v-131" id="bc"/><path fill="#333" d="M33-261c38 41 65 92 65 168S71 34 33 75H2C39 34 66-17 66-93S39-220 2-261h31" id="bd"/><g id="n"><use transform="matrix(0.05,0,0,0.05,0,0)" xlink:href="#aX"/><use transform="matrix(0.05,0,0,0.05,9,0)" xlink:href="#aP"/><use transform="matrix(0.05,0,0,0.05,19,0)" xlink:href="#aN"/><use transform="matrix(0.05,0,0,0.05,24.95,0)" xlink:href="#aY"/><use transform="matrix(0.05,0,0,0.05,33.95,0)" xlink:href="#aZ"/><use transform="matrix(0.05,0,0,0.05,43.95,0)" xlink:href="#aP"/><use transform="matrix(0.05,0,0,0.05,53.95,0)" xlink:href="#aN"/><use transform="matrix(0.05,0,0,0.05,59.900000000000006,0)" xlink:href="#ba"/><use transform="matrix(0.05,0,0,0.05,65.85000000000001,0)" xlink:href="#bb"/><use transform="matrix(0.05,0,0,0.05,75.85000000000001,0)" xlink:href="#bc"/><use transform="matrix(0.05,0,0,0.05,85.85000000000001,0)" xlink:href="#bd"/></g><path d="M24-248c120-7 223 5 221 122C244-46 201 0 124 0H24v-248zM76-40c74 7 117-18 117-86 0-67-45-88-117-82v168" id="be"/><path d="M25-224v-37h50v37H25zM25 0v-190h50V0H25" id="bf"/><path d="M133-34C117-15 103 5 69 4 32 3 11-16 11-54c-1-60 55-63 116-61 1-26-3-47-28-47-18 1-26 9-28 27l-52-2c7-38 36-58 82-57s74 22 75 68l1 82c-1 14 12 18 25 15v27c-30 8-71 5-69-32zm-48 3c29 0 43-24 42-57-32 0-66-3-65 30 0 17 8 27 23 27" id="bg"/><path d="M195-6C206 82 75 100 31 46c-4-6-6-13-8-21l49-6c3 16 16 24 34 25 40 0 42-37 40-79-11 22-30 35-61 35-53 0-70-43-70-97 0-56 18-96 73-97 30 0 46 14 59 34l2-30h47zm-90-29c32 0 41-27 41-63 0-35-9-62-40-62-32 0-39 29-40 63 0 36 9 62 39 62" id="bh"/><path d="M135-150c-39-12-60 13-60 57V0H25l-1-190h47c2 13-1 29 3 40 6-28 27-53 61-41v41" id="bi"/><path d="M220-157c-53 9-28 100-34 157h-49v-107c1-27-5-49-29-50C55-147 81-57 75 0H25l-1-190h47c2 12-1 28 3 38 10-53 101-56 108 0 13-22 24-43 59-42 82 1 51 116 57 194h-49v-107c-1-25-5-48-29-50" id="bj"/><g id="o"><use transform="matrix(0.05,0,0,0.05,0,0)" xlink:href="#be"/><use transform="matrix(0.05,0,0,0.05,12.950000000000001,0)" xlink:href="#bf"/><use transform="matrix(0.05,0,0,0.05,17.950000000000003,0)" xlink:href="#bg"/><use transform="matrix(0.05,0,0,0.05,27.950000000000003,0)" xlink:href="#bh"/><use transform="matrix(0.05,0,0,0.05,38.900000000000006,0)" xlink:href="#bi"/><use transform="matrix(0.05,0,0,0.05,45.900000000000006,0)" xlink:href="#bg"/><use transform="matrix(0.05,0,0,0.05,55.900000000000006,0)" xlink:href="#bj"/></g><path d="M195 0l-88-114-31 24V0H24v-248h52v113l112-113h60L142-143 257 0h-62" id="bk"/><path d="M185-48c-13 30-37 53-82 52C43 2 14-33 14-96s30-98 90-98c62 0 83 45 84 108H66c0 31 8 55 39 56 18 0 30-7 34-22zm-45-69c5-46-57-63-70-21-2 6-4 13-4 21h74" id="bl"/><path d="M123 10C108 53 80 86 19 72V37c35 8 53-11 59-39L3-190h52l48 148c12-52 28-100 44-148h51" id="bm"/><g id="p"><use transform="matrix(0.05,0,0,0.05,0,0)" xlink:href="#bk"/><use transform="matrix(0.05,0,0,0.05,12.950000000000001,0)" xlink:href="#bl"/><use transform="matrix(0.05,0,0,0.05,22.950000000000003,0)" xlink:href="#bm"/></g><path d="M212-179c-10-28-35-45-73-45-59 0-87 40-87 99 0 60 29 101 89 101 43 0 62-24 78-52l27 14C228-24 195 4 139 4 59 4 22-46 18-125c-6-104 99-153 187-111 19 9 31 26 39 46" id="bn"/><path d="M100-194c62-1 85 37 85 99 1 63-27 99-86 99S16-35 15-95c0-66 28-99 85-99zM99-20c44 1 53-31 53-75 0-43-8-75-51-75s-53 32-53 75 10 74 51 75" id="bo"/><path d="M114-163C36-179 61-72 57 0H25l-1-190h30c1 12-1 29 2 39 6-27 23-49 58-41v29" id="bp"/><g id="q"><use transform="matrix(0.03888888888888889,0,0,0.03888888888888889,0,0)" xlink:href="#bn"/><use transform="matrix(0.03888888888888889,0,0,0.03888888888888889,10.072222222222223,0)" xlink:href="#bo"/><use transform="matrix(0.03888888888888889,0,0,0.03888888888888889,17.85,0)" xlink:href="#bp"/><use transform="matrix(0.03888888888888889,0,0,0.03888888888888889,22.47777777777778,0)" xlink:href="#aW"/></g><path d="M30 0v-248h187v28H63v79h144v27H63v87h162V0H30" id="bq"/><path d="M59-47c-2 24 18 29 38 22v24C64 9 27 4 27-40v-127H5v-23h24l9-43h21v43h35v23H59v120" id="br"/><path d="M179-190L93 31C79 59 56 82 12 73V49c39 6 53-20 64-50L1-190h34L92-34l54-156h33" id="bs"/><g id="r"><use transform="matrix(0.03888888888888889,0,0,0.03888888888888889,0,0)" xlink:href="#bq"/><use transform="matrix(0.03888888888888889,0,0,0.03888888888888889,9.333333333333334,0)" xlink:href="#aT"/><use transform="matrix(0.03888888888888889,0,0,0.03888888888888889,17.11111111111111,0)" xlink:href="#br"/><use transform="matrix(0.03888888888888889,0,0,0.03888888888888889,21,0)" xlink:href="#aJ"/><use transform="matrix(0.03888888888888889,0,0,0.03888888888888889,24.072222222222223,0)" xlink:href="#br"/><use transform="matrix(0.03888888888888889,0,0,0.03888888888888889,27.961111111111112,0)" xlink:href="#bs"/></g><path d="M205 0l-28-72H64L36 0H1l101-248h38L239 0h-34zm-38-99l-47-123c-12 45-31 82-46 123h93" id="bt"/><path d="M135-143c-3-34-86-38-87 0 15 53 115 12 119 90S17 21 10-45l28-5c4 36 97 45 98 0-10-56-113-15-118-90-4-57 82-63 122-42 12 7 21 19 24 35" id="bu"/><g id="s"><use transform="matrix(0.03888888888888889,0,0,0.03888888888888889,0,0)" xlink:href="#bt"/><use transform="matrix(0.03888888888888889,0,0,0.03888888888888889,9.333333333333334,0)" xlink:href="#bu"/><use transform="matrix(0.03888888888888889,0,0,0.03888888888888889,16.333333333333336,0)" xlink:href="#bu"/><use transform="matrix(0.03888888888888889,0,0,0.03888888888888889,23.333333333333332,0)" xlink:href="#bo"/><use transform="matrix(0.03888888888888889,0,0,0.03888888888888889,31.111111111111114,0)" xlink:href="#bu"/><use transform="matrix(0.03888888888888889,0,0,0.03888888888888889,38.111111111111114,0)" xlink:href="#aJ"/><use transform="matrix(0.03888888888888889,0,0,0.03888888888888889,41.18333333333334,0)" xlink:href="#aU"/><use transform="matrix(0.03888888888888889,0,0,0.03888888888888889,48.96111111111111,0)" xlink:href="#br"/><use transform="matrix(0.03888888888888889,0,0,0.03888888888888889,52.85,0)" xlink:href="#aJ"/><use transform="matrix(0.03888888888888889,0,0,0.03888888888888889,55.922222222222224,0)" xlink:href="#bo"/><use transform="matrix(0.03888888888888889,0,0,0.03888888888888889,63.7,0)" xlink:href="#aT"/></g><path d="M115-194c53 0 69 39 70 98 0 66-23 100-70 100C84 3 66-7 56-30L54 0H23l1-261h32v101c10-23 28-34 59-34zm-8 174c40 0 45-34 45-75 0-40-5-75-45-74-42 0-51 32-51 76 0 43 10 73 51 73" id="bv"/><path d="M84 4C-5 8 30-112 23-190h32v120c0 31 7 50 39 49 72-2 45-101 50-169h31l1 190h-30c-1-10 1-25-2-33-11 22-28 36-60 37" id="bw"/><g id="t"><use transform="matrix(0.03888888888888889,0,0,0.03888888888888889,0,0)" xlink:href="#bt"/><use transform="matrix(0.03888888888888889,0,0,0.03888888888888889,9.333333333333334,0)" xlink:href="#br"/><use transform="matrix(0.03888888888888889,0,0,0.03888888888888889,13.222222222222223,0)" xlink:href="#br"/><use transform="matrix(0.03888888888888889,0,0,0.03888888888888889,17.11111111111111,0)" xlink:href="#bp"/><use transform="matrix(0.03888888888888889,0,0,0.03888888888888889,21.73888888888889,0)" xlink:href="#aJ"/><use transform="matrix(0.03888888888888889,0,0,0.03888888888888889,24.81111111111111,0)" xlink:href="#bv"/><use transform="matrix(0.03888888888888889,0,0,0.03888888888888889,32.58888888888889,0)" xlink:href="#bw"/><use transform="matrix(0.03888888888888889,0,0,0.03888888888888889,40.36666666666667,0)" xlink:href="#br"/><use transform="matrix(0.03888888888888889,0,0,0.03888888888888889,44.25555555555555,0)" xlink:href="#aW"/></g><g id="u"><use transform="matrix(0.03888888888888889,0,0,0.03888888888888889,0,0)" xlink:href="#bq"/><use transform="matrix(0.03888888888888889,0,0,0.03888888888888889,9.333333333333334,0)" xlink:href="#aT"/><use transform="matrix(0.03888888888888889,0,0,0.03888888888888889,17.11111111111111,0)" xlink:href="#bw"/><use transform="matrix(0.03888888888888889,0,0,0.03888888888888889,24.88888888888889,0)" xlink:href="#aV"/></g><path fill="#333" d="M25 0v-261h50V0H25" id="bx"/><path fill="#333" d="M110-194c64 0 96 36 96 99 0 64-35 99-97 99-61 0-95-36-95-99 0-62 34-99 96-99zm-1 164c35 0 45-28 45-65 0-40-10-65-43-65-34 0-45 26-45 65 0 36 10 65 43 65" id="by"/><path fill="#333" d="M25-224v-37h50v37H25zM25 0v-190h50V0H25" id="bz"/><path fill="#333" d="M135-194c87-1 58 113 63 194h-50c-7-57 23-157-34-157-59 0-34 97-39 157H25l-1-190h47c2 12-1 28 3 38 12-26 28-41 61-42" id="bA"/><g id="v"><use transform="matrix(0.05,0,0,0.05,0,0)" xlink:href="#bx"/><use transform="matrix(0.05,0,0,0.05,5,0)" xlink:href="#by"/><use transform="matrix(0.05,0,0,0.05,15.950000000000001,0)" xlink:href="#aC"/><use transform="matrix(0.05,0,0,0.05,25.950000000000003,0)" xlink:href="#aE"/><use transform="matrix(0.05,0,0,0.05,35.95,0)" xlink:href="#aG"/><use transform="matrix(0.05,0,0,0.05,41.900000000000006,0)" xlink:href="#bz"/><use transform="matrix(0.05,0,0,0.05,46.900000000000006,0)" xlink:href="#by"/><use transform="matrix(0.05,0,0,0.05,57.85,0)" xlink:href="#bA"/><use transform="matrix(0.05,0,0,0.05,68.80000000000001,0)" xlink:href="#aI"/></g><path fill="#333" d="M128 0H69L1-190h53L99-40l48-150h52" id="bB"/><g id="w"><use transform="matrix(0.05,0,0,0.05,0,0)" xlink:href="#aH"/><use transform="matrix(0.05,0,0,0.05,10,0)" xlink:href="#bB"/><use transform="matrix(0.05,0,0,0.05,20,0)" xlink:href="#aH"/><use transform="matrix(0.05,0,0,0.05,30,0)" xlink:href="#bA"/><use transform="matrix(0.05,0,0,0.05,40.95,0)" xlink:href="#aG"/><use transform="matrix(0.05,0,0,0.05,46.900000000000006,0)" xlink:href="#aI"/></g><path fill="#333" d="M85 4C-2 5 27-109 22-190h50c7 57-23 150 33 157 60-5 35-97 40-157h50l1 190h-47c-2-12 1-28-3-38-12 25-28 42-61 42" id="bC"/><g id="x"><use transform="matrix(0.05,0,0,0.05,0,0)" xlink:href="#aI"/><use transform="matrix(0.05,0,0,0.05,10,0)" xlink:href="#aG"/><use transform="matrix(0.05,0,0,0.05,15.949999999999998,0)" xlink:href="#aE"/><use transform="matrix(0.05,0,0,0.05,25.950000000000003,0)" xlink:href="#aG"/><use transform="matrix(0.05,0,0,0.05,31.899999999999995,0)" xlink:href="#bC"/><use transform="matrix(0.05,0,0,0.05,42.85,0)" xlink:href="#aI"/></g><path d="M96-169c-40 0-48 33-48 73s9 75 48 75c24 0 41-14 43-38l32 2c-6 37-31 61-74 61-59 0-76-41-82-99-10-93 101-131 147-64 4 7 5 14 7 22l-32 3c-4-21-16-35-41-35" id="bD"/><path d="M115-194c55 1 70 41 70 98S169 2 115 4C84 4 66-9 55-30l1 105H24l-1-265h31l2 30c10-21 28-34 59-34zm-8 174c40 0 45-34 45-75s-6-73-45-74c-42 0-51 32-51 76 0 43 10 73 51 73" id="bE"/><g id="y"><use transform="matrix(0.05,0,0,0.05,0,0)" xlink:href="#aK"/><use transform="matrix(0.05,0,0,0.05,10,0)" xlink:href="#aW"/><use transform="matrix(0.05,0,0,0.05,20,0)" xlink:href="#bu"/><use transform="matrix(0.05,0,0,0.05,29,0)" xlink:href="#bD"/><use transform="matrix(0.05,0,0,0.05,38,0)" xlink:href="#bp"/><use transform="matrix(0.05,0,0,0.05,43.95,0)" xlink:href="#aJ"/><use transform="matrix(0.05,0,0,0.05,47.900000000000006,0)" xlink:href="#bE"/><use transform="matrix(0.05,0,0,0.05,57.900000000000006,0)" xlink:href="#br"/><use transform="matrix(0.05,0,0,0.05,62.900000000000006,0)" xlink:href="#aJ"/><use transform="matrix(0.05,0,0,0.05,66.85000000000001,0)" xlink:href="#bo"/><use transform="matrix(0.05,0,0,0.05,76.85000000000001,0)" xlink:href="#aT"/></g><path fill="#333" d="M24-248c93 1 206-16 204 79-1 75-69 88-152 82V0H24v-248zm52 121c47 0 100 7 100-41 0-47-54-39-100-39v80" id="bF"/><path fill="#333" d="M240-174c0 40-23 61-54 70L253 0h-59l-57-94H76V0H24v-248c93 4 217-23 216 74zM76-134c48-2 112 12 112-38 0-48-66-32-112-35v73" id="bG"/><path fill="#333" d="M140-251c80 0 125 45 125 126S219 4 139 4C58 4 15-44 15-125s44-126 125-126zm-1 214c52 0 73-35 73-88 0-50-21-86-72-86-52 0-73 35-73 86s22 88 72 88" id="bH"/><path fill="#333" d="M67-125c0 53 21 87 73 88 37 1 54-22 65-47l45 17C233-25 199 4 140 4 58 4 20-42 15-125 8-235 124-281 211-232c18 10 29 29 36 50l-46 12c-8-25-30-41-62-41-52 0-71 34-72 86" id="bI"/><path fill="#333" d="M24 0v-248h195v40H76v63h132v40H76v65h150V0H24" id="bJ"/><path fill="#333" d="M169-182c-1-43-94-46-97-3 18 66 151 10 154 114 3 95-165 93-204 36-6-8-10-19-12-30l50-8c3 46 112 56 116 5-17-69-150-10-154-114-4-87 153-88 188-35 5 8 8 18 10 28" id="bK"/><g id="z"><use transform="matrix(0.05,0,0,0.05,0,0)" xlink:href="#bF"/><use transform="matrix(0.05,0,0,0.05,12,0)" xlink:href="#bG"/><use transform="matrix(0.05,0,0,0.05,24.950000000000003,0)" xlink:href="#bH"/><use transform="matrix(0.05,0,0,0.05,38.95,0)" xlink:href="#bI"/><use transform="matrix(0.05,0,0,0.05,51.900000000000006,0)" xlink:href="#bJ"/><use transform="matrix(0.05,0,0,0.05,63.900000000000006,0)" xlink:href="#bK"/><use transform="matrix(0.05,0,0,0.05,75.9,0)" xlink:href="#bK"/></g><path d="M194 0L95-120 63-95V0H30v-248h33v124l119-124h40L117-140 236 0h-42" id="bL"/><g id="A"><use transform="matrix(0.05,0,0,0.05,0,0)" xlink:href="#bL"/><use transform="matrix(0.05,0,0,0.05,12,0)" xlink:href="#aW"/><use transform="matrix(0.05,0,0,0.05,22,0)" xlink:href="#bs"/></g><path fill="#333" d="M127-220V0H93v-220H8v-28h204v28h-85" id="bM"/><path fill="#333" d="M140-251c81 0 123 46 123 126C263-46 219 4 140 4 59 4 17-45 17-125s42-126 123-126zm0 227c63 0 89-41 89-101s-29-99-89-99c-61 0-89 39-89 99S79-25 140-24" id="bN"/><path fill="#333" d="M30-248c118-7 216 8 213 122C240-48 200 0 122 0H30v-248zM63-27c89 8 146-16 146-99s-60-101-146-95v194" id="bO"/><g id="B"><use transform="matrix(0.05,0,0,0.05,0,0)" xlink:href="#bM"/><use transform="matrix(0.05,0,0,0.05,10.600000000000001,0)" xlink:href="#bN"/><use transform="matrix(0.05,0,0,0.05,24.6,0)" xlink:href="#bO"/><use transform="matrix(0.05,0,0,0.05,37.550000000000004,0)" xlink:href="#bN"/></g><path fill="#333" d="M179-190L93 31C79 59 56 82 12 73V49c39 6 53-20 64-50L1-190h34L92-34l54-156h33" id="bP"/><path fill="#333" d="M115-194c55 1 70 41 70 98S169 2 115 4C84 4 66-9 55-30l1 105H24l-1-265h31l2 30c10-21 28-34 59-34zm-8 174c40 0 45-34 45-75s-6-73-45-74c-42 0-51 32-51 76 0 43 10 73 51 73" id="bQ"/><g id="C"><use transform="matrix(0.05,0,0,0.05,0,0)" xlink:href="#bM"/><use transform="matrix(0.05,0,0,0.05,9.950000000000001,0)" xlink:href="#bP"/><use transform="matrix(0.05,0,0,0.05,18.950000000000003,0)" xlink:href="#bQ"/><use transform="matrix(0.05,0,0,0.05,28.950000000000003,0)" xlink:href="#aM"/></g><path fill="#333" d="M33 0v-248h34V0H33" id="bR"/><path fill="#333" d="M190 0L58-211 59 0H30v-248h39L202-35l-2-213h31V0h-41" id="bS"/><path fill="#333" d="M143 4C61 4 22-44 18-125c-5-107 100-154 193-111 17 8 29 25 37 43l-32 9c-13-25-37-40-76-40-61 0-88 39-88 99 0 61 29 100 91 101 35 0 62-11 79-27v-45h-74v-28h105v86C228-13 192 4 143 4" id="bT"/><g id="D"><use transform="matrix(0.05,0,0,0.05,0,0)" xlink:href="#bO"/><use transform="matrix(0.05,0,0,0.05,12.950000000000001,0)" xlink:href="#bN"/><use transform="matrix(0.05,0,0,0.05,26.950000000000003,0)" xlink:href="#bR"/><use transform="matrix(0.05,0,0,0.05,31.950000000000003,0)" xlink:href="#bS"/><use transform="matrix(0.05,0,0,0.05,44.900000000000006,0)" xlink:href="#bT"/></g><path d="M127-220V0H93v-220H8v-28h204v28h-85" id="bU"/><g id="E"><use transform="matrix(0.05,0,0,0.05,0,0)" xlink:href="#bU"/><use transform="matrix(0.05,0,0,0.05,9.950000000000001,0)" xlink:href="#bs"/><use transform="matrix(0.05,0,0,0.05,18.950000000000003,0)" xlink:href="#bE"/><use transform="matrix(0.05,0,0,0.05,28.950000000000003,0)" xlink:href="#aW"/></g><path fill="#333" d="M30 0v-248h187v28H63v79h144v27H63v87h162V0H30" id="bV"/><g id="F"><use transform="matrix(0.05,0,0,0.05,0,0)" xlink:href="#bO"/><use transform="matrix(0.05,0,0,0.05,12.950000000000001,0)" xlink:href="#bN"/><use transform="matrix(0.05,0,0,0.05,26.950000000000003,0)" xlink:href="#bS"/><use transform="matrix(0.05,0,0,0.05,39.900000000000006,0)" xlink:href="#bV"/></g><g id="G"><use transform="matrix(0.05,0,0,0.05,0,0)" xlink:href="#aF"/><use transform="matrix(0.05,0,0,0.05,7,0)" xlink:href="#aH"/><use transform="matrix(0.05,0,0,0.05,17,0)" xlink:href="#bx"/><use transform="matrix(0.05,0,0,0.05,22,0)" xlink:href="#aE"/><use transform="matrix(0.05,0,0,0.05,32,0)" xlink:href="#aG"/><use transform="matrix(0.05,0,0,0.05,37.95,0)" xlink:href="#bz"/><use transform="matrix(0.05,0,0,0.05,42.95,0)" xlink:href="#by"/><use transform="matrix(0.05,0,0,0.05,53.900000000000006,0)" xlink:href="#bA"/><use transform="matrix(0.05,0,0,0.05,64.85000000000001,0)" xlink:href="#aI"/></g><path fill="#333" d="M63-220v92h138v28H63V0H30v-248h175v28H63" id="bW"/><g id="H"><use transform="matrix(0.05,0,0,0.05,0,0)" xlink:href="#bW"/><use transform="matrix(0.05,0,0,0.05,10.950000000000001,0)" xlink:href="#aS"/></g><path d="M24-231v-30h32v30H24zM-9 49c24 4 33-6 33-30v-209h32V24c2 40-23 58-65 49V49" id="bX"/><g id="I"><use transform="matrix(0.05,0,0,0.05,0,0)" xlink:href="#bu"/><use transform="matrix(0.05,0,0,0.05,9,0)" xlink:href="#bw"/><use transform="matrix(0.05,0,0,0.05,19,0)" xlink:href="#bv"/><use transform="matrix(0.05,0,0,0.05,29,0)" xlink:href="#bX"/><use transform="matrix(0.05,0,0,0.05,32.95,0)" xlink:href="#aW"/><use transform="matrix(0.05,0,0,0.05,42.95,0)" xlink:href="#bD"/><use transform="matrix(0.05,0,0,0.05,51.95,0)" xlink:href="#br"/></g><path fill="#333" d="M117-194c89-4 53 116 60 194h-32v-121c0-31-8-49-39-48C34-167 62-67 57 0H25l-1-190h30c1 10-1 24 2 32 11-22 29-35 61-36" id="bY"/><path fill="#333" d="M59-47c-2 24 18 29 38 22v24C64 9 27 4 27-40v-127H5v-23h24l9-43h21v43h35v23H59v120" id="bZ"/><g id="J"><use transform="matrix(0.05,0,0,0.05,0,0)" xlink:href="#aO"/><use transform="matrix(0.05,0,0,0.05,3.95,0)" xlink:href="#bY"/><use transform="matrix(0.05,0,0,0.05,13.949999999999998,0)" xlink:href="#bZ"/></g><g id="K"><use transform="matrix(0.05,0,0,0.05,0,0)" xlink:href="#bW"/><use transform="matrix(0.05,0,0,0.05,10.950000000000001,0)" xlink:href="#aS"/></g><g id="L"><use transform="matrix(0.05,0,0,0.05,0,0)" xlink:href="#bo"/><use transform="matrix(0.05,0,0,0.05,10,0)" xlink:href="#bv"/><use transform="matrix(0.05,0,0,0.05,20,0)" xlink:href="#bX"/><use transform="matrix(0.05,0,0,0.05,23.95,0)" xlink:href="#aW"/><use transform="matrix(0.05,0,0,0.05,33.95,0)" xlink:href="#bD"/><use transform="matrix(0.05,0,0,0.05,42.95,0)" xlink:href="#br"/></g><g id="M"><use transform="matrix(0.05,0,0,0.05,0,0)" xlink:href="#aE"/><use transform="matrix(0.05,0,0,0.05,10,0)" xlink:href="#aC"/><use transform="matrix(0.05,0,0,0.05,20,0)" xlink:href="#aG"/><use transform="matrix(0.05,0,0,0.05,25.950000000000003,0)" xlink:href="#bz"/><use transform="matrix(0.05,0,0,0.05,30.950000000000003,0)" xlink:href="#by"/><use transform="matrix(0.05,0,0,0.05,41.9,0)" xlink:href="#bA"/><use transform="matrix(0.05,0,0,0.05,52.85,0)" xlink:href="#aI"/></g><path d="M108 0H70L1-190h34L89-25l56-165h34" id="ca"/><g id="N"><use transform="matrix(0.05,0,0,0.05,0,0)" xlink:href="#aW"/><use transform="matrix(0.05,0,0,0.05,10,0)" xlink:href="#ca"/><use transform="matrix(0.05,0,0,0.05,19,0)" xlink:href="#aW"/><use transform="matrix(0.05,0,0,0.05,29,0)" xlink:href="#aT"/><use transform="matrix(0.05,0,0,0.05,39,0)" xlink:href="#br"/></g><g id="O"><use transform="matrix(0.05,0,0,0.05,0,0)" xlink:href="#aO"/><use transform="matrix(0.05,0,0,0.05,3.95,0)" xlink:href="#bY"/><use transform="matrix(0.05,0,0,0.05,13.949999999999998,0)" xlink:href="#bZ"/></g><path d="M24 0v-261h32V0H24" id="cb"/><g id="P"><use transform="matrix(0.05,0,0,0.05,0,0)" xlink:href="#cb"/><use transform="matrix(0.05,0,0,0.05,3.95,0)" xlink:href="#bo"/><use transform="matrix(0.05,0,0,0.05,13.949999999999998,0)" xlink:href="#bD"/><use transform="matrix(0.05,0,0,0.05,22.95,0)" xlink:href="#aU"/><use transform="matrix(0.05,0,0,0.05,32.95,0)" xlink:href="#br"/><use transform="matrix(0.05,0,0,0.05,37.95,0)" xlink:href="#aJ"/><use transform="matrix(0.05,0,0,0.05,41.900000000000006,0)" xlink:href="#bo"/><use transform="matrix(0.05,0,0,0.05,51.900000000000006,0)" xlink:href="#aT"/></g><g id="Q"><use transform="matrix(0.05,0,0,0.05,0,0)" xlink:href="#bu"/><use transform="matrix(0.05,0,0,0.05,9,0)" xlink:href="#br"/><use transform="matrix(0.05,0,0,0.05,14,0)" xlink:href="#aU"/><use transform="matrix(0.05,0,0,0.05,24,0)" xlink:href="#br"/><use transform="matrix(0.05,0,0,0.05,29,0)" xlink:href="#bw"/><use transform="matrix(0.05,0,0,0.05,39,0)" xlink:href="#bu"/></g><g id="R"><use transform="matrix(0.05,0,0,0.05,0,0)" xlink:href="#aJ"/><use transform="matrix(0.05,0,0,0.05,3.95,0)" xlink:href="#aT"/><use transform="matrix(0.05,0,0,0.05,13.949999999999998,0)" xlink:href="#br"/></g><path d="M63-220v92h138v28H63V0H30v-248h175v28H63" id="cc"/><g id="S"><use transform="matrix(0.05,0,0,0.05,0,0)" xlink:href="#cc"/><use transform="matrix(0.05,0,0,0.05,10.950000000000001,0)" xlink:href="#bL"/></g><g id="T"><use transform="matrix(0.05,0,0,0.05,0,0)" xlink:href="#bE"/><use transform="matrix(0.05,0,0,0.05,10,0)" xlink:href="#bp"/><use transform="matrix(0.05,0,0,0.05,15.949999999999998,0)" xlink:href="#bo"/><use transform="matrix(0.05,0,0,0.05,25.950000000000003,0)" xlink:href="#bD"/><use transform="matrix(0.05,0,0,0.05,34.95,0)" xlink:href="#aW"/><use transform="matrix(0.05,0,0,0.05,44.95,0)" xlink:href="#bu"/><use transform="matrix(0.05,0,0,0.05,53.95,0)" xlink:href="#bu"/></g><path fill="#333" d="M220-157c-53 9-28 100-34 157h-49v-107c1-27-5-49-29-50C55-147 81-57 75 0H25l-1-190h47c2 12-1 28 3 38 10-53 101-56 108 0 13-22 24-43 59-42 82 1 51 116 57 194h-49v-107c-1-25-5-48-29-50" id="cd"/><g id="U"><use transform="matrix(0.05,0,0,0.05,0,0)" xlink:href="#cd"/><use transform="matrix(0.05,0,0,0.05,16,0)" xlink:href="#by"/><use transform="matrix(0.05,0,0,0.05,26.950000000000003,0)" xlink:href="#bB"/><use transform="matrix(0.05,0,0,0.05,36.95,0)" xlink:href="#aH"/><use transform="matrix(0.05,0,0,0.05,46.95,0)" xlink:href="#cd"/><use transform="matrix(0.05,0,0,0.05,62.95,0)" xlink:href="#aH"/><use transform="matrix(0.05,0,0,0.05,72.95,0)" xlink:href="#bA"/><use transform="matrix(0.05,0,0,0.05,83.9,0)" xlink:href="#aG"/><use transform="matrix(0.05,0,0,0.05,89.85000000000001,0)" xlink:href="#aI"/></g><path d="M106-169C34-169 62-67 57 0H25v-261h32l-1 103c12-21 28-36 61-36 89 0 53 116 60 194h-32v-121c2-32-8-49-39-48" id="ce"/><g id="V"><use transform="matrix(0.05,0,0,0.05,0,0)" xlink:href="#bD"/><use transform="matrix(0.05,0,0,0.05,9,0)" xlink:href="#ce"/><use transform="matrix(0.05,0,0,0.05,19,0)" xlink:href="#aU"/><use transform="matrix(0.05,0,0,0.05,29,0)" xlink:href="#bp"/><use transform="matrix(0.05,0,0,0.05,34.95,0)" xlink:href="#aU"/><use transform="matrix(0.05,0,0,0.05,44.95,0)" xlink:href="#bD"/><use transform="matrix(0.05,0,0,0.05,53.95,0)" xlink:href="#br"/><use transform="matrix(0.05,0,0,0.05,58.95,0)" xlink:href="#aW"/><use transform="matrix(0.05,0,0,0.05,68.95,0)" xlink:href="#bp"/></g><path d="M177-190C167-65 218 103 67 71c-23-6-38-20-44-43l32-5c15 47 100 32 89-28v-30C133-14 115 1 83 1 29 1 15-40 15-95c0-56 16-97 71-98 29-1 48 16 59 35 1-10 0-23 2-32h30zM94-22c36 0 50-32 50-73 0-42-14-75-50-75-39 0-46 34-46 75s6 73 46 73" id="cf"/><path d="M-5 72V49h209v23H-5" id="cg"/><g id="W"><use transform="matrix(0.05,0,0,0.05,0,0)" xlink:href="#bu"/><use transform="matrix(0.05,0,0,0.05,9,0)" xlink:href="#br"/><use transform="matrix(0.05,0,0,0.05,14,0)" xlink:href="#aU"/><use transform="matrix(0.05,0,0,0.05,24,0)" xlink:href="#bp"/><use transform="matrix(0.05,0,0,0.05,29.950000000000003,0)" xlink:href="#br"/><use transform="matrix(0.05,0,0,0.05,34.95,0)" xlink:href="#aJ"/><use transform="matrix(0.05,0,0,0.05,38.900000000000006,0)" xlink:href="#aT"/><use transform="matrix(0.05,0,0,0.05,48.900000000000006,0)" xlink:href="#cf"/><use transform="matrix(0.05,0,0,0.05,58.900000000000006,0)" xlink:href="#cg"/><use transform="matrix(0.05,0,0,0.05,68.9,0)" xlink:href="#cb"/><use transform="matrix(0.05,0,0,0.05,72.85000000000001,0)" xlink:href="#bo"/><use transform="matrix(0.05,0,0,0.05,82.85000000000001,0)" xlink:href="#bD"/><use transform="matrix(0.05,0,0,0.05,91.85000000000001,0)" xlink:href="#aU"/><use transform="matrix(0.05,0,0,0.05,101.85000000000001,0)" xlink:href="#br"/><use transform="matrix(0.05,0,0,0.05,106.85000000000001,0)" xlink:href="#aJ"/><use transform="matrix(0.05,0,0,0.05,110.80000000000001,0)" xlink:href="#bo"/><use transform="matrix(0.05,0,0,0.05,120.80000000000001,0)" xlink:href="#aT"/></g><g id="X"><use transform="matrix(0.05,0,0,0.05,0,0)" xlink:href="#aK"/><use transform="matrix(0.05,0,0,0.05,10,0)" xlink:href="#aW"/><use transform="matrix(0.05,0,0,0.05,20,0)" xlink:href="#bu"/><use transform="matrix(0.05,0,0,0.05,29,0)" xlink:href="#br"/><use transform="matrix(0.05,0,0,0.05,34,0)" xlink:href="#aJ"/><use transform="matrix(0.05,0,0,0.05,37.95,0)" xlink:href="#aT"/><use transform="matrix(0.05,0,0,0.05,47.95,0)" xlink:href="#aU"/><use transform="matrix(0.05,0,0,0.05,57.95,0)" xlink:href="#br"/><use transform="matrix(0.05,0,0,0.05,62.95,0)" xlink:href="#aJ"/><use transform="matrix(0.05,0,0,0.05,66.9,0)" xlink:href="#bo"/><use transform="matrix(0.05,0,0,0.05,76.9,0)" xlink:href="#aT"/><use transform="matrix(0.05,0,0,0.05,86.9,0)" xlink:href="#cg"/><use transform="matrix(0.05,0,0,0.05,96.9,0)" xlink:href="#cb"/><use transform="matrix(0.05,0,0,0.05,100.85000000000001,0)" xlink:href="#bo"/><use transform="matrix(0.05,0,0,0.05,110.85000000000001,0)" xlink:href="#bD"/><use transform="matrix(0.05,0,0,0.05,119.85000000000001,0)" xlink:href="#aU"/><use transform="matrix(0.05,0,0,0.05,129.85000000000002,0)" xlink:href="#br"/><use transform="matrix(0.05,0,0,0.05,134.85000000000002,0)" xlink:href="#aJ"/><use transform="matrix(0.05,0,0,0.05,138.8,0)" xlink:href="#bo"/><use transform="matrix(0.05,0,0,0.05,148.8,0)" xlink:href="#aT"/></g></defs></g></svg>