<svg xmlns="http://www.w3.org/2000/svg" xmlns:xlink="http://www.w3.org/1999/xlink" xmlns:lucid="lucid" width="1378" height="1062"><g transform="translate(0 0)" lucid:page-tab-id="0_0"><path d="M0 0h1378v1062H0z" fill="#fff"/><path d="M262.63 69a8 8 0 0 1 8-8h836.75a8 8 0 0 1 8 8v25.16a8 8 0 0 1-8 8H270.6a8 8 0 0 1-8-8z" stroke="#000" stroke-opacity="0" stroke-width="2" fill="#fff" fill-opacity="0"/><use xlink:href="#a" transform="matrix(1,0,0,1,266.6252457659425,64.99999999997465) translate(332.0291358024691 25.782777777777778)"/><use xlink:href="#b" transform="matrix(1,0,0,1,266.6252457659425,64.99999999997465) translate(458.55135802469135 25.782777777777778)"/><path d="M438.1 100.8h505.87M438.14 100.8h-1.03M943.95 100.8h1.02" stroke="#a9afb8" stroke-width="2" fill="none"/><path d="M262.63 110.16a8 8 0 0 1 8-8h837.7a8 8 0 0 1 8 8V113a8 8 0 0 1-8 8h-837.7a8 8 0 0 1-8-8z" stroke="#000" stroke-opacity="0" stroke-width="2" fill="#fff" fill-opacity="0"/><use xlink:href="#c" transform="matrix(1,0,0,1,266.62524576594296,106.15522395687346) translate(311.3965740740741 14.917037037037037)"/><use xlink:href="#d" transform="matrix(1,0,0,1,266.62524576594296,106.15522395687346) translate(365.86838477366257 14.917037037037037)"/><use xlink:href="#e" transform="matrix(1,0,0,1,266.62524576594296,106.15522395687346) translate(410.6950308641976 14.917037037037037)"/><use xlink:href="#f" transform="matrix(1,0,0,1,266.62524576594296,106.15522395687346) translate(423.1445164609054 14.917037037037037)"/><use xlink:href="#g" transform="matrix(1,0,0,1,266.62524576594296,106.15522395687346) translate(481.737829218107 14.917037037037037)"/><use xlink:href="#h" transform="matrix(1,0,0,1,266.62524576594296,106.15522395687346) translate(507.23165637860086 14.917037037037037)"/><path d="M69 390.72a5 5 0 0 1 5-5h270a5 5 0 0 1 5 5v94a5 5 0 0 1-5 5H74a5 5 0 0 1-5-5z" fill="#fff"/><path d="M69 425.72v-35a5 5 0 0 1 5-5h270a5 5 0 0 1 5 5v35" fill="#6db1ff"/><path d="M69 390.72a5 5 0 0 1 5-5h270a5 5 0 0 1 5 5v94a5 5 0 0 1-5 5H74a5 5 0 0 1-5-5zM69 425.72h280M209 425.72v64" stroke="#282c33" fill="none"/><use xlink:href="#i" transform="matrix(1,0,0,1,79,385.72444240666465) translate(0 23.6)"/><use xlink:href="#j" transform="matrix(1,0,0,1,74,428.22444240666465) translate(0 17.1)"/><use xlink:href="#k" transform="matrix(1,0,0,1,214,428.22444240666465) translate(0 17.1)"/><use xlink:href="#l" transform="matrix(1,0,0,1,74,460.22444240666465) translate(0 17.1)"/><use xlink:href="#k" transform="matrix(1,0,0,1,214,460.22444240666465) translate(0 17.1)"/><path d="M89 89a16 16 0 0 1 16-16h208a16 16 0 0 1 16 16v168.82a16 16 0 0 1-16 16H105a16 16 0 0 1-16-16z" stroke="#4c535d" stroke-width="2" fill="#fff"/><path d="M156.9 155.46c0 8.04-6.5 14.55-14.54 14.55s-14.55-6.5-14.55-14.54c0-8.03 6.52-14.55 14.56-14.55 8.03 0 14.55 6.53 14.55 14.56z" stroke="#000" stroke-opacity=".25" fill="#6db1ff"/><path d="M156.9 194.27c0 8.03-6.5 14.55-14.54 14.55s-14.55-6.5-14.55-14.55c0-8.04 6.52-14.55 14.56-14.55 8.03 0 14.55 6.5 14.55 14.55z" stroke="#000" stroke-opacity=".25" fill="#fc9432"/><path d="M156.9 233.07c0 8.04-6.5 14.56-14.54 14.56s-14.55-6.52-14.55-14.56c0-8.03 6.52-14.55 14.56-14.55 8.03 0 14.55 6.52 14.55 14.55z" stroke="#000" stroke-opacity=".25" fill="#ced4db"/><use xlink:href="#m" transform="matrix(1,0,0,1,127.8057670844131,102.10432531333524) translate(4.574999999999996 14.4)"/><use xlink:href="#n" transform="matrix(1,0,0,1,127.8057670844131,102.10432531333524) translate(81.475 14.4)"/><use xlink:href="#o" transform="matrix(1,0,0,1,171.46225505437786,140.91009239774834) translate(0 17.8)"/><use xlink:href="#p" transform="matrix(1,0,0,1,171.46225505437786,179.71585948216145) translate(0 17.8)"/><use xlink:href="#q" transform="matrix(1,0,0,1,171.46225505437786,218.52162656657455) translate(0 17.8)"/><path d="M1029 734a5 5 0 0 1 5-5h270a5 5 0 0 1 5 5v94a5 5 0 0 1-5 5h-270a5 5 0 0 1-5-5z" fill="#fff"/><path d="M1029 769v-35a5 5 0 0 1 5-5h270a5 5 0 0 1 5 5v35" fill="#6db1ff"/><path d="M1029 734a5 5 0 0 1 5-5h270a5 5 0 0 1 5 5v94a5 5 0 0 1-5 5h-270a5 5 0 0 1-5-5zM1029 769h280M1169 769v64" stroke="#282c33" fill="none"/><use xlink:href="#r" transform="matrix(1,0,0,1,1039,729.0000000000254) translate(0 23.6)"/><use xlink:href="#s" transform="matrix(1,0,0,1,1034,771.5000000000254) translate(0 17.1)"/><use xlink:href="#k" transform="matrix(1,0,0,1,1174,771.5000000000254) translate(0 17.1)"/><use xlink:href="#t" transform="matrix(1,0,0,1,1034,803.5000000000254) translate(0 17.1)"/><use xlink:href="#k" transform="matrix(1,0,0,1,1174,803.5000000000254) translate(0 17.1)"/><path d="M1029 358a5 5 0 0 1 5-5h270a5 5 0 0 1 5 5v94a5 5 0 0 1-5 5h-270a5 5 0 0 1-5-5z" fill="#fff"/><path d="M1029 393v-35a5 5 0 0 1 5-5h270a5 5 0 0 1 5 5v35" fill="#6db1ff"/><path d="M1029 358a5 5 0 0 1 5-5h270a5 5 0 0 1 5 5v94a5 5 0 0 1-5 5h-270a5 5 0 0 1-5-5zM1029 393h280M1169 393v64" stroke="#282c33" fill="none"/><use xlink:href="#u" transform="matrix(1,0,0,1,1039,353.0000000000254) translate(0 23.6)"/><use xlink:href="#v" transform="matrix(1,0,0,1,1034,395.5000000000254) translate(0 17.1)"/><use xlink:href="#k" transform="matrix(1,0,0,1,1174,395.5000000000254) translate(0 17.1)"/><use xlink:href="#w" transform="matrix(1,0,0,1,1034,427.5000000000254) translate(0 17.1)"/><use xlink:href="#k" transform="matrix(1,0,0,1,1174,427.5000000000254) translate(0 17.1)"/><path d="M1029 538a5 5 0 0 1 5-5h270a5 5 0 0 1 5 5v94a5 5 0 0 1-5 5h-270a5 5 0 0 1-5-5z" fill="#fff"/><path d="M1029 573v-35a5 5 0 0 1 5-5h270a5 5 0 0 1 5 5v35" fill="#6db1ff"/><path d="M1029 538a5 5 0 0 1 5-5h270a5 5 0 0 1 5 5v94a5 5 0 0 1-5 5h-270a5 5 0 0 1-5-5zM1029 573h280M1169 573v64" stroke="#282c33" fill="none"/><use xlink:href="#x" transform="matrix(1,0,0,1,1039,533.0000000000254) translate(0 23.6)"/><use xlink:href="#y" transform="matrix(1,0,0,1,1034,575.5000000000254) translate(0 17.1)"/><use xlink:href="#k" transform="matrix(1,0,0,1,1174,575.5000000000254) translate(0 17.1)"/><use xlink:href="#z" transform="matrix(1,0,0,1,1034,607.5000000000254) translate(0 17.1)"/><use xlink:href="#k" transform="matrix(1,0,0,1,1174,607.5000000000254) translate(0 17.1)"/><path d="M69 723.3a5 5 0 0 1 5-5h270a5 5 0 0 1 5 5v126a5 5 0 0 1-5 5H74a5 5 0 0 1-5-5z" fill="#fff"/><path d="M69 758.3v-35a5 5 0 0 1 5-5h270a5 5 0 0 1 5 5v35" fill="#ced4db"/><path d="M69 723.3a5 5 0 0 1 5-5h270a5 5 0 0 1 5 5v126a5 5 0 0 1-5 5H74a5 5 0 0 1-5-5zM69 758.3h280" stroke="#282c33" fill="none"/><use xlink:href="#A" transform="matrix(1,0,0,1,79,718.3100470376991) translate(0 23.6)"/><use xlink:href="#B" transform="matrix(1,0,0,1,74,760.8100470376991) translate(0 17.1)"/><use xlink:href="#C" transform="matrix(1,0,0,1,74,792.8100470376991) translate(0 17.1)"/><use xlink:href="#D" transform="matrix(1,0,0,1,74,824.8100470376991) translate(0 17.1)"/><path d="M539 258a5 5 0 0 1 5-5h270a5 5 0 0 1 5 5v158a5 5 0 0 1-5 5H544a5 5 0 0 1-5-5z" fill="#fff"/><path d="M539 293v-35a5 5 0 0 1 5-5h270a5 5 0 0 1 5 5v35" fill="#fc9432"/><path d="M539 258a5 5 0 0 1 5-5h270a5 5 0 0 1 5 5v158a5 5 0 0 1-5 5H544a5 5 0 0 1-5-5zM539 293h280M679 293v128" stroke="#282c33" fill="none"/><use xlink:href="#E" transform="matrix(1,0,0,1,549,253.0000000000254) translate(0 23.6)"/><use xlink:href="#F" transform="matrix(1,0,0,1,544,295.5000000000254) translate(0 17.1)"/><use xlink:href="#k" transform="matrix(1,0,0,1,684,295.5000000000254) translate(0 17.1)"/><use xlink:href="#G" transform="matrix(1,0,0,1,544,327.5000000000254) translate(0 17.1)"/><use xlink:href="#k" transform="matrix(1,0,0,1,684,327.5000000000254) translate(0 17.1)"/><use xlink:href="#H" transform="matrix(1,0,0,1,544,359.5000000000254) translate(0 17.1)"/><use xlink:href="#I" transform="matrix(1,0,0,1,684,359.5000000000254) translate(0 17.1)"/><use xlink:href="#J" transform="matrix(1,0,0,1,544,391.5000000000254) translate(0 17.1)"/><use xlink:href="#I" transform="matrix(1,0,0,1,684,391.5000000000254) translate(0 17.1)"/><path d="M539 494.72a5 5 0 0 1 5-5h270a5 5 0 0 1 5 5v254a5 5 0 0 1-5 5H544a5 5 0 0 1-5-5z" fill="#fff"/><path d="M539 529.72v-35a5 5 0 0 1 5-5h270a5 5 0 0 1 5 5v35" fill="#fc9432"/><path d="M539 494.72a5 5 0 0 1 5-5h270a5 5 0 0 1 5 5v254a5 5 0 0 1-5 5H544a5 5 0 0 1-5-5zM539 529.72h280M679 529.72v224" stroke="#282c33" fill="none"/><use xlink:href="#K" transform="matrix(1,0,0,1,549,489.7244424066647) translate(0 23.6)"/><use xlink:href="#v" transform="matrix(1,0,0,1,544,532.2244424066647) translate(0 17.1)"/><use xlink:href="#k" transform="matrix(1,0,0,1,684,532.2244424066647) translate(0 17.1)"/><use xlink:href="#L" transform="matrix(1,0,0,1,544,564.2244424066647) translate(0 17.1)"/><use xlink:href="#k" transform="matrix(1,0,0,1,684,564.2244424066647) translate(0 17.1)"/><use xlink:href="#H" transform="matrix(1,0,0,1,544,596.2244424066647) translate(0 17.1)"/><use xlink:href="#I" transform="matrix(1,0,0,1,684,596.2244424066647) translate(0 17.1)"/><use xlink:href="#J" transform="matrix(1,0,0,1,544,628.2244424066647) translate(0 17.1)"/><use xlink:href="#I" transform="matrix(1,0,0,1,684,628.2244424066647) translate(0 17.1)"/><use xlink:href="#M" transform="matrix(1,0,0,1,544,660.2244424066647) translate(0 17.1)"/><use xlink:href="#I" transform="matrix(1,0,0,1,684,660.2244424066647) translate(0 17.1)"/><use xlink:href="#N" transform="matrix(1,0,0,1,544,692.2244424066647) translate(0 17.1)"/><use xlink:href="#I" transform="matrix(1,0,0,1,684,692.2244424066647) translate(0 17.1)"/><use xlink:href="#O" transform="matrix(1,0,0,1,544,724.2244424066647) translate(0 17.1)"/><use xlink:href="#I" transform="matrix(1,0,0,1,684,724.2244424066647) translate(0 17.1)"/><path d="M472.5 838a5 5 0 0 1 5-5h403a5 5 0 0 1 5 5v158a5 5 0 0 1-5 5h-403a5 5 0 0 1-5-5z" fill="#fff"/><path d="M472.5 873v-35a5 5 0 0 1 5-5h403a5 5 0 0 1 5 5v35" fill="#fc9432"/><path d="M472.5 838a5 5 0 0 1 5-5h403a5 5 0 0 1 5 5v158a5 5 0 0 1-5 5h-403a5 5 0 0 1-5-5zM472.5 873h413M679 873v128" stroke="#282c33" fill="none"/><use xlink:href="#P" transform="matrix(1,0,0,1,482.5,833.0000000000254) translate(0 23.6)"/><use xlink:href="#Q" transform="matrix(1,0,0,1,477.5,875.5000000000254) translate(0 17.1)"/><use xlink:href="#k" transform="matrix(1,0,0,1,684,875.5000000000254) translate(0 17.1)"/><use xlink:href="#R" transform="matrix(1,0,0,1,477.5,907.5000000000254) translate(0 17.1)"/><use xlink:href="#k" transform="matrix(1,0,0,1,684,907.5000000000254) translate(0 17.1)"/><use xlink:href="#S" transform="matrix(1,0,0,1,477.5,939.5000000000254) translate(0 17.1)"/><use xlink:href="#I" transform="matrix(1,0,0,1,684,939.5000000000254) translate(0 17.1)"/><use xlink:href="#T" transform="matrix(1,0,0,1,477.5,971.5000000000254) translate(0 17.1)"/><use xlink:href="#I" transform="matrix(1,0,0,1,684,971.5000000000254) translate(0 17.1)"/><path d="M518.5 373.13H456a12 12 0 0 0-12 12v44.6a12 12 0 0 1-12 12h-63.1" stroke="#3a414a" fill="none"/><path d="M518.5 363.13v20M538.5 373.13h-20" stroke="#3a414a" fill="#fff"/><path d="M349.72 431.74l20 10-20 10" stroke="#3a414a" fill="#fff" fill-opacity="0"/><path d="M349.72 441.74h20" stroke="#3a414a" fill="#fff"/><path d="M518.5 405.24H456a12 12 0 0 0-12 12v12.5a12 12 0 0 1-12 12h-63.1" stroke="#3a414a" fill="none"/><path d="M518.5 395.24v20M538.5 405.24h-20" stroke="#3a414a" fill="#fff"/><path d="M349.72 431.74l20 10-20 10" stroke="#3a414a" fill="#fff" fill-opacity="0"/><path d="M349.72 441.74h20" stroke="#3a414a" fill="#fff"/><path d="M839.5 577.57H912a12 12 0 0 0 12-12V421a12 12 0 0 1 12-12h73.1" stroke="#3a414a" fill="none"/><path d="M839.5 587.57v-20M819.5 577.57h20" stroke="#3a414a" fill="#fff"/><path d="M1028.28 419l-20-10 20-10" stroke="#3a414a" fill="#fff" fill-opacity="0"/><path d="M1028.28 409h-20" stroke="#3a414a" fill="#fff"/><path d="M518.5 609.68H456a12 12 0 0 1-12-12V453.74a12 12 0 0 0-12-12h-63.1" stroke="#3a414a" fill="none"/><path d="M518.5 599.68v20M538.5 609.68h-20" stroke="#3a414a" fill="#fff"/><path d="M349.72 431.74l20 10-20 10" stroke="#3a414a" fill="#fff" fill-opacity="0"/><path d="M349.72 441.74h20" stroke="#3a414a" fill="#fff"/><path d="M518.5 641.8H456a12 12 0 0 1-12-12V453.74a12 12 0 0 0-12-12h-63.1" stroke="#3a414a" fill="none"/><path d="M518.5 631.8v20M538.5 641.8h-20" stroke="#3a414a" fill="#fff"/><path d="M349.72 431.74l20 10-20 10" stroke="#3a414a" fill="#fff" fill-opacity="0"/><path d="M349.72 441.74h20" stroke="#3a414a" fill="#fff"/><path d="M839.5 706.02H957a12 12 0 0 0 12-12v-93a12 12 0 0 1 12-12h28.1" stroke="#3a414a" fill="none"/><path d="M839.5 716.02v-20M819.5 706.02h20" stroke="#3a414a" fill="#fff"/><path d="M1028.28 599l-20-10 20-10" stroke="#3a414a" fill="#fff" fill-opacity="0"/><path d="M1028.28 589h-20" stroke="#3a414a" fill="#fff"/><path d="M452 921a8 8 0 0 1-8-8V453.75a12 12 0 0 0-12-12h-63.1" stroke="#3a414a" fill="none"/><path d="M452 911v20M472 921h-20" stroke="#3a414a" fill="#fff"/><path d="M349.72 431.74l20 10-20 10" stroke="#3a414a" fill="#fff" fill-opacity="0"/><path d="M349.72 441.74h20" stroke="#3a414a" fill="#fff"/><path d="M518.5 738.14H368.9" stroke="#3a414a" fill="none"/><path d="M518.5 728.14v20M538.5 738.14h-20" stroke="#3a414a" fill="#fff"/><path d="M349.73 728.14l20 10-20 10" stroke="#3a414a" fill="#fff" fill-opacity="0"/><path d="M349.73 738.14h20" stroke="#3a414a" fill="#fff"/><path d="M839.5 673.9H912a12 12 0 0 1 12 12V773a12 12 0 0 0 12 12h73.1" stroke="#3a414a" fill="none"/><path d="M839.5 683.9v-20M819.5 673.9h20" stroke="#3a414a" fill="#fff"/><path d="M1028.28 795l-20-10 20-10" stroke="#3a414a" fill="#fff" fill-opacity="0"/><path d="M1028.28 785h-20" stroke="#3a414a" fill="#fff"/><path d="M906 953.1h6a12 12 0 0 0 12-12V797a12 12 0 0 1 12-12h73.1" stroke="#3a414a" fill="none"/><path d="M906 963.1v-20M886 953.1h20" stroke="#3a414a" fill="#fff"/><path d="M1028.28 795l-20-10 20-10" stroke="#3a414a" fill="#fff" fill-opacity="0"/><path d="M1028.28 785h-20" stroke="#3a414a" fill="#fff"/><path d="M906 985.16h6a12 12 0 0 0 12-12V797a12 12 0 0 1 12-12h73.1" stroke="#3a414a" fill="none"/><path d="M906 995.16v-20M886 985.16h20" stroke="#3a414a" fill="#fff"/><path d="M1028.28 795l-20-10 20-10" stroke="#3a414a" fill="#fff" fill-opacity="0"/><path d="M1028.28 785h-20" stroke="#3a414a" fill="#fff"/><defs><path fill="#a9afb8" d="M24-248c120-7 223 5 221 122C244-46 201 0 124 0H24v-248zM76-40c74 7 117-18 117-86 0-67-45-88-117-82v168" id="U"/><path fill="#a9afb8" d="M133-34C117-15 103 5 69 4 32 3 11-16 11-54c-1-60 55-63 116-61 1-26-3-47-28-47-18 1-26 9-28 27l-52-2c7-38 36-58 82-57s74 22 75 68l1 82c-1 14 12 18 25 15v27c-30 8-71 5-69-32zm-48 3c29 0 43-24 42-57-32 0-66-3-65 30 0 17 8 27 23 27" id="V"/><path fill="#a9afb8" d="M115-3C79 11 28 4 28-45v-112H4v-33h27l15-45h31v45h36v33H77v99c-1 23 16 31 38 25v30" id="W"/><path fill="#a9afb8" d="M182-130c37 4 62 22 62 59C244 23 116-4 24 0v-248c84 5 203-23 205 63 0 31-19 50-47 55zM76-148c40-3 101 13 101-30 0-44-60-28-101-31v61zm0 110c48-3 116 14 116-37 0-48-69-32-116-35v72" id="X"/><path fill="#a9afb8" d="M137-138c1-29-70-34-71-4 15 46 118 7 119 86 1 83-164 76-172 9l43-7c4 19 20 25 44 25 33 8 57-30 24-41C81-84 22-81 20-136c-2-80 154-74 161-7" id="Y"/><path fill="#a9afb8" d="M185-48c-13 30-37 53-82 52C43 2 14-33 14-96s30-98 90-98c62 0 83 45 84 108H66c0 31 8 55 39 56 18 0 30-7 34-22zm-45-69c5-46-57-63-70-21-2 6-4 13-4 21h74" id="Z"/><g id="a"><use transform="matrix(0.0728395061728395,0,0,0.0728395061728395,0,0)" xlink:href="#U"/><use transform="matrix(0.0728395061728395,0,0,0.0728395061728395,18.86543209876543,0)" xlink:href="#V"/><use transform="matrix(0.0728395061728395,0,0,0.0728395061728395,33.43333333333333,0)" xlink:href="#W"/><use transform="matrix(0.0728395061728395,0,0,0.0728395061728395,42.10123456790124,0)" xlink:href="#V"/><use transform="matrix(0.0728395061728395,0,0,0.0728395061728395,56.66913580246913,0)" xlink:href="#X"/><use transform="matrix(0.0728395061728395,0,0,0.0728395061728395,75.53456790123457,0)" xlink:href="#V"/><use transform="matrix(0.0728395061728395,0,0,0.0728395061728395,90.10246913580247,0)" xlink:href="#Y"/><use transform="matrix(0.0728395061728395,0,0,0.0728395061728395,104.67037037037036,0)" xlink:href="#Z"/></g><path fill="#a9afb8" d="M24 0v-248h52v208h133V0H24" id="aa"/><path fill="#a9afb8" d="M135-194c52 0 70 43 70 98 0 56-19 99-73 100-30 1-46-15-58-35L72 0H24l1-261h50v104c11-23 29-37 60-37zM114-30c31 0 40-27 40-66 0-37-7-63-39-63s-41 28-41 65c0 36 8 64 40 64" id="ab"/><path fill="#a9afb8" d="M23 0v-37h61v-169l-59 37v-38l62-41h46v211h57V0H23" id="ac"/><g id="b"><use transform="matrix(0.0728395061728395,0,0,0.0728395061728395,0,0)" xlink:href="#aa"/><use transform="matrix(0.0728395061728395,0,0,0.0728395061728395,15.95185185185185,0)" xlink:href="#V"/><use transform="matrix(0.0728395061728395,0,0,0.0728395061728395,30.51975308641975,0)" xlink:href="#ab"/><use transform="matrix(0.0728395061728395,0,0,0.0728395061728395,46.471604938271604,0)" xlink:href="#ac"/></g><path fill="#a9afb8" d="M195 0l-74-108L45 0H8l94-129-87-119h37l69 98 67-98h37l-84 118L233 0h-38" id="ad"/><path fill="#a9afb8" d="M179-190L93 31C79 59 56 82 12 73V49c39 6 53-20 64-50L1-190h34L92-34l54-156h33" id="ae"/><path fill="#a9afb8" d="M57-190v80h85v-80h32V0h-32v-87H57V0H25v-190h32" id="af"/><path fill="#a9afb8" d="M96-169c-40 0-48 33-48 73s9 75 48 75c24 0 41-14 43-38l32 2c-6 37-31 61-74 61-59 0-76-41-82-99-10-93 101-131 147-64 4 7 5 14 7 22l-32 3c-4-21-16-35-41-35" id="ag"/><path fill="#a9afb8" d="M20-138c-1-64 85-51 150-52V0h-32v-81H94L39 0H3l60-83c-28-5-43-24-43-55zm33 3c0 40 46 33 85 33v-66c-39 0-85-6-85 33" id="ah"/><g id="c"><use transform="matrix(0.04248971193415638,0,0,0.04248971193415638,0,0)" xlink:href="#ad"/><use transform="matrix(0.04248971193415638,0,0,0.04248971193415638,9.85761316872428,0)" xlink:href="#ae"/><use transform="matrix(0.04248971193415638,0,0,0.04248971193415638,17.505761316872427,0)" xlink:href="#af"/><use transform="matrix(0.04248971193415638,0,0,0.04248971193415638,25.91872427983539,0)" xlink:href="#ag"/><use transform="matrix(0.04248971193415638,0,0,0.04248971193415638,33.56687242798353,0)" xlink:href="#ah"/><use transform="matrix(0.04248971193415638,0,0,0.04248971193415638,41.80987654320987,0)" xlink:href="#af"/></g><path fill="#a9afb8" d="M62-147c-4 58 76 40 115 32v-133h34V0h-34v-89C118-74 28-68 28-143v-105h34v101" id="ai"/><path fill="#a9afb8" d="M156-87c-4 1-15 3-20 3V0h-31v-84c-5 0-16-2-20-3L36 0H1l62-104c-22-24-40-59-60-86h33l50 76c5 5 9 7 19 7v-83h31v83c27-1 31-21 43-41l26-42h33l-60 86L240 0h-36" id="aj"/><path fill="#a9afb8" d="M100-194c62-1 85 37 85 99 1 63-27 99-86 99S16-35 15-95c0-66 28-99 85-99zM99-20c44 1 53-31 53-75 0-43-8-75-51-75s-53 32-53 75 10 74 51 75" id="ak"/><g id="d"><use transform="matrix(0.04248971193415638,0,0,0.04248971193415638,0,0)" xlink:href="#ai"/><use transform="matrix(0.04248971193415638,0,0,0.04248971193415638,10.155041152263374,0)" xlink:href="#aj"/><use transform="matrix(0.04248971193415638,0,0,0.04248971193415638,20.352572016460904,0)" xlink:href="#ak"/><use transform="matrix(0.04248971193415638,0,0,0.04248971193415638,28.68055555555555,0)" xlink:href="#ae"/></g><path fill="#a9afb8" d="M32 76v-337h29V76H32" id="al"/><use transform="matrix(0.04248971193415638,0,0,0.04248971193415638,0,0)" xlink:href="#al" id="e"/><path fill="#a9afb8" d="M140-251c81 0 123 46 123 126C263-46 219 4 140 4 59 4 17-45 17-125s42-126 123-126zm0 227c63 0 89-41 89-101s-29-99-89-99c-61 0-89 39-89 99S79-25 140-24" id="am"/><path fill="#a9afb8" d="M96-169c-40 0-48 33-48 73s9 75 48 75c24 0 41-14 43-38l32 2c-6 37-31 61-74 61-59 0-76-41-82-99-10-93 101-131 147-64 4 7 5 14 7 22l-32 3c-4-21-16-35-41-35" id="an"/><path fill="#a9afb8" d="M59-47c-2 24 18 29 38 22v24C64 9 27 4 27-40v-127H5v-23h24l9-43h21v43h35v23H59v120" id="ao"/><path fill="#a9afb8" d="M100-194c62-1 85 37 85 99 1 63-27 99-86 99S16-35 15-95c0-66 28-99 85-99zM99-20c44 1 53-31 53-75 0-43-8-75-51-75s-53 32-53 75 10 74 51 75" id="ap"/><path fill="#a9afb8" d="M115-194c53 0 69 39 70 98 0 66-23 100-70 100C84 3 66-7 56-30L54 0H23l1-261h32v101c10-23 28-34 59-34zm-8 174c40 0 45-34 45-75 0-40-5-75-45-74-42 0-51 32-51 76 0 43 10 73 51 73" id="aq"/><path fill="#a9afb8" d="M100-194c63 0 86 42 84 106H49c0 40 14 67 53 68 26 1 43-12 49-29l28 8c-11 28-37 45-77 45C44 4 14-33 15-96c1-61 26-98 85-98zm52 81c6-60-76-77-97-28-3 7-6 17-6 28h103" id="ar"/><path fill="#a9afb8" d="M114-163C36-179 61-72 57 0H25l-1-190h30c1 12-1 29 2 39 6-27 23-49 58-41v29" id="as"/><g id="f"><use transform="matrix(0.04248971193415638,0,0,0.04248971193415638,0,0)" xlink:href="#am"/><use transform="matrix(0.04248971193415638,0,0,0.04248971193415638,11.897119341563785,0)" xlink:href="#an"/><use transform="matrix(0.04248971193415638,0,0,0.04248971193415638,19.545267489711932,0)" xlink:href="#ao"/><use transform="matrix(0.04248971193415638,0,0,0.04248971193415638,23.79423868312757,0)" xlink:href="#ap"/><use transform="matrix(0.04248971193415638,0,0,0.04248971193415638,32.29218106995884,0)" xlink:href="#aq"/><use transform="matrix(0.04248971193415638,0,0,0.04248971193415638,40.79012345679012,0)" xlink:href="#ar"/><use transform="matrix(0.04248971193415638,0,0,0.04248971193415638,49.288065843621396,0)" xlink:href="#as"/></g><path fill="#a9afb8" d="M27 0v-27h64v-190l-56 39v-29l58-41h29v221h61V0H27" id="at"/><path fill="#a9afb8" d="M64 0c3-98 48-159 88-221H18v-27h164v26C143-157 98-101 97 0H64" id="au"/><path fill="#a9afb8" d="M68-38c1 34 0 65-14 84H32c9-13 17-26 17-46H33v-38h35" id="av"/><g id="g"><use transform="matrix(0.04248971193415638,0,0,0.04248971193415638,0,0)" xlink:href="#at"/><use transform="matrix(0.04248971193415638,0,0,0.04248971193415638,8.497942386831275,0)" xlink:href="#au"/><use transform="matrix(0.04248971193415638,0,0,0.04248971193415638,16.99588477366255,0)" xlink:href="#av"/></g><path fill="#a9afb8" d="M101-251c82-7 93 87 43 132L82-64C71-53 59-42 53-27h129V0H18c2-99 128-94 128-182 0-28-16-43-45-43s-46 15-49 41l-32-3c6-41 34-60 81-64" id="aw"/><path fill="#a9afb8" d="M101-251c68 0 85 55 85 127S166 4 100 4C33 4 14-52 14-124c0-73 17-127 87-127zm-1 229c47 0 54-49 54-102s-4-102-53-102c-51 0-55 48-55 102 0 53 5 102 54 102" id="ax"/><path fill="#a9afb8" d="M126-127c33 6 58 20 58 59 0 88-139 92-164 29-3-8-5-16-6-25l32-3c6 27 21 44 54 44 32 0 52-15 52-46 0-38-36-46-79-43v-28c39 1 72-4 72-42 0-27-17-43-46-43-28 0-47 15-49 41l-32-3c6-42 35-63 81-64 48-1 79 21 79 65 0 36-21 52-52 59" id="ay"/><g id="h"><use transform="matrix(0.04248971193415638,0,0,0.04248971193415638,0,0)" xlink:href="#aw"/><use transform="matrix(0.04248971193415638,0,0,0.04248971193415638,8.497942386831275,0)" xlink:href="#ax"/><use transform="matrix(0.04248971193415638,0,0,0.04248971193415638,16.99588477366255,0)" xlink:href="#aw"/><use transform="matrix(0.04248971193415638,0,0,0.04248971193415638,25.493827160493822,0)" xlink:href="#ay"/></g><path fill="#333" d="M67-125c0 53 21 87 73 88 37 1 54-22 65-47l45 17C233-25 199 4 140 4 58 4 20-42 15-125 8-235 124-281 211-232c18 10 29 29 36 50l-46 12c-8-25-30-41-62-41-52 0-71 34-72 86" id="az"/><path fill="#333" d="M114-157C55-157 80-60 75 0H25v-261h50l-1 109c12-26 28-41 61-42 86-1 58 113 63 194h-50c-7-57 23-157-34-157" id="aA"/><path fill="#333" d="M133-34C117-15 103 5 69 4 32 3 11-16 11-54c-1-60 55-63 116-61 1-26-3-47-28-47-18 1-26 9-28 27l-52-2c7-38 36-58 82-57s74 22 75 68l1 82c-1 14 12 18 25 15v27c-30 8-71 5-69-32zm-48 3c29 0 43-24 42-57-32 0-66-3-65 30 0 17 8 27 23 27" id="aB"/><path fill="#333" d="M135-150c-39-12-60 13-60 57V0H25l-1-190h47c2 13-1 29 3 40 6-28 27-53 61-41v41" id="aC"/><path fill="#333" d="M190-63c-7 42-38 67-86 67-59 0-84-38-90-98-12-110 154-137 174-36l-49 2c-2-19-15-32-35-32-30 0-35 28-38 64-6 74 65 87 74 30" id="aD"/><path fill="#333" d="M115-3C79 11 28 4 28-45v-112H4v-33h27l15-45h31v45h36v33H77v99c-1 23 16 31 38 25v30" id="aE"/><path fill="#333" d="M185-48c-13 30-37 53-82 52C43 2 14-33 14-96s30-98 90-98c62 0 83 45 84 108H66c0 31 8 55 39 56 18 0 30-7 34-22zm-45-69c5-46-57-63-70-21-2 6-4 13-4 21h74" id="aF"/><path fill="#333" d="M137-138c1-29-70-34-71-4 15 46 118 7 119 86 1 83-164 76-172 9l43-7c4 19 20 25 44 25 33 8 57-30 24-41C81-84 22-81 20-136c-2-80 154-74 161-7" id="aG"/><g id="i"><use transform="matrix(0.05,0,0,0.05,0,0)" xlink:href="#az"/><use transform="matrix(0.05,0,0,0.05,12.950000000000001,0)" xlink:href="#aA"/><use transform="matrix(0.05,0,0,0.05,23.900000000000002,0)" xlink:href="#aB"/><use transform="matrix(0.05,0,0,0.05,33.900000000000006,0)" xlink:href="#aC"/><use transform="matrix(0.05,0,0,0.05,40.900000000000006,0)" xlink:href="#aB"/><use transform="matrix(0.05,0,0,0.05,50.900000000000006,0)" xlink:href="#aD"/><use transform="matrix(0.05,0,0,0.05,60.900000000000006,0)" xlink:href="#aE"/><use transform="matrix(0.05,0,0,0.05,66.85000000000001,0)" xlink:href="#aF"/><use transform="matrix(0.05,0,0,0.05,76.85000000000001,0)" xlink:href="#aC"/><use transform="matrix(0.05,0,0,0.05,83.85000000000001,0)" xlink:href="#aG"/></g><path fill="#333" d="M96-169c-40 0-48 33-48 73s9 75 48 75c24 0 41-14 43-38l32 2c-6 37-31 61-74 61-59 0-76-41-82-99-10-93 101-131 147-64 4 7 5 14 7 22l-32 3c-4-21-16-35-41-35" id="aH"/><path fill="#333" d="M106-169C34-169 62-67 57 0H25v-261h32l-1 103c12-21 28-36 61-36 89 0 53 116 60 194h-32v-121c2-32-8-49-39-48" id="aI"/><path fill="#333" d="M141-36C126-15 110 5 73 4 37 3 15-17 15-53c-1-64 63-63 125-63 3-35-9-54-41-54-24 1-41 7-42 31l-33-3c5-37 33-52 76-52 45 0 72 20 72 64v82c-1 20 7 32 28 27v20c-31 9-61-2-59-35zM48-53c0 20 12 33 32 33 41-3 63-29 60-74-43 2-92-5-92 41" id="aJ"/><path fill="#333" d="M114-163C36-179 61-72 57 0H25l-1-190h30c1 12-1 29 2 39 6-27 23-49 58-41v29" id="aK"/><path fill="#333" d="M59-47c-2 24 18 29 38 22v24C64 9 27 4 27-40v-127H5v-23h24l9-43h21v43h35v23H59v120" id="aL"/><path fill="#333" d="M100-194c63 0 86 42 84 106H49c0 40 14 67 53 68 26 1 43-12 49-29l28 8c-11 28-37 45-77 45C44 4 14-33 15-96c1-61 26-98 85-98zm52 81c6-60-76-77-97-28-3 7-6 17-6 28h103" id="aM"/><path fill="#333" d="M-5 72V49h209v23H-5" id="aN"/><path fill="#333" d="M24-231v-30h32v30H24zM24 0v-190h32V0H24" id="aO"/><path fill="#333" d="M85-194c31 0 48 13 60 33l-1-100h32l1 261h-30c-2-10 0-23-3-31C134-8 116 4 85 4 32 4 16-35 15-94c0-66 23-100 70-100zm9 24c-40 0-46 34-46 75 0 40 6 74 45 74 42 0 51-32 51-76 0-42-9-74-50-73" id="aP"/><g id="j"><use transform="matrix(0.05,0,0,0.05,0,0)" xlink:href="#aH"/><use transform="matrix(0.05,0,0,0.05,9,0)" xlink:href="#aI"/><use transform="matrix(0.05,0,0,0.05,19,0)" xlink:href="#aJ"/><use transform="matrix(0.05,0,0,0.05,29,0)" xlink:href="#aK"/><use transform="matrix(0.05,0,0,0.05,34.95,0)" xlink:href="#aJ"/><use transform="matrix(0.05,0,0,0.05,44.95,0)" xlink:href="#aH"/><use transform="matrix(0.05,0,0,0.05,53.95,0)" xlink:href="#aL"/><use transform="matrix(0.05,0,0,0.05,58.95,0)" xlink:href="#aM"/><use transform="matrix(0.05,0,0,0.05,68.95,0)" xlink:href="#aK"/><use transform="matrix(0.05,0,0,0.05,74.9,0)" xlink:href="#aN"/><use transform="matrix(0.05,0,0,0.05,84.9,0)" xlink:href="#aO"/><use transform="matrix(0.05,0,0,0.05,88.85000000000001,0)" xlink:href="#aP"/></g><path fill="#333" d="M127-220V0H93v-220H8v-28h204v28h-85" id="aQ"/><path fill="#333" d="M179-190L93 31C79 59 56 82 12 73V49c39 6 53-20 64-50L1-190h34L92-34l54-156h33" id="aR"/><path fill="#333" d="M115-194c55 1 70 41 70 98S169 2 115 4C84 4 66-9 55-30l1 105H24l-1-265h31l2 30c10-21 28-34 59-34zm-8 174c40 0 45-34 45-75s-6-73-45-74c-42 0-51 32-51 76 0 43 10 73 51 73" id="aS"/><g id="k"><use transform="matrix(0.05,0,0,0.05,0,0)" xlink:href="#aQ"/><use transform="matrix(0.05,0,0,0.05,9.950000000000001,0)" xlink:href="#aR"/><use transform="matrix(0.05,0,0,0.05,18.950000000000003,0)" xlink:href="#aS"/><use transform="matrix(0.05,0,0,0.05,28.950000000000003,0)" xlink:href="#aM"/></g><path fill="#333" d="M117-194c89-4 53 116 60 194h-32v-121c0-31-8-49-39-48C34-167 62-67 57 0H25l-1-190h30c1 10-1 24 2 32 11-22 29-35 61-36" id="aT"/><path fill="#333" d="M210-169c-67 3-38 105-44 169h-31v-121c0-29-5-50-35-48C34-165 62-65 56 0H25l-1-190h30c1 10-1 24 2 32 10-44 99-50 107 0 11-21 27-35 58-36 85-2 47 119 55 194h-31v-121c0-29-5-49-35-48" id="aU"/><g id="l"><use transform="matrix(0.05,0,0,0.05,0,0)" xlink:href="#aH"/><use transform="matrix(0.05,0,0,0.05,9,0)" xlink:href="#aI"/><use transform="matrix(0.05,0,0,0.05,19,0)" xlink:href="#aJ"/><use transform="matrix(0.05,0,0,0.05,29,0)" xlink:href="#aK"/><use transform="matrix(0.05,0,0,0.05,34.95,0)" xlink:href="#aJ"/><use transform="matrix(0.05,0,0,0.05,44.95,0)" xlink:href="#aH"/><use transform="matrix(0.05,0,0,0.05,53.95,0)" xlink:href="#aL"/><use transform="matrix(0.05,0,0,0.05,58.95,0)" xlink:href="#aM"/><use transform="matrix(0.05,0,0,0.05,68.95,0)" xlink:href="#aK"/><use transform="matrix(0.05,0,0,0.05,74.9,0)" xlink:href="#aN"/><use transform="matrix(0.05,0,0,0.05,84.9,0)" xlink:href="#aT"/><use transform="matrix(0.05,0,0,0.05,94.9,0)" xlink:href="#aJ"/><use transform="matrix(0.05,0,0,0.05,104.9,0)" xlink:href="#aU"/><use transform="matrix(0.05,0,0,0.05,119.85000000000001,0)" xlink:href="#aM"/></g><path d="M24-248c120-7 223 5 221 122C244-46 201 0 124 0H24v-248zM76-40c74 7 117-18 117-86 0-67-45-88-117-82v168" id="aV"/><path d="M25-224v-37h50v37H25zM25 0v-190h50V0H25" id="aW"/><path d="M133-34C117-15 103 5 69 4 32 3 11-16 11-54c-1-60 55-63 116-61 1-26-3-47-28-47-18 1-26 9-28 27l-52-2c7-38 36-58 82-57s74 22 75 68l1 82c-1 14 12 18 25 15v27c-30 8-71 5-69-32zm-48 3c29 0 43-24 42-57-32 0-66-3-65 30 0 17 8 27 23 27" id="aX"/><path d="M195-6C206 82 75 100 31 46c-4-6-6-13-8-21l49-6c3 16 16 24 34 25 40 0 42-37 40-79-11 22-30 35-61 35-53 0-70-43-70-97 0-56 18-96 73-97 30 0 46 14 59 34l2-30h47zm-90-29c32 0 41-27 41-63 0-35-9-62-40-62-32 0-39 29-40 63 0 36 9 62 39 62" id="aY"/><path d="M135-150c-39-12-60 13-60 57V0H25l-1-190h47c2 13-1 29 3 40 6-28 27-53 61-41v41" id="aZ"/><path d="M220-157c-53 9-28 100-34 157h-49v-107c1-27-5-49-29-50C55-147 81-57 75 0H25l-1-190h47c2 12-1 28 3 38 10-53 101-56 108 0 13-22 24-43 59-42 82 1 51 116 57 194h-49v-107c-1-25-5-48-29-50" id="ba"/><g id="m"><use transform="matrix(0.05,0,0,0.05,0,0)" xlink:href="#aV"/><use transform="matrix(0.05,0,0,0.05,12.950000000000001,0)" xlink:href="#aW"/><use transform="matrix(0.05,0,0,0.05,17.950000000000003,0)" xlink:href="#aX"/><use transform="matrix(0.05,0,0,0.05,27.950000000000003,0)" xlink:href="#aY"/><use transform="matrix(0.05,0,0,0.05,38.900000000000006,0)" xlink:href="#aZ"/><use transform="matrix(0.05,0,0,0.05,45.900000000000006,0)" xlink:href="#aX"/><use transform="matrix(0.05,0,0,0.05,55.900000000000006,0)" xlink:href="#ba"/></g><path d="M195 0l-88-114-31 24V0H24v-248h52v113l112-113h60L142-143 257 0h-62" id="bb"/><path d="M185-48c-13 30-37 53-82 52C43 2 14-33 14-96s30-98 90-98c62 0 83 45 84 108H66c0 31 8 55 39 56 18 0 30-7 34-22zm-45-69c5-46-57-63-70-21-2 6-4 13-4 21h74" id="bc"/><path d="M123 10C108 53 80 86 19 72V37c35 8 53-11 59-39L3-190h52l48 148c12-52 28-100 44-148h51" id="bd"/><g id="n"><use transform="matrix(0.05,0,0,0.05,0,0)" xlink:href="#bb"/><use transform="matrix(0.05,0,0,0.05,12.950000000000001,0)" xlink:href="#bc"/><use transform="matrix(0.05,0,0,0.05,22.950000000000003,0)" xlink:href="#bd"/></g><path d="M30 0v-248h187v28H63v79h144v27H63v87h162V0H30" id="be"/><path d="M117-194c89-4 53 116 60 194h-32v-121c0-31-8-49-39-48C34-167 62-67 57 0H25l-1-190h30c1 10-1 24 2 32 11-22 29-35 61-36" id="bf"/><path d="M59-47c-2 24 18 29 38 22v24C64 9 27 4 27-40v-127H5v-23h24l9-43h21v43h35v23H59v120" id="bg"/><path d="M24-231v-30h32v30H24zM24 0v-190h32V0H24" id="bh"/><path d="M84 4C-5 8 30-112 23-190h32v120c0 31 7 50 39 49 72-2 45-101 50-169h31l1 190h-30c-1-10 1-25-2-33-11 22-28 36-60 37" id="bi"/><path d="M85-194c31 0 48 13 60 33l-1-100h32l1 261h-30c-2-10 0-23-3-31C134-8 116 4 85 4 32 4 16-35 15-94c0-66 23-100 70-100zm9 24c-40 0-46 34-46 75 0 40 6 74 45 74 42 0 51-32 51-76 0-42-9-74-50-73" id="bj"/><path d="M100-194c63 0 86 42 84 106H49c0 40 14 67 53 68 26 1 43-12 49-29l28 8c-11 28-37 45-77 45C44 4 14-33 15-96c1-61 26-98 85-98zm52 81c6-60-76-77-97-28-3 7-6 17-6 28h103" id="bk"/><path d="M135-143c-3-34-86-38-87 0 15 53 115 12 119 90S17 21 10-45l28-5c4 36 97 45 98 0-10-56-113-15-118-90-4-57 82-63 122-42 12 7 21 19 24 35" id="bl"/><g id="o"><use transform="matrix(0.03888888888888889,0,0,0.03888888888888889,0,0)" xlink:href="#be"/><use transform="matrix(0.03888888888888889,0,0,0.03888888888888889,9.333333333333334,0)" xlink:href="#bf"/><use transform="matrix(0.03888888888888889,0,0,0.03888888888888889,17.11111111111111,0)" xlink:href="#bg"/><use transform="matrix(0.03888888888888889,0,0,0.03888888888888889,21,0)" xlink:href="#bh"/><use transform="matrix(0.03888888888888889,0,0,0.03888888888888889,24.072222222222223,0)" xlink:href="#bg"/><use transform="matrix(0.03888888888888889,0,0,0.03888888888888889,27.961111111111112,0)" xlink:href="#bi"/><use transform="matrix(0.03888888888888889,0,0,0.03888888888888889,35.73888888888889,0)" xlink:href="#bj"/><use transform="matrix(0.03888888888888889,0,0,0.03888888888888889,43.516666666666666,0)" xlink:href="#bk"/><use transform="matrix(0.03888888888888889,0,0,0.03888888888888889,51.294444444444444,0)" xlink:href="#bl"/></g><path d="M233-177c-1 41-23 64-60 70L243 0h-38l-65-103H63V0H30v-248c88 3 205-21 203 71zM63-129c60-2 137 13 137-47 0-61-80-42-137-45v92" id="bm"/><path d="M24 0v-261h32V0H24" id="bn"/><path d="M141-36C126-15 110 5 73 4 37 3 15-17 15-53c-1-64 63-63 125-63 3-35-9-54-41-54-24 1-41 7-42 31l-33-3c5-37 33-52 76-52 45 0 72 20 72 64v82c-1 20 7 32 28 27v20c-31 9-61-2-59-35zM48-53c0 20 12 33 32 33 41-3 63-29 60-74-43 2-92-5-92 41" id="bo"/><path d="M100-194c62-1 85 37 85 99 1 63-27 99-86 99S16-35 15-95c0-66 28-99 85-99zM99-20c44 1 53-31 53-75 0-43-8-75-51-75s-53 32-53 75 10 74 51 75" id="bp"/><g id="p"><use transform="matrix(0.03888888888888889,0,0,0.03888888888888889,0,0)" xlink:href="#bm"/><use transform="matrix(0.03888888888888889,0,0,0.03888888888888889,10.072222222222223,0)" xlink:href="#bk"/><use transform="matrix(0.03888888888888889,0,0,0.03888888888888889,17.85,0)" xlink:href="#bn"/><use transform="matrix(0.03888888888888889,0,0,0.03888888888888889,20.922222222222224,0)" xlink:href="#bo"/><use transform="matrix(0.03888888888888889,0,0,0.03888888888888889,28.700000000000006,0)" xlink:href="#bg"/><use transform="matrix(0.03888888888888889,0,0,0.03888888888888889,32.58888888888889,0)" xlink:href="#bh"/><use transform="matrix(0.03888888888888889,0,0,0.03888888888888889,35.66111111111111,0)" xlink:href="#bp"/><use transform="matrix(0.03888888888888889,0,0,0.03888888888888889,43.43888888888889,0)" xlink:href="#bf"/><use transform="matrix(0.03888888888888889,0,0,0.03888888888888889,51.21666666666667,0)" xlink:href="#bl"/></g><path d="M210-169c-67 3-38 105-44 169h-31v-121c0-29-5-50-35-48C34-165 62-65 56 0H25l-1-190h30c1 10-1 24 2 32 10-44 99-50 107 0 11-21 27-35 58-36 85-2 47 119 55 194h-31v-121c0-29-5-49-35-48" id="bq"/><g id="q"><use transform="matrix(0.03888888888888889,0,0,0.03888888888888889,0,0)" xlink:href="#be"/><use transform="matrix(0.03888888888888889,0,0,0.03888888888888889,9.333333333333334,0)" xlink:href="#bf"/><use transform="matrix(0.03888888888888889,0,0,0.03888888888888889,17.11111111111111,0)" xlink:href="#bi"/><use transform="matrix(0.03888888888888889,0,0,0.03888888888888889,24.88888888888889,0)" xlink:href="#bq"/></g><path fill="#333" d="M24 0v-248h52v208h133V0H24" id="br"/><path fill="#333" d="M110-194c64 0 96 36 96 99 0 64-35 99-97 99-61 0-95-36-95-99 0-62 34-99 96-99zm-1 164c35 0 45-28 45-65 0-40-10-65-43-65-34 0-45 26-45 65 0 36 10 65 43 65" id="bs"/><path fill="#333" d="M25-224v-37h50v37H25zM25 0v-190h50V0H25" id="bt"/><path fill="#333" d="M135-194c87-1 58 113 63 194h-50c-7-57 23-157-34-157-59 0-34 97-39 157H25l-1-190h47c2 12-1 28 3 38 12-26 28-41 61-42" id="bu"/><g id="r"><use transform="matrix(0.05,0,0,0.05,0,0)" xlink:href="#br"/><use transform="matrix(0.05,0,0,0.05,10.950000000000001,0)" xlink:href="#bs"/><use transform="matrix(0.05,0,0,0.05,21.900000000000002,0)" xlink:href="#aD"/><use transform="matrix(0.05,0,0,0.05,31.900000000000002,0)" xlink:href="#aB"/><use transform="matrix(0.05,0,0,0.05,41.900000000000006,0)" xlink:href="#aE"/><use transform="matrix(0.05,0,0,0.05,47.85000000000001,0)" xlink:href="#bt"/><use transform="matrix(0.05,0,0,0.05,52.85,0)" xlink:href="#bs"/><use transform="matrix(0.05,0,0,0.05,63.80000000000001,0)" xlink:href="#bu"/><use transform="matrix(0.05,0,0,0.05,74.75000000000001,0)" xlink:href="#aG"/></g><path fill="#333" d="M24 0v-261h32V0H24" id="bv"/><path fill="#333" d="M100-194c62-1 85 37 85 99 1 63-27 99-86 99S16-35 15-95c0-66 28-99 85-99zM99-20c44 1 53-31 53-75 0-43-8-75-51-75s-53 32-53 75 10 74 51 75" id="bw"/><g id="s"><use transform="matrix(0.05,0,0,0.05,0,0)" xlink:href="#bv"/><use transform="matrix(0.05,0,0,0.05,3.95,0)" xlink:href="#bw"/><use transform="matrix(0.05,0,0,0.05,13.949999999999998,0)" xlink:href="#aH"/><use transform="matrix(0.05,0,0,0.05,22.95,0)" xlink:href="#aJ"/><use transform="matrix(0.05,0,0,0.05,32.95,0)" xlink:href="#aL"/><use transform="matrix(0.05,0,0,0.05,37.95,0)" xlink:href="#aO"/><use transform="matrix(0.05,0,0,0.05,41.900000000000006,0)" xlink:href="#bw"/><use transform="matrix(0.05,0,0,0.05,51.900000000000006,0)" xlink:href="#aT"/><use transform="matrix(0.05,0,0,0.05,61.900000000000006,0)" xlink:href="#aN"/><use transform="matrix(0.05,0,0,0.05,71.9,0)" xlink:href="#aO"/><use transform="matrix(0.05,0,0,0.05,75.85000000000001,0)" xlink:href="#aP"/></g><g id="t"><use transform="matrix(0.05,0,0,0.05,0,0)" xlink:href="#bv"/><use transform="matrix(0.05,0,0,0.05,3.95,0)" xlink:href="#bw"/><use transform="matrix(0.05,0,0,0.05,13.949999999999998,0)" xlink:href="#aH"/><use transform="matrix(0.05,0,0,0.05,22.95,0)" xlink:href="#aJ"/><use transform="matrix(0.05,0,0,0.05,32.95,0)" xlink:href="#aL"/><use transform="matrix(0.05,0,0,0.05,37.95,0)" xlink:href="#aO"/><use transform="matrix(0.05,0,0,0.05,41.900000000000006,0)" xlink:href="#bw"/><use transform="matrix(0.05,0,0,0.05,51.900000000000006,0)" xlink:href="#aT"/><use transform="matrix(0.05,0,0,0.05,61.900000000000006,0)" xlink:href="#aN"/><use transform="matrix(0.05,0,0,0.05,71.9,0)" xlink:href="#aT"/><use transform="matrix(0.05,0,0,0.05,81.9,0)" xlink:href="#aJ"/><use transform="matrix(0.05,0,0,0.05,91.9,0)" xlink:href="#aU"/><use transform="matrix(0.05,0,0,0.05,106.85000000000001,0)" xlink:href="#aM"/></g><path fill="#333" d="M199 0l-22-63H83L61 0H9l90-248h61L250 0h-51zm-33-102l-36-108c-10 38-24 72-36 108h72" id="bx"/><g id="u"><use transform="matrix(0.05,0,0,0.05,0,0)" xlink:href="#bx"/><use transform="matrix(0.05,0,0,0.05,12.950000000000001,0)" xlink:href="#aD"/><use transform="matrix(0.05,0,0,0.05,22.950000000000003,0)" xlink:href="#aE"/><use transform="matrix(0.05,0,0,0.05,28.900000000000002,0)" xlink:href="#bt"/><use transform="matrix(0.05,0,0,0.05,33.900000000000006,0)" xlink:href="#bs"/><use transform="matrix(0.05,0,0,0.05,44.85000000000001,0)" xlink:href="#bu"/><use transform="matrix(0.05,0,0,0.05,55.80000000000001,0)" xlink:href="#br"/><use transform="matrix(0.05,0,0,0.05,66.75000000000001,0)" xlink:href="#bt"/><use transform="matrix(0.05,0,0,0.05,71.75000000000001,0)" xlink:href="#aG"/><use transform="matrix(0.05,0,0,0.05,81.75000000000001,0)" xlink:href="#aE"/></g><g id="v"><use transform="matrix(0.05,0,0,0.05,0,0)" xlink:href="#aJ"/><use transform="matrix(0.05,0,0,0.05,10,0)" xlink:href="#aH"/><use transform="matrix(0.05,0,0,0.05,19,0)" xlink:href="#aL"/><use transform="matrix(0.05,0,0,0.05,24,0)" xlink:href="#aO"/><use transform="matrix(0.05,0,0,0.05,27.950000000000003,0)" xlink:href="#bw"/><use transform="matrix(0.05,0,0,0.05,37.95,0)" xlink:href="#aT"/><use transform="matrix(0.05,0,0,0.05,47.95,0)" xlink:href="#aN"/><use transform="matrix(0.05,0,0,0.05,57.95,0)" xlink:href="#aO"/><use transform="matrix(0.05,0,0,0.05,61.900000000000006,0)" xlink:href="#aP"/></g><g id="w"><use transform="matrix(0.05,0,0,0.05,0,0)" xlink:href="#aJ"/><use transform="matrix(0.05,0,0,0.05,10,0)" xlink:href="#aH"/><use transform="matrix(0.05,0,0,0.05,19,0)" xlink:href="#aL"/><use transform="matrix(0.05,0,0,0.05,24,0)" xlink:href="#aO"/><use transform="matrix(0.05,0,0,0.05,27.950000000000003,0)" xlink:href="#bw"/><use transform="matrix(0.05,0,0,0.05,37.95,0)" xlink:href="#aT"/><use transform="matrix(0.05,0,0,0.05,47.95,0)" xlink:href="#aN"/><use transform="matrix(0.05,0,0,0.05,57.95,0)" xlink:href="#aT"/><use transform="matrix(0.05,0,0,0.05,67.95,0)" xlink:href="#aJ"/><use transform="matrix(0.05,0,0,0.05,77.95,0)" xlink:href="#aU"/><use transform="matrix(0.05,0,0,0.05,92.9,0)" xlink:href="#aM"/></g><path fill="#333" d="M169-182c-1-43-94-46-97-3 18 66 151 10 154 114 3 95-165 93-204 36-6-8-10-19-12-30l50-8c3 46 112 56 116 5-17-69-150-10-154-114-4-87 153-88 188-35 5 8 8 18 10 28" id="by"/><path fill="#333" d="M85 4C-2 5 27-109 22-190h50c7 57-23 150 33 157 60-5 35-97 40-157h50l1 190h-47c-2-12 1-28-3-38-12 25-28 42-61 42" id="bz"/><g id="x"><use transform="matrix(0.05,0,0,0.05,0,0)" xlink:href="#by"/><use transform="matrix(0.05,0,0,0.05,12,0)" xlink:href="#aE"/><use transform="matrix(0.05,0,0,0.05,17.95,0)" xlink:href="#aB"/><use transform="matrix(0.05,0,0,0.05,27.950000000000003,0)" xlink:href="#aE"/><use transform="matrix(0.05,0,0,0.05,33.9,0)" xlink:href="#bz"/><use transform="matrix(0.05,0,0,0.05,44.85,0)" xlink:href="#aG"/></g><path fill="#333" d="M135-143c-3-34-86-38-87 0 15 53 115 12 119 90S17 21 10-45l28-5c4 36 97 45 98 0-10-56-113-15-118-90-4-57 82-63 122-42 12 7 21 19 24 35" id="bA"/><path fill="#333" d="M84 4C-5 8 30-112 23-190h32v120c0 31 7 50 39 49 72-2 45-101 50-169h31l1 190h-30c-1-10 1-25-2-33-11 22-28 36-60 37" id="bB"/><g id="y"><use transform="matrix(0.05,0,0,0.05,0,0)" xlink:href="#bA"/><use transform="matrix(0.05,0,0,0.05,9,0)" xlink:href="#aL"/><use transform="matrix(0.05,0,0,0.05,14,0)" xlink:href="#aJ"/><use transform="matrix(0.05,0,0,0.05,24,0)" xlink:href="#aL"/><use transform="matrix(0.05,0,0,0.05,29,0)" xlink:href="#bB"/><use transform="matrix(0.05,0,0,0.05,39,0)" xlink:href="#bA"/><use transform="matrix(0.05,0,0,0.05,48,0)" xlink:href="#aN"/><use transform="matrix(0.05,0,0,0.05,58,0)" xlink:href="#aO"/><use transform="matrix(0.05,0,0,0.05,61.95,0)" xlink:href="#aP"/></g><g id="z"><use transform="matrix(0.05,0,0,0.05,0,0)" xlink:href="#bA"/><use transform="matrix(0.05,0,0,0.05,9,0)" xlink:href="#aL"/><use transform="matrix(0.05,0,0,0.05,14,0)" xlink:href="#aJ"/><use transform="matrix(0.05,0,0,0.05,24,0)" xlink:href="#aL"/><use transform="matrix(0.05,0,0,0.05,29,0)" xlink:href="#bB"/><use transform="matrix(0.05,0,0,0.05,39,0)" xlink:href="#bA"/><use transform="matrix(0.05,0,0,0.05,48,0)" xlink:href="#aN"/><use transform="matrix(0.05,0,0,0.05,58,0)" xlink:href="#aT"/><use transform="matrix(0.05,0,0,0.05,68,0)" xlink:href="#aJ"/><use transform="matrix(0.05,0,0,0.05,78,0)" xlink:href="#aU"/><use transform="matrix(0.05,0,0,0.05,92.95,0)" xlink:href="#aM"/></g><path fill="#333" d="M135-194c53 0 70 44 70 98 0 56-19 98-73 100-31 1-45-17-59-34 3 33 2 69 2 105H25l-1-265h48c2 10 0 23 3 31 11-24 29-35 60-35zM114-30c33 0 39-31 40-66 0-38-9-64-40-64-56 0-55 130 0 130" id="bC"/><g id="A"><use transform="matrix(0.05,0,0,0.05,0,0)" xlink:href="#bC"/><use transform="matrix(0.05,0,0,0.05,10.950000000000001,0)" xlink:href="#aC"/><use transform="matrix(0.05,0,0,0.05,17.950000000000003,0)" xlink:href="#bs"/><use transform="matrix(0.05,0,0,0.05,28.900000000000006,0)" xlink:href="#aD"/><use transform="matrix(0.05,0,0,0.05,38.900000000000006,0)" xlink:href="#aF"/><use transform="matrix(0.05,0,0,0.05,48.900000000000006,0)" xlink:href="#aG"/><use transform="matrix(0.05,0,0,0.05,58.900000000000006,0)" xlink:href="#aG"/></g><path fill="#333" d="M140-251c81 0 123 46 123 126C263-46 219 4 140 4 59 4 17-45 17-125s42-126 123-126zm0 227c63 0 89-41 89-101s-29-99-89-99c-61 0-89 39-89 99S79-25 140-24" id="bD"/><path fill="#333" d="M30-248c118-7 216 8 213 122C240-48 200 0 122 0H30v-248zM63-27c89 8 146-16 146-99s-60-101-146-95v194" id="bE"/><g id="B"><use transform="matrix(0.05,0,0,0.05,0,0)" xlink:href="#aQ"/><use transform="matrix(0.05,0,0,0.05,10.600000000000001,0)" xlink:href="#bD"/><use transform="matrix(0.05,0,0,0.05,24.6,0)" xlink:href="#bE"/><use transform="matrix(0.05,0,0,0.05,37.550000000000004,0)" xlink:href="#bD"/></g><path fill="#333" d="M33 0v-248h34V0H33" id="bF"/><path fill="#333" d="M190 0L58-211 59 0H30v-248h39L202-35l-2-213h31V0h-41" id="bG"/><path fill="#333" d="M143 4C61 4 22-44 18-125c-5-107 100-154 193-111 17 8 29 25 37 43l-32 9c-13-25-37-40-76-40-61 0-88 39-88 99 0 61 29 100 91 101 35 0 62-11 79-27v-45h-74v-28h105v86C228-13 192 4 143 4" id="bH"/><g id="C"><use transform="matrix(0.05,0,0,0.05,0,0)" xlink:href="#bE"/><use transform="matrix(0.05,0,0,0.05,12.950000000000001,0)" xlink:href="#bD"/><use transform="matrix(0.05,0,0,0.05,26.950000000000003,0)" xlink:href="#bF"/><use transform="matrix(0.05,0,0,0.05,31.950000000000003,0)" xlink:href="#bG"/><use transform="matrix(0.05,0,0,0.05,44.900000000000006,0)" xlink:href="#bH"/></g><path fill="#333" d="M30 0v-248h187v28H63v79h144v27H63v87h162V0H30" id="bI"/><g id="D"><use transform="matrix(0.05,0,0,0.05,0,0)" xlink:href="#bE"/><use transform="matrix(0.05,0,0,0.05,12.950000000000001,0)" xlink:href="#bD"/><use transform="matrix(0.05,0,0,0.05,26.950000000000003,0)" xlink:href="#bG"/><use transform="matrix(0.05,0,0,0.05,39.900000000000006,0)" xlink:href="#bI"/></g><path fill="#333" d="M240-174c0 40-23 61-54 70L253 0h-59l-57-94H76V0H24v-248c93 4 217-23 216 74zM76-134c48-2 112 12 112-38 0-48-66-32-112-35v73" id="bJ"/><path fill="#333" d="M25 0v-261h50V0H25" id="bK"/><g id="E"><use transform="matrix(0.05,0,0,0.05,0,0)" xlink:href="#bJ"/><use transform="matrix(0.05,0,0,0.05,12.950000000000001,0)" xlink:href="#aF"/><use transform="matrix(0.05,0,0,0.05,22.950000000000003,0)" xlink:href="#bK"/><use transform="matrix(0.05,0,0,0.05,27.950000000000003,0)" xlink:href="#aB"/><use transform="matrix(0.05,0,0,0.05,37.95,0)" xlink:href="#aE"/><use transform="matrix(0.05,0,0,0.05,43.900000000000006,0)" xlink:href="#bt"/><use transform="matrix(0.05,0,0,0.05,48.900000000000006,0)" xlink:href="#bs"/><use transform="matrix(0.05,0,0,0.05,59.85,0)" xlink:href="#bu"/><use transform="matrix(0.05,0,0,0.05,70.80000000000001,0)" xlink:href="#aG"/></g><g id="F"><use transform="matrix(0.05,0,0,0.05,0,0)" xlink:href="#aK"/><use transform="matrix(0.05,0,0,0.05,5.95,0)" xlink:href="#aM"/><use transform="matrix(0.05,0,0,0.05,15.949999999999998,0)" xlink:href="#bv"/><use transform="matrix(0.05,0,0,0.05,19.9,0)" xlink:href="#aJ"/><use transform="matrix(0.05,0,0,0.05,29.899999999999995,0)" xlink:href="#aL"/><use transform="matrix(0.05,0,0,0.05,34.9,0)" xlink:href="#aO"/><use transform="matrix(0.05,0,0,0.05,38.85,0)" xlink:href="#bw"/><use transform="matrix(0.05,0,0,0.05,48.85,0)" xlink:href="#aT"/><use transform="matrix(0.05,0,0,0.05,58.85,0)" xlink:href="#aN"/><use transform="matrix(0.05,0,0,0.05,68.85,0)" xlink:href="#aO"/><use transform="matrix(0.05,0,0,0.05,72.8,0)" xlink:href="#aP"/></g><g id="G"><use transform="matrix(0.05,0,0,0.05,0,0)" xlink:href="#aK"/><use transform="matrix(0.05,0,0,0.05,5.95,0)" xlink:href="#aM"/><use transform="matrix(0.05,0,0,0.05,15.949999999999998,0)" xlink:href="#bv"/><use transform="matrix(0.05,0,0,0.05,19.9,0)" xlink:href="#aJ"/><use transform="matrix(0.05,0,0,0.05,29.899999999999995,0)" xlink:href="#aL"/><use transform="matrix(0.05,0,0,0.05,34.9,0)" xlink:href="#aO"/><use transform="matrix(0.05,0,0,0.05,38.85,0)" xlink:href="#bw"/><use transform="matrix(0.05,0,0,0.05,48.85,0)" xlink:href="#aT"/><use transform="matrix(0.05,0,0,0.05,58.85,0)" xlink:href="#aN"/><use transform="matrix(0.05,0,0,0.05,68.85,0)" xlink:href="#aT"/><use transform="matrix(0.05,0,0,0.05,78.85,0)" xlink:href="#aJ"/><use transform="matrix(0.05,0,0,0.05,88.85,0)" xlink:href="#aU"/><use transform="matrix(0.05,0,0,0.05,103.80000000000001,0)" xlink:href="#aM"/></g><path fill="#333" d="M115-194c53 0 69 39 70 98 0 66-23 100-70 100C84 3 66-7 56-30L54 0H23l1-261h32v101c10-23 28-34 59-34zm-8 174c40 0 45-34 45-75 0-40-5-75-45-74-42 0-51 32-51 76 0 43 10 73 51 73" id="bL"/><path fill="#333" d="M24-231v-30h32v30H24zM-9 49c24 4 33-6 33-30v-209h32V24c2 40-23 58-65 49V49" id="bM"/><g id="H"><use transform="matrix(0.05,0,0,0.05,0,0)" xlink:href="#bA"/><use transform="matrix(0.05,0,0,0.05,9,0)" xlink:href="#bB"/><use transform="matrix(0.05,0,0,0.05,19,0)" xlink:href="#bL"/><use transform="matrix(0.05,0,0,0.05,29,0)" xlink:href="#bM"/><use transform="matrix(0.05,0,0,0.05,32.95,0)" xlink:href="#aM"/><use transform="matrix(0.05,0,0,0.05,42.95,0)" xlink:href="#aH"/><use transform="matrix(0.05,0,0,0.05,51.95,0)" xlink:href="#aL"/></g><g id="I"><use transform="matrix(0.05,0,0,0.05,0,0)" xlink:href="#aQ"/><use transform="matrix(0.05,0,0,0.05,9.950000000000001,0)" xlink:href="#aR"/><use transform="matrix(0.05,0,0,0.05,18.950000000000003,0)" xlink:href="#aS"/><use transform="matrix(0.05,0,0,0.05,28.950000000000003,0)" xlink:href="#aM"/></g><g id="J"><use transform="matrix(0.05,0,0,0.05,0,0)" xlink:href="#bw"/><use transform="matrix(0.05,0,0,0.05,10,0)" xlink:href="#bL"/><use transform="matrix(0.05,0,0,0.05,20,0)" xlink:href="#bM"/><use transform="matrix(0.05,0,0,0.05,23.95,0)" xlink:href="#aM"/><use transform="matrix(0.05,0,0,0.05,33.95,0)" xlink:href="#aH"/><use transform="matrix(0.05,0,0,0.05,42.95,0)" xlink:href="#aL"/></g><g id="K"><use transform="matrix(0.05,0,0,0.05,0,0)" xlink:href="#bx"/><use transform="matrix(0.05,0,0,0.05,12.950000000000001,0)" xlink:href="#aD"/><use transform="matrix(0.05,0,0,0.05,22.950000000000003,0)" xlink:href="#aE"/><use transform="matrix(0.05,0,0,0.05,28.900000000000002,0)" xlink:href="#bt"/><use transform="matrix(0.05,0,0,0.05,33.900000000000006,0)" xlink:href="#bs"/><use transform="matrix(0.05,0,0,0.05,44.85000000000001,0)" xlink:href="#bu"/><use transform="matrix(0.05,0,0,0.05,55.80000000000001,0)" xlink:href="#aG"/></g><g id="L"><use transform="matrix(0.05,0,0,0.05,0,0)" xlink:href="#aJ"/><use transform="matrix(0.05,0,0,0.05,10,0)" xlink:href="#aH"/><use transform="matrix(0.05,0,0,0.05,19,0)" xlink:href="#aL"/><use transform="matrix(0.05,0,0,0.05,24,0)" xlink:href="#aO"/><use transform="matrix(0.05,0,0,0.05,27.950000000000003,0)" xlink:href="#bw"/><use transform="matrix(0.05,0,0,0.05,37.95,0)" xlink:href="#aT"/></g><g id="M"><use transform="matrix(0.05,0,0,0.05,0,0)" xlink:href="#bv"/><use transform="matrix(0.05,0,0,0.05,3.95,0)" xlink:href="#bw"/><use transform="matrix(0.05,0,0,0.05,13.949999999999998,0)" xlink:href="#aH"/><use transform="matrix(0.05,0,0,0.05,22.95,0)" xlink:href="#aJ"/><use transform="matrix(0.05,0,0,0.05,32.95,0)" xlink:href="#aL"/><use transform="matrix(0.05,0,0,0.05,37.95,0)" xlink:href="#aO"/><use transform="matrix(0.05,0,0,0.05,41.900000000000006,0)" xlink:href="#bw"/><use transform="matrix(0.05,0,0,0.05,51.900000000000006,0)" xlink:href="#aT"/></g><g id="N"><use transform="matrix(0.05,0,0,0.05,0,0)" xlink:href="#bA"/><use transform="matrix(0.05,0,0,0.05,9,0)" xlink:href="#aL"/><use transform="matrix(0.05,0,0,0.05,14,0)" xlink:href="#aJ"/><use transform="matrix(0.05,0,0,0.05,24,0)" xlink:href="#aL"/><use transform="matrix(0.05,0,0,0.05,29,0)" xlink:href="#bB"/><use transform="matrix(0.05,0,0,0.05,39,0)" xlink:href="#bA"/></g><g id="O"><use transform="matrix(0.05,0,0,0.05,0,0)" xlink:href="#aS"/><use transform="matrix(0.05,0,0,0.05,10,0)" xlink:href="#aK"/><use transform="matrix(0.05,0,0,0.05,15.949999999999998,0)" xlink:href="#bw"/><use transform="matrix(0.05,0,0,0.05,25.950000000000003,0)" xlink:href="#aH"/><use transform="matrix(0.05,0,0,0.05,34.95,0)" xlink:href="#aM"/><use transform="matrix(0.05,0,0,0.05,44.95,0)" xlink:href="#bA"/><use transform="matrix(0.05,0,0,0.05,53.95,0)" xlink:href="#bA"/></g><path fill="#333" d="M230 0l2-204L168 0h-37L68-204 70 0H24v-248h70l56 185 57-185h69V0h-46" id="bN"/><path fill="#333" d="M128 0H69L1-190h53L99-40l48-150h52" id="bO"/><path fill="#333" d="M220-157c-53 9-28 100-34 157h-49v-107c1-27-5-49-29-50C55-147 81-57 75 0H25l-1-190h47c2 12-1 28 3 38 10-53 101-56 108 0 13-22 24-43 59-42 82 1 51 116 57 194h-49v-107c-1-25-5-48-29-50" id="bP"/><g id="P"><use transform="matrix(0.05,0,0,0.05,0,0)" xlink:href="#bN"/><use transform="matrix(0.05,0,0,0.05,14.950000000000001,0)" xlink:href="#bs"/><use transform="matrix(0.05,0,0,0.05,25.900000000000002,0)" xlink:href="#bO"/><use transform="matrix(0.05,0,0,0.05,35.900000000000006,0)" xlink:href="#aF"/><use transform="matrix(0.05,0,0,0.05,45.900000000000006,0)" xlink:href="#bP"/><use transform="matrix(0.05,0,0,0.05,61.900000000000006,0)" xlink:href="#aF"/><use transform="matrix(0.05,0,0,0.05,71.9,0)" xlink:href="#bu"/><use transform="matrix(0.05,0,0,0.05,82.85000000000001,0)" xlink:href="#aE"/><use transform="matrix(0.05,0,0,0.05,88.80000000000001,0)" xlink:href="#aG"/></g><path fill="#333" d="M108 0H70L1-190h34L89-25l56-165h34" id="bQ"/><g id="Q"><use transform="matrix(0.05,0,0,0.05,0,0)" xlink:href="#aU"/><use transform="matrix(0.05,0,0,0.05,14.950000000000001,0)" xlink:href="#bw"/><use transform="matrix(0.05,0,0,0.05,24.950000000000003,0)" xlink:href="#bQ"/><use transform="matrix(0.05,0,0,0.05,33.95,0)" xlink:href="#aM"/><use transform="matrix(0.05,0,0,0.05,43.95,0)" xlink:href="#aU"/><use transform="matrix(0.05,0,0,0.05,58.900000000000006,0)" xlink:href="#aM"/><use transform="matrix(0.05,0,0,0.05,68.9,0)" xlink:href="#aT"/><use transform="matrix(0.05,0,0,0.05,78.9,0)" xlink:href="#aL"/><use transform="matrix(0.05,0,0,0.05,83.9,0)" xlink:href="#aN"/><use transform="matrix(0.05,0,0,0.05,93.9,0)" xlink:href="#aO"/><use transform="matrix(0.05,0,0,0.05,97.85000000000001,0)" xlink:href="#aP"/></g><g id="R"><use transform="matrix(0.05,0,0,0.05,0,0)" xlink:href="#aH"/><use transform="matrix(0.05,0,0,0.05,9,0)" xlink:href="#aI"/><use transform="matrix(0.05,0,0,0.05,19,0)" xlink:href="#aJ"/><use transform="matrix(0.05,0,0,0.05,29,0)" xlink:href="#aK"/><use transform="matrix(0.05,0,0,0.05,34.95,0)" xlink:href="#aJ"/><use transform="matrix(0.05,0,0,0.05,44.95,0)" xlink:href="#aH"/><use transform="matrix(0.05,0,0,0.05,53.95,0)" xlink:href="#aL"/><use transform="matrix(0.05,0,0,0.05,58.95,0)" xlink:href="#aM"/><use transform="matrix(0.05,0,0,0.05,68.95,0)" xlink:href="#aK"/></g><path fill="#333" d="M177-190C167-65 218 103 67 71c-23-6-38-20-44-43l32-5c15 47 100 32 89-28v-30C133-14 115 1 83 1 29 1 15-40 15-95c0-56 16-97 71-98 29-1 48 16 59 35 1-10 0-23 2-32h30zM94-22c36 0 50-32 50-73 0-42-14-75-50-75-39 0-46 34-46 75s6 73 46 73" id="bR"/><g id="S"><use transform="matrix(0.05,0,0,0.05,0,0)" xlink:href="#bA"/><use transform="matrix(0.05,0,0,0.05,9,0)" xlink:href="#aL"/><use transform="matrix(0.05,0,0,0.05,14,0)" xlink:href="#aJ"/><use transform="matrix(0.05,0,0,0.05,24,0)" xlink:href="#aK"/><use transform="matrix(0.05,0,0,0.05,29.950000000000003,0)" xlink:href="#aL"/><use transform="matrix(0.05,0,0,0.05,34.95,0)" xlink:href="#aO"/><use transform="matrix(0.05,0,0,0.05,38.900000000000006,0)" xlink:href="#aT"/><use transform="matrix(0.05,0,0,0.05,48.900000000000006,0)" xlink:href="#bR"/><use transform="matrix(0.05,0,0,0.05,58.900000000000006,0)" xlink:href="#aN"/><use transform="matrix(0.05,0,0,0.05,68.9,0)" xlink:href="#bv"/><use transform="matrix(0.05,0,0,0.05,72.85000000000001,0)" xlink:href="#bw"/><use transform="matrix(0.05,0,0,0.05,82.85000000000001,0)" xlink:href="#aH"/><use transform="matrix(0.05,0,0,0.05,91.85000000000001,0)" xlink:href="#aJ"/><use transform="matrix(0.05,0,0,0.05,101.85000000000001,0)" xlink:href="#aL"/><use transform="matrix(0.05,0,0,0.05,106.85000000000001,0)" xlink:href="#aO"/><use transform="matrix(0.05,0,0,0.05,110.80000000000001,0)" xlink:href="#bw"/><use transform="matrix(0.05,0,0,0.05,120.80000000000001,0)" xlink:href="#aT"/></g><g id="T"><use transform="matrix(0.05,0,0,0.05,0,0)" xlink:href="#aP"/><use transform="matrix(0.05,0,0,0.05,10,0)" xlink:href="#aM"/><use transform="matrix(0.05,0,0,0.05,20,0)" xlink:href="#bA"/><use transform="matrix(0.05,0,0,0.05,29,0)" xlink:href="#aL"/><use transform="matrix(0.05,0,0,0.05,34,0)" xlink:href="#aO"/><use transform="matrix(0.05,0,0,0.05,37.95,0)" xlink:href="#aT"/><use transform="matrix(0.05,0,0,0.05,47.95,0)" xlink:href="#aJ"/><use transform="matrix(0.05,0,0,0.05,57.95,0)" xlink:href="#aL"/><use transform="matrix(0.05,0,0,0.05,62.95,0)" xlink:href="#aO"/><use transform="matrix(0.05,0,0,0.05,66.9,0)" xlink:href="#bw"/><use transform="matrix(0.05,0,0,0.05,76.9,0)" xlink:href="#aT"/><use transform="matrix(0.05,0,0,0.05,86.9,0)" xlink:href="#aN"/><use transform="matrix(0.05,0,0,0.05,96.9,0)" xlink:href="#bv"/><use transform="matrix(0.05,0,0,0.05,100.85000000000001,0)" xlink:href="#bw"/><use transform="matrix(0.05,0,0,0.05,110.85000000000001,0)" xlink:href="#aH"/><use transform="matrix(0.05,0,0,0.05,119.85000000000001,0)" xlink:href="#aJ"/><use transform="matrix(0.05,0,0,0.05,129.85000000000002,0)" xlink:href="#aL"/><use transform="matrix(0.05,0,0,0.05,134.85000000000002,0)" xlink:href="#aO"/><use transform="matrix(0.05,0,0,0.05,138.8,0)" xlink:href="#bw"/><use transform="matrix(0.05,0,0,0.05,148.8,0)" xlink:href="#aT"/></g></defs></g></svg>